<?xml version="1.0" encoding="iso-8859-1"?>
<!-- Generator: Adobe Illustrator 19.0.0, SVG Export Plug-In . SVG Version: 6.00 Build 0)  -->
<svg version="1.1" id="Layer_1" xmlns="http://www.w3.org/2000/svg" xmlns:xlink="http://www.w3.org/1999/xlink" x="0px" y="0px"
	 viewBox="0 0 512 512" style="enable-background:new 0 0 512 512;" xml:space="preserve">
<path style="fill:#FFD796;" d="M247.018,260.491v80.842c0,37.702-12.355,56.237-25.438,75.86
	c-13.991,20.982-28.456,42.684-28.456,85.824c0,4.965,4.022,8.982,8.982,8.982c4.961,0,8.982-4.017,8.982-8.982
	c0-37.702,12.355-56.237,25.438-75.86c13.991-20.982,28.456-42.684,28.456-85.824v-80.842H247.018z"/>
<rect x="247.018" y="260.491" style="fill:#F0C882;" width="17.965" height="26.947"/>
<g>
	<path style="fill:#E15050;" d="M256,331.724v-20.959l-49.083-16.362c-6.786-2.262-13.794,2.789-13.794,9.941v33.798
		c0,7.153,7.007,12.204,13.794,9.941L256,331.724z"/>
	<path style="fill:#E15050;" d="M256,331.724v-20.959l49.083-16.362c6.786-2.262,13.794,2.789,13.794,9.941v33.798
		c0,7.153-7.007,12.204-13.794,9.941L256,331.724z"/>
</g>
<path style="fill:#D24146;" d="M262.41,336.965h-13.474c-4.961,0-8.982-4.022-8.982-8.982v-13.474c0-4.961,4.022-8.982,8.982-8.982
	h13.474c4.961,0,8.982,4.022,8.982,8.982v13.474C271.393,332.943,267.372,336.965,262.41,336.965z"/>
<path style="fill:#FFC855;" d="M256,0c64.492,0,116.772,52.28,116.772,116.772c0,78.596-52.28,152.702-116.772,152.702
	s-116.772-74.105-116.772-152.702C139.228,52.28,191.508,0,256,0z"/>
<path style="fill:#FFB44B;" d="M193.123,116.772c0-58.566,34.861-106.919,80.269-115.337C267.703,0.583,261.926,0,256,0
	c-64.492,0-116.772,52.281-116.772,116.772c0,78.596,52.281,152.702,116.772,152.702c5.926,0,11.703-0.823,17.391-2.021
	C227.983,255.618,193.123,188.147,193.123,116.772z"/>
<g>
	<path style="fill:#E15050;" d="M211.088,125.754c-4.961,0-8.982-4.017-8.982-8.982v-8.982c0-4.965,4.022-8.982,8.982-8.982
		s8.982,4.017,8.982,8.982v8.982C220.07,121.737,216.048,125.754,211.088,125.754z"/>
	<path style="fill:#E15050;" d="M300.912,125.754c-4.961,0-8.982-4.017-8.982-8.982v-8.982c0-4.965,4.022-8.982,8.982-8.982
		c4.961,0,8.982,4.017,8.982,8.982v8.982C309.895,121.737,305.873,125.754,300.912,125.754z"/>
	<path style="fill:#E15050;" d="M316.245,164.316l-8.982-8.982c-3.509-3.509-9.194-3.509-12.702,0
		c-3.303,3.303-3.379,8.477-0.461,12.006c-8.163,13.197-22.36,21.292-38.099,21.292c-15.743,0-29.94-8.095-38.1-21.291
		c2.918-3.529,2.843-8.704-0.461-12.007c-3.509-3.509-9.194-3.509-12.702,0l-8.982,8.982c-3.509,3.509-3.509,9.194,0,12.702
		c1.755,1.755,4.052,2.632,6.351,2.632c0.682,0,1.337-0.236,2.006-0.391c11.628,17.045,30.812,27.337,51.889,27.337
		c21.072,0,40.255-10.291,51.884-27.339c0.67,0.156,1.327,0.392,2.011,0.392c2.298,0,4.597-0.877,6.351-2.632
		C319.754,173.508,319.754,167.825,316.245,164.316z"/>
</g>
<path style="fill:#FFD680;" d="M341.601,161.684c-0.688,0-1.386-0.079-2.083-0.246c-4.825-1.141-7.811-5.982-6.667-10.807
	c2.65-11.157,3.992-22.553,3.992-33.859c0-14.201-3.75-28.176-10.846-40.403c-2.487-4.289-1.026-9.79,3.267-12.281
	c4.277-2.508,9.781-1.026,12.277,3.263c8.679,14.974,13.267,32.062,13.267,49.421c0,12.702-1.505,25.491-4.473,38
	C349.351,158.903,345.666,161.684,341.601,161.684z"/>
<path style="fill:#FFDE99;" d="M309.837,53.904c-1.877,0-3.772-0.587-5.391-1.807c-4.974-3.737-10.399-6.912-16.127-9.421
	c-4.54-2-6.605-7.298-4.609-11.842c1.996-4.544,7.294-6.579,11.838-4.614c6.987,3.07,13.614,6.948,19.697,11.527
	c3.965,2.973,4.763,8.605,1.781,12.57C315.258,52.666,312.566,53.904,309.837,53.904z"/>
<g>
</g>
<g>
</g>
<g>
</g>
<g>
</g>
<g>
</g>
<g>
</g>
<g>
</g>
<g>
</g>
<g>
</g>
<g>
</g>
<g>
</g>
<g>
</g>
<g>
</g>
<g>
</g>
<g>
</g>
</svg>
