<?xml version="1.0" encoding="iso-8859-1"?>
<!-- Generator: Adobe Illustrator 19.0.0, SVG Export Plug-In . SVG Version: 6.00 Build 0)  -->
<svg version="1.1" id="Layer_1" xmlns="http://www.w3.org/2000/svg" xmlns:xlink="http://www.w3.org/1999/xlink" x="0px" y="0px"
	 viewBox="0 0 512 512" style="enable-background:new 0 0 512 512;" xml:space="preserve">
<g>
	<rect x="247.172" y="247.172" style="fill:#F0913C;" width="17.655" height="35.31"/>
	<rect x="247.172" y="176.552" style="fill:#F0913C;" width="17.655" height="35.31"/>
</g>
<path style="fill:#00D2B9;" d="M246.765,185.379c-4.714,0-8.596-3.703-8.818-8.412l-7.11-150.553C230.12,12.045,241.577,0,255.965,0
	h0.07c14.388,0,25.846,12.045,25.128,26.415l-7.109,150.553c-0.222,4.708-4.105,8.412-8.818,8.412h-18.47V185.379z"/>
<circle style="fill:#FFA046;" cx="256" cy="476.69" r="35.31"/>
<path style="fill:#F0913C;" d="M247.172,476.69c0-14.812,9.139-27.448,22.069-32.692c-4.095-1.661-8.552-2.618-13.241-2.618
	c-19.501,0-35.31,15.809-35.31,35.31c0,19.501,15.809,35.31,35.31,35.31c4.69,0,9.146-0.958,13.241-2.618
	C256.311,504.138,247.172,491.5,247.172,476.69z"/>
<path style="fill:#FFC855;" d="M361.931,467.862H150.069l0,0c17.212-17.212,28.527-39.434,32.324-63.477l12.383-78.425
	c4.756-30.121,30.718-52.305,61.212-52.305h0.025c30.494,0,56.456,22.184,61.212,52.305l12.383,78.425
	C333.404,428.428,344.719,450.65,361.931,467.862L361.931,467.862z"/>
<g>
	<path style="fill:#FFB44B;" d="M245.393,325.96c2.743-23.168,14.913-41.593,30.785-48.887c-6.35-2.188-13.127-3.417-20.164-3.417
		h-0.025c-30.494,0-56.456,22.184-61.212,52.305l-12.383,78.425c-3.797,24.043-15.113,46.265-32.324,63.477h61.793
		c12.909-17.212,21.396-39.434,24.243-63.477L245.393,325.96z"/>
	<path style="fill:#FFB44B;" d="M357.517,485.517H154.483c-7.313,0-13.241-5.929-13.241-13.241l0,0
		c0-7.313,5.929-13.241,13.241-13.241h203.034c7.313,0,13.241,5.929,13.241,13.241l0,0
		C370.759,479.588,364.83,485.517,357.517,485.517z"/>
</g>
<path style="fill:#FFA046;" d="M203.034,472.276c0-7.313,5.929-13.241,13.241-13.241h-61.793c-7.313,0-13.241,5.929-13.241,13.241
	c0,7.313,5.929,13.241,13.241,13.241h61.793C208.963,485.517,203.034,479.588,203.034,472.276z"/>
<path style="fill:#FFC855;" d="M256.001,256.003c-14.603,0-26.483-11.88-26.483-26.483s11.88-26.483,26.483-26.483
	c14.603,0,26.483,11.88,26.483,26.483S270.605,256.003,256.001,256.003z M256.001,220.693c-4.866,0-8.828,3.957-8.828,8.828
	s3.961,8.828,8.828,8.828c4.866,0,8.828-3.957,8.828-8.828S260.867,220.693,256.001,220.693z"/>
<path style="fill:#00BEA9;" d="M256.892,176.968l-7.109-150.553c-0.551-11.021,6.088-20.62,15.69-24.521
	C262.554,0.71,259.388,0,256.035,0h-0.07c-14.388,0-25.845,12.045-25.127,26.414l7.11,150.553c0.222,4.708,4.104,8.412,8.818,8.412
	h18.468c0.084,0,0.154-0.044,0.237-0.046C260.873,185.204,257.11,181.592,256.892,176.968z"/>
<g>
</g>
<g>
</g>
<g>
</g>
<g>
</g>
<g>
</g>
<g>
</g>
<g>
</g>
<g>
</g>
<g>
</g>
<g>
</g>
<g>
</g>
<g>
</g>
<g>
</g>
<g>
</g>
<g>
</g>
</svg>
