<?xml version="1.0" encoding="iso-8859-1"?>
<!-- Generator: Adobe Illustrator 19.0.0, SVG Export Plug-In . SVG Version: 6.00 Build 0)  -->
<svg version="1.1" id="Layer_1" xmlns="http://www.w3.org/2000/svg" xmlns:xlink="http://www.w3.org/1999/xlink" x="0px" y="0px"
	 viewBox="0 0 512 512" style="enable-background:new 0 0 512 512;" xml:space="preserve">
<path style="fill:#DC7850;" d="M175.861,97.956l300.23-34.031c11.448-1.297,21.319-8.638,25.858-19.228l8.604-20.075
	c4.996-11.655-3.555-24.622-16.237-24.622H88.323C39.543,0.001,0,39.544,0,88.323v405.993c0,12.682,12.967,21.232,24.623,16.236
	l20.079-8.605c10.587-4.538,17.926-14.405,19.227-25.85l34.12-300.35C102.695,134.855,134.967,102.591,175.861,97.956z"/>
<g>
	<polygon style="fill:#FFD796;" points="309.13,82.851 353.292,77.844 353.292,0.001 309.13,0.001 	"/>
	<polygon style="fill:#FFD796;" points="0,353.292 77.88,353.292 82.897,309.131 0,309.131 	"/>
</g>
<path style="fill:#C85A46;" d="M0,353.292v141.024c0,12.681,12.967,21.232,24.623,16.236l20.079-8.605
	c10.587-4.536,17.926-14.404,19.227-25.85L77.88,353.292H0z"/>
<polygon style="fill:#DC7850;" points="68.85,432.783 0,432.783 0,450.447 66.843,450.447 "/>
<path style="fill:#C85A46;" d="M353.292,0.001h141.024c12.681,0,21.232,12.967,16.236,24.623l-8.605,20.079
	c-4.536,10.587-14.404,17.926-25.85,19.227L353.292,77.88V0.001z"/>
<g>
	<polygon style="fill:#DC7850;" points="432.782,68.85 432.782,0.001 450.447,0.001 450.447,66.843 	"/>
	<path style="fill:#DC7850;" d="M52.994,397.453c0-9.756-7.908-17.665-17.665-17.665s-17.665,7.908-17.665,17.665H0v17.665h70.856
		l2.007-17.665H52.994z"/>
	<path style="fill:#DC7850;" d="M397.453,0.001v17.665c-9.756,0-17.665,7.908-17.665,17.665s7.908,17.665,17.665,17.665v19.869
		l17.665-2.007V0.001H397.453z"/>
</g>
<g>
</g>
<g>
</g>
<g>
</g>
<g>
</g>
<g>
</g>
<g>
</g>
<g>
</g>
<g>
</g>
<g>
</g>
<g>
</g>
<g>
</g>
<g>
</g>
<g>
</g>
<g>
</g>
<g>
</g>
</svg>
