<?xml version="1.0" encoding="iso-8859-1"?>
<!-- Generator: Adobe Illustrator 19.0.0, SVG Export Plug-In . SVG Version: 6.00 Build 0)  -->
<svg version="1.1" id="Layer_1" xmlns="http://www.w3.org/2000/svg" xmlns:xlink="http://www.w3.org/1999/xlink" x="0px" y="0px"
	 viewBox="0 0 512 512" style="enable-background:new 0 0 512 512;" xml:space="preserve">
<path style="fill:#8C5F56;" d="M256,158.897c-29.252,0-52.966-23.713-52.966-52.966C203.034,61.241,256,0,256,0
	s52.966,61.241,52.966,105.931C308.966,135.183,285.252,158.897,256,158.897z"/>
<path style="fill:#734B46;" d="M239.448,105.931C239.448,61.241,256,0,256,0s-52.966,61.241-52.966,105.931
	c0,29.252,23.713,52.966,52.966,52.966C246.859,158.897,239.448,135.183,239.448,105.931z"/>
<g>
	<path style="fill:#AFB9D2;" d="M273.655,150.069h-35.31c-4.875,0-8.828,3.953-8.828,8.828l0,0c0,4.875,3.953,8.828,8.828,8.828
		h35.31c4.875,0,8.828-3.953,8.828-8.828l0,0C282.483,154.022,278.53,150.069,273.655,150.069z"/>
	<polygon style="fill:#AFB9D2;" points="282.483,282.483 229.517,282.483 238.345,167.724 273.655,167.724 	"/>
</g>
<path style="fill:#959CB3;" d="M251.954,158.897c0,4.876,3.953,8.828,8.828,8.828h-22.436c-4.875,0-8.828-3.951-8.828-8.828
	s3.953-8.828,8.828-8.828h22.436C255.906,150.069,251.954,154.02,251.954,158.897z"/>
<path style="fill:#FFC855;" d="M256,512h-0.001c-23.808,0-42.578-20.268-40.751-44.007l14.27-185.511H256h26.483l14.27,185.511
	C298.579,491.732,279.81,512,256.001,512H256z"/>
<polygon style="fill:#C7CFE2;" points="273.655,167.724 282.483,282.483 256,282.483 260.781,167.724 "/>
<path style="fill:#FFAF4B;" d="M270.873,509.05c-4.618,1.814-9.587,2.95-14.871,2.95H256h-0.001
	c-23.808,0-42.577-20.268-40.751-44.007l14.27-185.511H256l-11.008,185.511C243.572,486.463,254.685,502.694,270.873,509.05z"/>
<path style="fill:#AFB9D2;" d="M282.483,282.482h-52.966c-4.875,0-8.828,3.953-8.828,8.828l0,0c0,4.875,3.953,8.828,8.828,8.828
	h52.966c4.875,0,8.828-3.953,8.828-8.828l0,0C291.31,286.434,287.358,282.482,282.483,282.482z"/>
<path style="fill:#959CB3;" d="M247.172,291.31c0,4.876,3.953,8.828,8.828,8.828h-26.483c-4.875,0-8.828-3.951-8.828-8.828
	c0-4.876,3.953-8.828,8.828-8.828H256C251.125,282.483,247.172,286.434,247.172,291.31z"/>
<g>
</g>
<g>
</g>
<g>
</g>
<g>
</g>
<g>
</g>
<g>
</g>
<g>
</g>
<g>
</g>
<g>
</g>
<g>
</g>
<g>
</g>
<g>
</g>
<g>
</g>
<g>
</g>
<g>
</g>
</svg>
