<?xml version="1.0" encoding="iso-8859-1"?>
<!-- Generator: Adobe Illustrator 19.0.0, SVG Export Plug-In . SVG Version: 6.00 Build 0)  -->
<svg version="1.1" id="Layer_1" xmlns="http://www.w3.org/2000/svg" xmlns:xlink="http://www.w3.org/1999/xlink" x="0px" y="0px"
	 viewBox="0 0 512 512" style="enable-background:new 0 0 512 512;" xml:space="preserve">
<g>
	<path style="fill:#B97850;" d="M180.655,512h-12.931c-4.875,0-8.828-3.953-8.828-8.828v-17.655h44.138L188,508.069
		C186.362,510.525,183.606,512,180.655,512z"/>
	<path style="fill:#B97850;" d="M331.345,512h12.931c4.875,0,8.828-3.953,8.828-8.828v-17.655h-44.138L324,508.069
		C325.638,510.525,328.394,512,331.345,512z"/>
</g>
<path style="fill:#FFE678;" d="M353.103,494.345H158.897c-9.751,0-17.655-7.904-17.655-17.655V8.828h229.517V476.69
	C370.759,486.441,362.855,494.345,353.103,494.345z"/>
<g>
	<circle style="fill:#FFAA4B;" cx="216.276" cy="260.414" r="13.241"/>
	<circle style="fill:#FFAA4B;" cx="295.724" cy="260.414" r="13.241"/>
	<path style="fill:#FFAA4B;" d="M370.759,17.655H141.241c-4.875,0-8.828-3.953-8.828-8.828l0,0c0-4.875,3.953-8.828,8.828-8.828
		h229.517c4.875,0,8.828,3.953,8.828,8.828l0,0C379.586,13.703,375.634,17.655,370.759,17.655z"/>
</g>
<polygon style="fill:#FFC855;" points="141.241,17.655 141.241,44.138 247.172,44.138 247.172,494.345 264.828,494.345 
	264.828,44.138 370.759,44.138 370.759,17.655 "/>
<g>
</g>
<g>
</g>
<g>
</g>
<g>
</g>
<g>
</g>
<g>
</g>
<g>
</g>
<g>
</g>
<g>
</g>
<g>
</g>
<g>
</g>
<g>
</g>
<g>
</g>
<g>
</g>
<g>
</g>
</svg>
