<?xml version="1.0" encoding="iso-8859-1"?>
<!-- Generator: Adobe Illustrator 19.0.0, SVG Export Plug-In . SVG Version: 6.00 Build 0)  -->
<svg version="1.1" id="Layer_1" xmlns="http://www.w3.org/2000/svg" xmlns:xlink="http://www.w3.org/1999/xlink" x="0px" y="0px"
	 viewBox="0 0 512 512" style="enable-background:new 0 0 512 512;" xml:space="preserve">
<rect x="459.034" y="220.69" style="fill:#FFAA4B;" width="35.31" height="26.483"/>
<path style="fill:#FFC855;" d="M485.517,256h17.655c4.875,0,8.828-3.953,8.828-8.828v-52.966c0-4.875-3.953-8.828-8.828-8.828
	h-17.655c-4.875,0-8.828,3.953-8.828,8.828v52.966C476.69,252.047,480.642,256,485.517,256z"/>
<rect x="17.655" y="220.69" style="fill:#FFAA4B;" width="35.31" height="26.483"/>
<polygon style="fill:#AAE1FF;" points="467.862,291.31 44.138,291.31 72.092,79.448 439.908,79.448 "/>
<rect x="79.448" y="79.448" style="fill:#8CD2FF;" width="353.103" height="26.483"/>
<path style="fill:#D24146;" d="M443.456,58.048c-1.864-13.047-13.037-22.738-26.216-22.738H94.76
	c-13.18,0-24.353,9.69-26.217,22.738L35.401,290.06l17.474,2.5l27.016-189.127c1.242-8.697,8.692-15.158,17.478-15.158h140.977
	c4.875,0,8.828,3.953,8.828,8.828V291.31h17.655V97.103c0-4.875,3.953-8.828,8.828-8.828h140.977
	c8.786,0,16.235,6.461,17.478,15.158l27.016,189.127l17.474-2.5L443.456,58.048z"/>
<path style="fill:#A5694B;" d="M467.862,476.69h-35.31c-9.751,0-17.655-7.904-17.655-17.655v-44.138h70.621v44.138
	C485.517,468.786,477.613,476.69,467.862,476.69z"/>
<rect x="414.897" y="423.724" style="fill:#925F4A;" width="70.621" height="17.655"/>
<path style="fill:#A5694B;" d="M79.448,476.69h-35.31c-9.751,0-17.655-7.904-17.655-17.655v-44.138h70.621v44.138
	C97.103,468.786,89.199,476.69,79.448,476.69z"/>
<path style="fill:#E15050;" d="M485.517,423.724H26.483C11.857,423.724,0,411.868,0,397.241v-88.276
	c0-14.626,11.857-26.483,26.483-26.483h459.034c14.626,0,26.483,11.857,26.483,26.483v88.276
	C512,411.868,500.143,423.724,485.517,423.724z"/>
<path style="fill:#FFC855;" d="M26.483,256H8.828C3.953,256,0,252.047,0,247.172v-52.966c0-4.875,3.953-8.828,8.828-8.828h17.655
	c4.875,0,8.828,3.953,8.828,8.828v52.966C35.31,252.047,31.358,256,26.483,256z"/>
<path style="fill:#553732;" d="M361.931,388.414H150.069c-9.751,0-17.655-7.904-17.655-17.655v-35.31
	c0-9.751,7.904-17.655,17.655-17.655h211.862c9.751,0,17.655,7.904,17.655,17.655v35.31
	C379.586,380.51,371.682,388.414,361.931,388.414z"/>
<rect x="26.483" y="423.724" style="fill:#925F4A;" width="70.621" height="17.655"/>
<path style="fill:#D24146;" d="M79.448,406.069H61.793c-9.751,0-17.655-7.904-17.655-17.655v-44.138h52.966v44.138
	C97.103,398.165,89.199,406.069,79.448,406.069z"/>
<circle style="fill:#FFE678;" cx="70.621" cy="344.276" r="35.31"/>
<path style="fill:#FFC855;" d="M61.793,344.276c0-14.812,9.139-27.448,22.069-32.692c-4.095-1.661-8.552-2.618-13.241-2.618
	c-19.501,0-35.31,15.809-35.31,35.31c0,19.501,15.809,35.31,35.31,35.31c4.69,0,9.146-0.958,13.241-2.618
	C70.932,371.724,61.793,359.086,61.793,344.276z"/>
<path style="fill:#D24146;" d="M450.207,406.069h-17.655c-9.751,0-17.655-7.904-17.655-17.655v-44.138h52.966v44.138
	C467.862,398.165,459.958,406.069,450.207,406.069z"/>
<circle style="fill:#FFE678;" cx="441.379" cy="344.276" r="35.31"/>
<path style="fill:#FFC855;" d="M432.552,344.276c0-14.812,9.139-27.448,22.069-32.692c-4.095-1.661-8.552-2.618-13.241-2.618
	c-19.501,0-35.31,15.809-35.31,35.31c0,19.501,15.809,35.31,35.31,35.31c4.69,0,9.146-0.958,13.241-2.618
	C441.69,371.724,432.552,359.086,432.552,344.276z"/>
<path style="fill:#D24146;" d="M264.828,370.759h-17.655c-9.751,0-17.655-7.904-17.655-17.655l0,0
	c0-9.751,7.904-17.655,17.655-17.655h17.655c9.751,0,17.655,7.904,17.655,17.655l0,0
	C282.483,362.855,274.579,370.759,264.828,370.759z"/>
<g>
</g>
<g>
</g>
<g>
</g>
<g>
</g>
<g>
</g>
<g>
</g>
<g>
</g>
<g>
</g>
<g>
</g>
<g>
</g>
<g>
</g>
<g>
</g>
<g>
</g>
<g>
</g>
<g>
</g>
</svg>
