<?xml version="1.0" encoding="iso-8859-1"?>
<!-- Generator: Adobe Illustrator 19.0.0, SVG Export Plug-In . SVG Version: 6.00 Build 0)  -->
<svg version="1.1" id="Layer_1" xmlns="http://www.w3.org/2000/svg" xmlns:xlink="http://www.w3.org/1999/xlink" x="0px" y="0px"
	 viewBox="0 0 512 512" style="enable-background:new 0 0 512 512;" xml:space="preserve">
<path style="fill:#FFAF4B;" d="M264.828,512h-17.655c-4.875,0-8.828-3.953-8.828-8.828V397.241h35.31v105.931
	C273.655,508.047,269.703,512,264.828,512z"/>
<path style="fill:#FFC855;" d="M388.414,0H123.586C108.96,0,97.103,11.857,97.103,26.483v476.69c0,4.875,3.953,8.828,8.828,8.828
	h17.655c4.875,0,8.828-3.953,8.828-8.828v-44.138h247.172v44.138c0,4.875,3.953,8.828,8.828,8.828h17.655
	c4.875,0,8.828-3.953,8.828-8.828V26.483C414.897,11.857,403.04,0,388.414,0z M132.414,441.379v-26.483
	c0-4.875,3.953-8.828,8.828-8.828h229.517c4.875,0,8.828,3.953,8.828,8.828v26.483H132.414z"/>
<path style="fill:#FFE6A1;" d="M141.241,35.31h229.517c4.875,0,8.828,3.953,8.828,8.828v317.793c0,4.875-3.953,8.828-8.828,8.828
	H141.241c-4.875,0-8.828-3.953-8.828-8.828V44.138C132.414,39.263,136.366,35.31,141.241,35.31z"/>
<path style="fill:#E15050;" d="M256,182.703l-34.723,18.255c-3.239,1.703-7.022-1.047-6.404-4.653l6.632-38.665l-28.092-27.383
	c-2.62-2.553-1.174-7.002,2.446-7.529l38.823-5.641l17.362-35.179c1.619-3.281,6.297-3.281,7.916,0l17.362,35.179l38.823,5.641
	c3.62,0.526,5.066,4.975,2.446,7.529l-28.092,27.383l6.632,38.665c0.618,3.606-3.166,6.355-6.404,4.653L256,182.703z"/>
<path style="fill:#D24146;" d="M242.377,163.604l-19.122-25.372c-1.783-2.366-0.799-6.487,1.665-6.975l26.424-5.227l12.455-36.339
	l-3.841-7.784c-1.619-3.281-6.297-3.281-7.916,0l-17.362,35.179l-38.823,5.641c-3.62,0.526-5.066,4.975-2.446,7.529l28.092,27.383
	l-6.632,38.666c-0.619,3.606,3.166,6.356,6.404,4.653l17.557-9.23L242.377,163.604z"/>
<path style="fill:#00D2B9;" d="M220.69,264.828h-17.655c-4.875,0-8.828-3.953-8.828-8.828l0,0c0-4.875,3.953-8.828,8.828-8.828
	h17.655c4.875,0,8.828,3.953,8.828,8.828l0,0C229.517,260.875,225.565,264.828,220.69,264.828z"/>
<path style="fill:#8CD2FF;" d="M308.966,264.828H256c-4.875,0-8.828-3.953-8.828-8.828l0,0c0-4.875,3.953-8.828,8.828-8.828h52.966
	c4.875,0,8.828,3.953,8.828,8.828l0,0C317.793,260.875,313.841,264.828,308.966,264.828z"/>
<path style="fill:#E15050;" d="M291.31,317.793h17.655c4.875,0,8.828,3.953,8.828,8.828l0,0c0,4.875-3.953,8.828-8.828,8.828H291.31
	c-4.875,0-8.828-3.953-8.828-8.828l0,0C282.483,321.746,286.435,317.793,291.31,317.793z"/>
<path style="fill:#8CD2FF;" d="M203.034,317.793H256c4.875,0,8.828,3.953,8.828,8.828l0,0c0,4.875-3.953,8.828-8.828,8.828h-52.966
	c-4.875,0-8.828-3.953-8.828-8.828l0,0C194.207,321.746,198.159,317.793,203.034,317.793z"/>
<path style="fill:#E15050;" d="M194.207,300.138h-17.655c-4.875,0-8.828-3.953-8.828-8.828l0,0c0-4.875,3.953-8.828,8.828-8.828
	h17.655c4.875,0,8.828,3.953,8.828,8.828l0,0C203.034,296.185,199.082,300.138,194.207,300.138z"/>
<path style="fill:#00D2B9;" d="M335.448,300.138h-35.31c-4.875,0-8.828-3.953-8.828-8.828l0,0c0-4.875,3.953-8.828,8.828-8.828
	h35.31c4.875,0,8.828,3.953,8.828,8.828l0,0C344.276,296.185,340.323,300.138,335.448,300.138z"/>
<path style="fill:#FFC855;" d="M264.828,300.138h-35.31c-4.875,0-8.828-3.953-8.828-8.828l0,0c0-4.875,3.953-8.828,8.828-8.828
	h35.31c4.875,0,8.828,3.953,8.828,8.828l0,0C273.655,296.185,269.703,300.138,264.828,300.138z"/>
<g>
</g>
<g>
</g>
<g>
</g>
<g>
</g>
<g>
</g>
<g>
</g>
<g>
</g>
<g>
</g>
<g>
</g>
<g>
</g>
<g>
</g>
<g>
</g>
<g>
</g>
<g>
</g>
<g>
</g>
</svg>
