<?xml version="1.0" encoding="iso-8859-1"?>
<!-- Generator: Adobe Illustrator 19.0.0, SVG Export Plug-In . SVG Version: 6.00 Build 0)  -->
<svg version="1.1" id="Layer_1" xmlns="http://www.w3.org/2000/svg" xmlns:xlink="http://www.w3.org/1999/xlink" x="0px" y="0px"
	 viewBox="0 0 512 512" style="enable-background:new 0 0 512 512;" xml:space="preserve">
<path style="fill:#8CD2FF;" d="M379.586,512H132.414c-14.626,0-26.483-11.857-26.483-26.483V26.483
	C105.931,11.857,117.788,0,132.414,0h247.172c14.626,0,26.483,11.857,26.483,26.483v459.034
	C406.069,500.143,394.212,512,379.586,512z"/>
<path style="fill:#69BEFF;" d="M361.931,264.828H150.069c-4.875,0-8.828-3.953-8.828-8.828V44.138c0-4.875,3.953-8.828,8.828-8.828
	h211.862c4.875,0,8.828,3.953,8.828,8.828V256C370.759,260.875,366.806,264.828,361.931,264.828z"/>
<g>
	<rect x="158.897" y="52.966" style="fill:#FFC855;" width="194.207" height="194.207"/>
	<circle style="fill:#FFC855;" cx="194.207" cy="353.103" r="52.966"/>
</g>
<path style="fill:#69BEFF;" d="M220.69,344.276h-17.655v-17.655c0-4.875-3.953-8.828-8.828-8.828l0,0
	c-4.875,0-8.828,3.953-8.828,8.828v17.655h-17.655c-4.875,0-8.828,3.953-8.828,8.828l0,0c0,4.875,3.953,8.828,8.828,8.828h17.655
	v17.655c0,4.875,3.953,8.828,8.828,8.828l0,0c4.875,0,8.828-3.953,8.828-8.828v-17.655h17.655c4.875,0,8.828-3.953,8.828-8.828l0,0
	C229.517,348.228,225.565,344.276,220.69,344.276z"/>
<g>
	<circle style="fill:#FFC855;" cx="300.138" cy="326.621" r="17.655"/>
	<circle style="fill:#FFC855;" cx="353.103" cy="326.621" r="17.655"/>
	<circle style="fill:#FFC855;" cx="300.138" cy="379.586" r="17.655"/>
	<circle style="fill:#FFC855;" cx="353.103" cy="379.586" r="17.655"/>
</g>
<path style="fill:#69BEFF;" d="M353.103,476.69H158.897c-9.751,0-17.655-7.904-17.655-17.655l0,0
	c0-9.751,7.904-17.655,17.655-17.655h194.207c9.751,0,17.655,7.904,17.655,17.655l0,0
	C370.759,468.786,362.855,476.69,353.103,476.69z"/>
<g>
</g>
<g>
</g>
<g>
</g>
<g>
</g>
<g>
</g>
<g>
</g>
<g>
</g>
<g>
</g>
<g>
</g>
<g>
</g>
<g>
</g>
<g>
</g>
<g>
</g>
<g>
</g>
<g>
</g>
</svg>
