<?xml version="1.0" encoding="iso-8859-1"?>
<!-- Generator: Adobe Illustrator 19.0.0, SVG Export Plug-In . SVG Version: 6.00 Build 0)  -->
<svg version="1.1" id="Layer_1" xmlns="http://www.w3.org/2000/svg" xmlns:xlink="http://www.w3.org/1999/xlink" x="0px" y="0px"
	 viewBox="0 0 512 512" style="enable-background:new 0 0 512 512;" xml:space="preserve">
<g>
	<polygon style="fill:#B97850;" points="194.207,97.103 194.207,114.759 247.172,114.759 247.172,150.069 264.828,150.069 
		264.828,114.759 317.793,114.759 317.793,97.103 	"/>
	<path style="fill:#B97850;" d="M344.448,407.801l17.311-3.466L355.47,372.9c-2.151-10.763-9.017-19.75-18.831-24.66l-23.724-11.862
		l-7.896,15.794l23.724,11.862c4.909,2.453,8.341,6.948,9.418,12.332L344.448,407.801z"/>
</g>
<circle style="fill:#FFC855;" cx="357.517" cy="410.483" r="22.069"/>
<path style="fill:#FFAF4B;" d="M361.931,410.483c0-9.045-5.453-16.798-13.241-20.206c2.707-1.184,5.684-1.863,8.828-1.863
	c12.189,0,22.069,9.88,22.069,22.069c0,12.188-9.88,22.069-22.069,22.069c-3.144,0-6.121-0.679-8.828-1.863
	C356.478,427.281,361.931,419.528,361.931,410.483z"/>
<path style="fill:#B97850;" d="M167.552,407.801l-17.311-3.466l6.289-31.435c2.151-10.763,9.017-19.75,18.831-24.66l23.724-11.862
	l7.896,15.794l-23.724,11.862c-4.909,2.453-8.341,6.948-9.418,12.332L167.552,407.801z"/>
<circle style="fill:#00BEA5;" cx="256" cy="256" r="114.759"/>
<path style="fill:#00AA9A;" d="M185.379,256c0-55.825,39.878-102.294,92.69-112.589c-7.147-1.394-14.515-2.169-22.069-2.169
	c-63.38,0-114.759,51.379-114.759,114.759S192.621,370.759,256,370.759c7.554,0,14.922-0.777,22.069-2.169
	C225.257,358.294,185.379,311.825,185.379,256z"/>
<g>
	<circle style="fill:#FFC855;" cx="154.483" cy="410.483" r="22.069"/>
	<path style="fill:#FFC855;" d="M194.207,123.586H17.655C7.904,123.586,0,115.682,0,105.931l0,0c0-9.751,7.904-17.655,17.655-17.655
		h176.552c9.751,0,17.655,7.904,17.655,17.655l0,0C211.862,115.682,203.958,123.586,194.207,123.586z"/>
	<path style="fill:#FFC855;" d="M494.345,123.586H317.793c-9.751,0-17.655-7.904-17.655-17.655l0,0
		c0-9.751,7.904-17.655,17.655-17.655h176.552c9.751,0,17.655,7.904,17.655,17.655l0,0C512,115.682,504.096,123.586,494.345,123.586
		z"/>
</g>
<g>
	<path style="fill:#AAE1FF;" d="M203.298,176.552c-1.917,0-3.812,0.587-5.347,1.736C174.28,196.01,158.897,224.222,158.897,256
		c0,17.764,4.836,34.401,13.207,48.735c1.557,2.667,4.503,4.231,7.592,4.231h58.649c4.875,0,8.828-3.953,8.828-8.828V185.379
		c0-4.875-3.953-8.828-8.828-8.828H203.298z"/>
	<path style="fill:#AAE1FF;" d="M308.702,176.552h-35.047c-4.875,0-8.828,3.953-8.828,8.828v114.759
		c0,4.875,3.953,8.828,8.828,8.828h58.65c3.089,0,6.034-1.564,7.592-4.231c8.37-14.334,13.206-30.97,13.206-48.735
		c0-31.778-15.383-59.99-39.055-77.713C312.514,177.139,310.618,176.552,308.702,176.552z"/>
</g>
<path style="fill:#8CD2FF;" d="M330.718,194.207c-4.921-5.928-10.494-11.296-16.669-15.919c-1.535-1.149-3.43-1.736-5.347-1.736
	h-35.047c-4.875,0-8.828,3.953-8.828,8.828v8.828H330.718z"/>
<path style="fill:#00D2B9;" d="M291.31,379.586H220.69c-14.626,0-26.483-11.857-26.483-26.483l0,0
	c0-14.626,11.857-26.483,26.483-26.483h70.621c14.626,0,26.483,11.857,26.483,26.483l0,0
	C317.793,367.73,305.937,379.586,291.31,379.586z"/>
<path style="fill:#8CD2FF;" d="M247.172,194.207v-8.828c0-4.875-3.953-8.828-8.828-8.828h-35.047c-1.917,0-3.812,0.587-5.347,1.736
	c-3.084,2.31-6.009,4.814-8.797,7.464c-0.033,0.031-0.061,0.067-0.093,0.098c-2.756,2.628-5.345,5.425-7.778,8.356l-0.001,0.001l0,0
	c-13.943,16.796-22.386,38.304-22.386,61.793c0,17.764,4.836,34.4,13.207,48.736c1.557,2.667,4.503,4.23,7.591,4.23h18.741
	c-8.282-15.854-13.056-33.834-13.056-52.966c0-22.782,6.698-43.96,18.161-61.793H247.172z"/>
<path style="fill:#00BEA5;" d="M220.69,353.103c0-14.626,11.857-26.483,26.483-26.483H220.69c-14.626,0-26.483,11.857-26.483,26.483
	c0,14.626,11.857,26.483,26.483,26.483h26.483C232.546,379.586,220.69,367.73,220.69,353.103z"/>
<g>
	<path style="fill:#FFAF4B;" d="M150.069,410.483c0-9.045,5.453-16.798,13.241-20.206c-2.707-1.184-5.684-1.863-8.828-1.863
		c-12.189,0-22.069,9.88-22.069,22.069c0,12.188,9.88,22.069,22.069,22.069c3.144,0,6.121-0.679,8.828-1.863
		C155.522,427.281,150.069,419.528,150.069,410.483z"/>
	<path style="fill:#FFAF4B;" d="M264.828,123.586h-17.655c-4.875,0-8.828-3.953-8.828-8.828V97.103
		c0-9.751,7.904-17.655,17.655-17.655l0,0c9.751,0,17.655,7.904,17.655,17.655v17.655
		C273.655,119.634,269.703,123.586,264.828,123.586z"/>
</g>
<g>
</g>
<g>
</g>
<g>
</g>
<g>
</g>
<g>
</g>
<g>
</g>
<g>
</g>
<g>
</g>
<g>
</g>
<g>
</g>
<g>
</g>
<g>
</g>
<g>
</g>
<g>
</g>
<g>
</g>
</svg>
