<?xml version="1.0" encoding="iso-8859-1"?>
<!-- Generator: Adobe Illustrator 19.0.0, SVG Export Plug-In . SVG Version: 6.00 Build 0)  -->
<svg version="1.1" id="Layer_1" xmlns="http://www.w3.org/2000/svg" xmlns:xlink="http://www.w3.org/1999/xlink" x="0px" y="0px"
	 viewBox="0 0 512 512" style="enable-background:new 0 0 512 512;" xml:space="preserve">
<path style="fill:#FFD796;" d="M247.172,264.828v79.448c0,37.052-12.142,55.267-25,74.552c-13.75,20.62-27.966,41.948-27.966,84.344
	c0,4.879,3.953,8.828,8.828,8.828s8.828-3.948,8.828-8.828c0-37.052,12.142-55.267,25-74.552
	c13.75-20.62,27.966-41.948,27.966-84.344v-79.448H247.172z"/>
<rect x="247.172" y="264.828" style="fill:#F0C882;" width="17.655" height="26.483"/>
<g>
	<path style="fill:#E15050;" d="M256,334.833v-20.598l-48.237-16.079c-6.669-2.223-13.556,2.741-13.556,9.77v33.215
		c0,7.03,6.887,11.993,13.556,9.77L256,334.833z"/>
	<path style="fill:#E15050;" d="M256,334.833v-20.598l48.237-16.079c6.669-2.223,13.556,2.741,13.556,9.77v33.215
		c0,7.03-6.887,11.993-13.556,9.77L256,334.833z"/>
</g>
<path style="fill:#D24146;" d="M262.3,339.982h-13.241c-4.875,0-8.828-3.953-8.828-8.828v-13.241c0-4.875,3.953-8.828,8.828-8.828
	H262.3c4.875,0,8.828,3.953,8.828,8.828v13.241C271.127,336.03,267.176,339.982,262.3,339.982z"/>
<polygon style="fill:#E15050;" points="256,0 256,105.931 361.931,105.931 "/>
<polygon style="fill:#8CD2FF;" points="256,0 256,105.931 150.069,105.931 "/>
<polygon style="fill:#00D2B9;" points="256,282.483 256,105.931 361.931,105.931 "/>
<polygon style="fill:#FFC855;" points="256,282.483 256,105.931 150.069,105.931 "/>
<g>
</g>
<g>
</g>
<g>
</g>
<g>
</g>
<g>
</g>
<g>
</g>
<g>
</g>
<g>
</g>
<g>
</g>
<g>
</g>
<g>
</g>
<g>
</g>
<g>
</g>
<g>
</g>
<g>
</g>
</svg>
