<?xml version="1.0" encoding="iso-8859-1"?>
<!-- Generator: Adobe Illustrator 19.0.0, SVG Export Plug-In . SVG Version: 6.00 Build 0)  -->
<svg version="1.1" id="Layer_1" xmlns="http://www.w3.org/2000/svg" xmlns:xlink="http://www.w3.org/1999/xlink" x="0px" y="0px"
	 viewBox="0 0 511.999 511.999" style="enable-background:new 0 0 511.999 511.999;" xml:space="preserve">
<path style="fill:#E15050;" d="M471.795,46.153c0-15.498-7.513-29.708-20.485-38.485c-11.617-7.86-26.396-9.47-39.929-5.778
	L190.569,62.114c-26.897,7.336-45.556,31.766-45.556,59.645v287.112c-13.203-4.636-28.92-5.869-45.132-2.626
	c-38.264,7.653-64.63,37.121-58.891,65.819c5.74,28.698,41.412,45.758,79.676,38.107c35.34-7.068,60.469-32.747,59.591-59.238
	c0.011-0.257,0.084-0.497,0.084-0.756V138.169c0-3.983,2.666-7.473,6.508-8.521l238.463-65.035
	c5.618-1.532,11.156,2.697,11.156,8.521v265.083c-13.202-4.636-28.92-5.869-45.132-2.626c-38.264,7.653-64.63,37.121-58.891,65.819
	c5.74,28.698,41.412,45.758,79.676,38.107c35.34-7.068,60.469-32.747,59.591-59.238c0.011-0.257,0.084-0.497,0.084-0.756
	L471.795,46.153L471.795,46.153z"/>
<g>
	<path style="fill:#D24146;" d="M375.428,403.009c-5.71-28.549,20.365-57.843,58.307-65.68c-12.619-3.881-27.291-4.762-42.401-1.74
		c-38.264,7.653-64.63,37.121-58.891,65.819c5.74,28.698,41.412,45.758,79.676,38.107c0.199-0.04,0.385-0.098,0.583-0.139
		C393.368,433.43,378.901,420.374,375.428,403.009z"/>
	<path style="fill:#D24146;" d="M83.974,473.665c-5.71-28.549,20.365-57.843,58.307-65.68c-12.619-3.881-27.291-4.762-42.401-1.74
		c-38.264,7.653-64.63,37.121-58.891,65.819c5.74,28.698,41.412,45.758,79.676,38.107c0.199-0.04,0.385-0.098,0.583-0.139
		C101.914,504.085,87.447,491.029,83.974,473.665z"/>
</g>
<g>
</g>
<g>
</g>
<g>
</g>
<g>
</g>
<g>
</g>
<g>
</g>
<g>
</g>
<g>
</g>
<g>
</g>
<g>
</g>
<g>
</g>
<g>
</g>
<g>
</g>
<g>
</g>
<g>
</g>
</svg>
