<?xml version="1.0" encoding="iso-8859-1"?>
<!-- Generator: Adobe Illustrator 19.0.0, SVG Export Plug-In . SVG Version: 6.00 Build 0)  -->
<svg version="1.1" id="Layer_1" xmlns="http://www.w3.org/2000/svg" xmlns:xlink="http://www.w3.org/1999/xlink" x="0px" y="0px"
	 viewBox="0 0 512 512" style="enable-background:new 0 0 512 512;" xml:space="preserve">
<path style="fill:#AFB9D2;" d="M300.138,450.207h-88.276v44.138c0,9.751,7.904,17.655,17.655,17.655h52.966
	c9.751,0,17.655-7.904,17.655-17.655V450.207z"/>
<path style="fill:#959CB3;" d="M256,512h-26.483c-9.75,0-17.655-7.904-17.655-17.655v-44.138h26.483v44.138
	C238.345,504.096,246.25,512,256,512z"/>
<path style="fill:#00BEA9;" d="M256,0L256,0c-4.875,0-8.828,3.953-8.828,8.828v50.759h17.655V8.828C264.828,3.953,260.875,0,256,0z"
	/>
<path style="fill:#00D2B9;" d="M300.138,176.552h-88.276c-4.875,0-8.828,3.953-8.828,8.828v282.483c0,4.875,3.953,8.828,8.828,8.828
	h88.276c4.875,0,8.828-3.953,8.828-8.828V185.379C308.966,180.504,305.013,176.552,300.138,176.552z"/>
<path style="fill:#AFB9D2;" d="M266.633,35.31h-21.266c-4.11,0-7.677,2.837-8.601,6.842l-24.904,107.916h88.276L275.234,42.153
	C274.31,38.147,270.743,35.31,266.633,35.31z"/>
<path style="fill:#00BEA9;" d="M238.345,176.552h-26.483c-4.875,0-8.828,3.953-8.828,8.828v282.483c0,4.875,3.953,8.828,8.828,8.828
	h26.483V176.552z"/>
<path style="fill:#959CB3;" d="M211.862,150.069l24.904-107.916c0.925-4.006,4.491-6.842,8.601-6.842H256l-17.655,114.759H211.862z"
	/>
<rect x="211.862" y="150.069" style="fill:#707487;" width="26.483" height="26.483"/>
<rect x="238.345" y="150.069" style="fill:#959CB3;" width="61.793" height="26.483"/>
<g>
</g>
<g>
</g>
<g>
</g>
<g>
</g>
<g>
</g>
<g>
</g>
<g>
</g>
<g>
</g>
<g>
</g>
<g>
</g>
<g>
</g>
<g>
</g>
<g>
</g>
<g>
</g>
<g>
</g>
</svg>
