<?xml version="1.0" encoding="iso-8859-1"?>
<!-- Generator: Adobe Illustrator 19.0.0, SVG Export Plug-In . SVG Version: 6.00 Build 0)  -->
<svg version="1.1" id="Layer_1" xmlns="http://www.w3.org/2000/svg" xmlns:xlink="http://www.w3.org/1999/xlink" x="0px" y="0px"
	 viewBox="0 0 512.003 512.003" style="enable-background:new 0 0 512.003 512.003;" xml:space="preserve">
<path style="fill:#8C5F56;" d="M503.312,337.81c-0.072-1.075-0.342-2.134-0.8-3.116l-48.682-104.044
	c-0.428-0.915-1.012-1.744-1.723-2.456l-78.033-78.033c-0.273-0.273-0.612-0.46-0.918-0.693c-0.217-0.166-0.41-0.339-0.643-0.484
	c-0.809-0.505-1.67-0.919-2.604-1.135l-111.901-26.011c-0.326-0.075-0.655,0.027-0.983-0.011c-0.37-0.048-0.697-0.218-1.079-0.218
	c-0.342,0-0.633,0.156-0.966,0.195c-0.247,0.03-0.496-0.062-0.741-0.009l-122.197,26.011c-0.114,0.024-0.21,0.095-0.323,0.125
	c-0.087,0.022-0.171-0.004-0.257,0.02c-0.229,0.066-0.388,0.232-0.608,0.315c-0.703,0.263-1.36,0.589-1.971,1.022
	c-0.314,0.222-0.591,0.454-0.869,0.713c-0.206,0.192-0.462,0.32-0.65,0.533l-69.362,78.033c-0.58,0.652-1.055,1.388-1.414,2.176
	L9.442,334.789c-0.398,0.881-0.648,1.812-0.737,2.769L3.828,389.58c-0.449,4.767,3.056,9.001,7.824,9.45
	c0.275,0.025,0.546,0.034,0.817,0.034c4.424,0,8.204-3.37,8.624-7.857l4.14-44.164h95.877v43.352c0,4.793,3.882,8.67,8.67,8.67
	s8.67-3.878,8.67-8.67v-43.352h108.823v43.352c0,4.793,3.882,8.67,8.67,8.67c4.788,0,8.67-3.878,8.67-8.67v-43.352h110.102v43.352
	c0,4.793,3.882,8.67,8.67,8.67s8.67-3.878,8.67-8.67v-43.352h94.468l2.819,43.911c0.309,4.784,4.496,8.357,9.208,8.095
	c4.78-0.305,8.404-4.428,8.099-9.212L503.312,337.81z M481.029,329.698h-92.462l-30.101-55.838l82.967-28.785L481.029,329.698z
	 M129.849,173.844l23.343,81.596l-73.56-25.106L129.849,173.844z M247.276,320.658l-66.987-51.652l66.987-51.652V320.658z
	 M264.617,217.203l67.181,51.803l-67.181,51.802V217.203z M373.339,173.948l56.721,56.724l-72.674,25.205L373.339,173.948z
	 M340.172,253.564l-75.555-58.258v-54.13l93.22,21.667L340.172,253.564z M247.276,195.457l-76.364,58.882l-26.173-91.497
	l102.537-21.83L247.276,195.457L247.276,195.457z M230.598,329.698h-86.491l24.87-47.514L230.598,329.698z M343.209,282.107
	l25.658,47.591h-87.377L343.209,282.107z M69.132,245.073l84.586,28.874l-29.182,55.751H30.785L69.132,245.073z"/>
<circle style="fill:#FFC855;" cx="256.045" cy="338.371" r="17.341"/>
<path style="fill:#FFB44B;" d="M251.439,338.368c0-7.324,4.554-13.554,10.973-16.096c-1.975-0.784-4.114-1.244-6.367-1.244
	c-9.576,0-17.341,7.763-17.341,17.341c0,9.576,7.764,17.341,17.341,17.341c2.253,0,4.393-0.462,6.367-1.244
	C255.993,351.922,251.439,345.693,251.439,338.368z"/>
<circle style="fill:#FFC855;" cx="494.663" cy="338.371" r="17.341"/>
<path style="fill:#FFB44B;" d="M490.053,338.368c0-7.324,4.554-13.554,10.973-16.096c-1.975-0.784-4.114-1.244-6.367-1.244
	c-9.576,0-17.341,7.763-17.341,17.341c0,9.576,7.764,17.341,17.341,17.341c2.253,0,4.393-0.462,6.367-1.244
	C494.607,351.922,490.053,345.693,490.053,338.368z"/>
<circle style="fill:#FFC855;" cx="17.341" cy="338.371" r="17.341"/>
<path style="fill:#FFB44B;" d="M12.735,338.368c0-7.324,4.554-13.554,10.973-16.096c-1.975-0.784-4.114-1.244-6.367-1.244
	C7.764,321.028,0,328.791,0,338.368c0,9.576,7.764,17.341,17.341,17.341c2.253,0,4.393-0.462,6.367-1.244
	C17.289,351.922,12.735,345.693,12.735,338.368z"/>
<circle style="fill:#FFC855;" cx="256.045" cy="199.646" r="17.341"/>
<path style="fill:#FFB44B;" d="M251.439,199.644c0-7.324,4.554-13.554,10.973-16.096c-1.975-0.784-4.114-1.244-6.367-1.244
	c-9.576,0-17.341,7.763-17.341,17.341c0,9.576,7.764,17.341,17.341,17.341c2.253,0,4.393-0.462,6.367-1.244
	C255.993,213.197,251.439,206.968,251.439,199.644z"/>
<circle style="fill:#FFC855;" cx="256.045" cy="130.283" r="17.341"/>
<path style="fill:#FFB44B;" d="M251.439,130.281c0-7.324,4.554-13.554,10.973-16.096c-1.975-0.784-4.114-1.244-6.367-1.244
	c-9.576,0-17.341,7.763-17.341,17.341c0,9.576,7.764,17.341,17.341,17.341c2.253,0,4.393-0.462,6.367-1.244
	C255.993,143.835,251.439,137.605,251.439,130.281z"/>
<circle style="fill:#FFC855;" cx="166.091" cy="269.008" r="17.341"/>
<path style="fill:#FFB44B;" d="M161.484,269.006c0-7.324,4.554-13.554,10.973-16.096c-1.975-0.784-4.114-1.244-6.367-1.244
	c-9.576,0-17.341,7.763-17.341,17.341c0,9.576,7.764,17.341,17.341,17.341c2.253,0,4.393-0.462,6.367-1.244
	C166.039,282.56,161.484,276.33,161.484,269.006z"/>
<circle style="fill:#FFC855;" cx="345.999" cy="269.008" r="17.341"/>
<path style="fill:#FFB44B;" d="M341.393,269.006c0-7.324,4.554-13.554,10.973-16.096c-1.975-0.784-4.114-1.244-6.367-1.244
	c-9.576,0-17.341,7.763-17.341,17.341c0,9.576,7.764,17.341,17.341,17.341c2.253,0,4.393-0.462,6.367-1.244
	C345.947,282.56,341.393,276.33,341.393,269.006z"/>
<circle style="fill:#FFC855;" cx="133.848" cy="156.294" r="17.341"/>
<path style="fill:#FFB44B;" d="M129.242,156.292c0-7.324,4.554-13.554,10.973-16.096c-1.975-0.784-4.114-1.244-6.367-1.244
	c-9.576,0-17.341,7.763-17.341,17.341c0,9.576,7.764,17.341,17.341,17.341c2.253,0,4.393-0.462,6.367-1.244
	C133.796,169.846,129.242,163.616,129.242,156.292z"/>
<circle style="fill:#FFC855;" cx="367.946" cy="156.294" r="17.341"/>
<path style="fill:#FFB44B;" d="M363.34,156.292c0-7.324,4.554-13.554,10.973-16.096c-1.975-0.784-4.114-1.244-6.367-1.244
	c-9.576,0-17.341,7.763-17.341,17.341c0,9.576,7.764,17.341,17.341,17.341c2.253,0,4.393-0.462,6.367-1.244
	C367.894,169.846,363.34,163.616,363.34,156.292z"/>
<circle style="fill:#FFC855;" cx="445.979" cy="234.327" r="17.341"/>
<path style="fill:#FFB44B;" d="M441.373,234.325c0-7.324,4.554-13.554,10.973-16.096c-1.975-0.784-4.114-1.244-6.367-1.244
	c-9.576,0-17.341,7.763-17.341,17.341c0,9.576,7.764,17.341,17.341,17.341c2.253,0,4.393-0.462,6.367-1.244
	C445.927,247.879,441.373,241.649,441.373,234.325z"/>
<circle style="fill:#FFC855;" cx="64.485" cy="234.327" r="17.341"/>
<path style="fill:#FFB44B;" d="M59.879,234.325c0-7.324,4.554-13.554,10.973-16.096c-1.975-0.784-4.114-1.244-6.367-1.244
	c-9.576,0-17.341,7.763-17.341,17.341c0,9.576,7.764,17.341,17.341,17.341c2.253,0,4.393-0.462,6.367-1.244
	C64.433,247.879,59.879,241.649,59.879,234.325z"/>
<circle style="fill:#FFC855;" cx="383.39" cy="338.371" r="17.341"/>
<path style="fill:#FFB44B;" d="M378.784,338.368c0-7.324,4.554-13.554,10.973-16.096c-1.975-0.784-4.114-1.244-6.367-1.244
	c-9.576,0-17.341,7.763-17.341,17.341c0,9.576,7.764,17.341,17.341,17.341c2.253,0,4.393-0.462,6.367-1.244
	C383.338,351.922,378.784,345.693,378.784,338.368z"/>
<circle style="fill:#FFC855;" cx="129.784" cy="338.371" r="17.341"/>
<path style="fill:#FFB44B;" d="M125.178,338.368c0-7.324,4.554-13.554,10.973-16.096c-1.975-0.784-4.114-1.244-6.367-1.244
	c-9.576,0-17.341,7.763-17.341,17.341c0,9.576,7.764,17.341,17.341,17.341c2.253,0,4.393-0.462,6.367-1.244
	C129.732,351.922,125.178,345.693,125.178,338.368z"/>
<g>
</g>
<g>
</g>
<g>
</g>
<g>
</g>
<g>
</g>
<g>
</g>
<g>
</g>
<g>
</g>
<g>
</g>
<g>
</g>
<g>
</g>
<g>
</g>
<g>
</g>
<g>
</g>
<g>
</g>
</svg>
