<?xml version="1.0" encoding="iso-8859-1"?>
<!-- Generator: Adobe Illustrator 19.0.0, SVG Export Plug-In . SVG Version: 6.00 Build 0)  -->
<svg version="1.1" id="Layer_1" xmlns="http://www.w3.org/2000/svg" xmlns:xlink="http://www.w3.org/1999/xlink" x="0px" y="0px"
	 viewBox="0 0 512 512" style="enable-background:new 0 0 512 512;" xml:space="preserve">
<path style="fill:#E15050;" d="M450.207,375.172H61.793C27.72,375.172,0,402.897,0,436.966s27.72,61.793,61.793,61.793h388.414
	c34.073,0,61.793-27.724,61.793-61.793S484.28,375.172,450.207,375.172z"/>
<path style="fill:#FFD558;" d="M406.069,269.241H105.931c-29.207,0-52.966,23.758-52.966,52.966
	c0,29.207,23.758,52.966,52.966,52.966h300.138c29.207,0,52.966-23.758,52.966-52.966C459.034,293,435.276,269.241,406.069,269.241z
	"/>
<path style="fill:#A0EB64;" d="M370.759,180.966H141.241c-24.337,0-44.138,19.801-44.138,44.138s19.801,44.138,44.138,44.138
	h229.517c24.337,0,44.138-19.801,44.138-44.138S395.095,180.966,370.759,180.966z"/>
<path style="fill:#8CD2FF;" d="M331.034,101.517H180.966c-21.906,0-39.724,17.818-39.724,39.724s17.818,39.724,39.724,39.724
	h150.069c21.906,0,39.724-17.818,39.724-39.724S352.94,101.517,331.034,101.517z"/>
<path style="fill:#D28CE6;" d="M256,13.241c-24.337,0-44.138,19.801-44.138,44.138s19.801,44.138,44.138,44.138
	s44.138-19.801,44.138-44.138S280.337,13.241,256,13.241z"/>
<path style="fill:#D24146;" d="M150.069,436.966c0-34.069,27.72-61.793,61.793-61.793H61.793C27.72,375.172,0,402.897,0,436.966
	s27.72,61.793,61.793,61.793h150.069C177.789,498.759,150.069,471.034,150.069,436.966z"/>
<path style="fill:#FFC34B;" d="M176.552,322.207c0-29.207,23.758-52.966,52.966-52.966H105.931
	c-29.207,0-52.966,23.758-52.966,52.966c0,29.207,23.758,52.966,52.966,52.966h123.586
	C200.31,375.172,176.552,351.414,176.552,322.207z"/>
<path style="fill:#87D25A;" d="M203.034,225.103c0-24.337,19.801-44.138,44.138-44.138H141.241
	c-24.337,0-44.138,19.801-44.138,44.138s19.801,44.138,44.138,44.138h105.931C222.836,269.241,203.034,249.44,203.034,225.103z"/>
<path style="fill:#69BEFF;" d="M225.103,141.241c0-21.906,17.818-39.724,39.724-39.724h-83.862
	c-21.906,0-39.724,17.818-39.724,39.724s17.818,39.724,39.724,39.724h83.862C242.922,180.966,225.103,163.147,225.103,141.241z"/>
<path style="fill:#BE73D2;" d="M238.345,57.379c0-19.693,13.054-36.22,30.897-41.885c-4.207-1.335-8.598-2.253-13.241-2.253
	c-24.337,0-44.138,19.801-44.138,44.138s19.801,44.138,44.138,44.138c4.643,0,9.035-0.918,13.241-2.253
	C251.399,93.599,238.345,77.073,238.345,57.379z"/>
<path style="fill:#B4E2FF;" d="M335.448,136.828h-17.655c-4.875,0-8.828-3.953-8.828-8.828l0,0c0-4.875,3.953-8.828,8.828-8.828
	h17.655c4.875,0,8.828,3.953,8.828,8.828l0,0C344.276,132.875,340.323,136.828,335.448,136.828z"/>
<path style="fill:#E0AFEE;" d="M273.655,48.552L273.655,48.552c-4.875,0-8.828-3.953-8.828-8.828l0,0
	c0-4.875,3.953-8.828,8.828-8.828l0,0c4.875,0,8.828,3.953,8.828,8.828l0,0C282.483,44.599,278.53,48.552,273.655,48.552z"/>
<path style="fill:#C1F29A;" d="M370.759,216.276h-26.483c-4.875,0-8.828-3.953-8.828-8.828l0,0c0-4.875,3.953-8.828,8.828-8.828
	h26.483c4.875,0,8.828,3.953,8.828,8.828l0,0C379.586,212.323,375.634,216.276,370.759,216.276z"/>
<path style="fill:#FFE492;" d="M406.069,304.552h-35.31c-4.875,0-8.828-3.953-8.828-8.828l0,0c0-4.875,3.953-8.828,8.828-8.828
	h35.31c4.875,0,8.828,3.953,8.828,8.828l0,0C414.897,300.599,410.944,304.552,406.069,304.552z"/>
<path style="fill:#E97C7C;" d="M450.207,410.483h-52.966c-4.875,0-8.828-3.953-8.828-8.828l0,0c0-4.875,3.953-8.828,8.828-8.828
	h52.966c4.875,0,8.828,3.953,8.828,8.828l0,0C459.034,406.53,455.082,410.483,450.207,410.483z"/>
<g>
</g>
<g>
</g>
<g>
</g>
<g>
</g>
<g>
</g>
<g>
</g>
<g>
</g>
<g>
</g>
<g>
</g>
<g>
</g>
<g>
</g>
<g>
</g>
<g>
</g>
<g>
</g>
<g>
</g>
</svg>
