<?xml version="1.0" encoding="iso-8859-1"?>
<!-- Generator: Adobe Illustrator 19.0.0, SVG Export Plug-In . SVG Version: 6.00 Build 0)  -->
<svg version="1.1" id="Layer_1" xmlns="http://www.w3.org/2000/svg" xmlns:xlink="http://www.w3.org/1999/xlink" x="0px" y="0px"
	 viewBox="0 0 512 512" style="enable-background:new 0 0 512 512;" xml:space="preserve">
<path id="SVGCleanerId_0" style="fill:#FFC855;" d="M274.672,273.655h-37.344c0.095,0.823,0.353,1.599,0.323,2.451l-7.171,207.958
	c-0.491,14.238,10.068,27.246,24.298,27.907c15.04,0.697,27.305-11.566,26.792-26.439l-7.221-209.426
	C274.318,275.254,274.577,274.478,274.672,273.655z"/>
<g>
	<path id="SVGCleanerId_0_1_" style="fill:#FFC855;" d="M274.672,273.655h-37.344c0.095,0.823,0.353,1.599,0.323,2.451
		l-7.171,207.958c-0.491,14.238,10.068,27.246,24.298,27.907c15.04,0.697,27.305-11.566,26.792-26.439l-7.221-209.426
		C274.318,275.254,274.577,274.478,274.672,273.655z"/>
</g>
<ellipse style="fill:#FFE6A1;" cx="256" cy="132.414" rx="105.931" ry="132.414"/>
<path style="fill:#FFB44B;" d="M247.173,485.517l8.465-211.862h-18.308c0.095,0.822,0.353,1.599,0.323,2.451l-7.171,207.959
	c-0.491,14.237,10.068,27.245,24.298,27.907c5.432,0.253,10.474-1.23,14.711-3.873C255.448,509.609,246.832,495.39,247.173,485.517z
	"/>
<path style="fill:#FFD796;" d="M150.069,132.414c0,73.126,47.421,132.406,105.921,132.414c0.263-7.604-3.171-12.555-8.818-17.655
	c-24.104-21.77-35.31-54.716-35.31-114.759c0-43.586,6.621-115.31,57.379-131.27c-1.625-0.254-3.267-0.437-4.909-0.619
	C261.575,0.257,258.813,0,256,0C197.495,0,150.069,59.284,150.069,132.414z"/>
<path style="fill:#E15050;" d="M218.256,256c2.507,1.195,5.054,2.295,7.648,3.254c7.136,2.638,12.01,9.248,11.747,16.851
	l-0.22,6.378h37.137l-0.22-6.377c-0.263-7.604,4.612-14.214,11.747-16.851c2.595-0.959,5.141-2.059,7.648-3.254h-75.488V256z"/>
<path style="fill:#D24146;" d="M237.652,276.106l-0.221,6.377h17.853l0.705-17.655c0.117-3.407-0.602-6.233-1.835-8.828h-35.9
	c2.507,1.195,5.054,2.295,7.648,3.254C233.04,261.892,237.913,268.502,237.652,276.106z"/>
<path style="fill:#E15050;" d="M151.118,114.759c-0.619,5.79-1.049,11.654-1.049,17.655h211.862c0-6.002-0.431-11.865-1.049-17.655
	H151.118z"/>
<path style="fill:#D24146;" d="M212.255,114.759h-61.137c-0.619,5.79-1.049,11.654-1.049,17.655h61.793
	C211.862,126.921,211.969,120.978,212.255,114.759z"/>
<path style="fill:#FFC855;" d="M151.118,114.759h209.763c-1.684-15.753-5.516-30.644-11.225-44.138H162.344
	C156.635,84.115,152.802,99.006,151.118,114.759z"/>
<path style="fill:#FFB44B;" d="M162.344,70.621c-5.71,13.494-9.542,28.385-11.225,44.138h61.137
	c0.64-13.949,2.249-29.279,5.549-44.138H162.344z"/>
<path style="fill:#E15050;" d="M162.344,70.621h187.311c-2.631-6.216-5.696-12.075-9.055-17.655H171.399
	C168.041,58.546,164.974,64.405,162.344,70.621z"/>
<path style="fill:#D24146;" d="M171.399,52.966l-0.001,0.002c-1.63,2.707-3.182,5.485-4.657,8.332
	c-0.228,0.447-0.437,0.91-0.662,1.361c-1.311,2.598-2.58,5.231-3.735,7.959h55.459c1.336-6.017,2.969-11.926,4.937-17.655h-51.341
	V52.966z"/>
<g>
	<circle style="fill:#E15050;" cx="256" cy="92.69" r="13.241"/>
	<circle style="fill:#E15050;" cx="313.379" cy="92.69" r="13.241"/>
</g>
<circle style="fill:#D24146;" cx="198.621" cy="92.69" r="13.241"/>
<circle style="fill:#FFE6A1;" cx="227.31" cy="92.69" r="4.414"/>
<circle style="fill:#FFD796;" cx="169.931" cy="92.69" r="4.414"/>
<g>
	<circle style="fill:#FFE6A1;" cx="284.69" cy="92.69" r="4.414"/>
	<circle style="fill:#FFE6A1;" cx="342.069" cy="92.69" r="4.414"/>
</g>
<path style="fill:#FFC855;" d="M360.882,150.069c0.619-5.791,1.049-11.654,1.049-17.655H150.069c0,6.002,0.431,11.864,1.049,17.655
	H360.882z"/>
<path style="fill:#FFB44B;" d="M151.118,150.069L151.118,150.069h61.133c-0.241-5.632-0.39-11.465-0.39-17.655h-61.793
	c0,3.496,0.205,6.927,0.418,10.355C150.663,145.215,150.86,147.654,151.118,150.069z"/>
<g>
	<circle style="fill:#E15050;" cx="256" cy="150.069" r="8.828"/>
	<circle style="fill:#E15050;" cx="313.379" cy="150.069" r="8.828"/>
</g>
<circle style="fill:#D24146;" cx="198.621" cy="150.069" r="8.828"/>
<circle style="fill:#FFC855;" cx="227.31" cy="150.069" r="8.828"/>
<circle style="fill:#FFB44B;" cx="169.931" cy="150.069" r="8.828"/>
<g>
	<circle style="fill:#FFC855;" cx="284.69" cy="150.069" r="8.828"/>
	<circle style="fill:#FFC855;" cx="342.069" cy="150.069" r="8.828"/>
	<path style="fill:#FFC855;" d="M327.848,35.31H184.152c-4.665,5.396-8.925,11.296-12.753,17.655h169.202
		C336.773,46.606,332.513,40.706,327.848,35.31z"/>
</g>
<path style="fill:#FFB44B;" d="M184.152,35.31c-2.319,2.682-4.535,5.491-6.65,8.416c-0.023,0.032-0.046,0.064-0.07,0.096
	c-2.114,2.93-4.127,5.978-6.03,9.141l-0.003,0.002h51.341c2.125-6.187,4.662-12.108,7.659-17.655H184.152z"/>
<g>
	<circle style="fill:#E15050;" cx="256" cy="44.138" r="4.414"/>
	<circle style="fill:#E15050;" cx="313.379" cy="44.138" r="4.414"/>
</g>
<circle style="fill:#D24146;" cx="198.621" cy="44.138" r="4.414"/>
<g>
	<circle style="fill:#E15050;" cx="227.31" cy="44.138" r="4.414"/>
	<circle style="fill:#E15050;" cx="284.69" cy="44.138" r="4.414"/>
</g>
<path style="fill:#D24146;" d="M227.31,39.724c-2.438,0-4.414,1.976-4.414,4.414c0,1.479,0.776,2.723,1.892,3.524
	c1.044-2.652,2.177-5.236,3.39-7.764C227.889,39.839,227.618,39.724,227.31,39.724z"/>
<g>
</g>
<g>
</g>
<g>
</g>
<g>
</g>
<g>
</g>
<g>
</g>
<g>
</g>
<g>
</g>
<g>
</g>
<g>
</g>
<g>
</g>
<g>
</g>
<g>
</g>
<g>
</g>
<g>
</g>
</svg>
