<?xml version="1.0" encoding="iso-8859-1"?>
<!-- Generator: Adobe Illustrator 19.0.0, SVG Export Plug-In . SVG Version: 6.00 Build 0)  -->
<svg version="1.1" id="Layer_1" xmlns="http://www.w3.org/2000/svg" xmlns:xlink="http://www.w3.org/1999/xlink" x="0px" y="0px"
	 viewBox="0 0 512 512" style="enable-background:new 0 0 512 512;" xml:space="preserve">
<g>
	<path style="fill:#5B5D6E;" d="M79.448,512H52.966c-9.751,0-17.655-7.904-17.655-17.655v-50.759h61.793v50.759
		C97.103,504.096,89.199,512,79.448,512z"/>
	<path style="fill:#5B5D6E;" d="M459.034,512h-26.483c-9.751,0-17.655-7.904-17.655-17.655v-50.759h61.793v50.759
		C476.69,504.096,468.786,512,459.034,512z"/>
</g>
<g>
	<rect x="441.379" y="105.931" style="fill:#959CB3;" width="35.31" height="17.655"/>
	<rect x="35.31" y="105.931" style="fill:#959CB3;" width="35.31" height="17.655"/>
</g>
<rect x="61.793" y="61.793" style="fill:#FFAF4B;" width="388.414" height="150.069"/>
<g>
	<path style="fill:#AAE1FF;" d="M238.345,88.276H88.276c-4.875,0-8.828,3.953-8.828,8.828v79.448c0,4.875,3.953,8.828,8.828,8.828
		h150.069c4.875,0,8.828-3.953,8.828-8.828V97.103C247.172,92.228,243.22,88.276,238.345,88.276z"/>
	<path style="fill:#AAE1FF;" d="M423.724,88.276H273.655c-4.875,0-8.828,3.953-8.828,8.828v79.448c0,4.875,3.953,8.828,8.828,8.828
		h150.069c4.875,0,8.828-3.953,8.828-8.828V97.103C432.552,92.228,428.599,88.276,423.724,88.276z"/>
</g>
<path style="fill:#AFB9D2;" d="M476.69,88.276h17.655c4.875,0,8.828,3.953,8.828,8.828v70.621c0,4.875-3.953,8.828-8.828,8.828
	H476.69c-4.875,0-8.828-3.953-8.828-8.828V97.103C467.862,92.228,471.815,88.276,476.69,88.276z"/>
<path style="fill:#FFC855;" d="M450.207,203.034H61.793c-9.751,0-17.655,7.904-17.655,17.655v70.621h423.724V220.69
	C467.862,210.938,459.958,203.034,450.207,203.034z"/>
<path style="fill:#C7CFE2;" d="M494.345,459.034H17.655C7.904,459.034,0,451.13,0,441.379v-35.31
	c0-9.751,7.904-17.655,17.655-17.655h476.69c9.751,0,17.655,7.904,17.655,17.655v35.31C512,451.13,504.096,459.034,494.345,459.034z
	"/>
<path style="fill:#FFE678;" d="M423.724,264.828V256c0-19.501-15.809-35.31-35.31-35.31H123.586c-19.501,0-35.31,15.809-35.31,35.31
	v8.828c0,9.751-7.904,17.655-17.655,17.655H35.31c-9.751,0-17.655,7.904-17.655,17.655v88.276h476.69v-88.276
	c0-9.751-7.904-17.655-17.655-17.655h-35.31C431.628,282.483,423.724,274.579,423.724,264.828z"/>
<path style="fill:#707487;" d="M388.414,370.759H123.586c-4.875,0-8.828-3.953-8.828-8.828V256c0-4.875,3.953-8.828,8.828-8.828
	h264.828c4.875,0,8.828,3.953,8.828,8.828v105.931C397.241,366.806,393.289,370.759,388.414,370.759z"/>
<g>
	<path style="fill:#AFB9D2;" d="M211.862,441.379h88.276c4.875,0,8.828-3.953,8.828-8.828v-17.655c0-4.875-3.953-8.828-8.828-8.828
		h-88.276c-4.875,0-8.828,3.953-8.828,8.828v17.655C203.034,437.427,206.987,441.379,211.862,441.379z"/>
	<rect x="114.759" y="264.828" style="fill:#AFB9D2;" width="282.483" height="17.655"/>
	<rect x="114.759" y="335.448" style="fill:#AFB9D2;" width="282.483" height="17.655"/>
	<rect x="114.759" y="300.138" style="fill:#AFB9D2;" width="282.483" height="17.655"/>
</g>
<path style="fill:#FFE678;" d="M450.207,70.621H61.793c-9.751,0-17.655-7.904-17.655-17.655v-8.828C44.138,19.762,63.9,0,88.276,0
	h335.448c24.376,0,44.138,19.762,44.138,44.138v8.828C467.862,62.717,459.958,70.621,450.207,70.621z"/>
<path style="fill:#FFC855;" d="M423.724,17.655H88.276c-14.626,0-26.483,11.857-26.483,26.483v8.828h388.414v-8.828
	C450.207,29.512,438.35,17.655,423.724,17.655z"/>
<path style="fill:#AFB9D2;" d="M35.31,88.276H17.655c-4.875,0-8.828,3.953-8.828,8.828v70.621c0,4.875,3.953,8.828,8.828,8.828
	H35.31c4.875,0,8.828-3.953,8.828-8.828V97.103C44.138,92.228,40.185,88.276,35.31,88.276z"/>
<g>
	<path style="fill:#8CD2FF;" d="M238.345,88.276H88.276c-4.875,0-8.828,3.953-8.828,8.828v17.655c0-4.875,3.953-8.828,8.828-8.828
		h150.069c4.875,0,8.828,3.953,8.828,8.828V97.103C247.172,92.228,243.22,88.276,238.345,88.276z"/>
	<path style="fill:#8CD2FF;" d="M423.724,88.276H273.655c-4.875,0-8.828,3.953-8.828,8.828v17.655c0-4.875,3.953-8.828,8.828-8.828
		h150.069c4.875,0,8.828,3.953,8.828,8.828V97.103C432.552,92.228,428.599,88.276,423.724,88.276z"/>
</g>
<circle style="fill:#FFFFFF;" cx="66.207" cy="322.207" r="22.069"/>
<path style="fill:#FFAF4B;" d="M79.448,370.759H52.966c-4.875,0-8.828-3.953-8.828-8.828l0,0c0-4.875,3.953-8.828,8.828-8.828
	h26.483c4.875,0,8.828,3.953,8.828,8.828l0,0C88.276,366.806,84.323,370.759,79.448,370.759z"/>
<circle style="fill:#FFFFFF;" cx="445.793" cy="322.207" r="22.069"/>
<path style="fill:#FFAF4B;" d="M459.034,370.759h-26.483c-4.875,0-8.828-3.953-8.828-8.828l0,0c0-4.875,3.953-8.828,8.828-8.828
	h26.483c4.875,0,8.828,3.953,8.828,8.828l0,0C467.862,366.806,463.91,370.759,459.034,370.759z"/>
<g>
	<circle style="fill:#FF646E;" cx="105.931" cy="35.31" r="17.655"/>
	<circle style="fill:#FF646E;" cx="406.069" cy="35.31" r="17.655"/>
</g>
<g>
</g>
<g>
</g>
<g>
</g>
<g>
</g>
<g>
</g>
<g>
</g>
<g>
</g>
<g>
</g>
<g>
</g>
<g>
</g>
<g>
</g>
<g>
</g>
<g>
</g>
<g>
</g>
<g>
</g>
</svg>
