<?xml version="1.0" encoding="iso-8859-1"?>
<!-- Generator: Adobe Illustrator 19.0.0, SVG Export Plug-In . SVG Version: 6.00 Build 0)  -->
<svg version="1.1" id="Layer_1" xmlns="http://www.w3.org/2000/svg" xmlns:xlink="http://www.w3.org/1999/xlink" x="0px" y="0px"
	 viewBox="0 0 512 512" style="enable-background:new 0 0 512 512;" xml:space="preserve">
<rect x="88.276" y="35.31" style="fill:#FFD796;" width="335.448" height="17.655"/>
<path style="fill:#FFE6A1;" d="M485.517,512h-10.044c-13.827,0-25.431-10.802-26.418-24.595L416.09,25.854
	c-0.328-4.595-4.194-8.199-8.806-8.199h-302.57c-4.612,0-8.479,3.604-8.806,8.199L62.944,487.405
	C61.956,501.198,50.354,512,36.526,512H26.483c-4.875,0-8.828-3.948-8.828-8.828c0-4.879,3.953-8.828,8.828-8.828h10.044
	c4.612,0,8.479-3.604,8.806-8.199L78.297,24.595C79.285,10.802,90.888,0,104.715,0h302.569c13.827,0,25.431,10.802,26.418,24.595
	l32.966,461.551c0.328,4.595,4.194,8.199,8.806,8.199h10.045c4.875,0,8.828,3.948,8.828,8.828
	C494.345,508.052,490.392,512,485.517,512z"/>
<g>
	<rect x="211.862" y="44.138" style="fill:#959CB3;" width="17.655" height="370.759"/>
	<rect x="282.483" y="44.138" style="fill:#959CB3;" width="17.655" height="370.759"/>
	<path style="fill:#959CB3;" d="M317.793,423.724H194.207c-14.603,0-26.483-11.88-26.483-26.483v-17.655
		c0-4.871-3.961-8.828-8.828-8.828c-4.875,0-8.828-3.948-8.828-8.828s3.953-8.828,8.828-8.828c14.603,0,26.483,11.88,26.483,26.483
		v17.655c0,4.871,3.961,8.828,8.828,8.828h123.586c4.866,0,8.828-3.957,8.828-8.828v-17.655c0-14.603,11.88-26.483,26.483-26.483
		c4.875,0,8.828,3.948,8.828,8.828s-3.953,8.828-8.828,8.828c-4.866,0-8.828,3.957-8.828,8.828v17.655
		C344.276,411.844,332.396,423.724,317.793,423.724z"/>
</g>
<g>
	<path style="fill:#8C5F56;" d="M313.379,432.552H198.621c-7.313,0-13.241-5.929-13.241-13.241l0,0
		c0-7.313,5.929-13.241,13.241-13.241h114.759c7.313,0,13.241,5.929,13.241,13.241l0,0
		C326.621,426.623,320.692,432.552,313.379,432.552z"/>
	<path style="fill:#8C5F56;" d="M256,300.138c-43.879,0-61.793,11.857-61.793,26.483v35.31c0,4.875,3.953,8.828,8.828,8.828h105.931
		c4.875,0,8.828-3.953,8.828-8.828v-35.31C317.793,311.994,299.879,300.138,256,300.138z"/>
</g>
<g>
	<path style="fill:#707487;" d="M220.69,61.793L220.69,61.793c-4.875,0-8.828-3.953-8.828-8.828V35.31
		c0-4.875,3.953-8.828,8.828-8.828l0,0c4.875,0,8.828,3.953,8.828,8.828v17.655C229.517,57.841,225.565,61.793,220.69,61.793z"/>
	<path style="fill:#707487;" d="M291.31,61.793L291.31,61.793c-4.875,0-8.828-3.953-8.828-8.828V35.31
		c0-4.875,3.953-8.828,8.828-8.828l0,0c4.875,0,8.828,3.953,8.828,8.828v17.655C300.138,57.841,296.185,61.793,291.31,61.793z"/>
</g>
<g>
</g>
<g>
</g>
<g>
</g>
<g>
</g>
<g>
</g>
<g>
</g>
<g>
</g>
<g>
</g>
<g>
</g>
<g>
</g>
<g>
</g>
<g>
</g>
<g>
</g>
<g>
</g>
<g>
</g>
</svg>
