<?xml version="1.0" encoding="iso-8859-1"?>
<!-- Generator: Adobe Illustrator 19.0.0, SVG Export Plug-In . SVG Version: 6.00 Build 0)  -->
<svg xmlns="http://www.w3.org/2000/svg" xmlns:xlink="http://www.w3.org/1999/xlink" version="1.1" id="Layer_1" x="0px" y="0px" viewBox="0 0 397.071 397.071" style="enable-background:new 0 0 397.071 397.071;" xml:space="preserve" width="512" height="512">
<g id="_x32_1._Apple_2_">
	<g id="XMLID_69_">
		<g>
			<g>
				<path style="fill:#FF7124;" d="M198.766,139.55c27.86-25.26,62.31-36.45,94.32-26.87c56.12,16.81,83.44,91.09,61.03,165.91      c-22.41,74.82-86.06,121.85-142.18,105.04c-4.82-1.44-9.42-3.32-13.8-5.58c-4.14,2.08-8.48,3.81-13,5.17      c-56.12,16.81-119.77-30.22-142.18-105.04s4.91-149.1,61.03-165.91C136.166,102.64,170.826,114,198.766,139.55z"/>
			</g>
			<g>
				<path style="fill:#F2D59F;" d="M241.796,11.86c4.91,18.36,0.15,38.76-14.26,53.17c-14.4,14.4-34.81,19.16-53.17,14.25      c-4.91-18.36-0.15-38.77,14.25-53.17C203.026,11.7,223.426,6.94,241.796,11.86z"/>
			</g>
		</g>
		<g>
			<g>
				<path style="fill:#5E2A41;" d="M235.45,397.071c-8.917,0-17.756-1.276-26.383-3.861c-3.717-1.11-7.4-2.482-10.995-4.094      c-3.267,1.418-6.633,2.65-10.055,3.681c-30.244,9.057-63.108,2.064-92.556-19.692c-28.581-21.116-50.63-53.809-62.086-92.055      c-11.455-38.246-11.008-77.678,1.261-111.03c12.64-34.362,36.249-58.273,66.479-67.328c32.15-9.623,67.329-0.987,97.679,23.682      c30.235-24.348,65.224-32.83,97.158-23.272c0.001,0,0.002,0,0.002,0.001c30.23,9.055,53.841,32.966,66.48,67.328      c12.268,33.353,12.716,72.784,1.26,111.03c-11.455,38.246-33.504,70.939-62.086,92.055      C280.566,389.061,257.774,397.071,235.45,397.071z M198.136,368.05c1.574,0,3.147,0.371,4.585,1.113      c3.902,2.013,7.966,3.656,12.079,4.886c24.059,7.204,50.666,1.302,74.925-16.621c25.124-18.562,44.59-47.579,54.813-81.707      c20.792-69.419-3.576-138.261-54.32-153.462l0.002,0.001c-27.474-8.222-58.356,0.78-84.735,24.698      c-3.824,3.467-9.658,3.452-13.466-0.028c-26.476-24.212-57.517-33.352-85.164-25.08c-50.742,15.199-75.11,84.042-54.318,153.461      c10.222,34.128,29.688,63.146,54.812,81.707c24.259,17.923,50.865,23.825,74.92,16.623c3.92-1.181,7.753-2.704,11.38-4.526      C195.059,368.405,196.598,368.05,198.136,368.05z"/>
			</g>
			<g>
				<path style="fill:#5E2A41;" d="M198.766,139.57l-10-0.02c-0.008-20.026-7.672-38.961-21.581-53.31      c-14.559-15.011-34.102-23.279-55.029-23.279c-5.523,0-10-4.478-10-10s4.477-10,10-10c26.385,0,51.028,10.426,69.388,29.357      c17.544,18.102,27.211,41.977,27.222,67.229L198.766,139.57z"/>
			</g>
			<g>
				<path style="fill:#5E2A41;" d="M188.518,91.137c-5.589,0-11.212-0.72-16.736-2.197c-3.455-0.924-6.153-3.622-7.077-7.076      c-5.985-22.379,0.467-46.452,16.839-62.825c16.382-16.38,40.461-22.83,62.838-16.838c3.453,0.925,6.15,3.622,7.073,7.075      c5.984,22.376-0.472,46.449-16.849,62.825l0,0C222.276,84.432,205.573,91.137,188.518,91.137z M182.864,70.781      c13.718,1.749,27.694-2.914,37.6-12.822l0,0c9.912-9.911,14.577-23.892,12.832-37.603c-13.711-1.752-27.697,2.912-37.61,12.825      C185.78,43.088,181.118,57.069,182.864,70.781z"/>
			</g>
			<g>
				<path style="fill:#5E2A41;" d="M74.502,278.733c-4.304,0-8.278-2.8-9.576-7.134c-8.725-29.133-9.105-59.375-1.072-85.155      c8.346-26.781,25.371-45.809,46.71-52.203c5.292-1.587,10.865,1.418,12.45,6.709c1.585,5.29-1.418,10.864-6.709,12.449      c-15.083,4.52-26.929,18.368-33.357,38.995c-6.762,21.699-6.348,48.477,1.136,73.467c1.585,5.291-1.42,10.864-6.71,12.449      C76.418,278.596,75.452,278.733,74.502,278.733z"/>
			</g>
		</g>
	</g>
</g>















</svg>
