<?xml version="1.0" encoding="iso-8859-1"?>
<!-- Generator: Adobe Illustrator 19.0.0, SVG Export Plug-In . SVG Version: 6.00 Build 0)  -->
<svg xmlns="http://www.w3.org/2000/svg" xmlns:xlink="http://www.w3.org/1999/xlink" version="1.1" id="Layer_1" x="0px" y="0px" viewBox="0 0 420.91 420.91" style="enable-background:new 0 0 420.91 420.91;" xml:space="preserve" width="512" height="512">
<g id="_x34_9._Bell_1_">
	<g id="XMLID_97_">
		<g>
			<g>
				<path style="fill:#FF7124;" d="M402.7,18.198c5.47,5.47,8.21,12.64,8.21,19.81c0,7.16-2.74,14.33-8.21,19.8l-86.71,86.71      c-4.63-8.01-10.37-15.54-17.22-22.39c-6.85-6.85-14.38-12.59-22.39-17.22l86.71-86.71C374.03,7.258,391.76,7.258,402.7,18.198z"/>
			</g>
			<g>
				<path style="fill:#F2D59F;" d="M276.38,104.908c8.01,4.63,15.54,10.37,22.39,17.22c6.85,6.85,12.59,14.38,17.22,22.39      c23.93,41.38,18.19,95.23-17.22,130.64l-55.59,55.58c-5.79,5.79-8.68,13.37-8.68,20.96c0,7.58,2.89,15.17,8.68,20.95      l-38.25,38.25l-38.87-38.87l-50.92-50.92L10,215.968l38.25-38.25c11.57,11.57,30.33,11.57,41.91,0l55.58-55.59      c21.13-21.13,48.82-31.7,76.51-31.7C240.97,90.428,259.69,95.258,276.38,104.908z"/>
			</g>
			<g>
				<path style="fill:#8ECAC1;" d="M166.06,372.028l-0.12,0.11l-4.58,4.58c-14.06,14.06-36.85,14.06-50.91,0s-14.06-36.86,0-50.92      l4.58-4.58l0.11-0.11L166.06,372.028z"/>
			</g>
		</g>
		<g>
			<g>
				<path style="fill:#5E2A41;" d="M315.99,154.517c-2.56,0-5.118-0.976-7.071-2.929c-3.905-3.905-3.905-10.237,0-14.143      l86.71-86.71c3.405-3.405,5.281-7.926,5.281-12.729c0-4.809-1.876-9.333-5.281-12.739c-7.023-7.023-18.448-7.021-25.468,0      L283.47,111.96c-3.85,3.871-10.123,3.958-14.059,0.148c-3.969-3.841-4.087-10.156-0.247-14.125l0.029-0.03      c0.038-0.04,0.077-0.078,0.115-0.117l86.71-86.71c14.819-14.818,38.932-14.819,53.753,0c7.183,7.184,11.139,16.73,11.139,26.881      c0,10.145-3.956,19.688-11.139,26.871l-86.71,86.71C321.108,153.541,318.55,154.517,315.99,154.517z"/>
			</g>
			<g>
				<path style="fill:#5E2A41;" d="M204.931,420.898c-2.56,0-5.118-0.976-7.071-2.929L2.929,223.039      C1.054,221.163,0,218.62,0,215.968c0-2.652,1.054-5.196,2.929-7.071l38.25-38.25c3.906-3.905,10.236-3.906,14.143-0.001      c7.652,7.652,20.11,7.649,27.77-0.003l55.577-55.586c22.331-22.332,52.014-34.63,83.581-34.63      c20.784,0,41.232,5.472,59.136,15.823c8.881,5.133,17.109,11.461,24.455,18.806c7.344,7.344,13.672,15.572,18.808,24.456      c26.73,46.224,18.997,104.912-18.807,142.716l-55.591,55.581c-3.708,3.708-5.751,8.641-5.751,13.888      c0,5.247,2.041,10.174,5.746,13.873c1.878,1.875,2.934,4.419,2.935,7.073c0.001,2.654-1.053,5.199-2.929,7.076l-38.25,38.25      C210.049,419.922,207.49,420.898,204.931,420.898z M24.143,215.968l180.788,180.788l25-25      c-3.542-6.013-5.431-12.889-5.431-20.058c0-10.589,4.123-20.544,11.609-28.031l55.591-55.581      c31.409-31.409,37.838-80.164,15.633-118.563c-4.264-7.376-9.523-14.214-15.634-20.324c-6.112-6.112-12.95-11.372-20.323-15.634      c-14.865-8.595-31.853-13.138-49.126-13.138c-26.226,0-50.886,10.218-69.439,28.771l-55.58,55.589      c-13.018,13.007-32.9,15.061-48.077,6.168L24.143,215.968z"/>
			</g>
			<g>
				<path style="fill:#5E2A41;" d="M170.29,156.678c-2.559,0-5.118-0.976-7.071-2.929c-3.905-3.905-3.905-10.237,0-14.142      c32.549-32.545,85.513-32.547,118.071-0.001c3.905,3.905,3.906,10.236,0.002,14.142c-3.903,3.906-10.235,3.907-14.143,0.002      c-24.759-24.751-65.039-24.751-89.788-0.001C175.408,155.701,172.849,156.678,170.29,156.678z"/>
			</g>
			<g>
				<path style="fill:#5E2A41;" d="M135.905,397.262c-12.286,0-23.838-4.785-32.526-13.474c-17.937-17.938-17.937-47.124,0-65.061      l4.58-4.581c3.906-3.905,10.236-3.905,14.143,0c3.905,3.905,3.905,10.237,0,14.143l-4.58,4.58      c-10.14,10.139-10.14,26.638,0,36.778c4.911,4.911,11.439,7.616,18.384,7.616c6.943,0,13.473-2.704,18.384-7.616l4.58-4.58      c3.906-3.905,10.236-3.905,14.143,0c3.905,3.905,3.905,10.237,0,14.143l-4.58,4.58      C159.742,392.477,148.19,397.262,135.905,397.262z"/>
			</g>
		</g>
	</g>
</g>















</svg>
