<?xml version="1.0" encoding="iso-8859-1"?>
<!-- Generator: Adobe Illustrator 19.0.0, SVG Export Plug-In . SVG Version: 6.00 Build 0)  -->
<svg xmlns="http://www.w3.org/2000/svg" xmlns:xlink="http://www.w3.org/1999/xlink" version="1.1" id="Layer_1" x="0px" y="0px" viewBox="0 0 456.53 456.53" style="enable-background:new 0 0 456.53 456.53;" xml:space="preserve" width="512" height="512">
<g id="_x31_1._Brain">
	<g>
		<g>
			<g id="XMLID_12_">
				<g>
					<g>
						<path style="fill:#F2D59F;" d="M81.54,345.895h-0.01C42,345.725,10,313.645,10,274.075c0-18.07,6.73-34.53,17.74-47.16        c7.08-61.25,57.76-109.07,120.22-111.85c18.79-16.74,43.48-27,70.62-27c25.75,0,49.35,9.16,67.74,24.38        c5.09-0.85,10.28-1.4,15.61-1.4c49.58,0,90.08,38.47,93.52,87.17c0.01,0.02,0.01,0.04,0.01,0.06        c29.66,9.9,51.07,37.85,51.07,70.84c0,41.27-33.45,74.72-74.72,74.72c-13.88,0-26.83-3.85-37.97-10.44H241.1h-0.03        c-22.76,21.68-53.49,35.07-87.4,35.07C126.85,368.465,102.03,360.095,81.54,345.895z"/>
					</g>
				</g>
				<g>
					<g>
						<path style="fill:#5E2A41;" d="M153.67,378.465c-26.913,0-52.881-7.819-75.305-22.645C34.852,353.967,0,317.939,0,274.075        c0-18.665,6.438-36.773,18.19-51.333c4.281-30.911,19.143-59.568,42.065-80.984c22.91-21.404,52.526-34.281,83.738-36.48        c20.965-17.574,47.311-27.212,74.586-27.212c25.492,0,50.371,8.438,70.562,23.851c4.483-0.584,8.7-0.87,12.789-0.87        c26.443,0,51.623,9.953,70.902,28.027c17.597,16.496,28.793,38.328,31.943,62.034c31.21,13.158,51.755,43.727,51.755,78.008        c0,46.715-38.005,84.721-84.72,84.721c-14.152,0-28.133-3.602-40.615-10.44h-86.209        C219.785,366.04,187.517,378.465,153.67,378.465z M218.58,98.065c-23.541,0-46.259,8.69-63.968,24.467        c-1.717,1.529-3.909,2.421-6.207,2.523c-27.746,1.235-54.203,12.357-74.495,31.316        c-20.205,18.877-33.074,44.338-36.236,71.692c-0.232,2.008-1.067,3.898-2.396,5.423C25.426,244.788,20,259.203,20,274.075        c0,33.942,27.621,61.675,61.573,61.82c2.021,0.009,4.002,0.63,5.663,1.781c19.625,13.601,42.597,20.789,66.434,20.789        c30.039,0,58.628-11.475,80.503-32.311c1.859-1.771,4.329-2.759,6.897-2.759h92.77c1.792,0,3.55,0.481,5.091,1.394        c10.005,5.918,21.374,9.047,32.878,9.047c35.687,0,64.72-29.033,64.72-64.721c0-27.866-17.777-52.522-44.236-61.354        c-3.593-1.199-6.156-4.303-6.718-7.965c-0.046-0.289-0.08-0.582-0.1-0.876c-3.085-43.667-39.782-77.874-83.545-77.874        c-4.305,0-8.872,0.413-13.963,1.263c-2.864,0.479-5.788-0.312-8.022-2.159C262.737,105.908,240.944,98.065,218.58,98.065z"/>
					</g>
					<g>
						<path style="fill:#5E2A41;" d="M347.248,231.208c-1.192,0-2.403-0.215-3.582-0.667c-5.156-1.98-7.731-7.764-5.752-12.92        c9.314-24.262,35.95-36.962,60.636-28.914c0.733,0.241,1.584,0.527,2.468,0.873c5.145,2.009,7.686,7.808,5.677,12.952        c-2.009,5.145-7.81,7.686-12.953,5.677c-0.467-0.182-0.942-0.339-1.409-0.492c-14.54-4.738-30.251,2.756-35.748,17.072        C355.059,228.766,351.268,231.208,347.248,231.208z"/>
					</g>
					<g>
						<path style="fill:#5E2A41;" d="M81.54,355.895c-2.559,0-5.119-0.977-7.071-2.929c-10.894-10.895-16.894-25.368-16.894-40.755        c0-15.388,6-29.86,16.896-40.75c3.907-3.903,10.238-3.903,14.142,0.004c3.904,3.906,3.903,10.238-0.004,14.143        c-7.116,7.111-11.035,16.559-11.035,26.603c0,10.045,3.919,19.496,11.037,26.612c3.905,3.905,3.905,10.237,0,14.143        C86.659,354.918,84.099,355.895,81.54,355.895z"/>
					</g>
					<g>
						<path style="fill:#5E2A41;" d="M258.637,159.997c-4.96,0-9.263-3.687-9.907-8.736c-3.01-23.603,13.744-45.268,37.348-48.294        c5.476-0.706,10.488,3.17,11.19,8.647c0.702,5.479-3.169,10.488-8.648,11.19c-12.673,1.624-21.668,13.255-20.052,25.927        c0.699,5.479-3.176,10.485-8.654,11.185C259.486,159.97,259.059,159.997,258.637,159.997z"/>
					</g>
					<g>
						<path style="fill:#5E2A41;" d="M248.173,340.463l-14.154-14.13l0.01-0.01c11.223-11.229,11.22-29.495-0.007-40.716        c-3.906-3.904-3.909-10.235-0.004-14.142c3.904-3.906,10.236-3.908,14.142-0.005        C267.187,290.477,267.193,321.431,248.173,340.463z"/>
					</g>
					<g>
						<path style="fill:#5E2A41;" d="M147.98,190.025c-2.56,0-5.118-0.977-7.071-2.929c-21.802-21.803-21.803-57.287-0.002-79.101        c3.905-3.904,10.237-3.907,14.142-0.004c3.907,3.904,3.908,10.236,0.004,14.143c-14.008,14.016-14.008,36.813-0.002,50.819        c3.905,3.905,3.905,10.237,0,14.143C153.099,189.048,150.539,190.025,147.98,190.025z"/>
					</g>
					<g>
						<path style="fill:#5E2A41;" d="M365.74,301.435c-5.523,0-10-4.478-10-10c0-19.63,15.97-35.6,35.6-35.6c5.523,0,10,4.478,10,10        c0,5.523-4.477,10-10,10c-8.602,0-15.6,6.998-15.6,15.6C375.74,296.957,371.263,301.435,365.74,301.435z"/>
					</g>
					<g>
						<path style="fill:#5E2A41;" d="M140.41,296.635c-5.523,0-10-4.478-10-10c0-23.264,18.926-42.19,42.19-42.19        c5.523,0,10,4.478,10,10c0,5.522-4.477,10-10,10c-12.235,0-22.19,9.954-22.19,22.19        C150.41,292.158,145.933,296.635,140.41,296.635z"/>
					</g>
					<g>
						<path style="fill:#5E2A41;" d="M277.506,228.328c-3.817,0-7.462-2.197-9.127-5.905c-6.835-15.214-24.779-22.034-40.004-15.204        c-5.039,2.263-10.957,0.01-13.218-5.028c-2.261-5.039-0.01-10.957,5.029-13.218c25.277-11.348,55.082-0.017,66.435,25.255        c2.264,5.037,0.014,10.956-5.023,13.22C280.267,228.044,278.875,228.328,277.506,228.328z"/>
					</g>
				</g>
			</g>
		</g>
	</g>
</g>















</svg>
