<?xml version="1.0" encoding="iso-8859-1"?>
<!-- Generator: Adobe Illustrator 19.0.0, SVG Export Plug-In . SVG Version: 6.00 Build 0)  -->
<svg xmlns="http://www.w3.org/2000/svg" xmlns:xlink="http://www.w3.org/1999/xlink" version="1.1" id="Layer_1" x="0px" y="0px" viewBox="0 0 452 452" style="enable-background:new 0 0 452 452;" xml:space="preserve" width="512" height="512">
<g id="_x33_3._Computer_1_">
	<g>
		<g>
			<g id="XMLID_81_">
				<g>
					<g>
						<path style="fill:#F2D59F;" d="M186.65,338.46H25c-8.28,0-15-6.72-15-15v-67.13h2.15H442v67.13c0,8.28-6.72,15-15,15H265.35        H186.65z M240.57,297c0-7.46-6.04-13.5-13.5-13.5c-7.45,0-13.5,6.04-13.5,13.5s6.05,13.5,13.5,13.5        C234.53,310.5,240.57,304.46,240.57,297z"/>
					</g>
					<g>
						<path style="fill:#8ECAC1;" d="M231.96,164.67l31.6-16.65l-81.12-32.86l32.87,81.11L231.96,164.67z M442,59.8v196.53H12.15H10        V59.8c0-8.28,6.72-15,15-15h402C435.28,44.8,442,51.52,442,59.8z"/>
					</g>
					<g>
						<path style="fill:#E6B263;" d="M319.6,406.95l-0.01,0.25H132.41l-0.01-0.25c30.23-1.45,54.24-26.36,54.25-56.95v-0.01v-11.53        h78.7v11.53V350C265.36,380.59,289.37,405.5,319.6,406.95z"/>
					</g>
					<g>
						<polygon style="fill:#FF7124;" points="263.56,148.02 231.96,164.67 215.31,196.27 182.44,115.16       "/>
					</g>
					<g>
						<path style="fill:#5E2A41;" d="M227.07,283.5c7.46,0,13.5,6.04,13.5,13.5s-6.04,13.5-13.5,13.5c-7.45,0-13.5-6.04-13.5-13.5        S219.62,283.5,227.07,283.5z"/>
					</g>
				</g>
				<g>
					<g>
						<path style="fill:#5E2A41;" d="M427,348.46H25c-13.785,0-25-11.215-25-25V59.8c0-13.785,11.215-25,25-25h402        c13.785,0,25,11.215,25,25v263.66C452,337.245,440.785,348.46,427,348.46z M25,54.8c-2.757,0-5,2.243-5,5v263.66        c0,2.757,2.243,5,5,5h402c2.757,0,5-2.243,5-5V59.8c0-2.757-2.243-5-5-5H25z"/>
					</g>
					<g>
						<path style="fill:#5E2A41;" d="M215.311,206.27c-0.167,0-0.334-0.004-0.501-0.013c-3.887-0.194-7.308-2.625-8.768-6.231        l-32.869-81.11c-2.074-5.119,0.394-10.95,5.512-13.024c5.122-2.076,10.95,0.394,13.023,5.512l24.787,61.164l6.618-12.561        c2.574-4.886,8.623-6.762,13.508-4.186c4.887,2.575,6.761,8.622,4.186,13.509l-16.65,31.6        C222.421,204.226,219.008,206.27,215.311,206.27z"/>
					</g>
					<g>
						<path style="fill:#5E2A41;" d="M231.969,174.672c-3.593,0-7.064-1.941-8.855-5.34c-2.575-4.886-0.701-10.934,4.186-13.509        l12.556-6.616l-61.169-24.778c-5.118-2.074-7.587-7.904-5.514-13.023c2.073-5.12,7.905-7.587,13.023-5.514l81.119,32.86        c3.606,1.461,6.038,4.882,6.232,8.768c0.194,3.887-1.883,7.533-5.326,9.347l-31.6,16.65        C235.135,174.3,233.54,174.672,231.969,174.672z"/>
					</g>
					<g>
						<path style="fill:#5E2A41;" d="M257.67,200.39c-2.56,0-5.119-0.977-7.072-2.93l-25.71-25.72        c-3.904-3.906-3.903-10.238,0.003-14.142c3.905-3.905,10.236-3.903,14.142,0.002l25.71,25.72        c3.904,3.906,3.903,10.238-0.003,14.142C262.787,199.414,260.228,200.39,257.67,200.39z"/>
					</g>
					<g>
						<path style="fill:#5E2A41;" d="M442,266.33H12.15c-5.523,0-10-4.477-10-10c0-5.523,4.477-10,10-10H442c5.522,0,10,4.477,10,10        C452,261.853,447.522,266.33,442,266.33z"/>
					</g>
					<g>
						<path style="fill:#5E2A41;" d="M319.59,417.2H132.41c-5.522,0-10-4.477-10-10c0-5.523,4.478-10,10-10h187.18        c5.522,0,10,4.477,10,10C329.59,412.723,325.112,417.2,319.59,417.2z"/>
					</g>
					<g>
						<path style="fill:#5E2A41;" d="M322.37,417.01c-1.074,0-2.153-0.023-3.205-0.069c-35.791-1.717-63.803-31.119-63.815-66.938        c-0.002-5.523,4.474-10.001,9.996-10.003c0.001,0,0.003,0,0.004,0c5.521,0,9.998,4.475,10,9.997        c0.009,25.133,19.656,45.762,44.729,46.965c0.73,0.032,1.507,0.048,2.291,0.048c5.523,0,10,4.477,10,10        C332.37,412.533,327.893,417.01,322.37,417.01z"/>
					</g>
					<g>
						<path style="fill:#5E2A41;" d="M129.63,417.01c-5.522,0-10-4.477-10-10c0-5.523,4.478-10,10-10        c0.784,0,1.561-0.016,2.336-0.05c25.028-1.201,44.676-21.83,44.685-46.963c0.002-5.522,4.479-9.997,10-9.997        c0.001,0,0.002,0,0.004,0c5.523,0.002,9.998,4.48,9.996,10.003c-0.013,35.819-28.024,65.22-63.771,66.935        C131.783,416.986,130.704,417.01,129.63,417.01z"/>
					</g>
					<g>
						<path style="fill:#5E2A41;" d="M186.65,359.995c-5.523,0-10-4.472-10-9.995v-11.75c0-5.523,4.477-10,10-10        c5.522,0,10,4.477,10,10v11.74C196.65,355.513,192.173,359.995,186.65,359.995z"/>
					</g>
					<g>
						<path style="fill:#5E2A41;" d="M265.35,359.995c-5.523,0-10-4.472-10-9.995v-11.75c0-5.523,4.477-10,10-10        c5.522,0,10,4.477,10,10v11.74C275.35,355.513,270.872,359.995,265.35,359.995z"/>
					</g>
				</g>
			</g>
		</g>
	</g>
</g>















</svg>
