<?xml version="1.0" encoding="iso-8859-1"?>
<!-- Generator: Adobe Illustrator 19.0.0, SVG Export Plug-In . SVG Version: 6.00 Build 0)  -->
<svg xmlns="http://www.w3.org/2000/svg" xmlns:xlink="http://www.w3.org/1999/xlink" version="1.1" id="Layer_1" x="0px" y="0px" viewBox="0 0 450.263 450.263" style="enable-background:new 0 0 450.263 450.263;" xml:space="preserve" width="512" height="512">
<g id="_x33_1._Ink_pen_1_">
	<g id="XMLID_79_">
		<g>
			<g>
				<polygon style="fill:#FF7124;" points="315.692,395.643 315.692,440.263 134.572,440.263 134.572,351.013 161.552,351.013       288.712,351.013 315.692,351.013     "/>
			</g>
			<g>
				<path style="fill:#8ECAC1;" d="M225.222,211.433c-11.33,0-20.51,9.18-20.51,20.51s9.18,20.51,20.51,20.51      s20.51-9.18,20.51-20.51S236.552,211.433,225.222,211.433z M225.222,10.303c8.54,28.49,19.5,58.49,32.74,88.85      c31.14,71.41,68.65,130.47,103.17,166.72c-40.03,0-72.42,32.39-72.42,72.42v12.72h-127.16v-12.72      c0-40.03-32.39-72.42-72.42-72.42c34.52-36.25,72.02-95.31,103.16-166.72c13.29-30.47,24.28-60.57,32.84-89.15      C225.162,10.103,225.192,10.203,225.222,10.303z"/>
			</g>
			<g>
				<circle style="fill:#F2D59F;" cx="225.222" cy="231.943" r="20.51"/>
			</g>
		</g>
		<g>
			<g>
				<path style="fill:#5E2A41;" d="M225.221,262.453c-16.823,0-30.51-13.687-30.51-30.51c0-16.823,13.687-30.51,30.51-30.51      c16.823,0,30.51,13.687,30.51,30.51C255.731,248.767,242.045,262.453,225.221,262.453z M225.221,221.433      c-5.795,0-10.51,4.715-10.51,10.51c0,5.795,4.715,10.51,10.51,10.51c5.795,0,10.51-4.715,10.51-10.51      C235.731,226.148,231.016,221.433,225.221,221.433z"/>
			</g>
			<g>
				<path style="fill:#5E2A41;" d="M161.552,361.013c-5.522,0-10-4.477-10-10v-12.72c0-34.419-28.001-62.42-62.42-62.42      c-5.522,0-10-4.477-10-10c0-5.523,4.478-10,10-10c45.446,0,82.42,36.974,82.42,82.42v12.72      C171.552,356.536,167.074,361.013,161.552,361.013z"/>
			</g>
			<g>
				<path style="fill:#5E2A41;" d="M288.712,361.013c-5.523,0-10-4.477-10-10v-12.72c0-45.446,36.974-82.42,82.42-82.42      c5.522,0,10,4.477,10,10c0,5.523-4.478,10-10,10c-34.419,0-62.42,28.001-62.42,62.42v12.72      C298.712,356.536,294.234,361.013,288.712,361.013z"/>
			</g>
			<g>
				<path style="fill:#5E2A41;" d="M89.13,275.874c-2.478,0-4.958-0.914-6.895-2.758c-3.999-3.809-4.154-10.138-0.346-14.138      c34.934-36.684,71.833-96.395,101.236-163.821c12.843-29.445,23.752-59.06,32.426-88.022c1.586-5.291,7.16-8.295,12.449-6.711      c5.291,1.584,8.295,7.158,6.711,12.449c-8.904,29.728-20.092,60.102-33.254,90.279      c-30.301,69.484-68.603,131.308-105.084,169.618C94.408,274.834,91.771,275.874,89.13,275.874z"/>
			</g>
			<g>
				<path style="fill:#5E2A41;" d="M361.134,275.874c-2.642,0-5.278-1.04-7.244-3.104c-36.495-38.325-74.8-100.148-105.094-169.619      c-13.12-30.084-24.274-60.357-33.153-89.976l-0.083-0.276c-1.599-5.287,1.391-10.868,6.678-12.467      c5.283-1.601,10.866,1.39,12.467,6.677l0.09,0.3c8.656,28.879,19.533,58.394,32.334,87.748      c29.397,67.413,66.299,127.123,101.246,163.822c3.809,4,3.653,10.329-0.346,14.138      C366.093,274.959,363.61,275.874,361.134,275.874z"/>
			</g>
			<g>
				<path style="fill:#5E2A41;" d="M315.691,450.263H134.572c-5.522,0-10-4.477-10-10v-89.25c0-5.523,4.478-10,10-10h181.119      c5.522,0,10,4.477,10,10v89.25C325.691,445.786,321.214,450.263,315.691,450.263z M144.572,430.263h161.119v-69.25H144.572      V430.263z"/>
			</g>
			<g>
				<path style="fill:#5E2A41;" d="M315.691,405.643h-90.56c-5.523,0-10-4.477-10-10c0-5.523,4.477-10,10-10h90.56      c5.522,0,10,4.477,10,10C325.691,401.166,321.214,405.643,315.691,405.643z"/>
			</g>
			<g>
				<path style="fill:#5E2A41;" d="M225.221,221.433c-5.522,0-10-4.477-10-10V10.004c0-5.523,4.478-10,10-10c5.523,0,10,4.477,10,10      v201.43C235.221,216.956,230.744,221.433,225.221,221.433z"/>
			</g>
		</g>
	</g>
</g>















</svg>
