<?xml version="1.0" encoding="iso-8859-1"?>
<!-- Generator: Adobe Illustrator 19.0.0, SVG Export Plug-In . SVG Version: 6.00 Build 0)  -->
<svg xmlns="http://www.w3.org/2000/svg" xmlns:xlink="http://www.w3.org/1999/xlink" version="1.1" id="Layer_1" x="0px" y="0px" viewBox="0 0 480 480" style="enable-background:new 0 0 480 480;" xml:space="preserve" width="512" height="512">
<g id="_x34_4._Knapsack_1_">
	<g id="XMLID_92_">
		<g>
			<g>
				<path style="fill:#F2D59F;" d="M391.83,134.66V450c0,11.05-8.95,20-20,20H108.17c-11.05,0-20-8.95-20-20V134.66      c0-26.62,13.87-50.01,34.79-63.31c11.62-7.4,25.41-11.69,40.21-11.69h7.24H211h58h40.59h7.24c14.8,0,28.59,4.29,40.21,11.69      C377.96,84.65,391.83,108.04,391.83,134.66z M351.76,414.95v-98.83v-25.36c0-8.29-6.71-15-15-15H143.24c-8.29,0-15,6.71-15,15      v25.36v98.83c0,8.29,6.71,15,15,15h193.52C345.05,429.95,351.76,423.24,351.76,414.95z M274.79,146.12L240,111.32l-34.79,34.8      L240,180.91L274.79,146.12z"/>
			</g>
			<g>
				<path style="fill:#FF7124;" d="M357.04,71.34v0.01c-11.62-7.4-25.41-11.69-40.21-11.69h-7.24V10h47.45V71.34z"/>
			</g>
			<g>
				<path style="fill:#8ECAC1;" d="M351.76,316.12v98.83c0,8.29-6.71,15-15,15H143.24c-8.29,0-15-6.71-15-15v-98.83H351.76z"/>
			</g>
			<g>
				<path style="fill:#FF7124;" d="M351.76,290.76v25.36H128.24v-25.36c0-8.29,6.71-15,15-15h193.52      C345.05,275.76,351.76,282.47,351.76,290.76z"/>
			</g>
			<g>
				<polygon style="fill:#8ECAC1;" points="240,111.32 274.79,146.12 240,180.91 205.21,146.12     "/>
			</g>
			<g>
				<path style="fill:#FF7124;" d="M170.41,10v49.66h-7.24c-14.8,0-28.59,4.29-40.21,11.69v-0.01V10H170.41z"/>
			</g>
		</g>
		<g>
			<g>
				<path style="fill:#5E2A41;" d="M371.83,480H108.17c-16.542,0-30-13.458-30-30V134.66c0-29.233,14.738-56.055,39.425-71.749      c13.61-8.667,29.372-13.251,45.575-13.251H211c5.523,0,10,4.477,10,10c0,5.523-4.477,10-10,10h-47.83      c-12.391,0-24.438,3.501-34.839,10.125C109.442,91.794,98.17,112.306,98.17,134.66V450c0,5.514,4.486,10,10,10h263.66      c5.514,0,10-4.486,10-10V134.66c0-22.354-11.273-42.867-30.155-54.871c-10.407-6.628-22.454-10.129-34.845-10.129H269      c-5.522,0-10-4.477-10-10c0-5.523,4.478-10,10-10h47.83c16.203,0,31.965,4.583,45.581,13.255      c24.681,15.69,39.419,42.513,39.419,71.745V450C401.83,466.542,388.372,480,371.83,480z"/>
			</g>
			<g>
				<path style="fill:#5E2A41;" d="M240,190.91c-2.56,0-5.118-0.976-7.071-2.929l-34.79-34.79      c-3.904-3.905-3.905-10.236-0.001-14.141l34.79-34.8c1.876-1.876,4.42-2.93,7.072-2.93s5.196,1.054,7.072,2.93l34.79,34.8      c3.904,3.905,3.903,10.236-0.001,14.141l-34.79,34.79C245.118,189.934,242.56,190.91,240,190.91z M219.351,146.119L240,166.768      l20.649-20.649L240,125.464L219.351,146.119z"/>
			</g>
			<g>
				<path style="fill:#5E2A41;" d="M351.76,326.12H128.24c-5.522,0-10-4.477-10-10c0-5.523,4.478-10,10-10h223.52      c5.522,0,10,4.477,10,10C361.76,321.643,357.282,326.12,351.76,326.12z"/>
			</g>
			<g>
				<path style="fill:#5E2A41;" d="M314.53,353.02c-5.522,0-10-4.477-10-10V324.4c0-5.523,4.478-10,10-10c5.522,0,10,4.477,10,10      v18.62C324.53,348.543,320.053,353.02,314.53,353.02z"/>
			</g>
			<g>
				<path style="fill:#5E2A41;" d="M336.76,439.95H143.24c-13.785,0-25-11.215-25-25V290.76c0-13.785,11.215-25,25-25h193.52      c13.785,0,25,11.215,25,25v124.19C361.76,428.735,350.545,439.95,336.76,439.95z M143.24,285.76c-2.757,0-5,2.243-5,5v124.19      c0,2.757,2.243,5,5,5h193.52c2.757,0,5-2.243,5-5V290.76c0-2.757-2.243-5-5-5H143.24z"/>
			</g>
			<g>
				<path style="fill:#5E2A41;" d="M122.96,81.34c-5.522,0-10-4.477-10-10V10c0-5.523,4.478-10,10-10h47.45c5.522,0,10,4.477,10,10      v49.66c0,5.523-4.478,10-10,10c-5.523,0-10-4.477-10-10V20h-27.45v51.34C132.96,76.863,128.482,81.34,122.96,81.34z"/>
			</g>
			<g>
				<path style="fill:#5E2A41;" d="M357.04,81.34c-5.522,0-10-4.477-10-10V20h-27.45v39.66c0,5.523-4.478,10-10,10      c-5.522,0-10-4.477-10-10V10c0-5.523,4.478-10,10-10h47.45c5.522,0,10,4.477,10,10v61.34      C367.04,76.863,362.563,81.34,357.04,81.34z"/>
			</g>
			<g>
				<path style="fill:#5E2A41;" d="M269,69.66h-58c-5.523,0-10-4.477-10-10V43.81c0-16.542,13.458-30,30-30h18      c16.542,0,30,13.458,30,30v15.85C279,65.183,274.522,69.66,269,69.66z M221,49.66h38v-5.85c0-5.514-4.486-10-10-10h-18      c-5.514,0-10,4.486-10,10V49.66z"/>
			</g>
		</g>
	</g>
</g>















</svg>
