<?xml version="1.0" encoding="iso-8859-1"?>
<!-- Generator: Adobe Illustrator 19.0.0, SVG Export Plug-In . SVG Version: 6.00 Build 0)  -->
<svg xmlns="http://www.w3.org/2000/svg" xmlns:xlink="http://www.w3.org/1999/xlink" version="1.1" id="Layer_1" x="0px" y="0px" viewBox="0 0 408.489 408.489" style="enable-background:new 0 0 408.489 408.489;" xml:space="preserve" width="512" height="512">
<g id="_x33_7._Microscope_1_">
	<g>
		<g id="XMLID_85_">
			<g>
				<g>
					<path style="fill:#F2D59F;" d="M270.695,281.389h44.15c-21.29,43.97-66.34,72.3-115.18,72.3       c-70.53,0-127.92-57.38-127.92-127.92c0-37.31,16.07-72.32,44.24-96.69c-0.16,1.14-0.24,2.29-0.24,3.47       c0,13.62,10.4,24.81,23.69,26.06c-19.14,17.15-30.03,41.38-30.03,67.16c0,49.77,40.49,90.27,90.26,90.27       C227.595,316.039,253.765,302.899,270.695,281.389z"/>
				</g>
				<g>
					<path style="fill:#E6B263;" d="M307.745,398.489H87.995c0-12.37,5.01-23.57,13.12-31.67c8.1-8.11,19.3-13.12,31.67-13.12       h130.17C287.695,353.699,307.745,373.749,307.745,398.489z"/>
				</g>
				<g>
					<polygon style="fill:#8ECAC1;" points="297.705,191.429 271.605,217.529 232.055,177.979 258.155,151.889 258.165,151.889             "/>
				</g>
				<g>
					<path style="fill:#FF7124;" d="M258.155,151.889l-26.1,26.09l-4.85,4.86c-5.03,5.02-13.19,5.02-18.21,0l-42.18-42.18       c0.84-2.55,1.29-5.28,1.29-8.11c0-14.45-11.72-26.17-26.18-26.17c-2.83,0-5.55,0.45-8.1,1.29l-21.95-21.95       c-5.03-5.03-5.03-13.19,0-18.21l2.43-2.43l33.38-33.38c5.03-5.03,13.18-5.03,18.21,0l97.12,97.11c5.03,5.03,5.03,13.19,0,18.22       l-4.85,4.86H258.155z"/>
				</g>
				<g>
					<path style="fill:#E6B263;" d="M168.105,132.549c0,2.83-0.45,5.56-1.29,8.11c-3.4,10.49-13.26,18.07-24.89,18.07       c-0.84,0-1.67-0.04-2.49-0.12c-13.29-1.25-23.69-12.44-23.69-26.06c0-1.18,0.08-2.33,0.24-3.47       c1.33-10.08,8.41-18.36,17.84-21.41c2.55-0.84,5.27-1.29,8.1-1.29C156.385,106.379,168.105,118.099,168.105,132.549z"/>
				</g>
				<g>
					<polygon style="fill:#8ECAC1;" points="145.255,34.119 114.305,65.079 90.175,40.959 121.135,9.999      "/>
				</g>
			</g>
			<g>
				<g>
					<path style="fill:#5E2A41;" d="M307.745,408.489H87.995c-5.523,0-10-4.477-10-10c0-14.646,5.701-28.406,16.054-38.746       c10.331-10.343,24.091-16.044,38.736-16.044h130.17c30.211,0,54.79,24.579,54.79,54.79       C317.745,404.012,313.267,408.489,307.745,408.489z M99.444,388.489H296.28c-4.306-14.326-17.616-24.79-33.326-24.79h-130.17       c-9.299,0-18.033,3.618-24.595,10.187C104.043,378.027,101.074,383.028,99.444,388.489z"/>
				</g>
				<g>
					<path style="fill:#5E2A41;" d="M218.091,196.594c-5.858,0-11.712-2.228-16.167-6.683l-42.18-42.18       c-3.905-3.905-3.905-10.237,0-14.143c3.905-3.905,10.237-3.905,14.143,0l42.18,42.18c1.12,1.121,2.948,1.117,4.075-0.007       l4.836-4.846c3.901-3.91,10.232-3.916,14.142-0.014c3.909,3.901,3.916,10.233,0.014,14.142l-4.85,4.86       C229.813,194.364,223.95,196.594,218.091,196.594z"/>
				</g>
				<g>
					<path style="fill:#5E2A41;" d="M258.164,161.889c-2.556,0-5.112-0.974-7.064-2.922c-3.909-3.901-3.916-10.233-0.014-14.142       l4.85-4.86c1.131-1.131,1.131-2.96,0.007-4.084l-97.12-97.11c-1.121-1.121-2.946-1.121-4.068,0l-35.81,35.811       c-0.697,0.696-0.843,1.487-0.843,2.03c0,0.544,0.146,1.34,0.844,2.037l21.95,21.95c3.905,3.905,3.905,10.237,0,14.143       c-3.905,3.904-10.237,3.904-14.143,0l-21.95-21.95c-4.321-4.322-6.701-10.068-6.701-16.18c0-6.116,2.382-11.862,6.709-16.18       l35.803-35.803c8.92-8.92,23.433-8.919,32.352,0l97.12,97.11c8.922,8.922,8.922,23.44,0.001,32.362l-4.843,4.853       C263.289,160.91,260.727,161.889,258.164,161.889z"/>
				</g>
				<g>
					<path style="fill:#5E2A41;" d="M271.604,227.529c-2.559,0-5.119-0.976-7.071-2.929l-39.55-39.55       c-1.876-1.876-2.929-4.42-2.929-7.072c0-2.652,1.054-5.196,2.93-7.071l25.973-25.963c1.818-1.886,4.371-3.06,7.197-3.06       c2.252,0,4.33,0.743,6.001,1.999c0.379,0.284,0.74,0.596,1.08,0.935l39.54,39.54c3.905,3.905,3.905,10.237,0,14.143l-26.1,26.1       C276.723,226.553,274.163,227.529,271.604,227.529z M246.198,177.981l25.406,25.406l11.958-11.958l-25.404-25.404       L246.198,177.981z"/>
				</g>
				<g>
					<path style="fill:#5E2A41;" d="M114.305,75.08c-2.559,0-5.117-0.976-7.07-2.928l-24.13-24.12       c-1.876-1.875-2.93-4.419-2.93-7.071c0-2.652,1.053-5.196,2.929-7.072l30.96-30.96c3.905-3.904,10.237-3.904,14.143,0       l24.12,24.12c3.905,3.905,3.905,10.236,0.001,14.141l-30.95,30.96C119.424,74.103,116.864,75.08,114.305,75.08z        M104.318,40.958l9.984,9.979l16.811-16.817l-9.979-9.979L104.318,40.958z"/>
				</g>
				<g>
					<path style="fill:#5E2A41;" d="M336.745,291.389h-100c-5.523,0-10-4.477-10-10c0-5.523,4.477-10,10-10h100       c5.523,0,10,4.477,10,10C346.745,286.912,342.267,291.389,336.745,291.389z"/>
				</g>
				<g>
					<path style="fill:#5E2A41;" d="M141.925,168.729c-1.16,0-2.325-0.056-3.462-0.167c-18.637-1.753-32.718-17.236-32.718-36.013       c0-1.617,0.111-3.238,0.331-4.818c1.825-13.712,11.504-25.318,24.671-29.576c3.559-1.172,7.337-1.775,11.177-1.775       c19.95,0,36.18,16.226,36.18,36.17c0,3.849-0.603,7.631-1.792,11.24C171.483,158.688,157.658,168.729,141.925,168.729z        M141.925,116.379c-1.711,0-3.384,0.265-4.972,0.788c-5.928,1.918-10.247,7.1-11.054,13.22       c-0.003,0.028-0.007,0.056-0.011,0.084c-0.096,0.685-0.143,1.364-0.143,2.078c0,8.396,6.288,15.32,14.626,16.104       c0.53,0.052,1.041,0.076,1.554,0.076c7.035,0,13.215-4.482,15.377-11.153c0.538-1.633,0.803-3.308,0.803-5.027       C158.104,123.633,150.846,116.379,141.925,116.379z"/>
				</g>
				<g>
					<path style="fill:#5E2A41;" d="M199.664,363.689c-76.049,0-137.92-61.871-137.92-137.92c0-40.031,17.385-78.03,47.698-104.253       c4.177-3.613,10.491-3.156,14.105,1.021c3.613,4.177,3.156,10.492-1.021,14.105c-25.918,22.421-40.783,54.907-40.783,89.127       c0,65.021,52.898,117.92,117.92,117.92c44.895,0,86.573-26.165,106.18-66.658c2.407-4.971,8.386-7.05,13.358-4.643       c4.971,2.407,7.049,8.388,4.643,13.358C300.919,333.095,252.176,363.689,199.664,363.689z"/>
				</g>
				<g>
					<path style="fill:#5E2A41;" d="M199.664,326.04c-55.283,0-100.26-44.981-100.26-100.27c0-28.42,12.158-55.614,33.356-74.608       c4.113-3.685,10.436-3.339,14.121,0.774c3.686,4.113,3.339,10.436-0.774,14.121c-16.97,15.206-26.703,36.97-26.703,59.712       c0,44.261,36.004,80.27,80.26,80.27c24.359,0,47.976-11.527,63.172-30.836c3.415-4.338,9.703-5.088,14.043-1.673       c4.34,3.415,5.089,9.703,1.673,14.043C259.595,311.66,230.104,326.04,199.664,326.04z"/>
				</g>
			</g>
		</g>
	</g>
</g>















</svg>
