<?xml version="1.0" encoding="iso-8859-1"?>
<!-- Generator: Adobe Illustrator 19.0.0, SVG Export Plug-In . SVG Version: 6.00 Build 0)  -->
<svg xmlns="http://www.w3.org/2000/svg" xmlns:xlink="http://www.w3.org/1999/xlink" version="1.1" id="Layer_1" x="0px" y="0px" viewBox="0 0 430.87 430.87" style="enable-background:new 0 0 430.87 430.87;" xml:space="preserve" width="512" height="512">
<g id="_x32_6._Molecule_2_">
	<g id="XMLID_74_">
		<g>
			<g>
				<path style="fill:#E6B263;" d="M379.985,339.09c22.58,0,40.88,18.31,40.88,40.89s-18.3,40.89-40.88,40.89      c-22.59,0-40.89-18.31-40.89-40.89c0-11.29,4.57-21.51,11.97-28.91h0.01C358.475,343.67,368.695,339.09,379.985,339.09z"/>
			</g>
			<g>
				<path style="fill:#8ECAC1;" d="M327.215,30.46c11.29,19.56,4.59,44.57-14.97,55.86c-9.77,5.64-20.91,6.79-31.02,4.08      c-10.11-2.71-19.19-9.27-24.83-19.05c-11.29-19.56-4.59-44.56,14.97-55.85C290.915,4.21,315.925,10.91,327.215,30.46z"/>
			</g>
			<g>
				<path style="fill:#FF7124;" d="M270.965,188.83c28.75,16.6,38.61,53.37,22,82.13c-2.69,4.66-5.91,8.83-9.54,12.46      c-18.77,18.8-48.49,23.46-72.59,9.55c-28.76-16.6-38.61-53.38-22.01-82.14c13.91-24.09,41.98-34.92,67.64-28.02      C261.425,184.14,266.305,186.14,270.965,188.83z M219.135,228.33l21.82-12.57C231.975,215.76,223.615,220.58,219.135,228.33z"/>
			</g>
			<g>
				<path style="fill:#FFFFFF;" d="M240.955,215.76l-21.82,12.57C223.615,220.58,231.975,215.76,240.955,215.76z"/>
			</g>
			<g>
				<path style="fill:#F2D59F;" d="M90.405,281.22c2.71,10.11,1.56,21.25-4.08,31.03c-11.29,19.55-36.3,26.25-55.85,14.96      c-19.56-11.29-26.26-36.29-14.97-55.85s36.3-26.26,55.85-14.97C81.135,262.03,87.695,271.11,90.405,281.22z"/>
			</g>
		</g>
		<g>
			<g>
				<path style="fill:#5E2A41;" d="M90.398,291.223c-4.416,0-8.456-2.947-9.653-7.415c-1.43-5.334,1.736-10.817,7.071-12.247      l92.41-24.761c5.337-1.432,10.818,1.736,12.248,7.071c1.43,5.334-1.736,10.817-7.071,12.247l-92.41,24.761      C92.126,291.112,91.255,291.223,90.398,291.223z"/>
			</g>
			<g>
				<path style="fill:#5E2A41;" d="M50.833,342.71c-8.818,0-17.52-2.313-25.36-6.84c-11.773-6.796-20.193-17.768-23.711-30.895      c-3.519-13.127-1.714-26.841,5.082-38.614c6.795-11.773,17.769-20.194,30.899-23.714c13.13-3.52,26.843-1.713,38.612,5.083      c11.764,6.784,20.186,17.76,23.708,30.901c3.518,13.124,1.715,26.838-5.077,38.614c-6.799,11.773-17.773,20.191-30.903,23.709      C59.701,342.129,55.252,342.71,50.833,342.71z M50.965,260.9c-2.683,0-5.383,0.352-8.044,1.065      c-7.97,2.136-14.63,7.248-18.755,14.393c-4.125,7.147-5.221,15.471-3.085,23.439c2.136,7.968,7.247,14.627,14.393,18.751      c0,0.001,0.001,0.001,0.002,0.001c7.142,4.125,15.464,5.221,23.434,3.086c7.97-2.135,14.63-7.244,18.755-14.387      c4.122-7.145,5.216-15.472,3.081-23.439c-2.139-7.979-7.248-14.64-14.386-18.756C61.598,262.304,56.316,260.9,50.965,260.9z"/>
			</g>
			<g>
				<path style="fill:#5E2A41;" d="M240.874,311.013c-12.013,0-24.105-3.072-35.039-9.382      c-33.488-19.33-45.005-62.306-25.672-95.801c15.86-27.467,48.306-40.904,78.897-32.678c5.881,1.577,11.57,3.939,16.902,7.016      c16.221,9.366,27.822,24.487,32.67,42.578c4.849,18.094,2.359,36.992-7.01,53.214c-3.078,5.335-6.821,10.223-11.122,14.525l0,0      C277.029,303.98,259.044,311.013,240.874,311.013z M240.92,190.756c-17.574,0-34.328,9.302-43.436,25.075      c-13.819,23.941-5.588,54.662,18.349,68.479c19.636,11.334,44.521,8.064,60.515-7.954c0.001-0.002,0.003-0.003,0.004-0.005      c3.067-3.068,5.742-6.564,7.95-10.389c6.698-11.598,8.478-25.105,5.012-38.038c-3.465-12.932-11.758-23.739-23.351-30.434      c-3.819-2.205-7.888-3.895-12.09-5.02C249.574,191.312,245.222,190.756,240.92,190.756z"/>
			</g>
			<g>
				<path style="fill:#5E2A41;" d="M256.47,192.813c-0.857,0-1.727-0.111-2.594-0.344c-5.335-1.43-8.501-6.913-7.071-12.247      l24.761-92.41c1.43-5.334,6.911-8.503,12.247-7.071c5.335,1.43,8.501,6.913,7.071,12.247l-24.761,92.41      C264.926,189.866,260.885,192.813,256.47,192.813z"/>
			</g>
			<g>
				<path style="fill:#5E2A41;" d="M291.893,101.816c-4.422,0-8.871-0.581-13.257-1.757c-13.143-3.522-24.117-11.944-30.904-23.714      c-14.024-24.298-5.666-55.481,18.634-69.507l-0.002,0.001c11.769-6.795,25.479-8.602,38.611-5.084      c13.13,3.517,24.104,11.935,30.899,23.703c6.796,11.775,8.602,25.491,5.083,38.621c-3.519,13.131-11.94,24.105-23.714,30.901      C309.406,99.505,300.707,101.816,291.893,101.816z M291.755,20.009c-5.352,0-10.632,1.403-15.39,4.151      c-0.001,0-0.001,0-0.002,0.001c-14.749,8.513-19.822,27.44-11.308,42.19c4.118,7.142,10.779,12.251,18.758,14.39      c7.969,2.138,16.289,1.042,23.432-3.081c7.146-4.125,12.258-10.786,14.393-18.757c2.136-7.971,1.04-16.297-3.086-23.444      c-4.123-7.141-10.783-12.25-18.753-14.385C297.139,20.361,294.438,20.009,291.755,20.009z"/>
			</g>
			<g>
				<path style="fill:#5E2A41;" d="M351.065,361.07c-2.56,0-5.119-0.977-7.071-2.93l-67.64-67.649      c-3.905-3.905-3.905-10.237,0.001-14.142c3.905-3.905,10.238-3.904,14.142,0.001L358.136,344      c3.905,3.905,3.905,10.237-0.001,14.142C356.183,360.094,353.623,361.07,351.065,361.07z"/>
			</g>
			<g>
				<path style="fill:#5E2A41;" d="M379.985,430.87c-28.06,0-50.89-22.829-50.89-50.89c0-13.596,5.291-26.374,14.898-35.981      c0.098-0.098,0.197-0.192,0.298-0.285c9.581-9.434,22.241-14.623,35.693-14.623c28.056,0,50.88,22.829,50.88,50.89      C430.865,408.041,408.04,430.87,379.985,430.87z M357.911,358.368c-5.688,5.804-8.816,13.466-8.816,21.612      c0,17.032,13.857,30.89,30.89,30.89c17.027,0,30.88-13.857,30.88-30.89c0-17.032-13.853-30.89-30.88-30.89      c-8.246,0-16.002,3.215-21.84,9.051C358.069,358.219,357.99,358.294,357.911,358.368z"/>
			</g>
			<g>
				<path style="fill:#5E2A41;" d="M219.125,238.332c-1.698,0-3.418-0.434-4.995-1.344c-4.781-2.764-6.417-8.881-3.653-13.662      c6.262-10.835,17.94-17.565,30.477-17.565c5.522,0,10,4.478,10,10c0,5.522-4.478,10-10,10c-5.418,0-10.461,2.902-13.161,7.573      C225.94,236.54,222.58,238.332,219.125,238.332z"/>
			</g>
		</g>
	</g>
</g>















</svg>
