<?xml version="1.0" encoding="iso-8859-1"?>
<!-- Generator: Adobe Illustrator 19.0.0, SVG Export Plug-In . SVG Version: 6.00 Build 0)  -->
<svg xmlns="http://www.w3.org/2000/svg" xmlns:xlink="http://www.w3.org/1999/xlink" version="1.1" id="Layer_1" x="0px" y="0px" viewBox="0 0 437.24 437.24" style="enable-background:new 0 0 437.24 437.24;" xml:space="preserve" width="512" height="512">
<g id="_x34_0._Pen_1_">
	<g id="XMLID_88_">
		<g>
			<g>
				<path style="fill:#FF7124;" d="M387.95,35.804c8.24,8.24,12.36,19.04,12.36,29.84s-4.12,21.6-12.36,29.84L266.1,217.334      l-59.68-59.68l121.85-121.85C344.75,19.334,371.47,19.334,387.95,35.804z"/>
			</g>
			<g>
				<polygon style="fill:#F2D59F;" points="266.1,217.334 102.76,380.674 43.08,321.004 206.42,157.654     "/>
			</g>
			<g>
				<polygon style="fill:#E6B263;" points="102.76,380.674 19.8,403.954 43.08,321.004     "/>
			</g>
		</g>
		<g>
			<g>
				<path style="fill:#5E2A41;" d="M19.801,413.954c-2.616,0.001-5.171-1.028-7.072-2.929c-2.556-2.556-3.533-6.292-2.557-9.773      l23.28-82.95c1.491-5.317,7.008-8.419,12.33-6.926c5.317,1.492,8.418,7.013,6.926,12.33l-18.47,65.81l65.819-18.47      c5.322-1.495,10.838,1.609,12.33,6.926c1.492,5.317-1.608,10.837-6.926,12.33l-82.96,23.28      C21.61,413.832,20.701,413.954,19.801,413.954z"/>
			</g>
			<g>
				<path style="fill:#5E2A41;" d="M10,423.764c-2.558,0-5.115-0.975-7.067-2.925c-3.907-3.903-3.91-10.235-0.008-14.142l9.8-9.81      c3.903-3.907,10.235-3.912,14.143-0.007c3.907,3.903,3.91,10.235,0.008,14.142l-9.8,9.81      C15.122,422.786,12.56,423.764,10,423.764z"/>
			</g>
			<g>
				<path style="fill:#5E2A41;" d="M102.76,390.673c-2.559,0-5.118-0.976-7.07-2.928l-59.68-59.67      c-1.876-1.875-2.93-4.419-2.93-7.071c0-2.652,1.054-5.196,2.929-7.071l163.34-163.35l121.851-121.85      c20.354-20.342,53.468-20.341,73.819-0.002c9.862,9.861,15.292,22.97,15.292,36.913c0,13.943-5.43,27.052-15.289,36.911      l-285.19,285.19C107.878,389.697,105.318,390.673,102.76,390.673z M57.222,321.003l45.536,45.529l278.12-278.12      c6.082-6.081,9.432-14.168,9.432-22.769c0-8.601-3.35-16.687-9.432-22.768c-12.555-12.547-32.984-12.547-45.539,0.002      L213.491,164.725L57.222,321.003z"/>
			</g>
			<g>
				<path style="fill:#5E2A41;" d="M307.92,248.174c-2.56,0-5.118-0.976-7.071-2.929c-3.905-3.905-3.905-10.237,0-14.142      l103.86-103.86c8.081-8.081,12.531-18.831,12.531-30.269c0-11.438-4.45-22.188-12.531-30.27l-23.83-23.829      c-3.905-3.905-3.905-10.237,0-14.142c3.906-3.905,10.236-3.906,14.143,0l23.83,23.83c11.858,11.859,18.389,27.631,18.389,44.412      c0,16.78-6.53,32.552-18.389,44.411l-103.86,103.86C313.039,247.197,310.478,248.174,307.92,248.174z"/>
			</g>
			<g>
				<path style="fill:#5E2A41;" d="M266.1,227.334c-2.56,0-5.118-0.976-7.071-2.929l-59.681-59.68      c-3.905-3.905-3.905-10.237,0-14.142c3.906-3.905,10.236-3.906,14.143,0l59.681,59.68c3.905,3.905,3.905,10.237,0,14.142      C271.219,226.357,268.66,227.334,266.1,227.334z"/>
			</g>
		</g>
	</g>
</g>















</svg>
