<?xml version="1.0" encoding="iso-8859-1"?>
<!-- Generator: Adobe Illustrator 19.0.0, SVG Export Plug-In . SVG Version: 6.00 Build 0)  -->
<svg xmlns="http://www.w3.org/2000/svg" xmlns:xlink="http://www.w3.org/1999/xlink" version="1.1" id="Layer_1" x="0px" y="0px" viewBox="0 0 458.1 458.1" style="enable-background:new 0 0 458.1 458.1;" xml:space="preserve" width="512" height="512">
<g id="_x33_2._Bus_1_">
	<g id="XMLID_80_">
		<g>
			<g>
				<polygon style="fill:#F2D59F;" points="448.1,133.51 448.1,207.35 409.67,207.35 409.67,195.26 409.67,133.51     "/>
			</g>
			<g>
				<path style="fill:#8ECAC1;" d="M409.67,303.06v36.68h-69.42c-8.28,0-15-6.71-15-15v-20.95c0-8.28,6.72-15,15-15h67.74      C409.09,293.37,409.67,298.15,409.67,303.06z"/>
			</g>
			<g>
				<path style="fill:#FF7124;" d="M409.67,195.26v12.09v81.44h-1.68c-2.66-11.1-8.36-21.02-16.17-28.83      c-11.03-11.03-26.26-17.85-43.09-17.85h-30.48h-178.4h-30.48c-16.83,0-32.06,6.82-43.09,17.85      c-7.81,7.81-13.51,17.73-16.17,28.83h-1.68v-81.44v-12.09h180.62H409.67z"/>
			</g>
			<g>
				<path style="fill:#8ECAC1;" d="M409.67,133.51v61.75H229.05V94.55h178.6h0.01c1.25,4.14,1.92,8.37,2,12.67      c0.01,0.27,0.01,0.55,0.01,0.82V133.51z"/>
			</g>
			<g>
				<path style="fill:#F2D59F;" d="M409.67,381.71v4.71H48.43v-4.71v-41.97h69.42c8.28,0,15-6.71,15-15v-20.95c0-8.28-6.72-15-15-15      H50.11c2.66-11.1,8.36-21.02,16.17-28.83c11.03-11.03,26.26-17.85,43.09-17.85h30.48h178.4h30.48      c16.83,0,32.06,6.82,43.09,17.85c7.81,7.81,13.51,17.73,16.17,28.83h-67.74c-8.28,0-15,6.72-15,15v20.95c0,8.29,6.72,15,15,15      h69.42V381.71z"/>
			</g>
			<g>
				<path style="fill:#F2D59F;" d="M407.66,94.55h-0.01h-178.6H50.44c13.02-43.48,88.03-76.82,178.61-76.82      S394.64,51.07,407.66,94.55z"/>
			</g>
			<g>
				<rect x="327.28" y="386.43" style="fill:#E6B263;" width="51.92" height="53.94"/>
			</g>
			<g>
				<path style="fill:#8ECAC1;" d="M229.05,94.55v100.71H48.43v-61.75v-25.47c0-0.27,0-0.55,0.01-0.82c0.08-4.3,0.75-8.53,2-12.67      H229.05z"/>
			</g>
			<g>
				<path style="fill:#8ECAC1;" d="M132.85,303.79v20.95c0,8.29-6.72,15-15,15H48.43v-36.68c0-4.91,0.58-9.69,1.68-14.27h67.74      C126.13,288.79,132.85,295.51,132.85,303.79z"/>
			</g>
			<g>
				<rect x="78.9" y="386.43" style="fill:#E6B263;" width="51.92" height="53.94"/>
			</g>
			<g>
				<polygon style="fill:#F2D59F;" points="48.43,195.26 48.43,207.35 10,207.35 10,133.51 48.43,133.51     "/>
			</g>
		</g>
		<g>
			<g>
				<path style="fill:#5E2A41;" d="M130.82,450.37H78.9c-5.523,0-10-4.477-10-10v-53.94c0-5.523,4.477-10,10-10h51.92      c5.523,0,10,4.477,10,10v53.94C140.82,445.893,136.343,450.37,130.82,450.37z M88.9,430.37h31.92v-33.94H88.9V430.37z"/>
			</g>
			<g>
				<path style="fill:#5E2A41;" d="M379.2,450.37h-51.92c-5.523,0-10-4.477-10-10v-53.94c0-5.523,4.477-10,10-10h51.92      c5.523,0,10,4.477,10,10v53.94C389.2,445.893,384.723,450.37,379.2,450.37z M337.28,430.37h31.92v-33.94h-31.92V430.37z"/>
			</g>
			<g>
				<path style="fill:#5E2A41;" d="M409.67,205.26H229.05c-5.523,0-10-4.477-10-10c0-5.523,4.477-10,10-10h180.62      c5.523,0,10,4.477,10,10C419.67,200.783,415.193,205.26,409.67,205.26z"/>
			</g>
			<g>
				<path style="fill:#5E2A41;" d="M407.65,104.55h-178.6c-5.523,0-10-4.477-10-10c0-5.523,4.477-10,10-10h178.6      c5.523,0,10,4.477,10,10C417.65,100.073,413.173,104.55,407.65,104.55z"/>
			</g>
			<g>
				<path style="fill:#5E2A41;" d="M229.05,205.26H48.43c-5.523,0-10-4.477-10-10c0-5.523,4.477-10,10-10h170.62v-80.71H50.44      c-5.523,0-10-4.477-10-10c0-5.523,4.477-10,10-10h178.61c5.523,0,10,4.477,10,10v100.71      C239.05,200.783,234.573,205.26,229.05,205.26z"/>
			</g>
			<g>
				<path style="fill:#5E2A41;" d="M409.67,118.04c-5.523,0-10-4.477-10-10c0-0.145,0.003-0.296-0.003-0.441      c-0.003-0.064-0.004-0.129-0.006-0.193c-0.063-3.358-0.592-6.712-1.575-9.965c-5.486-18.321-24.885-35.514-54.631-48.434      C311.867,35.286,271.236,27.73,229.05,27.73s-82.817,7.556-114.406,21.277C84.898,61.927,65.499,79.12,60.02,97.418      c-0.989,3.276-1.519,6.629-1.581,9.987c-0.001,0.064-0.003,0.129-0.006,0.193c-0.005,0.145-0.003,0.296-0.003,0.441      c0,5.523-4.477,10-10,10c-5.523,0-10-4.477-10-10c0-0.357,0.002-0.728,0.014-1.087c0.104-5.165,0.919-10.31,2.423-15.293      C55.427,43.037,134.572,7.73,229.05,7.73s173.623,35.307,188.189,83.951c1.498,4.962,2.313,10.106,2.417,15.271      c0.012,0.36,0.014,0.73,0.014,1.087C419.67,113.563,415.193,118.04,409.67,118.04z"/>
			</g>
			<g>
				<path style="fill:#5E2A41;" d="M448.1,217.35h-38.43c-5.523,0-10-4.477-10-10c0-5.523,4.477-10,10-10h28.43v-53.84h-28.43      c-5.523,0-10-4.477-10-10c0-5.523,4.477-10,10-10h38.43c5.523,0,10,4.477,10,10v73.84      C458.1,212.873,453.623,217.35,448.1,217.35z"/>
			</g>
			<g>
				<path style="fill:#5E2A41;" d="M48.43,217.35H10c-5.523,0-10-4.477-10-10v-73.84c0-5.523,4.477-10,10-10h38.43      c5.523,0,10,4.477,10,10c0,5.523-4.477,10-10,10H20v53.84h28.43c5.523,0,10,4.477,10,10      C58.43,212.873,53.953,217.35,48.43,217.35z"/>
			</g>
			<g>
				<path style="fill:#5E2A41;" d="M117.85,349.74H48.43c-5.523,0-10-4.477-10-10c0-5.523,4.477-10,10-10h69.42c2.757,0,5-2.243,5-5      v-20.95c0-2.757-2.243-5-5-5H48.43c-5.523,0-10-4.477-10-10c0-5.523,4.477-10,10-10h69.42c13.785,0,25,11.215,25,25v20.95      C142.85,338.525,131.635,349.74,117.85,349.74z"/>
			</g>
			<g>
				<path style="fill:#5E2A41;" d="M409.67,349.74h-69.42c-13.785,0-25-11.215-25-25v-20.95c0-13.785,11.215-25,25-25h69.42      c5.523,0,10,4.477,10,10c0,5.523-4.477,10-10,10h-69.42c-2.757,0-5,2.243-5,5v20.95c0,2.757,2.243,5,5,5h69.42      c5.523,0,10,4.477,10,10C419.67,345.263,415.193,349.74,409.67,349.74z"/>
			</g>
			<g>
				<path style="fill:#5E2A41;" d="M48.43,313.06c-5.523,0-10-4.477-10-10V107.22c0-5.523,4.477-10,10-10c5.523,0,10,4.477,10,10      v195.84C58.43,308.582,53.953,313.06,48.43,313.06z"/>
			</g>
			<g>
				<path style="fill:#5E2A41;" d="M409.67,396.42H48.43c-5.523,0-10-4.477-10-10v-4.71c0-5.523,4.477-10,10-10      c3.581,0,6.721,1.881,8.488,4.71h344.265c1.767-2.829,4.907-4.71,8.488-4.71c5.523,0,10,4.477,10,10v4.71      C419.67,391.943,415.193,396.42,409.67,396.42z"/>
			</g>
			<g>
				<path style="fill:#5E2A41;" d="M409.67,313.06c-5.523,0-10-4.477-10-10V108.04c0-5.523,4.477-10,10-10c5.523,0,10,4.477,10,10      v195.02C419.67,308.582,415.193,313.06,409.67,313.06z"/>
			</g>
			<g>
				<path style="fill:#5E2A41;" d="M48.43,391.71c-5.523,0-10-4.477-10-10v-78.65c0-5.613,0.658-11.2,1.957-16.605      c3.039-12.683,9.548-24.292,18.822-33.565c13.399-13.399,31.213-20.779,50.161-20.779h30.48c5.523,0,10,4.477,10,10      c0,5.523-4.477,10-10,10h-30.48c-13.605,0-26.397,5.299-36.019,14.921c-6.663,6.663-11.336,14.993-13.517,24.09      c-0.933,3.882-1.405,7.897-1.405,11.939v78.65C58.43,387.233,53.953,391.71,48.43,391.71z"/>
			</g>
			<g>
				<path style="fill:#5E2A41;" d="M409.67,391.71c-5.523,0-10-4.477-10-10v-78.65c0-4.042-0.472-8.057-1.404-11.934      c-2.181-9.103-6.855-17.433-13.518-24.095c-9.622-9.622-22.413-14.921-36.018-14.921h-30.48c-5.523,0-10-4.477-10-10      c0-5.523,4.477-10,10-10h30.48c18.948,0,36.762,7.379,50.161,20.779c9.273,9.273,15.783,20.882,18.823,33.57      c1.297,5.4,1.956,10.987,1.956,16.6v78.65C419.67,387.233,415.193,391.71,409.67,391.71z"/>
			</g>
			<g>
				<path style="fill:#5E2A41;" d="M318.25,252.11h-178.4c-5.523,0-10-4.477-10-10c0-5.523,4.477-10,10-10h178.4      c5.523,0,10,4.477,10,10C328.25,247.633,323.773,252.11,318.25,252.11z"/>
			</g>
			<g>
				<path style="fill:#5E2A41;" d="M276.88,349.73h-95.66c-5.523,0-10-4.477-10-10c0-5.523,4.477-10,10-10h95.66      c5.523,0,10,4.477,10,10C286.88,345.253,282.403,349.73,276.88,349.73z"/>
			</g>
			<g>
				<path style="fill:#5E2A41;" d="M276.88,298.8h-95.66c-5.523,0-10-4.477-10-10c0-5.523,4.477-10,10-10h95.66      c5.523,0,10,4.477,10,10C286.88,294.323,282.403,298.8,276.88,298.8z"/>
			</g>
			<g>
				<path style="fill:#5E2A41;" d="M255.63,66.65h-53.16c-5.523,0-10-4.477-10-10c0-5.523,4.477-10,10-10h53.16      c5.523,0,10,4.477,10,10C265.63,62.173,261.153,66.65,255.63,66.65z"/>
			</g>
		</g>
	</g>
</g>















</svg>
