<?xml version="1.0" encoding="iso-8859-1"?>
<!-- Generator: Adobe Illustrator 19.0.0, SVG Export Plug-In . SVG Version: 6.00 Build 0)  -->
<svg xmlns="http://www.w3.org/2000/svg" xmlns:xlink="http://www.w3.org/1999/xlink" version="1.1" id="Layer_1" x="0px" y="0px" viewBox="0 0 454.802 454.802" style="enable-background:new 0 0 454.802 454.802;" xml:space="preserve" width="512" height="512">
<g id="_x31_8._Scissors_2_">
	<g>
		<g id="XMLID_66_">
			<g>
				<g>
					<path style="fill:#E6B263;" d="M393.311,323.25c24.48,34.95,15.98,83.13-18.98,107.61c-34.96,24.47-83.14,15.99-107.62-18.98       c-20.75-29.64-17.79-68.8,4.9-94.94l-21.79-31.12l-22.42-14.98l39.4-26.32l35.61,50.86       C334.741,282.98,372.551,293.6,393.311,323.25z M350.341,396.6c16.04-11.22,19.94-33.32,8.71-49.37       c-11.23-16.03-33.33-19.93-49.37-8.7s-19.93,33.33-8.71,49.37C312.211,403.94,334.311,407.83,350.341,396.6z"/>
				</g>
				<g>
					<path style="fill:#F2D59F;" d="M358.741,14.57c26.81,18.77,33.32,55.73,14.55,82.54l-100.35,143.31l-6.14,4.1l-39.4,26.32       l-22.42,14.98l-21.79,31.12c22.69,26.14,25.65,65.3,4.9,94.94c-24.48,34.97-72.66,43.45-107.62,18.98       c-34.96-24.48-43.46-72.66-18.98-107.61c20.76-29.65,58.57-40.27,90.9-27.87l35.61-50.86l39.4-56.27L352.211,10l6.52,4.57       H358.741z M232.141,242.28c0-5-4.05-9.05-9.05-9.05s-9.05,4.05-9.05,9.05s4.05,9.05,9.05,9.05S232.141,247.28,232.141,242.28z        M153.831,387.9c11.22-16.04,7.33-38.14-8.71-49.37s-38.14-7.33-49.37,8.7c-11.23,16.05-7.33,38.15,8.71,49.37       C120.491,407.83,142.591,403.94,153.831,387.9z"/>
				</g>
				<g>
					<circle style="fill:#5E2A41;" cx="223.091" cy="242.28" r="9.05"/>
				</g>
				<g>
					<path style="fill:#E6B263;" d="M102.591,10l124.81,178.25l-39.4,56.27l-6.14-4.1L81.511,97.11       c-18.77-26.81-12.26-63.77,14.55-82.54h0.01L102.591,10z"/>
				</g>
			</g>
			<g>
				<g>
					<path style="fill:#5E2A41;" d="M330.076,412.999c-14.336,0-28.459-6.75-37.295-19.358       c-14.367-20.541-9.357-48.935,11.164-63.301l0,0c20.524-14.371,48.918-9.367,63.295,11.152       c6.966,9.956,9.638,22.02,7.529,33.973c-2.109,11.955-8.75,22.372-18.697,29.33       C348.161,410.337,339.077,412.999,330.076,412.999z M329.98,342.128c-5.041,0-10.13,1.49-14.564,4.594l0,0       c-11.491,8.046-14.295,23.946-6.251,35.447c8.05,11.486,23.95,14.291,35.438,6.24c5.574-3.898,9.291-9.729,10.471-16.421       c1.181-6.694-0.316-13.451-4.217-19.026C345.914,345.908,338.008,342.128,329.98,342.128z"/>
				</g>
				<g>
					<path style="fill:#5E2A41;" d="M330.131,454.802c-27.54,0.002-54.657-12.967-71.612-37.188       c-21.485-30.688-20.923-71.165,0.632-101.035l-16.446-23.486l-20.86-13.939c-4.592-3.068-5.827-9.278-2.759-13.87       c3.068-4.591,9.277-5.826,13.87-2.759l22.42,14.98c1.031,0.689,1.925,1.564,2.636,2.579l21.79,31.119       c2.632,3.758,2.368,8.825-0.64,12.29c-20.246,23.326-21.998,57.313-4.26,82.65c21.27,30.385,63.301,37.795,93.694,16.523       c14.719-10.307,24.545-25.728,27.667-43.424c3.121-17.694-0.836-35.542-11.143-50.257       c-17.75-25.353-50.288-35.332-79.128-24.271c-4.285,1.644-9.14,0.158-11.773-3.602l-35.61-50.86       c-3.168-4.525-2.068-10.76,2.457-13.927c4.523-3.169,10.759-2.069,13.927,2.456l31.339,44.761       c35.439-10.056,73.672,3.264,95.171,33.97c13.371,19.09,18.505,42.247,14.456,65.204       c-4.049,22.955-16.796,42.961-35.892,56.333C364.865,449.693,347.413,454.801,330.131,454.802z"/>
				</g>
				<g>
					<path style="fill:#5E2A41;" d="M187.992,254.521c-1.908,0-3.837-0.545-5.543-1.685l-6.14-4.1       c-1.032-0.689-1.927-1.564-2.639-2.58L73.32,102.847C62.709,87.691,58.634,69.31,61.845,51.089       c3.212-18.223,13.326-34.1,28.48-44.711c0.09-0.063,0.181-0.124,0.272-0.184l6.253-4.383c2.172-1.523,4.863-2.121,7.474-1.66       c2.613,0.46,4.936,1.94,6.458,4.113l124.81,178.25c3.168,4.523,2.068,10.759-2.456,13.927       c-4.524,3.169-10.76,2.067-13.927-2.456L100.157,23.959c-9.867,7.517-16.449,18.31-18.616,30.602       c-2.284,12.961,0.614,26.035,8.161,36.814l99.272,141.771l4.579,3.058c4.593,3.066,5.831,9.276,2.764,13.869       C194.39,252.96,191.221,254.521,187.992,254.521z"/>
				</g>
				<g>
					<path style="fill:#5E2A41;" d="M124.671,454.802c-17.284,0.001-34.73-5.107-49.934-15.749       c-19.098-13.373-31.845-33.379-35.893-56.334c-4.049-22.957,1.085-46.114,14.458-65.206       c21.497-30.702,59.733-44.016,95.169-33.968L344.02,4.265c1.521-2.174,3.845-3.653,6.457-4.113       c2.612-0.46,5.302,0.137,7.474,1.66l6.254,4.384c0.091,0.06,0.182,0.12,0.271,0.183c15.154,10.61,25.269,26.488,28.48,44.711       c3.211,18.221-0.864,36.602-11.474,51.757l-100.351,143.31c-0.712,1.017-1.606,1.892-2.639,2.58l-66.397,44.356l-16.446,23.486       c21.556,29.87,22.117,70.347,0.632,101.036C179.33,441.832,152.208,454.801,124.671,454.802z M124.75,300.247       c-21.438,0-42.16,10.305-55.067,28.739c-10.308,14.717-14.265,32.564-11.144,50.259c3.121,17.694,12.947,33.117,27.668,43.425       c30.392,21.271,72.422,13.86,93.692-16.523c17.739-25.339,15.987-59.325-4.259-82.651c-3.008-3.465-3.271-8.532-0.64-12.29       l21.79-31.119c0.711-1.016,1.605-1.891,2.636-2.579l61.821-41.302c0.001,0,0.001-0.001,0.002-0.001l4.579-3.058L365.1,91.374       c7.546-10.778,10.445-23.852,8.161-36.813c-2.167-12.292-8.749-23.084-18.616-30.602L160.583,301.116       c-2.633,3.76-7.487,5.243-11.773,3.602C140.942,301.7,132.793,300.247,124.75,300.247z"/>
				</g>
				<g>
					<path style="fill:#5E2A41;" d="M124.728,412.997c-9.003,0-18.089-2.662-26.004-8.207c-9.942-6.954-16.582-17.371-18.691-29.326       c-2.109-11.953,0.563-24.017,7.525-33.967c14.38-20.525,42.775-25.529,63.299-11.158c20.521,14.366,25.531,42.76,11.169,63.293       c-0.002,0.003-0.003,0.005-0.005,0.008C153.185,406.247,139.063,412.997,124.728,412.997z M124.823,342.128       c-8.029,0-15.937,3.78-20.882,10.84c-3.897,5.569-5.395,12.326-4.213,19.021c1.181,6.692,4.897,12.522,10.465,16.417       c11.494,8.051,27.393,5.25,35.448-6.242c8.039-11.5,5.234-27.397-6.255-35.441       C134.953,343.619,129.864,342.128,124.823,342.128z"/>
				</g>
				<g>
					<path style="fill:#5E2A41;" d="M268.602,198.231c-1.981,0-3.982-0.587-5.728-1.809c-4.524-3.168-5.623-9.403-2.455-13.928       l57.52-82.14c3.168-4.522,9.403-5.623,13.928-2.455c4.524,3.168,5.623,9.403,2.455,13.928l-57.52,82.14       C274.857,196.744,271.755,198.231,268.602,198.231z"/>
				</g>
				<g>
					<path style="fill:#5E2A41;" d="M159.62,160.282c-3.153,0-6.255-1.487-8.201-4.267l-28.47-40.67       c-3.167-4.524-2.067-10.76,2.458-13.927c4.525-3.168,10.76-2.066,13.927,2.458l28.47,40.67       c3.167,4.524,2.067,10.76-2.458,13.927C163.6,159.695,161.6,160.282,159.62,160.282z"/>
				</g>
			</g>
		</g>
	</g>
</g>















</svg>
