<?xml version="1.0" encoding="iso-8859-1"?>
<!-- Generator: Adobe Illustrator 19.0.0, SVG Export Plug-In . SVG Version: 6.00 Build 0)  -->
<svg xmlns="http://www.w3.org/2000/svg" xmlns:xlink="http://www.w3.org/1999/xlink" version="1.1" id="Layer_1" x="0px" y="0px" viewBox="0 0 449.92 449.92" style="enable-background:new 0 0 449.92 449.92;" xml:space="preserve" width="512" height="512">
<g id="_x31_4._Stand_1_">
	<g id="XMLID_64_">
		<g>
			<g>
				<path style="fill:#F2D59F;" d="M418.55,30.6v231.74c0,8.29-6.71,15-15,15H224.96H46.37c-8.29,0-15-6.71-15-15V30.6H418.55z       M193.8,153.97V92.29H81.16v61.68H193.8z"/>
			</g>
			<g>
				<rect x="81.16" y="92.29" style="fill:#8ECAC1;" width="112.64" height="61.68"/>
			</g>
		</g>
		<g>
			<g>
				<path style="fill:#5E2A41;" d="M224.96,429.32c-5.523,0-10-4.478-10-10V277.34c0-5.522,4.477-10,10-10c5.522,0,10,4.478,10,10      v141.98C234.96,424.843,230.482,429.32,224.96,429.32z"/>
			</g>
			<g>
				<path style="fill:#5E2A41;" d="M308.96,429.32c-2.56,0-5.118-0.977-7.071-2.929l-84-84c-3.905-3.905-3.905-10.237,0-14.142      c3.906-3.904,10.236-3.904,14.143,0l84,84c3.905,3.905,3.905,10.237,0,14.142C314.078,428.344,311.52,429.32,308.96,429.32z"/>
			</g>
			<g>
				<path style="fill:#5E2A41;" d="M140.96,429.32c-2.56,0-5.118-0.977-7.071-2.929c-3.905-3.905-3.905-10.237,0-14.142l84-84      c3.906-3.904,10.236-3.904,14.143,0c3.905,3.905,3.905,10.237,0,14.142l-84,84C146.078,428.344,143.52,429.32,140.96,429.32z"/>
			</g>
			<g>
				<path style="fill:#5E2A41;" d="M193.8,163.97H81.16c-5.522,0-10-4.478-10-10V92.29c0-5.522,4.478-10,10-10H193.8      c5.522,0,10,4.478,10,10v61.68C203.8,159.492,199.322,163.97,193.8,163.97z M91.16,143.97h92.64v-41.68H91.16V143.97z"/>
			</g>
			<g>
				<path style="fill:#5E2A41;" d="M368.76,102.29H243.59c-5.523,0-10-4.478-10-10c0-5.522,4.477-10,10-10h125.17      c5.522,0,10,4.478,10,10C378.76,97.813,374.282,102.29,368.76,102.29z"/>
			</g>
			<g>
				<path style="fill:#5E2A41;" d="M368.76,163.97H243.59c-5.523,0-10-4.478-10-10c0-5.523,4.477-10,10-10h125.17      c5.522,0,10,4.477,10,10C378.76,159.492,374.282,163.97,368.76,163.97z"/>
			</g>
			<g>
				<path style="fill:#5E2A41;" d="M368.76,225.66H81.16c-5.522,0-10-4.478-10-10c0-5.523,4.478-10,10-10h287.6      c5.522,0,10,4.477,10,10C378.76,221.183,374.282,225.66,368.76,225.66z"/>
			</g>
			<g>
				<path style="fill:#5E2A41;" d="M403.55,287.34H46.37c-13.785,0-25-11.215-25-25V30.6c0-5.522,4.478-10,10-10      c5.522,0,10,4.478,10,10v231.74c0,2.757,2.243,5,5,5h357.18c2.757,0,5-2.243,5-5V30.6c0-5.522,4.478-10,10-10      c5.522,0,10,4.478,10,10v231.74C428.55,276.125,417.335,287.34,403.55,287.34z"/>
			</g>
			<g>
				<path style="fill:#5E2A41;" d="M439.92,40.6H10c-5.522,0-10-4.478-10-10c0-5.522,4.478-10,10-10h429.92c5.522,0,10,4.478,10,10      C449.92,36.122,445.442,40.6,439.92,40.6z"/>
			</g>
		</g>
	</g>
</g>















</svg>
