<?xml version="1.0" encoding="iso-8859-1"?>
<!-- Generator: Adobe Illustrator 19.0.0, SVG Export Plug-In . SVG Version: 6.00 Build 0)  -->
<svg xmlns="http://www.w3.org/2000/svg" xmlns:xlink="http://www.w3.org/1999/xlink" version="1.1" id="Layer_1" x="0px" y="0px" viewBox="0 0 473.887 473.887" style="enable-background:new 0 0 473.887 473.887;" xml:space="preserve" width="512" height="512">
<g id="_x34_3._Telescope_1_">
	<g id="XMLID_91_">
		<g>
			<g>
				<path style="fill:#FF7124;" d="M298.251,32.387l18.01-18.01c5.85-5.85,15.35-5.85,21.21,0l83.01,83.01      c5.86,5.86,5.86,15.36,0,21.22l-61.54,61.53c-5.86,5.86-15.35,5.86-21.21,0l-83.01-83.01c-5.86-5.85-5.86-15.35,0-21.21      L298.251,32.387z"/>
			</g>
			<g>
				<path style="fill:#F2D59F;" d="M328.061,170.507l-164.68,164.68c-5.86,5.86-15.36,5.86-21.22,0l-4.93-4.93l-32.63-32.63      l-4.93-4.93c-5.86-5.86-5.86-15.36,0-21.21l164.68-164.68L328.061,170.507z"/>
			</g>
			<g>
				<path style="fill:#8ECAC1;" d="M246.401,262.397c12.87,0,23.3,10.43,23.3,23.29c0,12.87-10.43,23.3-23.3,23.3      c-12.86,0-23.29-10.43-23.29-23.3C223.111,272.827,233.541,262.397,246.401,262.397z"/>
			</g>
			<g>
				<polygon style="fill:#FF7124;" points="137.231,330.257 81.641,385.857 49.011,353.227 104.601,297.627     "/>
			</g>
		</g>
		<g>
			<g>
				<path style="fill:#5E2A41;" d="M348.336,194.518c-6.402,0-12.803-2.436-17.676-7.31c-0.001,0-0.001,0-0.001,0l-83.01-83.01      c-4.721-4.713-7.324-10.991-7.324-17.672c0-6.679,2.602-12.958,7.325-17.68l61.539-61.54c9.738-9.739,25.596-9.741,35.346-0.006      l83.017,83.016c4.723,4.723,7.324,11.002,7.324,17.681s-2.602,12.959-7.325,17.681l-61.54,61.531      C361.139,192.081,354.736,194.518,348.336,194.518z M344.801,173.066c1.949,1.949,5.12,1.947,7.069,0l61.54-61.531      c1.275-1.275,1.466-2.764,1.466-3.538c0-0.774-0.19-2.263-1.466-3.539L330.4,21.448c-1.947-1.945-5.122-1.947-7.067,0      l-61.54,61.54c-1.276,1.276-1.467,2.764-1.467,3.538c0,0.771,0.189,2.255,1.46,3.524L344.801,173.066L344.801,173.066z"/>
			</g>
			<g>
				<path style="fill:#5E2A41;" d="M152.771,349.57c-6.403,0-12.807-2.437-17.681-7.312l-4.931-4.931      c-3.905-3.905-3.905-10.237,0.001-14.142c3.905-3.906,10.238-3.903,14.142,0l4.93,4.93c1.95,1.95,5.125,1.952,7.079,0      l157.607-157.608l-49.566-49.559L106.742,278.558c-1.276,1.274-1.467,2.758-1.467,3.53c0,0.773,0.19,2.262,1.466,3.537      l4.931,4.931c3.905,3.905,3.905,10.237-0.001,14.142c-3.904,3.906-10.235,3.905-14.142,0l-4.93-4.93      c-4.723-4.722-7.324-11.001-7.324-17.679c0-6.682,2.604-12.96,7.331-17.679L257.279,99.736c3.906-3.904,10.237-3.905,14.142,0      l63.71,63.7c1.876,1.876,2.93,4.419,2.93,7.071c0,2.652-1.054,5.196-2.929,7.071l-164.68,164.681      C165.577,347.132,159.174,349.57,152.771,349.57z"/>
			</g>
			<g>
				<path style="fill:#5E2A41;" d="M81.641,395.857c-2.652,0-5.195-1.053-7.071-2.929l-32.63-32.63      c-3.904-3.905-3.905-10.236,0-14.142l55.59-55.6c1.875-1.876,4.419-2.93,7.071-2.93c2.651,0,5.195,1.053,7.071,2.929      l32.63,32.63c3.904,3.905,3.905,10.236,0,14.142l-55.59,55.6C86.837,394.803,84.293,395.857,81.641,395.857z M63.152,353.227      l18.487,18.488l41.449-41.457l-18.487-18.488L63.152,353.227z"/>
			</g>
			<g>
				<path style="fill:#5E2A41;" d="M246.401,318.987c-18.356,0-33.29-14.939-33.29-33.3c0-18.356,14.934-33.29,33.29-33.29      c18.361,0,33.3,14.934,33.3,33.29C279.7,304.048,264.762,318.987,246.401,318.987z M246.401,272.397      c-7.328,0-13.29,5.962-13.29,13.29c0,7.333,5.962,13.3,13.29,13.3c7.334,0,13.3-5.966,13.3-13.3      C259.7,278.359,253.734,272.397,246.401,272.397z"/>
			</g>
			<g>
				<path style="fill:#5E2A41;" d="M247.57,473.887c-5.523,0-10-4.477-10-10v-154.9c0-5.523,4.477-10,10-10c5.522,0,10,4.477,10,10      v154.9C257.57,469.41,253.093,473.887,247.57,473.887z"/>
			</g>
			<g>
				<path style="fill:#5E2A41;" d="M170.11,453.139c-1.696,0-3.415-0.432-4.99-1.341c-4.783-2.761-6.422-8.877-3.66-13.66      l77.45-134.15c2.76-4.782,8.876-6.422,13.66-3.66c4.783,2.761,6.422,8.877,3.66,13.66l-77.45,134.15      C176.929,451.345,173.567,453.139,170.11,453.139z"/>
			</g>
			<g>
				<path style="fill:#5E2A41;" d="M325.03,453.139c-3.457,0-6.817-1.793-8.67-5.001l-77.45-134.15      c-2.762-4.783-1.123-10.899,3.66-13.66c4.786-2.762,10.899-1.122,13.66,3.66l77.45,134.15c2.762,4.783,1.123,10.899-3.66,13.66      C328.445,452.706,326.727,453.139,325.03,453.139z"/>
			</g>
			<g>
				<path style="fill:#5E2A41;" d="M351.811,95.947c-2.56,0-5.118-0.976-7.071-2.929l-53.561-53.56      c-3.905-3.905-3.905-10.237,0-14.142c3.906-3.905,10.236-3.906,14.143,0l53.561,53.56c3.905,3.905,3.905,10.237,0,14.142      C356.929,94.97,354.37,95.947,351.811,95.947z"/>
			</g>
		</g>
	</g>
</g>















</svg>
