<?xml version="1.0" encoding="iso-8859-1"?>
<!-- Generator: Adobe Illustrator 19.0.0, SVG Export Plug-In . SVG Version: 6.00 Build 0)  -->
<svg xmlns="http://www.w3.org/2000/svg" xmlns:xlink="http://www.w3.org/1999/xlink" version="1.1" id="Layer_1" x="0px" y="0px" viewBox="0 0 471.578 471.578" style="enable-background:new 0 0 471.578 471.578;" xml:space="preserve" width="512" height="512">
<g id="_x32_4._Torch_2_">
	<g>
		<g id="XMLID_72_">
			<g>
				<g>
					<path style="fill:#F2D59F;" d="M290.419,309.918l-10.29,54.69l-0.51-0.1h-87.37l-0.79,0.15l-10.3-54.74       c-31.42-18.66-52.47-52.94-52.47-92.13h43.53h127.32h43.35C342.889,256.978,321.839,291.258,290.419,309.918z"/>
				</g>
				<g>
					<path style="fill:#FF7124;" d="M304.549,102.298c14.83,42.66,11.8,85.72-5.01,115.49h-127.32c-2.06-3.89-3.84-8.02-5.29-12.37       c-1.84-5.48-3.07-11.04-3.73-16.58h0.01c-2.07-21.04,3.77-46.64,28-70.87c46.39-46.39,24.66-81.3,24.66-81.3h0.01       c-2.34-5.26-5.36-10.05-8.95-14.28c-4.62-5.44,0.15-13.69,7.12-12.21C251.219,18.058,287.409,52.978,304.549,102.298z        M260.759,181.808c5.45-18.16,4.19-41.15-3.44-63.1c-0.45-1.3-0.92-2.58-1.41-3.85c-6.85,12.59-16.4,25.53-29.34,38.47       c-10.08,10.07-14.54,19.99-13.63,30.31c0.28,1.99,0.74,3.95,1.38,5.83c0.01,0.04,0.02,0.07,0.03,0.1       c2.2,6.58,6.28,11.92,11.5,15.05c0.03,0.02,0.07,0.04,0.1,0.06c2.96,1.74,6.12,2.66,9.15,2.66c1.83,0,3.59-0.31,5.38-0.96       c0.86-0.31,1.72-0.6,2.58-0.86C253.749,201.748,258.999,187.688,260.759,181.808z"/>
				</g>
				<g>
					<polygon style="fill:#8ECAC1;" points="280.129,364.608 272.169,406.878 270.579,406.578 201.289,406.578 199.419,406.928        191.459,364.658 192.249,364.508 279.619,364.508      "/>
				</g>
				<g>
					<polygon style="fill:#F2D59F;" points="272.169,406.878 261.879,461.578 209.699,461.578 199.419,406.928 201.289,406.578        270.579,406.578      "/>
				</g>
				<g>
					<path style="fill:#8ECAC1;" d="M257.319,118.708c7.63,21.95,8.89,44.94,3.44,63.1c-1.76,5.88-7.01,19.94-17.7,23.71       c-0.86,0.26-1.72,0.55-2.58,0.86c-1.79,0.65-3.55,0.96-5.38,0.96c-3.03,0-6.19-0.92-9.15-2.66c-0.03-0.02-0.07-0.04-0.1-0.06       c-5.22-3.13-9.3-8.47-11.5-15.05c-0.01-0.03-0.02-0.06-0.03-0.1c-0.64-1.88-1.1-3.84-1.38-5.83       c-0.91-10.32,3.55-20.24,13.63-30.31c12.94-12.94,22.49-25.88,29.34-38.47C256.399,116.128,256.869,117.408,257.319,118.708z"/>
				</g>
			</g>
			<g>
				<g>
					<path style="fill:#5E2A41;" d="M270.579,416.578h-69.29c-5.523,0-10-4.478-10-10c0-5.522,4.477-10,10-10h69.29       c5.522,0,10,4.478,10,10C280.579,412.1,276.101,416.578,270.579,416.578z"/>
				</g>
				<g>
					<path style="fill:#5E2A41;" d="M279.619,374.507h-87.37c-5.522,0-10-4.477-10-10c0-5.522,4.478-10,10-10h87.37       c5.522,0,10,4.478,10,10C289.619,370.03,285.141,374.507,279.619,374.507z"/>
				</g>
				<g>
					<path style="fill:#5E2A41;" d="M172.227,227.79c-3.586,0-7.052-1.934-8.847-5.322c-2.347-4.432-4.345-9.104-5.939-13.888       c-2.014-6-3.42-12.251-4.172-18.559c-0.026-0.224-0.046-0.447-0.058-0.671c-1.858-19.948,2.071-49.598,30.926-78.454       c39.102-39.102,24.293-67.087,23.211-68.991c-0.45-0.689-0.804-1.417-1.061-2.166c-1.863-3.956-4.209-7.611-6.983-10.881       c-4.944-5.82-5.614-13.817-1.705-20.37c3.869-6.485,11.146-9.659,18.525-8.093c41.705,8.842,80.122,47.552,97.87,98.62       c15.293,43.991,13.144,90.231-5.748,123.69c-2.716,4.809-8.817,6.504-13.625,3.791c-4.809-2.716-6.506-8.815-3.791-13.625       c16.111-28.532,17.708-68.641,4.272-107.29c-14.45-41.58-43.795-73.608-76.07-83.763c2.219,3.276,4.162,6.755,5.812,10.403       c3.451,6.269,21.45,44.803-26.564,92.817c-23.553,23.554-26.66,47.162-25.119,62.819c0.007,0.069,0.013,0.138,0.018,0.207       c0.602,4.811,1.688,9.576,3.229,14.17c1.254,3.761,2.816,7.412,4.648,10.873c2.584,4.881,0.723,10.933-4.158,13.518       C175.406,227.415,173.805,227.79,172.227,227.79z"/>
				</g>
				<g>
					<path style="fill:#5E2A41;" d="M235.098,217.337c-4.807,0-9.723-1.396-14.218-4.04c-0.013-0.007-0.025-0.015-0.038-0.023       c-0.054-0.031-0.105-0.063-0.157-0.093c-7.251-4.355-12.868-11.614-15.82-20.443c-0.012-0.033-0.023-0.067-0.034-0.101       c-0.018-0.058-0.036-0.114-0.054-0.173c-0.798-2.387-1.383-4.888-1.741-7.438c-0.023-0.17-0.043-0.34-0.058-0.511       c-1.171-13.267,4.389-26.141,16.523-38.263c11.557-11.558,20.852-23.73,27.623-36.175c1.863-3.423,5.529-5.465,9.433-5.199       c3.889,0.252,7.276,2.741,8.681,6.376c0.536,1.39,1.051,2.796,1.53,4.18c8.304,23.888,9.605,49.131,3.568,69.247       c-2.725,9.105-9.463,25.156-23.952,30.267c-0.144,0.051-0.287,0.098-0.433,0.142c-0.641,0.193-1.322,0.421-2.084,0.695       C241.003,216.827,238.126,217.337,235.098,217.337z M231.054,196.079c1.394,0.813,2.828,1.259,4.044,1.259       c0.677,0,1.283-0.11,1.966-0.358c1.013-0.365,1.934-0.674,2.824-0.949c5.139-1.951,9.287-10.395,11.29-17.09       c3.498-11.655,3.852-25.683,1.176-40.098c-5.488,7.378-11.741,14.583-18.714,21.556       c-10.278,10.269-11.116,17.501-10.761,22.104c0.196,1.296,0.501,2.554,0.905,3.74c0.034,0.103,0.067,0.205,0.1,0.309       c1.448,4.233,3.958,7.593,7.081,9.476C230.996,196.043,231.025,196.061,231.054,196.079z"/>
				</g>
				<g>
					<path style="fill:#5E2A41;" d="M261.879,471.578h-52.18c-4.81,0-8.939-3.424-9.828-8.151l-28.606-152.003       c-1.059-5.42,2.477-10.673,7.898-11.73c5.421-1.065,10.672,2.478,11.73,7.898l0.08,0.41l27.02,143.576h35.592l27.1-143.986       c1.059-5.421,6.318-8.962,11.73-7.898c5.421,1.058,8.957,6.31,7.898,11.73l-0.08,0.41l-28.527,151.593       C270.817,468.154,266.688,471.578,261.879,471.578z"/>
				</g>
				<g>
					<path style="fill:#5E2A41;" d="M290.428,319.919c-3.413,0-6.738-1.748-8.607-4.896c-2.82-4.749-1.257-10.885,3.491-13.704       c26.457-15.713,43.879-43.272,47.053-73.532H139.213c3.174,30.26,20.596,57.819,47.053,73.532       c4.748,2.819,6.312,8.955,3.491,13.704c-2.817,4.748-8.953,6.313-13.704,3.491c-17.155-10.188-31.524-24.689-41.555-41.936       c-10.342-17.781-15.809-38.111-15.809-58.791c0-5.522,4.478-10,10-10h214.199c5.522,0,10,4.478,10,10       c0,20.68-5.467,41.01-15.809,58.791c-10.03,17.247-24.399,31.749-41.555,41.936       C293.924,319.466,292.165,319.919,290.428,319.919z"/>
				</g>
				<g>
					<path style="fill:#5E2A41;" d="M189.928,272.368h-46.96c-5.523,0-10-4.478-10-10c0-5.522,4.477-10,10-10h46.96       c5.522,0,10,4.478,10,10C199.928,267.89,195.451,272.368,189.928,272.368z"/>
				</g>
			</g>
		</g>
	</g>
</g>















</svg>
