<?xml version="1.0" encoding="iso-8859-1"?>
<!-- Generator: Adobe Illustrator 19.0.0, SVG Export Plug-In . SVG Version: 6.00 Build 0)  -->
<svg xmlns="http://www.w3.org/2000/svg" xmlns:xlink="http://www.w3.org/1999/xlink" version="1.1" id="Layer_1" x="0px" y="0px" viewBox="0 0 471.351 471.351" style="enable-background:new 0 0 471.351 471.351;" xml:space="preserve" width="512" height="512">
<g id="_x33_0._Violin_1_">
	<g id="XMLID_78_">
		<g>
			<g>
				<path style="fill:#8ECAC1;" d="M425.071,70.567l-15.14,15.14l-2.95-2.94l-18.54-18.55l-2.66-2.65l46.42-46.42      c6.67-6.67,17.48-6.67,24.15,0c3.33,3.33,5,7.7,5,12.07c0,4.36-1.67,8.74-5,12.07l-7.6,7.6L425.071,70.567z"/>
			</g>
			<g>
				<polygon style="fill:#FF7124;" points="285.911,160.197 388.441,64.217 406.981,82.767 311.011,185.297 234.151,267.407       203.801,237.057     "/>
			</g>
			<g>
				<path style="fill:#F2D59F;" d="M311.011,185.297c22.47,31.12,19.72,74.82-8.31,102.85c-7.08,7.09-15.19,12.53-23.82,16.38      c-1.28,0.56-2.36,1.51-3.05,2.73l-4.88,8.7c-0.44,0.78-1.58,0.78-2.02,0l-1.4-2.5c-1.39-2.47-4.19-3.79-6.97-3.29l-0.05,0.01      c-11.7,2.08-22.34,8.02-30.74,16.41c-7.94,7.95-13.13,17.82-15.66,28.49c-0.37,1.63-0.57,3.26-0.57,4.88      c0,7.41,3.92,14.44,10.61,18.19c0.78,0.46,0.78,1.58,0,2.02l-2.51,1.41c-5.44,3.07-9.16,8.43-10.28,14.57      c-2.8,15.3-10.11,29.93-21.94,41.77c-31.11,31.11-81.55,31.11-112.66,0c-0.19-0.2-0.37-0.43-0.56-0.63l-0.02,0.02l-21.12-21.12      l6.61,6.6l66.29-53.83l-25.71-25.72l-53.83,66.3v0.01l-14.52-14.52l0.02-0.02c-0.2-0.2-0.43-0.37-0.64-0.57      c-31.1-31.11-31.1-81.54,0-112.65c11.84-11.84,26.48-19.14,41.77-21.94c6.14-1.13,11.51-4.84,14.58-10.29l1.4-2.5      c0.23-0.39,0.62-0.59,1.01-0.59s0.79,0.2,1.01,0.59c4.58,8.14,13.99,12.17,23.08,10.03c10.67-2.52,20.53-7.71,28.48-15.65      c8.39-8.4,14.33-19.05,16.41-30.74l0.01-0.05c0.51-2.78-0.82-5.58-3.29-6.98l-2.49-1.39c-0.78-0.44-0.78-1.58,0-2.02l8.69-4.89      c1.23-0.68,2.17-1.76,2.74-3.04c3.84-8.64,9.29-16.74,16.38-23.83c28.02-28.02,71.72-30.78,102.85-8.3l-82.11,76.86l30.35,30.35      L311.011,185.297z"/>
			</g>
			<g>
				<polygon style="fill:#FF7124;" points="102.251,343.237 127.961,368.957 61.671,422.787 55.061,416.187 48.421,409.547       48.421,409.537     "/>
			</g>
		</g>
		<g>
			<g>
				<path style="fill:#5E2A41;" d="M409.931,95.707c-2.554,0-5.107-0.972-7.059-2.917l-2.95-2.94l-21.199-21.199      c-1.881-1.874-2.94-4.419-2.942-7.075c-0.003-2.656,1.051-5.203,2.929-7.081l46.42-46.42c5.114-5.115,11.914-7.932,19.147-7.932      c7.232,0,14.032,2.817,19.146,7.932c5.112,5.112,7.929,11.91,7.929,19.141c0,7.23-2.815,14.028-7.929,19.141l-46.42,46.42      C415.05,94.73,412.491,95.707,409.931,95.707z M399.927,61.563l10,10.005l39.352-39.353c1.336-1.335,2.071-3.11,2.071-4.999      c0-1.888-0.735-3.663-2.07-4.998c-1.338-1.338-3.115-2.075-5.005-2.075c-1.89,0-3.667,0.736-5.004,2.074L399.927,61.563z"/>
			</g>
			<g>
				<path style="fill:#5E2A41;" d="M417.851,39.017c-2.558,0-5.116-0.975-7.068-2.926l-12.26-12.25      c-3.906-3.903-3.909-10.235-0.006-14.142c3.903-3.906,10.235-3.91,14.143-0.005l12.26,12.25      c3.906,3.903,3.909,10.235,0.006,14.142C422.972,38.039,420.412,39.017,417.851,39.017z"/>
			</g>
			<g>
				<path style="fill:#5E2A41;" d="M394.161,62.707c-2.561,0-5.121-0.977-7.074-2.932l-12.25-12.26      c-3.903-3.907-3.9-10.239,0.006-14.142c3.906-3.904,10.238-3.902,14.143,0.005l12.25,12.26c3.903,3.907,3.9,10.239-0.006,14.142      C399.277,61.731,396.718,62.707,394.161,62.707z"/>
			</g>
			<g>
				<path style="fill:#5E2A41;" d="M461.132,69.267c-2.56,0-5.118-0.976-7.07-2.929l-12.381-12.38l7.02-7.121l7.071-7.071      l12.43,12.43c3.906,3.905,3.906,10.237,0.001,14.142C466.251,68.29,463.691,69.267,461.132,69.267z"/>
			</g>
			<g>
				<path style="fill:#5E2A41;" d="M437.451,92.947c-2.56,0-5.118-0.976-7.071-2.929l-12.295-12.295      c-3.652-3.557-4.09-9.39-0.832-13.442c3.459-4.304,9.729-5.009,14.034-1.548c0.281,0.227,0.6,0.508,0.855,0.763l12.38,12.38      c3.905,3.905,3.905,10.237,0,14.143C442.569,91.971,440.01,92.947,437.451,92.947z"/>
			</g>
			<g>
				<path style="fill:#5E2A41;" d="M48.421,419.547c-2.559,0-5.119-0.976-7.071-2.929l-14.521-14.52      c-0.035-0.035-0.07-0.07-0.104-0.106c-0.117-0.104-0.227-0.205-0.336-0.309c-0.061-0.058-0.121-0.116-0.18-0.176      c-34.945-34.956-34.945-91.834,0-126.79c12.888-12.888,29.154-21.431,47.041-24.706c3.293-0.606,6.091-2.561,7.669-5.361      l1.388-2.478c0.037-0.066,0.075-0.132,0.113-0.197c2.005-3.397,5.692-5.507,9.622-5.507c4.021,0,7.745,2.176,9.72,5.678      c2.395,4.256,7.245,6.344,12.078,5.208c9.163-2.164,17.362-6.657,23.705-12.992c6.663-6.672,11.188-14.643,13.169-23.165      l-0.338-0.188c-3.536-1.994-5.71-5.719-5.71-9.742c0-4.022,2.174-7.747,5.673-9.721l7.671-4.317      c4.417-9.609,10.462-18.287,17.979-25.803c15.149-15.149,35.242-24.378,56.577-25.988c21.054-1.584,42.018,4.293,59.068,16.559      c0.232,0.159,0.457,0.319,0.683,0.495c4.36,3.389,5.148,9.672,1.759,14.032c-3.327,4.282-9.443,5.12-13.794,1.939      c-0.08-0.054-0.168-0.116-0.227-0.158c-13.254-9.571-29.583-14.159-45.984-12.923c-16.568,1.251-32.173,8.419-43.94,20.187      c-6.043,6.043-10.858,13.047-14.314,20.821c-1.287,2.892-3.29,5.287-5.839,6.997c1.114,2.823,1.458,5.952,0.887,9.066      c-0.005,0.028-0.011,0.057-0.016,0.084c-2.4,13.381-9.026,25.816-19.164,35.967c-8.978,8.966-20.475,15.296-33.256,18.315      c-9.066,2.131-18.419,0.018-25.592-5.265c-4.338,4.153-9.862,7.001-15.977,8.127c-13.884,2.542-26.505,9.173-36.509,19.176      c-27.078,27.087-27.149,71.118-0.212,98.295c0.317,0.272,0.591,0.521,0.853,0.783c0.18,0.181,0.352,0.366,0.516,0.556      l13.984,13.984c3.905,3.905,3.905,10.237,0,14.142C53.54,418.571,50.98,419.547,48.421,419.547z"/>
			</g>
			<g>
				<path style="fill:#5E2A41;" d="M133.09,471.207c-22.961,0-45.92-8.739-63.4-26.219c-0.062-0.062-0.124-0.125-0.184-0.189      c-0.101-0.106-0.202-0.216-0.301-0.328c-0.032-0.031-0.064-0.062-0.096-0.094l-21.119-21.12c-3.906-3.905-3.906-10.237,0-14.142      c3.904-3.906,10.237-3.906,14.142,0l20.593,20.593c0.25,0.215,0.491,0.444,0.721,0.685c0.197,0.207,0.392,0.426,0.583,0.648      c27.179,26.962,71.226,26.898,98.32-0.197c10.006-10.015,16.638-22.637,19.175-36.499c1.113-6.104,3.956-11.624,8.104-15.962      c-3.885-5.238-6.087-11.677-6.087-18.428c0-2.317,0.275-4.704,0.818-7.094c3.056-12.886,9.389-24.383,18.337-33.342      c10.164-10.153,22.605-16.78,35.992-19.176c0.038-0.007,0.077-0.015,0.104-0.02c3.105-0.559,6.222-0.21,9.03,0.894      c1.745-2.563,4.204-4.608,7.052-5.854c7.74-3.454,14.744-8.27,20.751-14.285c11.775-11.775,18.946-27.383,20.197-43.953      c1.237-16.397-3.351-32.726-12.918-45.977c-0.054-0.074-0.105-0.149-0.157-0.224c-3.172-4.336-2.351-10.439,1.911-13.775      c4.35-3.405,10.635-2.637,14.038,1.712c0.186,0.237,0.353,0.47,0.515,0.707c12.265,17.049,18.142,38.018,16.555,59.063      c-1.61,21.337-10.842,41.433-25.993,56.585c-7.48,7.491-16.161,13.539-25.811,17.985l-4.288,7.645      c-1.982,3.517-5.707,5.693-9.732,5.693c-4.024,0-7.75-2.175-9.723-5.678l-0.213-0.379c-8.519,1.98-16.487,6.505-23.167,13.177      c-6.321,6.329-10.819,14.535-12.998,23.722c-0.191,0.847-0.3,1.743-0.3,2.572c0,3.938,2.107,7.566,5.499,9.467      c0.064,0.036,0.128,0.073,0.191,0.11c3.432,2.024,5.541,5.755,5.504,9.736c-0.038,3.971-2.208,7.651-5.666,9.604l-2.531,1.421      c-2.788,1.574-4.741,4.364-5.34,7.646c-3.271,17.877-11.813,34.142-24.703,47.044      C179.014,462.466,156.051,471.207,133.09,471.207z"/>
			</g>
			<g>
				<path style="fill:#5E2A41;" d="M61.673,431.787c-2.312,0-4.613-0.886-6.361-2.631l-13.255-13.245      c-1.688-1.688-2.636-3.977-2.636-6.364v-0.01c0-2.066,0.711-4.069,2.013-5.673l53.83-66.3c1.606-1.979,3.977-3.184,6.522-3.315      c2.55-0.133,5.027,0.822,6.83,2.625l25.71,25.72c1.801,1.802,2.754,4.284,2.623,6.829c-0.132,2.545-1.337,4.914-3.314,6.521      l-66.29,53.83C65.684,431.122,63.675,431.787,61.673,431.787z M60.518,408.916l1.774,1.772l52.248-42.427l-11.596-11.6      L60.518,408.916z"/>
			</g>
			<g>
				<path style="fill:#5E2A41;" d="M124.241,305.787c-4.971,0-9-4.029-9-9c0-12.409,13.365-17.742,26.289-22.899      c4.558-1.818,12.833-5.121,15.031-7.312c0.557-4.436,4.342-7.869,8.93-7.869c4.971,0,9,4.029,9,9      c0,12.409-13.365,17.742-26.29,22.899c-4.558,1.819-12.832,5.12-15.031,7.312C132.614,302.355,128.828,305.787,124.241,305.787z      "/>
			</g>
			<g>
				<path style="fill:#5E2A41;" d="M174.411,355.967c-4.971,0-9-4.029-9-9c0-4.587,3.433-8.373,7.869-8.93      c2.193-2.199,5.497-10.478,7.317-15.037c5.16-12.927,10.496-26.293,22.904-26.293c4.971,0,9,4.029,9,9      c0,4.587-3.433,8.373-7.869,8.93c-2.193,2.199-5.497,10.477-7.317,15.037C192.154,342.6,186.819,355.967,174.411,355.967z"/>
			</g>
			<g>
				<path style="fill:#5E2A41;" d="M234.15,277.407c-2.65,0-5.194-1.052-7.071-2.929l-30.35-30.35      c-1.915-1.916-2.972-4.527-2.927-7.236c0.044-2.709,1.186-5.284,3.164-7.136l184.64-172.839      c4.032-3.775,10.359-3.566,14.135,0.466c3.774,4.032,3.565,10.36-0.467,14.134L218.18,237.294l15.733,15.733L399.68,75.933      c3.774-4.033,10.102-4.241,14.135-0.467c4.032,3.774,4.241,10.102,0.467,14.134l-172.83,184.641      c-1.852,1.978-4.427,3.12-7.136,3.165C234.261,277.406,234.206,277.407,234.15,277.407z"/>
			</g>
		</g>
	</g>
</g>















</svg>
