<?xml version="1.0" encoding="iso-8859-1"?>
<!-- Generator: Adobe Illustrator 19.0.0, SVG Export Plug-In . SVG Version: 6.00 Build 0)  -->
<svg version="1.1" id="Layer_1" xmlns="http://www.w3.org/2000/svg" xmlns:xlink="http://www.w3.org/1999/xlink" x="0px" y="0px"
	 viewBox="0 0 512 512" style="enable-background:new 0 0 512 512;" xml:space="preserve">
<path style="fill:#F7B239;" d="M426.797,272.533v0.094h0.012c22.353,21.07,29.756,53.557,18.715,82.218v0.024h-71.236v-36.43
	h-84.984c-18.398,0-33.299,14.913-33.299,33.299c0-18.386-14.913-33.299-33.299-33.299h-84.996v36.43H66.473v-0.024
	c-3.402-8.84-5.05-18.033-5.05-27.155c0-20.457,8.31-40.491,23.777-55.063l0.012-0.094c2.542-30.568,23.294-56.57,52.533-65.822
	l0.094-0.035c13.701-23.365,38.667-37.384,65.233-37.384c3.555,0,7.145,0.247,10.735,0.765l0.106-0.082
	c25.472-17.044,58.712-17.044,84.172,0l0.106,0.082c3.59-0.518,7.18-0.765,10.747-0.765c26.566,0,51.52,14.007,65.221,37.384
	l0.094,0.035C403.491,215.963,424.243,241.965,426.797,272.533z"/>
<path style="fill:#E09B2D;" d="M371.373,357.24l4.512-11.725l-19.952-18.877l-1.178-9.664c-1.556-12.756-10.06-23.594-22.081-28.139
	l-9.865-3.729l-1.749-2.982c-7.105-12.117-20.838-18.726-34.74-16.721l-9.208,1.328l0,0c-12.445-9.62-29.817-9.62-42.264,0l0,0
	l-9.208-1.328c-13.902-2.006-27.635,4.605-34.74,16.721l-1.749,2.982l-9.865,3.729c-12.02,4.545-20.526,15.383-22.081,28.139
	l-1.178,9.664l-19.952,18.877l4.512,11.725"/>
<g>
	<path style="fill:#CCCCCC;" d="M374.288,318.439v36.43H256.004v-3.131c0-18.386,14.902-33.299,33.299-33.299H374.288z"/>
	<path style="fill:#CCCCCC;" d="M256.004,351.738v3.131H137.709v-36.43h84.996C241.091,318.439,256.004,333.353,256.004,351.738z"/>
</g>
<g>
	<path style="fill:#FFFFFF;" d="M269.026,197.299c-0.827,0-1.668-0.118-2.502-0.364c-6.799-2.006-14.124-2.018-20.932-0.033
		c-4.681,1.365-9.581-1.324-10.946-6.004c-1.364-4.681,1.324-9.581,6.004-10.946c10.038-2.927,20.844-2.91,30.87,0.049
		c4.676,1.38,7.348,6.289,5.969,10.966C276.356,194.809,272.839,197.299,269.026,197.299z"/>
	<path style="fill:#FFFFFF;" d="M340.021,219.611c-2.119,0-4.243-0.758-5.935-2.295c-4.897-4.449-10.894-7.539-17.342-8.933
		c-4.766-1.03-7.793-5.729-6.763-10.495s5.732-7.793,10.495-6.763c9.481,2.05,18.294,6.588,25.485,13.124
		c3.608,3.279,3.875,8.862,0.596,12.47C344.814,218.638,342.422,219.611,340.021,219.611z"/>
	<path style="fill:#FFFFFF;" d="M394.146,269.983c-3.472,0-6.765-2.061-8.167-5.47c-2.328-5.657-6.057-10.697-10.782-14.576
		c-3.769-3.092-4.316-8.656-1.224-12.424c3.092-3.77,8.656-4.316,12.424-1.224c6.973,5.722,12.475,13.158,15.908,21.504
		c1.856,4.509-0.295,9.668-4.804,11.523C396.402,269.768,395.264,269.983,394.146,269.983z"/>
</g>
<path style="fill:#333333;" d="M503.172,346.037h-45.775c6.233-27.758-1.892-56.859-22.139-77.484
	c-3.861-31.736-25.099-58.364-55.241-69.213c-17.242-26.935-47.916-41.728-79.73-38.436c-27.241-16.798-61.359-16.796-88.577,0
	c-31.803-3.283-62.468,11.494-79.724,38.432c-30.088,10.803-51.345,37.414-55.241,69.214
	c-20.243,20.619-28.369,49.714-22.138,77.488H8.828c-4.875,0-8.828,3.953-8.828,8.828c0,4.875,3.953,8.828,8.828,8.828h494.344
	c4.875,0,8.828-3.953,8.828-8.828C512,349.99,508.047,346.037,503.172,346.037z M87.157,283.272l32.298,15.575
	c1.236,0.597,2.542,0.879,3.828,0.879c3.284,0,6.436-1.84,7.958-4.995c2.118-4.392,0.274-9.668-4.117-11.786l-32.352-15.601
	c3.893-22.502,18.918-41.337,40.039-50.154l43.103,54c1.743,2.183,4.313,3.322,6.906,3.322c1.93,0,3.875-0.631,5.502-1.929
	c3.81-3.042,4.434-8.596,1.392-12.407l-43.069-53.957c13.27-18.717,35.064-29.24,57.968-27.999l15.37,67.334
	c0.933,4.093,4.572,6.866,8.598,6.866c0.651,0,1.311-0.073,1.973-0.222c4.754-1.085,7.727-5.818,6.642-10.571l-15.373-67.34
	c20.073-11.063,44.268-11.063,64.344-0.001l-15.371,67.342c-1.085,4.753,1.888,9.486,6.642,10.571
	c0.662,0.151,1.322,0.222,1.973,0.222c4.027,0,7.665-2.773,8.598-6.866l15.37-67.334c22.872-1.238,44.638,9.251,57.914,27.918
	l-43.064,54.005c-3.04,3.811-2.414,9.367,1.398,12.406c1.626,1.297,3.569,1.927,5.498,1.927c2.594,0,5.165-1.138,6.908-3.325
	l43.064-54.005c21.124,8.766,36.196,27.612,40.122,50.203l-32.349,15.595c-4.392,2.118-6.236,7.394-4.119,11.786
	c1.521,3.157,4.674,4.997,7.958,4.997c1.285,0,2.592-0.283,3.827-0.878l32.305-15.574c15.278,17.123,20.662,40.723,14.327,62.764
	h-56.056V318.44c0-4.875-3.953-8.828-8.828-8.828H289.3c-13.533,0-25.587,6.421-33.3,16.368c-7.713-9.947-19.768-16.368-33.3-16.368
	H137.71c-4.875,0-8.828,3.953-8.828,8.828v27.599H72.829C66.496,323.988,71.88,300.391,87.157,283.272z M146.539,346.037v-18.771
	H222.7c11.532,0,21.226,8.018,23.801,18.771H146.539z M265.5,346.037c2.575-10.753,12.27-18.771,23.802-18.771h76.161v18.771H265.5z
	"/>
<g>
</g>
<g>
</g>
<g>
</g>
<g>
</g>
<g>
</g>
<g>
</g>
<g>
</g>
<g>
</g>
<g>
</g>
<g>
</g>
<g>
</g>
<g>
</g>
<g>
</g>
<g>
</g>
<g>
</g>
</svg>
