<?xml version="1.0" encoding="iso-8859-1"?>
<!-- Generator: Adobe Illustrator 19.0.0, SVG Export Plug-In . SVG Version: 6.00 Build 0)  -->
<svg version="1.1" id="Layer_1" xmlns="http://www.w3.org/2000/svg" xmlns:xlink="http://www.w3.org/1999/xlink" x="0px" y="0px"
	 viewBox="0 0 511.998 511.998" style="enable-background:new 0 0 511.998 511.998;" xml:space="preserve">
<path style="fill:#2BA5F7;" d="M203.758,298.302c7.681,0,12.855,7.67,10.2,14.877c-0.023,0.056-0.045,0.113-0.068,0.169
	l-22.22,61.112H36.71v-76.159L203.758,298.302L203.758,298.302z"/>
<rect x="36.71" y="298.297" style="fill:#2197D8;" width="23.869" height="76.159"/>
<path style="fill:#999999;" d="M503.526,270.062v112.917c0,10.901-8.834,19.723-19.723,19.723H314.755
	c-8.529,0-16.142-5.332-19.057-13.341l-24.129-66.354c-5.287-14.538-25.846-14.538-31.132,0l-24.129,66.354
	c-2.914,8.009-10.528,13.341-19.057,13.341H28.204c-10.901,0-19.734-8.822-19.734-19.723V270.062h243.84h7.376H503.526z
	 M475.285,374.461v-76.159H308.248c-7.681,0-12.855,7.67-10.2,14.877c0.011,0.056,0.034,0.113,0.056,0.169l22.22,61.112H475.285z
	 M213.959,313.179c2.655-7.207-2.519-14.877-10.2-14.877H36.71v76.159h154.961l22.22-61.112
	C213.914,313.292,213.936,313.236,213.959,313.179z"/>
<path style="fill:#F95428;" d="M475.285,298.302v76.159H320.324l-22.22-61.112c-0.023-0.056-0.045-0.113-0.056-0.169
	c-2.655-7.207,2.519-14.877,10.2-14.877H475.285z"/>
<path style="fill:#E54728;" d="M320.64,313.179c-2.655-7.207,2.519-14.877,10.2-14.877h-22.592c-7.681,0-12.855,7.67-10.2,14.877
	c0.011,0.056,0.034,0.113,0.056,0.169l22.22,61.112h22.592l-22.22-61.112C320.674,313.292,320.651,313.236,320.64,313.179z"/>
<g>
	<path style="fill:#FFFFFF;" d="M447.045,354.693c-4.68,0-8.472-3.793-8.472-8.472v-19.678c0-4.679,3.792-8.472,8.472-8.472
		s8.472,3.793,8.472,8.472v19.678C455.517,350.899,451.725,354.693,447.045,354.693z"/>
	<path style="fill:#FFFFFF;" d="M171.889,354.695c-0.961,0-1.938-0.165-2.894-0.512c-4.399-1.6-6.666-6.46-5.067-10.857
		l7.155-19.678c1.6-4.396,6.46-6.667,10.857-5.067c4.399,1.6,6.666,6.46,5.067,10.857l-7.155,19.678
		C178.6,352.558,175.35,354.695,171.889,354.695z"/>
</g>
<g>
	<path style="fill:#333333;" d="M312.366,377.362c1.218,3.348,4.401,5.577,7.963,5.577h154.958c4.68,0,8.472-3.793,8.472-8.472
		v-76.159c0-4.679-3.792-8.472-8.472-8.472H308.244c-6.321,0-12.251,3.089-15.86,8.264c-3.655,5.243-4.513,11.974-2.294,18
		L312.366,377.362z M306.282,307.793c0.323-0.463,0.925-1.014,1.962-1.014h158.57v59.215H326.262l-20.206-55.564l-0.066-0.177
		C305.564,309.089,305.99,308.212,306.282,307.793z"/>
	<path style="fill:#333333;" d="M36.713,382.939H191.67c3.562,0,6.745-2.229,7.963-5.577l22.215-61.091l0.062-0.166
		c2.22-6.033,1.361-12.765-2.294-18.006c-3.609-5.175-9.538-8.263-15.86-8.263H36.713c-4.68,0-8.472,3.793-8.472,8.472v76.159
		C28.24,379.145,32.033,382.939,36.713,382.939z M45.185,306.779h158.57c1.038,0,1.64,0.551,1.962,1.013
		c0.293,0.419,0.718,1.296,0.288,2.466l-20.269,55.735H45.185V306.779z"/>
	<path style="fill:#333333;" d="M503.528,100.819c-4.68,0-8.472,3.793-8.472,8.472v152.303H16.944V109.291
		c0-4.679-3.792-8.472-8.472-8.472S0,104.612,0,109.291v273.688c0,15.549,12.649,28.2,28.2,28.2h169.05
		c12.043,0,22.9-7.605,27.018-18.923l24.129-66.357c1.796-4.941,6.273-5.325,7.602-5.325c1.33,0,5.806,0.384,7.601,5.325
		l24.13,66.357c4.116,11.319,14.973,18.924,27.018,18.924h169.049c15.55,0,28.201-12.651,28.201-28.2V109.291
		C512,104.612,508.208,100.819,503.528,100.819z M495.056,382.979c0,6.206-5.049,11.255-11.257,11.255H314.75
		c-4.945,0-9.404-3.122-11.093-7.77l-24.13-66.357c-3.641-10.011-12.874-16.479-23.525-16.479c-0.001,0-0.001,0-0.001,0
		c-10.652,0-19.887,6.468-23.528,16.479l-24.128,66.357c-1.691,4.648-6.149,7.771-11.094,7.771H28.2
		c-6.206,0-11.256-5.049-11.256-11.256V278.54h478.111V382.979z"/>
</g>
<g>
</g>
<g>
</g>
<g>
</g>
<g>
</g>
<g>
</g>
<g>
</g>
<g>
</g>
<g>
</g>
<g>
</g>
<g>
</g>
<g>
</g>
<g>
</g>
<g>
</g>
<g>
</g>
<g>
</g>
</svg>
