<?xml version="1.0" encoding="iso-8859-1"?>
<!-- Generator: Adobe Illustrator 19.0.0, SVG Export Plug-In . SVG Version: 6.00 Build 0)  -->
<svg version="1.1" id="Layer_1" xmlns="http://www.w3.org/2000/svg" xmlns:xlink="http://www.w3.org/1999/xlink" x="0px" y="0px"
	 viewBox="0 0 511.999 511.999" style="enable-background:new 0 0 511.999 511.999;" xml:space="preserve">
<polygon style="fill:#2BA5F7;" points="380.358,397.203 394.11,503.034 117.884,503.034 131.637,397.203 172.785,397.203 
	339.221,397.203 "/>
<polygon style="fill:#2197D8;" points="190.711,397.203 179.47,503.034 117.884,503.034 131.637,397.203 172.785,397.203 
	149.574,397.203 "/>
<polygon style="fill:#F7B239;" points="339.221,351.773 339.221,397.203 172.785,397.203 172.785,351.773 238.066,351.773 
	273.94,351.773 "/>
<polygon style="fill:#E09B2D;" points="206.974,351.773 206.974,397.203 172.785,397.203 172.785,351.773 186.195,351.773 
	193.565,351.773 "/>
<g>
	<polygon style="fill:#F7B239;" points="273.94,260.244 273.94,351.773 238.066,351.773 238.066,260.244 256.003,250.809 	"/>
	<polygon style="fill:#F7B239;" points="345.092,141.247 300.548,184.667 311.059,245.99 256.003,217.039 200.935,245.99 
		211.458,184.667 166.902,141.247 228.463,132.302 256.003,76.516 283.531,132.302 	"/>
</g>
<g>
	<path style="fill:#E09B2D;" d="M273.94,260.244l-17.937-9.435l-17.937,9.435l-76.832,40.395l18.093-105.532l-76.665-74.728
		l105.951-15.402l47.391-96.013l47.379,96.013l105.963,15.402l-76.677,74.728l18.105,105.532L273.94,260.244z M300.548,184.667
		l44.545-43.421l-61.561-8.945l-27.528-55.786l-27.54,55.786l-61.561,8.945l44.557,43.421l-10.523,61.322l55.068-28.951
		l55.056,28.951L300.548,184.667z"/>
	<path style="fill:#E09B2D;" d="M256.003,254.109l-17.937,9.435v33.77l17.937-9.435l17.937,9.435v-33.77L256.003,254.109z"/>
</g>
<g>
	<path style="fill:#FFFFFF;" d="M360.468,482.164c-4.439,0-8.296-3.295-8.883-7.815l-2.918-22.461
		c-0.637-4.911,2.826-9.411,7.738-10.05c4.908-0.634,9.411,2.826,10.05,7.738l2.918,22.461c0.637,4.911-2.826,9.411-7.738,10.05
		C361.243,482.139,360.854,482.164,360.468,482.164z"/>
	<circle style="fill:#FFFFFF;" cx="297.857" cy="155.877" r="8.969"/>
	<circle style="fill:#FFFFFF;" cx="315.197" cy="374.116" r="8.969"/>
	<circle style="fill:#FFFFFF;" cx="354.205" cy="424.963" r="8.969"/>
</g>
<g>
	<path style="fill:#333333;" d="M417.868,117.604c-1.055-3.247-3.861-5.613-7.241-6.104L309.339,96.782L264.043,5
		c-1.512-3.061-4.629-5-8.043-5c-3.414,0-6.532,1.938-8.043,5l-45.298,91.782l-101.287,14.718c-3.378,0.49-6.186,2.857-7.241,6.104
		c-1.055,3.247-0.175,6.81,2.269,9.194l73.294,71.443L152.39,299.119c-0.578,3.365,0.806,6.766,3.567,8.771
		c1.563,1.136,3.413,1.714,5.272,1.714c1.427,0,2.86-0.341,4.172-1.03l63.694-33.486v67.716h-56.318
		c-4.954,0-8.969,4.016-8.969,8.969v36.461h-32.173c-4.507,0-8.313,3.344-8.895,7.814l-13.748,105.826
		c-0.332,2.559,0.453,5.136,2.156,7.075c1.703,1.938,4.159,3.049,6.739,3.049h276.223c2.579,0,5.036-1.111,6.739-3.049
		s2.489-4.515,2.156-7.075l-13.748-105.826c-0.58-4.469-4.388-7.814-8.895-7.814h-32.174v-36.461c0-4.953-4.014-8.969-8.969-8.969
		h-56.311v-67.713l63.685,33.482c3.022,1.588,6.683,1.323,9.445-0.683c2.762-2.007,4.146-5.408,3.567-8.771l-17.301-100.88
		l73.293-71.443C418.043,124.415,418.923,120.852,417.868,117.604z M383.902,494.063H128.097l11.419-87.889h232.967L383.902,494.063
		z M330.251,388.236H181.749v-27.492h148.503v27.492H330.251z M264.972,342.807h-17.937V265.66l8.965-4.713l8.972,4.718V342.807z
		 M326.409,188.688c-2.114,2.06-3.078,5.03-2.578,7.938l15.026,87.616l-78.683-41.367c-1.307-0.686-2.74-1.03-4.173-1.03
		s-2.866,0.343-4.173,1.03l-78.685,41.367l15.027-87.616c0.5-2.909-0.465-5.879-2.578-7.939l-63.656-62.048l87.97-12.783
		c2.921-0.425,5.447-2.259,6.753-4.906l39.342-79.715l39.34,79.715c1.307,2.646,3.831,4.482,6.753,4.906l87.97,12.783
		L326.409,188.688z"/>
	<path style="fill:#333333;" d="M264.043,72.55c-1.512-3.061-4.629-5-8.043-5s-6.532,1.938-8.043,5l-25.445,51.557l-56.896,8.268
		c-3.378,0.49-6.186,2.857-7.241,6.104c-1.055,3.247-0.175,6.81,2.268,9.194l41.172,40.132l-9.72,56.667
		c-0.578,3.365,0.806,6.766,3.567,8.771c1.563,1.136,3.413,1.714,5.272,1.714c1.427,0,2.86-0.341,4.172-1.03l50.891-26.756
		l50.89,26.754c3.023,1.588,6.685,1.324,9.445-0.683c2.762-2.007,4.146-5.406,3.567-8.771l-9.72-56.666l41.172-40.132
		c2.444-2.383,3.323-5.947,2.268-9.194c-1.055-3.247-3.861-5.613-7.241-6.104l-56.896-8.268L264.043,72.55z M294.285,178.251
		c-2.114,2.06-3.078,5.03-2.578,7.939l7.445,43.403l-38.978-20.492c-2.614-1.373-5.734-1.373-8.347,0l-38.979,20.493l7.445-43.403
		c0.5-2.909-0.465-5.879-2.578-7.939l-31.535-30.738l43.578-6.333c2.921-0.425,5.447-2.259,6.753-4.906l19.49-39.489l19.488,39.489
		c1.307,2.646,3.831,4.482,6.753,4.906l43.578,6.333L294.285,178.251z"/>
</g>
<g>
</g>
<g>
</g>
<g>
</g>
<g>
</g>
<g>
</g>
<g>
</g>
<g>
</g>
<g>
</g>
<g>
</g>
<g>
</g>
<g>
</g>
<g>
</g>
<g>
</g>
<g>
</g>
<g>
</g>
</svg>
