<?xml version="1.0" encoding="iso-8859-1"?>
<!-- Generator: Adobe Illustrator 19.0.0, SVG Export Plug-In . SVG Version: 6.00 Build 0)  -->
<svg version="1.1" id="Layer_1" xmlns="http://www.w3.org/2000/svg" xmlns:xlink="http://www.w3.org/1999/xlink" x="0px" y="0px"
	 viewBox="0 0 512.002 512.002" style="enable-background:new 0 0 512.002 512.002;" xml:space="preserve">
<g>
	<path style="fill:#1685B7;" d="M406.126,304.333c2.674,11.376,1.033,22.885-3.974,32.669c-5.007,9.784-13.405,17.829-24.21,22.302
		c-17.72,7.329-37.652,3.245-51.021-9.455c-0.498-39.621-3.549-79.776-7.426-115.823c-3.804-35.367-8.41-66.772-12.154-89.839
		c-1.835-11.303-7.547-21.147-15.666-28.221l0.012-0.012c17.902-1.981,35.914,6.356,45.782,22.35
		c12.275,19.883,28.524,47.144,45.552,78.366C393.013,250.797,400.767,281.582,406.126,304.333z"/>
	<path style="fill:#1685B7;" d="M319.496,234.025c-3.804,35.355-8.41,66.759-12.154,89.827c-1.872,11.534-7.79,21.56-16.164,28.682
		c-8.374,7.122-19.19,11.351-30.882,11.351c-23.383,0-43.327-16.942-47.059-40.034c-3.743-23.067-8.337-54.472-12.141-89.827h-0.012
		c3.804-35.367,8.41-66.772,12.154-89.839c1.872-11.534,7.79-21.548,16.164-28.67c8.374-7.122,19.203-11.364,30.894-11.364
		c11.923,0,22.946,4.412,31.38,11.813c8.119,7.073,13.831,16.918,15.666,28.221C311.086,167.254,315.692,198.658,319.496,234.025z"
		/>
</g>
<g>
	<path style="fill:#2BA5F7;" d="M473.664,450.079c1.483,11.193-4.679,21.998-15.107,26.3l-27.491,11.364l-27.491,11.376
		c-10.428,4.314-22.411,1.021-29.278-7.948c-17.866-23.335-34.115-52.856-48.639-84.893c1.155-18.328,1.507-37.311,1.264-56.429
		c13.369,12.7,33.301,16.784,51.021,9.455c10.805-4.473,19.203-12.518,24.21-22.302c5.007-9.784,6.648-21.293,3.974-32.669
		c-5.36-22.751-13.114-53.536-23.104-87.664C421.622,287.452,464.245,378.543,473.664,450.079z"/>
	<path style="fill:#2BA5F7;" d="M326.922,349.849c0.243,19.118-0.109,38.101-1.264,56.429c-1.762,28.184-5.396,54.837-11.607,78.074
		c-2.917,10.902-12.725,18.534-24.015,18.534h-29.74h-29.752c-11.291,0-21.099-7.632-24.015-18.534
		c-18.631-69.701-14.074-170.174-5.445-250.327h0.012c3.804,35.355,8.398,66.759,12.141,89.827
		c3.731,23.092,23.675,40.034,47.059,40.034c11.692,0,22.508-4.229,30.882-11.351c8.374-7.122,14.293-17.149,16.164-28.682
		c3.743-23.067,8.35-54.472,12.154-89.827C323.373,270.073,326.423,310.228,326.922,349.849z"/>
</g>
<g>
	<path style="fill:#2197D8;" d="M239.34,484.352c-10.254-38.361-13.476-86.047-12.868-134.534
		c-6.819-6.857-11.593-15.817-13.234-25.966c-3.743-23.067-8.337-54.472-12.141-89.827h-0.012
		c-8.629,80.153-13.187,180.626,5.445,250.327c2.917,10.902,12.725,18.534,24.015,18.534h29.752h3.059
		C252.064,502.886,242.256,495.254,239.34,484.352z"/>
	<path style="fill:#2197D8;" d="M404.593,478.573c-24.198-31.485-45.481-74.278-63.536-119.281c-0.063-0.026-0.123-0.06-0.186-0.086
		l-15.589-2.004l-0.875,46.78c14.865,32.918,31.537,63.309,49.89,87.188c6.879,8.946,18.866,12.228,29.291,7.892l27.472-11.423
		l2.824-1.174C423.459,490.801,411.472,487.519,404.593,478.573z"/>
</g>
<g>
	<path style="fill:#FFFFFF;" d="M285.737,481.62c-0.728,0-1.467-0.087-2.205-0.271c-4.886-1.214-7.862-6.158-6.648-11.044
		c4.606-18.54,7.753-40.916,9.353-66.505c0.407-6.472,0.719-13.267,0.929-20.2c0.151-5.033,4.344-8.991,9.385-8.837
		c5.032,0.152,8.989,4.353,8.837,9.385c-0.214,7.132-0.536,14.127-0.955,20.794c-1.669,26.682-4.985,50.154-9.855,69.76
		C293.546,478.849,289.825,481.62,285.737,481.62z"/>
	<path style="fill:#FFFFFF;" d="M442.952,459.065c-4.437,0-8.326-3.245-9.003-7.767c-2.573-17.185-7.494-36.905-14.624-58.615
		c-1.57-4.784,1.033-9.934,5.815-11.505c4.784-1.57,9.933,1.032,11.505,5.815c7.45,22.682,12.609,43.409,15.334,61.605
		c0.745,4.978-2.686,9.62-7.665,10.365C443.856,459.031,443.4,459.065,442.952,459.065z"/>
	<circle style="fill:#FFFFFF;" cx="419.59" cy="366.053" r="9.115"/>
</g>
<path style="fill:#333333;" d="M482.698,448.889c-9.829-74.642-55.276-169.852-91.672-236.58
	c-14.296-26.209-29.704-52.72-45.801-78.798c-10.746-17.409-30.242-27.678-50.498-26.913c-0.44-0.334,45.536-14.739,45.536-14.739
	c19.832-5.817,33.684-24.314,33.684-44.983C373.946,21.029,352.917,0,327.069,0c-20.668,0-39.166,13.851-44.983,33.684l-10.707,36.5
	l-10.707-36.501C254.855,13.85,236.357,0,215.69,0c-25.848,0-46.877,21.029-46.877,46.877c0,20.667,13.85,39.165,33.684,44.983
	l25.131,7.372c-18.16,8.278-39.978,25.16-62.478,58.376c-48.445,71.515-88.055,68.201-123.638,53.967
	c-4.674-1.872-9.979,0.403-11.848,5.078c-1.87,4.674,0.403,9.979,5.078,11.848c12.011,4.804,26.864,9.624,43.665,9.624
	c7.611,0,15.625-0.989,23.951-3.419c27.325-7.97,52.802-29.845,77.886-66.874c8.74-12.901,17.223-22.918,25.196-30.705
	c-0.486,1.829-0.894,3.693-1.203,5.599c-6.332,39.027-14.613,98.749-18.106,161.63c-4.24,76.343-0.34,137.695,11.594,182.353
	c3.979,14.892,17.474,25.292,32.819,25.292h59.499c15.344,0,28.84-10.4,32.819-25.292c3.887-14.545,6.793-30.341,8.887-46.967
	c11.562,22.292,23.387,41.387,35.318,56.971c6.607,8.633,16.732,13.393,27.101,13.392c4.334,0,8.71-0.831,12.89-2.56l54.985-22.738
	C476.228,478.941,484.722,464.169,482.698,448.889z M329.713,143.086c0.158,0.255,0.315,0.51,0.473,0.766
	c30.796,49.958,53.378,104.57,66.86,161.688c0.069,0.293,0.139,0.587,0.208,0.88c2.096,8.899,0.954,18.284-3.216,26.427
	c-4.16,8.125-11.116,14.53-19.579,18.035c-12.883,5.326-27.548,3.233-38.387-5.198c-1.24-74.986-11.445-151.929-19.724-202.958
	c-0.857-5.277-2.414-10.273-4.56-14.911C319.078,130.877,325.424,136.138,329.713,143.086z M260.441,113.274
	c19.015,0.072,34.999,14.381,38.037,33.152c0.06,0.369,0.119,0.738,0.179,1.106c9.181,56.942,9.308,114.982,0.164,171.93
	c-0.157,0.977-0.315,1.956-0.474,2.933c-1.468,9.035-6.11,17.273-13.072,23.196c-6.957,5.919-15.829,9.178-24.984,9.178
	c-19.018,0-35.023-13.613-38.056-32.375c-0.359-2.211-0.713-4.423-1.063-6.635c-8.607-54.373-8.551-109.743,0.094-164.109
	c0.317-1.992,0.638-3.994,0.965-6.005C225.282,126.839,241.364,113.202,260.441,113.274z M299.58,38.815
	c3.555-12.121,14.859-20.584,27.489-20.584c15.796,0,28.647,12.851,28.647,28.647c0,12.63-8.464,23.934-20.585,27.489
	l-50.311,14.758L299.58,38.815z M187.043,46.877c0-15.796,12.851-28.647,28.647-28.647c12.63,0,23.934,8.465,27.49,20.584
	l14.758,50.311l-50.311-14.758C195.507,70.811,187.043,59.507,187.043,46.877z M305.247,482.003
	c-1.851,6.929-8.105,11.767-15.208,11.767h-59.498c-7.103,0-13.356-4.838-15.208-11.767c-5.832-21.827-15.196-71.973-11.755-160.924
	c0.225,1.41,0.433,2.822,0.661,4.231c4.466,27.634,28.039,47.689,56.051,47.689c13.478,0,26.547-4.803,36.797-13.524
	c10.255-8.725,17.093-20.857,19.254-34.159c0.228-1.404,0.436-2.81,0.661-4.214C320.441,410.039,311.08,460.177,305.247,482.003z
	 M455.076,467.959l-54.988,22.739c-6.562,2.714-14.19,0.63-18.549-5.067c-15.753-20.575-31.424-47.821-46.597-80.973
	c0.74-12.349,1.132-24.971,1.228-37.732c7.404,3.368,15.447,5.109,23.565,5.109c7.312,0,14.685-1.411,21.692-4.308
	c12.463-5.162,22.705-14.598,28.837-26.57c6.139-11.988,7.821-25.809,4.734-38.916c-0.318-1.355-0.653-2.704-0.976-4.058
	c23.618,51.058,44.469,106.513,50.601,153.092C465.567,458.386,461.64,465.245,455.076,467.959z"/>
<g>
</g>
<g>
</g>
<g>
</g>
<g>
</g>
<g>
</g>
<g>
</g>
<g>
</g>
<g>
</g>
<g>
</g>
<g>
</g>
<g>
</g>
<g>
</g>
<g>
</g>
<g>
</g>
<g>
</g>
</svg>
