<?xml version="1.0" encoding="iso-8859-1"?>
<!-- Generator: Adobe Illustrator 19.0.0, SVG Export Plug-In . SVG Version: 6.00 Build 0)  -->
<svg version="1.1" id="Layer_1" xmlns="http://www.w3.org/2000/svg" xmlns:xlink="http://www.w3.org/1999/xlink" x="0px" y="0px"
	 viewBox="0 0 512 512" style="enable-background:new 0 0 512 512;" xml:space="preserve">
<g>
	<path style="fill:#F7B239;" d="M485.392,362.521v109.995c0,8.933-7.237,16.17-16.17,16.17c-4.472,0-8.515-1.812-11.43-4.739
		c-2.927-2.927-4.739-6.97-4.739-11.43V362.521L485.392,362.521L485.392,362.521z"/>
	<rect x="453.048" y="191.193" style="fill:#F7B239;" width="32.34" height="136.631"/>
	<path style="fill:#F7B239;" d="M485.392,114.652v46.245h-32.34v-46.245c0-8.933,7.237-16.17,16.17-16.17
		c4.472,0,8.515,1.812,11.43,4.739C483.579,106.137,485.392,110.18,485.392,114.652z"/>
</g>
<g>
	<path style="fill:#E09B2D;" d="M469.222,98.482v62.415h-16.17v-46.245C453.052,105.719,460.289,98.482,469.222,98.482z"/>
	<rect x="453.048" y="191.193" style="fill:#E09B2D;" width="16.17" height="136.631"/>
	<path style="fill:#E09B2D;" d="M453.052,362.521h16.17v126.165c-4.472,0-8.515-1.812-11.43-4.739
		c-2.927-2.927-4.739-6.97-4.739-11.43L453.052,362.521L453.052,362.521z"/>
</g>
<g>
	<path style="fill:#F95428;" d="M485.938,327.823c9.583,0,17.355,7.771,17.355,17.355c0,4.786-1.94,9.13-5.088,12.267
		c-3.136,3.136-7.481,5.076-12.267,5.076h-0.546h-32.34h-0.534c-9.583,0-17.355-7.76-17.355-17.343c0-4.786,1.94-9.13,5.088-12.267
		c3.136-3.148,7.469-5.088,12.267-5.088h0.534h32.34H485.938z"/>
	<polygon style="fill:#F95428;" points="485.392,191.192 453.052,191.192 453.052,176.044 453.052,160.897 485.392,160.897 
		502.456,160.897 502.456,191.192 	"/>
</g>
<g>
	<path style="fill:#2BA5F7;" d="M359.25,115.047c33.687,0,60.986,27.31,60.986,60.997s-27.298,60.986-60.986,60.986
		s-60.997-27.298-60.997-60.986S325.563,115.047,359.25,115.047z"/>
	<path style="fill:#2BA5F7;" d="M102.518,115.047c33.687,0,60.997,27.31,60.997,60.997s-27.31,60.986-60.997,60.986
		s-60.986-27.298-60.986-60.986S68.83,115.047,102.518,115.047z"/>
</g>
<path style="fill:#E54728;" d="M208.087,68.709c4.286-8.213,12.894-13.812,22.791-13.812c9.909,0,18.505,5.599,22.803,13.812
	c1.859,3.555,2.916,7.597,2.916,11.895c0,14.207-11.512,25.719-25.719,25.719c-14.195,0-25.707-11.512-25.707-25.719
	C205.171,76.306,206.228,72.264,208.087,68.709z"/>
<path style="fill:#F95428;" d="M288.146,78.467v0.012c-11.849-2.126-23.755-5.239-34.466-9.769
	c-4.298-8.213-12.894-13.812-22.803-13.812c-9.897,0-18.505,5.599-22.791,13.812c-10.71,4.53-22.617,7.644-34.466,9.769v-0.012
	c1.127-30.655,26.334-55.154,57.257-55.154C261.812,23.313,287.02,47.812,288.146,78.467z"/>
<path style="fill:#E09B2D;" d="M288.146,78.479c25.184,4.507,50.078,4.53,62.658,4.147c-45.966,4.089-82.383,41.354-85.171,87.68
	h-0.012c-10.536-4.96-22.315-7.736-34.744-7.736c-12.429,0-24.197,2.776-34.744,7.736c-2.788-46.326-39.205-83.591-85.171-87.68
	c12.58,0.383,37.486,0.36,62.658-4.147c11.849-2.126,23.755-5.239,34.466-9.769c-1.859,3.555-2.916,7.597-2.916,11.895
	c0,14.207,11.512,25.719,25.707,25.719c14.207,0,25.719-11.512,25.719-25.719c0-4.298-1.057-8.341-2.916-11.895
	C264.391,73.24,276.298,76.353,288.146,78.479z"/>
<g>
	<path style="fill:#F7B239;" d="M453.052,176.044c0,51.809-41.993,93.802-93.802,93.802s-93.802-41.993-93.802-93.802
		c0-1.928,0.058-3.845,0.186-5.738c2.788-46.326,39.205-83.591,85.171-87.68c0.023,0,0.046,0,0.058,0
		c4.693-0.139,7.667-0.348,8.271-0.383c0.012,0,0.023,0,0.035,0c0.023,0,0.058,0,0.081,0
		C411.059,82.242,453.052,124.235,453.052,176.044z M420.236,176.044c0-33.687-27.298-60.997-60.986-60.997
		s-60.997,27.31-60.997,60.997s27.31,60.986,60.997,60.986S420.236,209.732,420.236,176.044z"/>
	<path style="fill:#F7B239;" d="M196.134,170.306c0.128,1.893,0.186,3.81,0.186,5.738c0,51.809-41.993,93.802-93.802,93.802
		S8.716,227.853,8.716,176.044s41.993-93.802,93.802-93.802c0.058,0,0.128,0,0.186,0c0.012,0,0.023,0,0.046,0
		c0.802,0.058,3.694,0.244,8.155,0.383c0.012,0,0.035,0,0.058,0C156.928,86.715,193.346,123.98,196.134,170.306z M163.515,176.044
		c0-33.687-27.31-60.997-60.997-60.997s-60.986,27.31-60.986,60.997s27.298,60.986,60.986,60.986S163.515,209.732,163.515,176.044z"
		/>
</g>
<g>
	<path style="fill:#FFFFFF;" d="M381.827,207.334c-2.229,0-4.46-0.85-6.16-2.552c-3.402-3.402-3.402-8.918,0-12.32
		c4.394-4.394,6.815-10.225,6.815-16.417c0-12.816-10.422-23.244-23.233-23.244c-4.811,0-8.712-3.901-8.712-8.712
		s3.901-8.712,8.712-8.712c22.418,0,40.657,18.243,40.657,40.669c0,10.846-4.233,21.052-11.918,28.739
		C386.287,206.484,384.058,207.334,381.827,207.334z"/>
	<path style="fill:#FFFFFF;" d="M123.504,207.334c-2.229,0-4.46-0.85-6.16-2.552c-3.402-3.402-3.402-8.918,0-12.32
		c4.394-4.394,6.815-10.225,6.815-16.417c0-12.816-10.422-23.244-23.233-23.244c-4.811,0-8.712-3.901-8.712-8.712
		s3.901-8.712,8.712-8.712c22.418,0,40.657,18.243,40.657,40.669c0,10.846-4.233,21.052-11.918,28.739
		C127.963,206.484,125.734,207.334,123.504,207.334z"/>
</g>
<g>
	<path style="fill:#333333;" d="M102.518,106.339c-38.435,0-69.704,31.269-69.704,69.704s31.269,69.704,69.704,69.704
		c38.434,0,69.703-31.269,69.703-69.704C172.221,137.608,140.952,106.339,102.518,106.339z M102.518,228.322
		c-28.827,0-52.279-23.452-52.279-52.279s23.452-52.279,52.279-52.279c28.826,0,52.278,23.452,52.278,52.279
		S131.345,228.322,102.518,228.322z"/>
	<path style="fill:#333333;" d="M359.248,106.339c-38.435,0-69.704,31.269-69.704,69.704s31.269,69.704,69.704,69.704
		s69.704-31.269,69.704-69.704S397.683,106.339,359.248,106.339z M359.248,228.322c-28.827,0-52.279-23.452-52.279-52.279
		s23.452-52.279,52.279-52.279s52.279,23.452,52.279,52.279S388.075,228.322,359.248,228.322z"/>
	<path style="fill:#333333;" d="M512,345.173c0-11.518-7.512-21.309-17.893-24.746V199.904h8.35c4.811,0,8.712-3.901,8.712-8.712
		v-30.298c0-4.811-3.901-8.712-8.712-8.712h-8.35v-37.536c0-13.72-11.162-24.883-24.882-24.883
		c-13.72,0-24.882,11.162-24.882,24.883v4.283c-18.427-27.366-49.693-45.404-85.094-45.404c-3.028,0-6.023,0.139-8.985,0.398
		c-11.18,0.322-32.173,0.303-54.068-2.958c-4.654-32.132-32.068-56.368-65.31-56.368c-33.239,0-60.652,24.232-65.309,56.358
		c-21.936,3.262-42.985,3.279-54.148,2.96c-2.937-0.254-5.906-0.391-8.907-0.391C45.989,73.526,0,119.515,0,176.043
		s45.989,102.518,102.518,102.518s102.518-45.989,102.518-102.518c0-0.008,0-0.016,0-0.024c8.229-3.127,16.894-4.734,25.847-4.734
		c8.954,0,17.618,1.607,25.847,4.734c0,0.008,0,0.016,0,0.024c0,56.529,45.989,102.518,102.518,102.518
		c35.401,0,66.666-18.038,85.094-45.404v87.27c-10.38,3.437-17.893,13.228-17.893,24.746s7.512,21.309,17.893,24.746v102.6
		c0,13.72,11.162,24.882,24.882,24.882c13.72,0,24.882-11.162,24.882-24.882v-102.6C504.488,366.481,512,356.691,512,345.173z
		 M476.683,319.107h-14.917V199.904h14.917V319.107z M493.745,169.606v12.873h-31.979v-12.873H493.745z M469.225,107.188
		c4.112,0,7.458,3.345,7.458,7.459v37.536h-14.917v-37.537C461.766,110.534,465.113,107.188,469.225,107.188z M230.883,32.023
		c22.302,0,41.039,14.818,46.778,35.346c-6.208-1.523-12.281-3.379-18.016-5.635c-6.16-9.353-16.75-15.545-28.762-15.545
		c-12.014,0-22.604,6.192-28.763,15.546c-5.73,2.254-11.803,4.109-18.013,5.629C189.846,46.838,208.583,32.023,230.883,32.023z
		 M247.88,80.609c0,9.372-7.624,16.996-16.996,16.996s-16.996-7.625-16.996-16.996s7.624-16.996,16.996-16.996
		S247.88,71.237,247.88,80.609z M102.518,261.137c-46.921,0-85.093-38.174-85.093-85.094S55.597,90.95,102.518,90.95
		s85.093,38.172,85.093,85.093S149.438,261.137,102.518,261.137z M230.883,153.861c-9.429,0-18.611,1.425-27.423,4.235
		c-5.094-28.725-22.188-53.355-45.9-68.505c12.658-1.395,26.139-3.732,38.938-7.537c0.761,18.312,15.889,32.975,34.384,32.975
		c18.498,0,33.627-14.668,34.384-32.982c12.799,3.804,26.278,6.149,38.937,7.544c-23.711,15.15-40.806,39.779-45.898,68.504
		C249.493,155.285,240.313,153.861,230.883,153.861z M359.248,261.137c-46.921,0-85.093-38.172-85.093-85.093
		s38.172-85.093,85.093-85.093s85.093,38.172,85.093,85.093C444.342,222.964,406.168,261.137,359.248,261.137z M469.225,479.977
		c-4.112,0-7.458-3.346-7.458-7.458v-101.28h14.917v101.28C476.683,476.632,473.337,479.977,469.225,479.977z M485.935,353.814
		h-33.421c-4.765,0-8.64-3.876-8.64-8.64c0-4.764,3.876-8.64,8.64-8.64h33.421c4.765,0,8.64,3.876,8.64,8.64
		C494.575,349.937,490.699,353.814,485.935,353.814z"/>
</g>
<g>
</g>
<g>
</g>
<g>
</g>
<g>
</g>
<g>
</g>
<g>
</g>
<g>
</g>
<g>
</g>
<g>
</g>
<g>
</g>
<g>
</g>
<g>
</g>
<g>
</g>
<g>
</g>
<g>
</g>
</svg>
