<?xml version="1.0" encoding="iso-8859-1"?>
<!-- Generator: Adobe Illustrator 19.0.0, SVG Export Plug-In . SVG Version: 6.00 Build 0)  -->
<svg version="1.1" id="Layer_1" xmlns="http://www.w3.org/2000/svg" xmlns:xlink="http://www.w3.org/1999/xlink" x="0px" y="0px"
	 viewBox="0 0 512.001 512.001" style="enable-background:new 0 0 512.001 512.001;" xml:space="preserve">
<polygon style="fill:#9AD14B;" points="172.832,293.849 153.681,309.81 123.353,173.899 123.341,173.864 123.341,173.853 
	161.656,173.853 256.004,173.853 316.741,173.853 "/>
<polyline style="fill:#90BC42;" points="183.823,284.256 194.3,173.853 123.353,173.899 153.681,309.81 "/>
<polygon style="fill:#9AD14B;" points="395.105,173.853 259.229,503.268 172.832,293.849 316.741,173.853 350.341,173.853 "/>
<polygon style="fill:#90BC42;" points="296.458,190.765 172.832,293.849 182.203,316.561 182.203,316.561 259.229,503.268 
	233.712,282.36 "/>
<polygon style="fill:#F95428;" points="303.167,29.734 262.57,69.713 208.83,29.734 "/>
<polygon style="fill:#E54728;" points="303.167,78.911 303.167,99.913 262.57,69.713 303.167,29.734 303.167,58.141 "/>
<g>
	<path style="fill:#F95428;" d="M262.57,69.713l40.596,30.2c0,26.055-21.119,47.174-47.162,47.174
		c-26.055,0-47.174-21.119-47.174-47.174V78.911v-20.77V29.734L262.57,69.713z"/>
	<path style="fill:#F95428;" d="M397.515,8.732v70.179c0,26.055-21.119,47.174-47.174,47.174c-26.044,0-47.174-21.119-47.174-47.174
		v-20.77L397.515,8.732z"/>
</g>
<g>
	<polygon style="fill:#E54728;" points="397.515,8.732 303.167,58.141 303.167,29.734 303.167,8.732 	"/>
	<polygon style="fill:#E54728;" points="208.83,29.734 208.83,58.141 114.482,8.732 208.83,8.732 	"/>
</g>
<path style="fill:#F95428;" d="M208.83,58.141v20.77c0,26.055-21.119,47.174-47.174,47.174s-47.174-21.119-47.174-47.174V8.732
	L208.83,58.141z"/>
<g>
	<path style="fill:#E54728;" d="M146.296,78.911V25.393L114.482,8.732v70.179c0,26.055,21.119,47.174,47.174,47.174
		c5.584,0,10.937-0.976,15.907-2.757C159.337,116.801,146.296,99.384,146.296,78.911z"/>
	<path style="fill:#E54728;" d="M240.869,99.145V45.627l-31.813-16.661v70.179c0,26.055,21.119,47.174,47.174,47.174
		c5.584,0,10.937-0.976,15.907-2.757C253.911,137.035,240.869,119.618,240.869,99.145z"/>
	<path style="fill:#E54728;" d="M334.007,78.189V41.991l-31.813,16.15v20.048c0,26.055,21.119,47.174,47.174,47.174
		c5.584,0,10.937-0.976,15.907-2.757C347.048,116.08,334.007,98.662,334.007,78.189z"/>
</g>
<path style="fill:#FFFFFF;" d="M278.52,388.897c-1.109,0-2.236-0.213-3.326-0.662c-4.458-1.838-6.581-6.943-4.742-11.401
	l61.671-149.514c1.838-4.458,6.941-6.583,11.401-4.742c4.458,1.838,6.581,6.943,4.742,11.401l-61.671,149.514
	C285.206,386.86,281.951,388.897,278.52,388.897z"/>
<path style="fill:#333333;" d="M406.248,78.914V8.732c0-4.822-3.909-8.732-8.732-8.732h-94.344c-4.822,0-8.732,3.909-8.732,8.732
	v12.273h-76.88V8.732c0-4.822-3.909-8.732-8.732-8.732h-94.344c-4.822,0-8.732,3.909-8.732,8.732v70.183
	c0,27.855,20.48,51.011,47.172,55.217v30.99H123.33c-3.493,0-6.644,2.087-8.02,5.298c-0.737,1.72-0.867,3.583-0.476,5.336
	l-0.014,0.004l30.342,135.954c0.662,2.971,2.826,5.383,5.708,6.364c0.92,0.313,1.869,0.466,2.813,0.466c2.014,0,4-0.697,5.593-2.026
	l10.017-8.352l81.866,198.435c1.348,3.269,4.536,5.402,8.073,5.402c3.536,0,6.723-2.133,8.072-5.402l135.876-329.416
	c1.111-2.694,0.804-5.764-0.816-8.186c-1.621-2.422-4.343-3.876-7.257-3.876h-36.029v-30.99
	C385.768,129.926,406.248,106.768,406.248,78.914z M350.344,117.354c-21.196,0-38.44-17.244-38.44-38.44V63.428l76.88-40.266v55.752
	C388.784,100.11,371.54,117.354,350.344,117.354z M256.001,138.359L256.001,138.359c-21.197,0-38.44-17.244-38.44-38.44V47.115
	l76.644,57.016C292.101,123.352,275.772,138.359,256.001,138.359z M294.441,82.541l-18.488-13.753l18.488-18.201V82.541z
	 M261.775,58.241l-26.579-19.773h46.662L261.775,58.241z M311.904,17.463h50.121l-50.121,26.251V17.463z M200.097,29.736v13.978
	l-50.121-26.251h50.121V29.736z M123.217,78.914V23.162l76.88,40.266v15.486c0,21.196-17.244,38.44-38.44,38.44
	S123.217,100.11,123.217,78.914z M170.389,134.131c12.691-2,23.974-8.286,32.322-17.324c6.322,19.905,23.506,35.012,44.558,38.328
	v9.986h-76.88V134.131z M159.088,293.936l-24.851-111.352h158.405L159.088,293.936z M259.229,480.372l-75.88-183.927L319.91,182.586
	h62.148L259.229,480.372z M264.732,165.121v-9.986c21.054-3.317,38.236-18.424,44.558-38.328
	c8.349,9.038,19.63,15.325,32.322,17.324v30.99H264.732z"/>
<g>
	<path style="fill:#FFFFFF;" d="M373.59,88.085c-4.822,0-8.732-3.909-8.732-8.732V52.576c0-4.822,3.909-8.732,8.732-8.732
		c4.822,0,8.732,3.909,8.732,8.732v26.777C382.322,84.175,378.412,88.085,373.59,88.085z"/>
	<path style="fill:#FFFFFF;" d="M183.823,95.07c-4.822,0-8.732-3.909-8.732-8.732V73.532c0-4.822,3.909-8.732,8.732-8.732
		c4.822,0,8.732,3.909,8.732,8.732v12.806C192.554,91.161,188.645,95.07,183.823,95.07z"/>
	<circle style="fill:#FFFFFF;" cx="271.135" cy="109.623" r="8.732"/>
	<circle style="fill:#FFFFFF;" cx="351.606" cy="202.958" r="8.732"/>
</g>
<g>
</g>
<g>
</g>
<g>
</g>
<g>
</g>
<g>
</g>
<g>
</g>
<g>
</g>
<g>
</g>
<g>
</g>
<g>
</g>
<g>
</g>
<g>
</g>
<g>
</g>
<g>
</g>
<g>
</g>
</svg>
