<?xml version="1.0" encoding="iso-8859-1"?>
<!-- Generator: Adobe Illustrator 19.0.0, SVG Export Plug-In . SVG Version: 6.00 Build 0)  -->
<svg version="1.1" id="Layer_1" xmlns="http://www.w3.org/2000/svg" xmlns:xlink="http://www.w3.org/1999/xlink" x="0px" y="0px"
	 viewBox="0 0 509.258 509.258" style="enable-background:new 0 0 509.258 509.258;" xml:space="preserve">
<g>
	<path style="fill:#F95428;" d="M490.418,222.677c5.604,7.989,9.897,18.482,9.897,31.955c0,13.474-4.293,24.086-9.897,31.955
		c-9.3,13.116-11.089,30.167-5.127,45.071c4.412,10.97,4.173,24.324-10.016,37.44c-43.879,40.302-150.118-45.429-151.43-46.502
		c17.051-45.31,17.051-90.619,0-135.929c1.312-1.073,107.551-86.804,151.43-46.502c14.308,13.116,14.428,26.47,10.016,37.321
		C479.329,192.51,481.118,209.561,490.418,222.677z"/>
	<path style="fill:#F95428;" d="M185.531,186.668c-17.051,45.31-17.051,90.619,0,135.929c-1.312,1.073-107.551,86.804-151.43,46.502
		c-14.308-13.116-14.428-26.47-10.016-37.44c5.962-14.905,4.173-31.955-5.127-45.071c-5.604-7.989-9.897-18.482-9.897-31.955
		s4.292-24.086,9.897-31.955c9.3-13.116,11.089-30.167,5.127-45.071c-4.412-10.97-4.292-24.324,10.016-37.321
		C77.98,99.864,184.22,185.595,185.531,186.668z"/>
	<path style="fill:#F95428;" d="M323.845,186.668c17.051,45.31,17.051,90.619,0,135.929c-46.144,16.812-92.289,16.812-138.314,0
		c-17.051-45.31-17.051-90.619,0-135.929C231.676,169.975,277.701,169.975,323.845,186.668z"/>
</g>
<path style="fill:#E54728;" d="M224.879,322.597c-17.051-45.31-17.051-90.619,0-135.929c16.455-5.962,33.028-9.897,49.483-11.566
	c-29.571-3.1-59.26,0.835-88.831,11.566c-17.051,45.31-17.051,90.619,0,135.929c29.571,10.731,59.26,14.547,88.831,11.566
	C257.908,332.494,241.334,328.678,224.879,322.597z"/>
<g>
	<path style="fill:#FFFFFF;" d="M300.356,307.812c-0.835,0-1.669-0.119-2.504-0.358c-4.769-1.431-7.512-6.319-6.081-11.089
		c5.843-19.912,7.512-38.99,5.127-58.664c-0.596-4.889,2.862-9.3,7.87-9.897c4.889-0.596,9.3,2.862,9.897,7.87
		c2.623,21.701,0.715,43.879-5.723,65.818C307.868,305.308,304.291,307.812,300.356,307.812z"/>
	<circle style="fill:#FFFFFF;" cx="300.356" cy="210.396" r="8.943"/>
</g>
<g>
	<path style="fill:#333333;" d="M509.258,254.632c0-13.712-3.935-26.232-11.566-37.082c-7.393-10.493-8.943-24.563-4.054-36.606
		c6.796-16.932,2.504-33.744-12.281-47.337c-21.343-19.674-55.802-17.408-102.424,6.677c-25.874,13.354-47.933,29.571-56.756,36.367
		c-44.833-15.262-90.262-15.262-135.095,0c-8.704-6.677-30.882-23.013-56.756-36.367c-46.621-24.086-81.081-26.351-102.424-6.677
		c-14.785,13.593-19.078,30.405-12.281,47.337c4.889,12.043,3.339,26.113-4.054,36.606C3.935,228.401,0,240.92,0,254.632
		s3.935,26.232,11.566,37.082c7.393,10.493,8.943,24.563,4.054,36.605c-6.796,16.932-2.504,33.744,12.281,47.337
		c9.539,8.823,21.82,13.235,36.605,13.235c18.124,0,40.183-6.677,65.818-19.912c25.874-13.354,47.933-29.571,56.756-36.367
		c22.416,7.631,44.952,11.447,67.488,11.447s45.071-3.816,67.488-11.447c8.704,6.677,30.882,23.013,56.756,36.367
		c25.636,13.235,47.694,19.912,65.818,19.912c14.785,0,26.947-4.412,36.605-13.235c14.785-13.593,19.078-30.405,12.281-47.337
		c-4.889-12.043-3.339-26.113,4.054-36.605C505.323,280.864,509.258,268.464,509.258,254.632z M40.183,362.541
		c-9.42-8.585-11.804-17.289-7.75-27.424c7.273-17.885,5.008-37.917-6.081-53.537c-5.485-7.87-8.347-16.812-8.347-26.828
		c0-10.016,2.742-18.959,8.347-26.828c10.97-15.62,13.235-35.652,6.081-53.537c-4.054-10.135-1.55-18.839,7.75-27.424
		c29.809-27.424,103.139,18.601,134.737,42.925c-14.785,43.163-14.785,86.685,0,129.848
		C143.322,343.94,69.992,389.965,40.183,362.541z M192.447,315.562c-14.308-40.421-14.308-81.438,0-121.859
		c41.256-14.07,83.108-14.07,124.483,0c14.308,40.421,14.308,81.438,0,121.859C275.555,329.751,233.822,329.751,192.447,315.562z
		 M483.026,281.461c-10.97,15.62-13.235,35.652-6.081,53.537c4.054,10.135,1.55,18.839-7.75,27.424
		c-29.809,27.424-103.139-18.601-134.737-42.925c14.785-43.163,14.785-86.685,0-129.848
		c31.598-24.324,104.928-70.349,134.737-42.925c9.42,8.585,11.804,17.289,7.75,27.424c-7.273,17.885-5.008,37.917,6.081,53.537
		c5.485,7.87,8.347,16.812,8.347,26.828C491.372,264.648,488.63,273.71,483.026,281.461z"/>
	<path style="fill:#333333;" d="M428.535,198.711l-64.388,10.731c-4.889,0.835-8.108,5.366-7.393,10.254
		c0.715,4.412,4.531,7.512,8.823,7.512c0.477,0,0.954,0,1.431-0.119l64.388-10.731c4.889-0.835,8.108-5.366,7.393-10.254
		C437.954,201.215,433.304,197.995,428.535,198.711z"/>
	<path style="fill:#333333;" d="M431.396,292.907l-64.388-10.731c-4.889-0.835-9.42,2.504-10.254,7.393
		c-0.835,4.889,2.504,9.42,7.393,10.254l64.388,10.731c0.477,0.119,0.954,0.119,1.431,0.119c4.293,0,8.108-3.1,8.823-7.512
		C439.624,298.392,436.285,293.742,431.396,292.907z"/>
	<path style="fill:#333333;" d="M141.295,209.442l-64.388-10.731c-4.889-0.835-9.539,2.504-10.254,7.393
		c-0.835,4.889,2.504,9.42,7.393,10.254l64.388,10.731c0.477,0.119,0.954,0.119,1.431,0.119c4.292,0,8.108-3.1,8.823-7.512
		C149.403,214.927,146.184,210.277,141.295,209.442z"/>
	<path style="fill:#333333;" d="M138.314,282.176l-64.388,10.731c-4.889,0.835-8.108,5.366-7.393,10.254
		c0.715,4.412,4.531,7.512,8.823,7.512c0.477,0,0.954,0,1.431-0.119l64.388-10.731c4.889-0.835,8.108-5.366,7.393-10.254
		C147.853,284.68,143.203,281.341,138.314,282.176z"/>
</g>
<g>
</g>
<g>
</g>
<g>
</g>
<g>
</g>
<g>
</g>
<g>
</g>
<g>
</g>
<g>
</g>
<g>
</g>
<g>
</g>
<g>
</g>
<g>
</g>
<g>
</g>
<g>
</g>
<g>
</g>
</svg>
