<?xml version="1.0" encoding="iso-8859-1"?>
<!-- Generator: Adobe Illustrator 19.0.0, SVG Export Plug-In . SVG Version: 6.00 Build 0)  -->
<svg version="1.1" id="Layer_1" xmlns="http://www.w3.org/2000/svg" xmlns:xlink="http://www.w3.org/1999/xlink" x="0px" y="0px"
	 viewBox="0 0 512.002 512.002" style="enable-background:new 0 0 512.002 512.002;" xml:space="preserve">
<rect x="9.078" y="32.077" style="fill:#B3B3B3;" width="493.844" height="308.656"/>
<g>
	<path style="fill:#995C0D;" d="M464.797,400.045l-0.46,1.174c-2.046-0.763-4.249-1.174-6.561-1.174h-44.061
		c-2.312,0-4.515,0.412-6.561,1.174l-0.46-1.174c0-16.051,13.012-29.051,29.051-29.051S464.797,383.994,464.797,400.045z"/>
	<path style="fill:#995C0D;" d="M344.961,400.045l-0.46,1.174c-2.034-0.763-4.249-1.174-6.549-1.174H293.88
		c-2.3,0-4.515,0.412-6.549,1.174l-0.46-1.174c0-16.051,13-29.051,29.039-29.051C331.961,370.994,344.961,383.994,344.961,400.045z"
		/>
	<path style="fill:#995C0D;" d="M225.137,400.045l-0.46,1.174c-2.046-0.763-4.249-1.174-6.561-1.174h-44.061
		c-2.312,0-4.515,0.412-6.561,1.174l-0.46-1.174c0-16.051,13.012-29.051,29.051-29.051S225.137,383.994,225.137,400.045z"/>
	<path style="fill:#995C0D;" d="M105.302,400.045l-0.46,1.174c-2.034-0.763-4.249-1.174-6.549-1.174H54.22
		c-2.3,0-4.515,0.412-6.549,1.174l-0.46-1.174c0-16.051,13-29.051,29.039-29.051C92.301,370.994,105.302,383.994,105.302,400.045z"
		/>
</g>
<g>
	<path style="fill:#F95428;" d="M476.599,418.856v61.068h-81.706v-61.068c0-8.074,5.096-14.973,12.262-17.636
		c2.046-0.763,4.249-1.174,6.561-1.174h44.061c2.312,0,4.515,0.412,6.561,1.174C471.503,403.882,476.599,410.782,476.599,418.856z"
		/>
	<path style="fill:#F95428;" d="M356.763,418.856v61.068h-81.694v-61.068c0-8.086,5.096-14.973,12.262-17.636
		c2.034-0.763,4.249-1.174,6.549-1.174h44.073c2.3,0,4.515,0.412,6.549,1.174C351.667,403.882,356.763,410.77,356.763,418.856z"/>
	<path style="fill:#F95428;" d="M117.104,418.856v61.068H35.41v-61.068c0-8.086,5.096-14.973,12.262-17.636
		c2.034-0.763,4.249-1.174,6.549-1.174h44.073c2.3,0,4.515,0.412,6.549,1.174C112.008,403.882,117.104,410.77,117.104,418.856z"/>
	<path style="fill:#F95428;" d="M236.939,418.856v61.068h-81.706v-61.068c0-8.086,5.096-14.973,12.262-17.636
		c2.046-0.763,4.249-1.174,6.561-1.174h44.061c2.312,0,4.515,0.412,6.561,1.174C231.843,403.882,236.939,410.77,236.939,418.856z"/>
</g>
<path style="fill:#4D4D4D;" d="M233.939,232.93c-1.568,0-3.135-0.406-4.539-1.217c-2.808-1.622-4.539-4.618-4.539-7.862v-74.897
	c0-3.244,1.731-6.24,4.539-7.862c2.808-1.622,6.27-1.622,9.078,0l64.863,37.449c2.808,1.622,4.539,4.618,4.539,7.862
	c0,3.244-1.731,6.24-4.539,7.862l-64.863,37.449C237.074,232.524,235.506,232.93,233.939,232.93z M243.017,164.678v43.45
	l37.627-21.725L243.017,164.678z"/>
<path style="fill:#CCCCCC;" d="M256.001,284.446c-54.062,0-98.043-43.982-98.043-98.044s43.981-98.043,98.043-98.043
	s98.044,43.981,98.044,98.043S310.061,284.446,256.001,284.446z M256.001,106.516c-44.049,0-79.886,35.836-79.886,79.886
	s35.837,79.887,79.886,79.887c44.05,0,79.887-35.837,79.887-79.887S300.051,106.516,256.001,106.516z"/>
<g>
	<path style="fill:#4D4D4D;" d="M256.001,322.577c-5.014,0-9.078-4.065-9.078-9.078v-11.22c0-5.014,4.065-9.078,9.078-9.078
		s9.078,4.065,9.078,9.078v11.22C265.078,318.512,261.014,322.577,256.001,322.577z"/>
	<path style="fill:#4D4D4D;" d="M256.001,79.611c-5.014,0-9.078-4.065-9.078-9.078v-11.22c0-5.014,4.065-9.078,9.078-9.078
		s9.078,4.065,9.078,9.078v11.22C265.078,75.547,261.014,79.611,256.001,79.611z"/>
	<path style="fill:#4D4D4D;" d="M52.655,195.478c-5.014,0-9.078-4.065-9.078-9.078c0-5.014,4.065-9.078,9.078-9.078l87.466-0.001
		c5.014,0,9.078,4.065,9.078,9.078s-4.065,9.078-9.078,9.078L52.655,195.478z"/>
	<path style="fill:#4D4D4D;" d="M459.345,195.478L459.345,195.478l-87.466-0.001c-5.015,0-9.078-4.065-9.078-9.078
		s4.065-9.078,9.078-9.078l0,0l87.466,0.001c5.015,0,9.078,4.065,9.078,9.078C468.423,191.413,464.359,195.478,459.345,195.478z"/>
</g>
<g>
	<path style="fill:#333333;" d="M502.922,22.998H9.078C4.065,22.998,0,27.063,0,32.077v308.652c0,5.014,4.065,9.078,9.078,9.078
		h493.843c5.015,0,9.078-4.065,9.078-9.078V32.077C512,27.063,507.936,22.998,502.922,22.998z M493.843,331.65H18.157V41.155
		h475.686V331.65z"/>
	<path style="fill:#333333;" d="M502.922,470.847h-17.248v-51.988c0-9.489-4.766-17.881-12.025-22.924
		c-2.054-19.1-18.267-34.024-37.904-34.024c-19.637,0-35.85,14.924-37.904,34.024c-7.259,5.043-12.025,13.435-12.025,22.924v51.988
		h-19.971v-51.988c0-9.489-4.766-17.881-12.025-22.924c-2.054-19.1-18.267-34.024-37.904-34.024
		c-19.637,0-35.85,14.924-37.904,34.024c-7.259,5.043-12.025,13.435-12.025,22.924v51.988h-19.971v-51.988
		c0-9.489-4.766-17.882-12.026-22.924c-2.054-19.1-18.267-34.022-37.903-34.022c-19.637,0-35.85,14.924-37.904,34.022
		c-7.26,5.043-12.026,13.435-12.026,22.924v51.988h-19.971v-51.988c0-9.489-4.766-17.882-12.026-22.924
		c-2.054-19.1-18.267-34.022-37.903-34.022c-19.637,0-35.85,14.924-37.904,34.022c-7.26,5.043-12.026,13.435-12.026,22.924v51.988
		H9.078c-5.014,0-9.078,4.065-9.078,9.078s4.065,9.078,9.078,9.078h26.326h81.703h38.128h81.703h38.128h81.701h38.128h81.701h26.326
		c5.015,0,9.078-4.065,9.078-9.078S507.936,470.847,502.922,470.847z M435.745,380.069c7.742,0,14.453,4.436,17.766,10.893h-35.532
		C421.292,384.505,428.004,380.069,435.745,380.069z M315.915,380.069c7.742,0,14.453,4.436,17.766,10.893h-35.532
		C301.462,384.505,308.174,380.069,315.915,380.069z M196.086,380.069c7.741,0,14.453,4.436,17.766,10.893H178.32
		C181.632,384.505,188.344,380.069,196.086,380.069z M76.257,380.069c7.741,0,14.453,4.436,17.766,10.893H58.49
		C61.803,384.505,68.515,380.069,76.257,380.069z M44.483,470.847v-51.988c0-5.372,4.37-9.741,9.741-9.741h44.063
		c5.371,0,9.741,4.37,9.741,9.741v51.988H44.483z M164.313,470.847v-51.988c0-5.372,4.37-9.741,9.741-9.741h44.064
		c5.371,0,9.741,4.37,9.741,9.741v51.988H164.313z M284.143,470.847v-51.988c0-5.372,4.369-9.741,9.741-9.741h44.063
		c5.372,0,9.741,4.37,9.741,9.741v51.988H284.143z M403.972,470.847v-51.988c0-5.372,4.369-9.741,9.741-9.741h44.063
		c5.372,0,9.741,4.37,9.741,9.741v51.988H403.972z"/>
</g>
<g>
	
		<line style="fill:none;stroke:#FFFFFF;stroke-width:15;stroke-linecap:round;stroke-linejoin:round;stroke-miterlimit:10;" x1="451.297" y1="425.793" x2="451.297" y2="444.349"/>
	
		<line style="fill:none;stroke:#FFFFFF;stroke-width:15;stroke-linecap:round;stroke-linejoin:round;stroke-miterlimit:10;" x1="90.574" y1="425.793" x2="90.574" y2="444.349"/>
	
		<line style="fill:none;stroke:#FFFFFF;stroke-width:15;stroke-linecap:round;stroke-linejoin:round;stroke-miterlimit:10;" x1="211.625" y1="425.793" x2="211.625" y2="444.349"/>
	
		<line style="fill:none;stroke:#FFFFFF;stroke-width:15;stroke-linecap:round;stroke-linejoin:round;stroke-miterlimit:10;" x1="331.86" y1="425.793" x2="331.86" y2="444.349"/>
</g>
<g>
</g>
<g>
</g>
<g>
</g>
<g>
</g>
<g>
</g>
<g>
</g>
<g>
</g>
<g>
</g>
<g>
</g>
<g>
</g>
<g>
</g>
<g>
</g>
<g>
</g>
<g>
</g>
<g>
</g>
</svg>
