<?xml version="1.0" encoding="iso-8859-1"?>
<!-- Generator: Adobe Illustrator 19.0.0, SVG Export Plug-In . SVG Version: 6.00 Build 0)  -->
<svg version="1.1" id="Layer_1" xmlns="http://www.w3.org/2000/svg" xmlns:xlink="http://www.w3.org/1999/xlink" x="0px" y="0px"
	 viewBox="0 0 512 512" style="enable-background:new 0 0 512 512;" xml:space="preserve">
<path style="fill:#F7B239;" d="M427.447,315.009v158.538h-41.371v-83.564c0-14.626-11.861-26.486-26.486-26.486
	c-7.325,0-13.938,2.962-18.743,7.755c-4.793,4.793-7.755,11.418-7.755,18.731v83.564h-50.601v-83.564
	c0-14.626-11.861-26.486-26.486-26.486c-7.325,0-13.938,2.962-18.743,7.755c-4.793,4.793-7.755,11.418-7.755,18.731v83.564h-50.601
	v-83.564c0-14.626-11.861-26.486-26.486-26.486c-7.325,0-13.938,2.962-18.743,7.755c-4.793,4.793-7.755,11.418-7.755,18.731v83.564
	H84.549V315.009L427.447,315.009L427.447,315.009z"/>
<rect x="84.549" y="315.011" style="fill:#E09B2D;" width="55.923" height="158.538"/>
<rect x="84.549" y="257.356" style="fill:#B27214;" width="342.898" height="57.656"/>
<rect x="84.549" y="257.356" style="fill:#995C0D;" width="55.923" height="57.656"/>
<g>
	<path style="fill:#B27214;" d="M386.077,389.982v83.564h-52.985v-83.564c0-7.313,2.962-13.938,7.755-18.731
		c4.806-4.793,11.418-7.755,18.743-7.755C374.216,363.496,386.077,375.356,386.077,389.982z"/>
	<path style="fill:#B27214;" d="M282.491,389.982v83.564h-52.985v-83.564c0-7.313,2.962-13.938,7.755-18.731
		c4.806-4.793,11.418-7.755,18.743-7.755C270.63,363.496,282.491,375.356,282.491,389.982z"/>
	<path style="fill:#B27214;" d="M178.905,389.982v83.564h-52.985v-83.564c0-7.313,2.962-13.938,7.755-18.731
		c4.806-4.793,11.418-7.755,18.743-7.755C167.044,363.496,178.905,375.356,178.905,389.982z"/>
</g>
<polygon style="fill:#F7B239;" points="484.304,38.456 484.304,90.716 405.705,90.716 106.304,90.716 27.704,90.716 27.704,38.456 
	"/>
<polygon style="fill:#E09B2D;" points="113.432,38.456 113.432,90.716 98.675,90.716 42.461,90.716 27.704,90.716 27.704,38.456 "/>
<path style="fill:#F7B239;" d="M478.626,237.565c-14.024,14.024-32.792,20.415-51.142,19.174l-0.037,0.615H84.549l-0.037-0.615
	c-18.35,1.241-37.106-5.15-51.129-19.174c-32.214-32.214-32.214-84.437,0-116.651c1.967-1.967,3.994-3.835,6.084-5.617
	c19.21-16.384,43.017-24.581,66.837-24.581c0.762,0,1.536,0.012,2.298,0.025h294.805c0.762-0.012,1.536-0.025,2.298-0.025
	c23.807,0,47.626,8.198,66.837,24.581c2.089,1.782,4.117,3.65,6.084,5.617C510.84,153.128,510.84,205.351,478.626,237.565z"/>
<path style="fill:#E09B2D;" d="M472.542,115.297H39.467c19.21-16.384,43.017-24.581,66.837-24.581c0.762,0,1.536,0.012,2.298,0.025
	h294.805c0.762-0.012,1.536-0.025,2.298-0.025C429.512,90.716,453.332,98.914,472.542,115.297z"/>
<g>
	<circle style="fill:#FFFFFF;" cx="107.286" cy="177.712" r="9.218"/>
	<circle style="fill:#FFFFFF;" cx="399.804" cy="285.87" r="9.218"/>
	<circle style="fill:#FFFFFF;" cx="424.386" cy="177.712" r="9.218"/>
	<circle style="fill:#FFFFFF;" cx="455.112" cy="63.406" r="9.218"/>
</g>
<path style="fill:#333333;" d="M512,179.238c0-24.495-9.539-47.524-26.86-64.845c-5.472-5.472-11.393-10.303-17.684-14.464h16.843
	c5.091,0,9.218-4.127,9.218-9.218V38.453c0-5.091-4.127-9.218-9.218-9.218H27.7c-5.091,0-9.218,4.127-9.218,9.218v52.259
	c0,5.091,4.127,9.218,9.218,9.218h16.838c-6.288,4.162-12.21,8.994-17.68,14.464C9.539,131.714,0,154.743,0,179.238
	s9.539,47.524,26.86,64.845c13.088,13.088,30.155,20.742,48.472,21.866v207.597c0,5.091,4.127,9.218,9.218,9.218h342.898
	c5.091,0,9.218-4.127,9.218-9.218V265.949c18.317-1.125,35.384-8.778,48.472-21.866C502.46,226.763,512,203.734,512,179.238z
	 M36.919,81.494V47.671h438.164v33.823H36.919z M418.231,305.788H93.768v-39.217H418.23L418.231,305.788L418.231,305.788z
	 M169.688,464.329h-34.547v-74.348c0-9.525,7.749-17.273,17.273-17.273c9.524,0,17.273,7.749,17.273,17.273V464.329z
	 M273.273,464.329h-34.547v-74.348c0-9.525,7.749-17.273,17.273-17.273c9.524,0,17.273,7.749,17.273,17.273V464.329z
	 M376.859,464.329h-34.547v-74.348c0-9.525,7.749-17.273,17.273-17.273c9.524,0,17.273,7.749,17.273,17.273L376.859,464.329
	L376.859,464.329z M395.295,464.329v-74.348c0-19.691-16.02-35.709-35.709-35.709c-19.69,0-35.709,16.02-35.709,35.709v74.348
	H291.71v-74.348c0-19.691-16.02-35.709-35.709-35.709c-19.69,0-35.709,16.02-35.709,35.709v74.348h-32.166v-74.348
	c0-19.691-16.02-35.709-35.709-35.709s-35.709,16.02-35.709,35.709v74.348H93.768V324.224H418.23v140.104H395.295z M431.96,247.674
	c-15.164,0-29.421-5.906-40.144-16.628c-16.988-16.989-16.988-44.632,0-61.622c12.872-12.872,33.818-12.872,46.69,0
	c9.579,9.579,9.579,25.166,0,34.746c-3.6,3.6-3.6,9.437,0,13.036c3.6,3.6,9.437,3.6,13.035,0
	c8.123-8.122,12.597-18.922,12.597-30.408s-4.474-22.287-12.597-30.408c-20.06-20.06-52.7-20.061-72.762,0
	c-24.177,24.177-24.177,63.517,0,87.694c1.421,1.421,2.902,2.76,4.412,4.052H128.805c1.512-1.292,2.992-2.631,4.412-4.052
	c24.177-24.177,24.177-63.517,0-87.694c-20.062-20.062-52.703-20.06-72.762,0c-16.768,16.767-16.768,44.05,0,60.817
	c3.6,3.6,9.437,3.6,13.036,0c3.6-3.6,3.6-9.437,0-13.036c-9.579-9.579-9.579-25.166,0-34.746c12.872-12.871,33.817-12.872,46.69,0
	c16.988,16.989,16.988,44.632,0,61.622c-22.136,22.136-58.152,22.136-80.287,0c-28.567-28.567-28.567-75.049,0-103.617
	c18.297-18.293,42.632-28.034,68.495-27.476c0.069,0.001,0.136,0.002,0.205,0.002h294.81c0.069,0,0.136,0,0.205-0.002
	c25.86-0.591,50.199,9.182,68.494,27.476c13.838,13.838,21.46,32.237,21.46,51.809c0,19.57-7.621,37.97-21.46,51.808
	C461.381,241.77,447.125,247.674,431.96,247.674z"/>
<g>
</g>
<g>
</g>
<g>
</g>
<g>
</g>
<g>
</g>
<g>
</g>
<g>
</g>
<g>
</g>
<g>
</g>
<g>
</g>
<g>
</g>
<g>
</g>
<g>
</g>
<g>
</g>
<g>
</g>
</svg>
