<?xml version="1.0" encoding="iso-8859-1"?>
<!-- Generator: Adobe Illustrator 19.0.0, SVG Export Plug-In . SVG Version: 6.00 Build 0)  -->
<svg version="1.1" id="Layer_1" xmlns="http://www.w3.org/2000/svg" xmlns:xlink="http://www.w3.org/1999/xlink" x="0px" y="0px"
	 viewBox="0 0 511.999 511.999" style="enable-background:new 0 0 511.999 511.999;" xml:space="preserve">
<polygon style="fill:#E09B2D;" points="288.555,426.838 288.555,447.777 8.798,447.777 8.798,64.218 288.555,64.218 
	288.555,187.199 "/>
<rect x="38.124" y="93.549" style="fill:#F7B239;" width="221.105" height="324.907"/>
<path style="fill:#E6E6E6;" d="M362.444,166.261c77.737,0,140.752,63.027,140.752,140.764s-63.015,140.752-140.752,140.752
	c-27.109,0-52.411-7.66-73.889-20.939V187.199C310.033,173.92,335.335,166.261,362.444,166.261z M389.635,307.025
	c0-15.015-12.164-27.191-27.191-27.191c-15.015,0-27.179,12.176-27.179,27.191c0,15.015,12.164,27.191,27.179,27.191
	C377.471,334.216,389.635,322.039,389.635,307.025z"/>
<g>
	<path style="fill:#FFFFFF;" d="M468.274,350.731c-0.915,0-1.846-0.144-2.763-0.447c-4.614-1.525-7.116-6.502-5.592-11.116
		c3.419-10.339,5.154-21.154,5.154-32.142c0-48.518-34.473-90.807-81.969-100.551c-4.76-0.977-7.826-5.627-6.849-10.386
		c0.976-4.76,5.634-7.822,10.386-6.851c55.643,11.417,96.027,60.954,96.027,117.789c0,12.869-2.033,25.542-6.042,37.667
		C475.404,348.389,471.966,350.731,468.274,350.731z"/>
	<path style="fill:#FFFFFF;" d="M231.369,328.456c-4.86,0-8.798-3.939-8.798-8.798V146.049c0-4.859,3.938-8.798,8.798-8.798
		c4.86,0,8.798,3.939,8.798,8.798v173.609C240.167,324.517,236.229,328.456,231.369,328.456z"/>
	<circle style="fill:#FFFFFF;" cx="231.369" cy="120.247" r="8.798"/>
	<circle style="fill:#FFFFFF;" cx="362.444" cy="195.591" r="8.798"/>
</g>
<g>
	<path style="fill:#333333;" d="M38.124,319.34c4.86,0,8.798-3.939,8.798-8.798V102.342h85.039c4.86,0,8.798-3.939,8.798-8.798
		s-3.938-8.798-8.798-8.798H38.124c-4.86,0-8.798,3.939-8.798,8.798v216.998C29.326,315.401,33.264,319.34,38.124,319.34z"/>
	<path style="fill:#333333;" d="M38.124,427.252h221.103c4.86,0,8.798-3.939,8.798-8.798s-3.938-8.798-8.798-8.798H46.921v-67.445
		c0-4.859-3.938-8.798-8.798-8.798s-8.798,3.939-8.798,8.798v76.243C29.326,423.313,33.264,427.252,38.124,427.252z"/>
	<path style="fill:#333333;" d="M184.742,102.342h65.686v285.617c0,4.859,3.938,8.798,8.798,8.798s8.798-3.939,8.798-8.798V93.544
		c0-4.859-3.938-8.798-8.798-8.798h-74.484c-4.86,0-8.798,3.939-8.798,8.798S179.884,102.342,184.742,102.342z"/>
	<path style="fill:#333333;" d="M362.449,157.465c-22.681,0-44.908,5.116-65.099,14.889V64.218c0-4.859-3.938-8.798-8.798-8.798
		H8.798C3.938,55.421,0,59.36,0,64.218V447.78c0,4.859,3.938,8.798,8.798,8.798h279.755c4.86,0,8.798-3.939,8.798-8.798v-6.093
		c20.19,9.775,42.418,14.889,65.099,14.889c82.463,0,149.55-67.088,149.55-149.55C512,224.559,444.912,157.465,362.449,157.465z
		 M279.755,438.983H17.596V73.016h262.159V438.983z M362.449,438.983c-22.932,0-45.333-5.923-65.099-17.163V192.223
		c19.766-11.24,42.166-17.161,65.099-17.161c72.76,0,131.955,59.199,131.955,131.966
		C494.404,379.788,435.21,438.983,362.449,438.983z"/>
	<path style="fill:#333333;" d="M362.449,271.037c-19.843,0-35.986,16.143-35.986,35.986c0,19.843,16.143,35.986,35.986,35.986
		c19.843,0,35.988-16.143,35.988-35.986C398.436,287.18,382.292,271.037,362.449,271.037z M362.449,325.414
		c-10.141,0-18.391-8.25-18.391-18.391s8.25-18.391,18.391-18.391c10.142,0,18.392,8.25,18.392,18.391
		C380.841,317.164,372.591,325.414,362.449,325.414z"/>
</g>
<g>
</g>
<g>
</g>
<g>
</g>
<g>
</g>
<g>
</g>
<g>
</g>
<g>
</g>
<g>
</g>
<g>
</g>
<g>
</g>
<g>
</g>
<g>
</g>
<g>
</g>
<g>
</g>
<g>
</g>
</svg>
