<?xml version="1.0" encoding="iso-8859-1"?>
<!-- Generator: Adobe Illustrator 19.0.0, SVG Export Plug-In . SVG Version: 6.00 Build 0)  -->
<svg version="1.1" id="Layer_1" xmlns="http://www.w3.org/2000/svg" xmlns:xlink="http://www.w3.org/1999/xlink" x="0px" y="0px"
	 viewBox="0 0 512 512" style="enable-background:new 0 0 512 512;" xml:space="preserve">
<path style="fill:#4D4D4D;" d="M356.564,189.468c36.403,0,65.893,29.504,65.893,65.893c0,36.403-29.491,65.893-65.893,65.893
	c-36.389,0-65.893-29.491-65.893-65.893C290.671,218.972,320.175,189.468,356.564,189.468z"/>
<path style="fill:#2BA5F7;" d="M231.609,33.839c122.347,0,221.523,99.19,221.523,221.523c0,122.347-99.176,221.536-221.523,221.536
	S10.086,377.708,10.086,255.362C10.086,133.029,109.262,33.839,231.609,33.839z M422.458,255.362
	c0-36.389-29.491-65.893-65.893-65.893c-36.389,0-65.893,29.504-65.893,65.893c0,36.403,29.504,65.893,65.893,65.893
	C392.967,321.255,422.458,291.764,422.458,255.362z M297.502,130.406c0-36.389-29.504-65.893-65.893-65.893
	s-65.893,29.504-65.893,65.893s29.504,65.893,65.893,65.893S297.502,166.796,297.502,130.406z M297.502,380.331
	c0-36.389-29.504-65.893-65.893-65.893s-65.893,29.504-65.893,65.893s29.504,65.893,65.893,65.893S297.502,416.72,297.502,380.331z
	 M251.78,255.362c0-11.135-9.023-20.171-20.171-20.171s-20.171,9.037-20.171,20.171c0,11.148,9.023,20.185,20.171,20.185
	S251.78,266.51,251.78,255.362z M172.547,255.362c0-36.389-29.504-65.893-65.893-65.893S40.76,218.972,40.76,255.362
	c0,36.403,29.504,65.893,65.893,65.893S172.547,291.764,172.547,255.362z"/>
<g>
	<circle style="fill:#4D4D4D;" cx="231.609" cy="130.402" r="65.893"/>
	<circle style="fill:#4D4D4D;" cx="231.609" cy="380.327" r="65.893"/>
	<path style="fill:#4D4D4D;" d="M231.609,235.19c11.148,0,20.171,9.037,20.171,20.171c0,11.148-9.023,20.185-20.171,20.185
		s-20.171-9.037-20.171-20.185C211.437,244.227,220.461,235.19,231.609,235.19z"/>
	<path style="fill:#4D4D4D;" d="M106.653,189.468c36.389,0,65.893,29.504,65.893,65.893c0,36.403-29.504,65.893-65.893,65.893
		S40.76,291.764,40.76,255.362C40.76,218.972,70.264,189.468,106.653,189.468z"/>
</g>
<g>
	<path style="fill:#FFFFFF;" d="M399.016,180.14c-3.667,0-7.201-2.005-8.987-5.493c-12.769-24.952-31.551-46.862-54.319-63.361
		c-4.51-3.268-5.518-9.575-2.248-14.085c3.269-4.512,9.576-5.518,14.086-2.248c25.329,18.355,46.228,42.737,60.438,70.506
		c2.538,4.959,0.574,11.035-4.385,13.573C402.131,179.783,400.561,180.14,399.016,180.14z"/>
	<circle style="fill:#FFFFFF;" cx="316.705" cy="87.854" r="10.086"/>
</g>
<g>
	<path style="fill:#333333;" d="M231.609,206.388c41.895,0,75.979-34.084,75.979-75.979S273.503,54.43,231.609,54.43
		s-75.979,34.084-75.979,75.979S189.714,206.388,231.609,206.388z M175.801,130.409c0-2.246,0.149-4.455,0.407-6.632
		c17.516-7.406,36.126-11.168,55.406-11.168c19.276,0,37.882,3.761,55.394,11.164c0.26,2.179,0.409,4.389,0.409,6.636
		c0,5.86-0.913,11.51-2.595,16.82c-16.468-8.12-34.644-12.379-53.207-12.379c-18.562,0-36.742,4.259-53.218,12.377
		C176.714,141.916,175.801,136.268,175.801,130.409z M231.609,186.217c-17.701,0-33.491-8.293-43.724-21.188
		c13.558-6.569,28.487-10.006,43.729-10.006c15.242,0,30.167,3.437,43.717,10.009C265.1,177.923,249.31,186.217,231.609,186.217z
		 M231.609,74.601c19.163,0,36.098,9.711,46.15,24.467c-14.872-4.399-30.312-6.632-46.144-6.632
		c-15.837,0-31.282,2.235-46.158,6.636C195.51,84.313,212.444,74.601,231.609,74.601z"/>
	<path style="fill:#333333;" d="M307.588,380.329c0-41.895-34.084-75.979-75.979-75.979s-75.979,34.084-75.979,75.979
		s34.084,75.979,75.979,75.979S307.588,422.224,307.588,380.329z M175.801,380.329c0-5.86,0.913-11.51,2.595-16.82
		c16.476,8.117,34.656,12.376,53.218,12.376c18.562,0,36.738-4.259,53.206-12.379c1.682,5.31,2.597,10.961,2.597,16.823
		c0,2.246-0.149,4.457-0.407,6.634c-17.512,7.403-36.119,11.164-55.395,11.164c-19.28,0-37.89-3.763-55.406-11.168
		C175.95,384.783,175.801,382.574,175.801,380.329z M231.609,324.522c17.698,0,33.489,8.292,43.72,21.184
		c-13.548,6.57-28.474,10.008-43.714,10.008c-15.24,0-30.17-3.437-43.726-10.006C198.119,332.813,213.909,324.522,231.609,324.522z
		 M185.454,411.662c14.877,4.401,30.323,6.636,46.16,6.636c15.833,0,31.275-2.234,46.147-6.632
		c-10.052,14.759-26.988,24.471-46.152,24.471S195.507,426.422,185.454,411.662z"/>
	<path style="fill:#333333;" d="M280.59,255.368c0,41.895,34.084,75.979,75.979,75.979s75.979-34.084,75.979-75.979
		s-34.084-75.979-75.979-75.979S280.59,213.474,280.59,255.368z M300.762,255.368c0-17.702,8.294-33.493,21.189-43.725
		c6.571,13.553,10.009,28.482,10.009,43.724c0,15.242-3.439,30.171-10.01,43.725C309.056,288.861,300.762,273.07,300.762,255.368z
		 M412.377,255.368c0,19.17-9.717,36.11-24.483,46.16c4.401-14.884,6.636-30.33,6.636-46.162c0-15.832-2.235-31.277-6.636-46.159
		C402.66,219.26,412.377,236.2,412.377,255.368z M363.199,199.968c7.402,17.525,11.162,36.134,11.162,55.399
		c0,19.266-3.76,37.875-11.163,55.402c-2.176,0.258-4.384,0.407-6.628,0.407c-5.859,0-11.507-0.913-16.818-2.595
		c8.12-16.472,12.38-34.651,12.38-53.214c0-18.562-4.259-36.74-12.379-53.212c5.309-1.681,10.957-2.594,16.816-2.594
		C358.814,199.561,361.023,199.71,363.199,199.968z"/>
	<path style="fill:#333333;" d="M182.63,255.368c0-41.895-34.084-75.979-75.979-75.979s-75.979,34.084-75.979,75.979
		s34.084,75.979,75.979,75.979S182.63,297.265,182.63,255.368z M162.458,255.368c0,17.698-8.292,33.487-21.181,43.718
		c-6.571-13.553-10.008-28.479-10.008-43.72c0-15.24,3.437-30.167,10.006-43.718C154.166,221.881,162.458,237.67,162.458,255.368z
		 M50.843,255.368c0-19.166,9.715-36.103,24.475-46.155c-4.4,14.881-6.634,30.324-6.634,46.154c0,15.831,2.235,31.275,6.635,46.158
		C60.557,291.473,50.843,274.535,50.843,255.368z M100.017,310.769c-7.403-17.526-11.163-36.135-11.163-55.402
		c0-19.265,3.76-37.873,11.16-55.399c2.179-0.26,4.389-0.407,6.635-0.407c5.862,0,11.513,0.913,16.824,2.597
		c-8.118,16.471-12.377,34.649-12.377,53.21c0,18.562,4.259,36.74,12.379,53.211c-5.312,1.684-10.964,2.598-16.826,2.598
		C104.405,311.176,102.194,311.028,100.017,310.769z"/>
	<path style="fill:#333333;" d="M201.349,255.368c0,16.686,13.575,30.261,30.261,30.261c16.687,0,30.263-13.575,30.263-30.261
		s-13.575-30.261-30.263-30.261C214.923,225.107,201.349,238.683,201.349,255.368z M241.7,255.368c0,5.563-4.526,10.09-10.091,10.09
		c-5.563,0-10.09-4.526-10.09-10.09c0-5.563,4.526-10.09,10.09-10.09C237.173,245.279,241.7,249.805,241.7,255.368z"/>
	<path style="fill:#333333;" d="M503.621,240.411c-5.489-0.943-10.704,2.742-11.648,8.231
		c-9.783,56.925-29.456,103.763-58.469,139.214c-16.803,20.532-36.813,37.328-59.687,50.197
		c54.374-42.421,89.404-108.536,89.404-182.685c0-127.711-103.9-231.61-231.61-231.61C103.9,23.758,0,127.659,0,255.368
		c0,127.467,103.506,231.207,230.883,231.601c2.499,0.315,11.166,1.272,24.082,1.272c23.114,0,59.792-3.074,98.84-18.41
		c37.632-14.779,69.574-37.91,94.94-68.751c31.453-38.242,52.684-88.381,63.107-149.021
		C512.796,246.57,509.11,241.355,503.621,240.411z M20.171,255.368c0-116.588,94.85-211.439,211.437-211.439
		s211.439,94.852,211.439,211.439s-94.852,211.439-211.439,211.439S20.171,371.957,20.171,255.368z"/>
</g>
<g>
</g>
<g>
</g>
<g>
</g>
<g>
</g>
<g>
</g>
<g>
</g>
<g>
</g>
<g>
</g>
<g>
</g>
<g>
</g>
<g>
</g>
<g>
</g>
<g>
</g>
<g>
</g>
<g>
</g>
</svg>
