<?xml version="1.0" encoding="iso-8859-1"?>
<!-- Generator: Adobe Illustrator 19.0.0, SVG Export Plug-In . SVG Version: 6.00 Build 0)  -->
<svg version="1.1" id="Layer_1" xmlns="http://www.w3.org/2000/svg" xmlns:xlink="http://www.w3.org/1999/xlink" x="0px" y="0px"
	 viewBox="0 0 512.001 512.001" style="enable-background:new 0 0 512.001 512.001;" xml:space="preserve">
<g>
	<path style="fill:#F95428;" d="M386.276,97.593h-99.444h-30.829h-30.842h-99.444c1.652-3.13,3.428-6.173,5.366-9.154
		c0,0,6.968-10.645,10.471-21.079h83.607h30.842h30.829h83.607c3.503,10.434,10.471,21.079,10.471,21.079
		C382.848,91.42,384.624,94.463,386.276,97.593z"/>
	<polygon style="fill:#F95428;" points="343.51,461.57 356.366,502.684 155.64,502.684 168.508,461.57 213.436,461.57 
		298.57,461.57 	"/>
</g>
<polygon style="fill:#E54728;" points="213.304,461.57 201.35,502.684 155.64,502.684 173.38,461.57 199.51,461.57 "/>
<polygon style="fill:#F95428;" points="298.57,461.57 213.436,461.57 215.001,436.392 220.528,347.308 221.696,328.552 
	290.323,328.552 291.49,347.308 297.005,436.392 "/>
<g>
	<path style="fill:#F7B239;" d="M421.391,101.742c0.012,0.012,0.012,0.012,0.012,0.012c27.451,35.549,43.809,80.129,43.809,128.522
		c0,101.642-72.092,186.454-167.922,206.104l-0.286,0.012l-5.515-89.085l1.329-0.087c64.863-16.408,122.659-60.23,112.213-177.113
		c-2.335-26.184-7.341-51.001-18.756-72.515c-1.652-3.13-3.428-6.173-5.366-9.154c0,0-6.968-10.645-10.471-21.079
		c-1.192-3.515-1.987-7.006-1.987-10.061c0-24.917,20.209-45.126,45.138-45.126c24.917,0,45.126,20.209,45.126,45.126
		C458.716,79.558,442.594,98.04,421.391,101.742z"/>
	<path style="fill:#F7B239;" d="M220.528,347.308l-5.527,89.085l-0.298-0.012c-6.534-1.341-12.968-2.981-19.265-4.931
		c-86.066-26.37-148.644-106.462-148.644-201.173c0-48.393,16.346-92.972,43.809-128.522c0,0,0,0,0.012-0.012
		C69.4,98.04,53.277,79.557,53.277,57.299c0-24.917,20.209-45.126,45.138-45.126c24.917,0,45.126,20.209,45.126,45.126
		c0,3.056-0.795,6.546-1.987,10.061c-3.503,10.434-10.471,21.079-10.471,21.079c-1.938,2.981-3.714,6.024-5.366,9.154
		c-11.403,21.513-16.421,46.331-18.756,72.515c-9.44,105.816,37.027,151.749,94.041,171.673c5.95,2.087,12.036,3.888,18.172,5.44
		L220.528,347.308z"/>
</g>
<g>
	<path style="fill:#E09B2D;" d="M73.998,230.276c0-48.393-1.705-109.372,25.758-144.921c0,0-0.012,0.012,0,0
		c-21.215-3.702-19.274-5.797-19.274-28.056c0-20.177,13.253-37.263,31.532-43.034c-4.292-1.356-8.859-2.092-13.599-2.092
		c-24.929,0-45.138,20.209-45.138,45.126c0,22.259,16.123,40.741,37.338,44.443c-0.012,0.012-0.012,0.012-0.012,0.012
		c-27.463,35.549-43.809,80.129-43.809,128.522c0,101.642,72.08,186.454,167.909,206.104l0.298,0.012l0.452-7.278
		C133.117,400.57,73.998,322.325,73.998,230.276z"/>
	<path style="fill:#E09B2D;" d="M220.528,347.308l-5.527,89.085l-0.298-0.012c-6.534-1.341-12.968-2.981-19.265-4.931l5.217-84.141
		l0.348-5.527c5.95,2.087,12.036,3.888,18.172,5.44L220.528,347.308z"/>
</g>
<polygon style="fill:#E54728;" points="241.098,328.552 241.098,461.57 213.436,461.57 215.001,436.392 220.528,347.308 
	221.696,328.552 "/>
<g>
	<path style="fill:#FFFFFF;" d="M369.27,377.643c-2.678,0-5.335-1.148-7.177-3.371c-3.284-3.961-2.733-9.834,1.228-13.118
		c8.268-6.853,15.915-14.513,22.727-22.77c25.019-30.323,38.795-68.716,38.795-108.109c0-5.145,4.17-9.316,9.316-9.316
		s9.316,4.171,9.316,9.316c0,43.709-15.292,86.313-43.055,119.966c-7.558,9.161-16.039,17.659-25.211,25.258
		C373.471,376.941,371.363,377.643,369.27,377.643z"/>
	<circle style="fill:#FFFFFF;" cx="113.156" cy="39.127" r="9.316"/>
	<circle style="fill:#FFFFFF;" cx="428.653" cy="39.127" r="9.316"/>
	<circle style="fill:#FFFFFF;" cx="431.759" cy="200.713" r="9.316"/>
</g>
<path style="fill:#333333;" d="M436.511,106.701c18.87-8.71,31.521-27.728,31.521-49.403c0-30.021-24.424-54.444-54.444-54.444
	s-54.444,24.424-54.444,54.444c0,0.246,0.012,0.497,0.02,0.745h-63.011V44.383c0-5.145-4.17-9.316-9.316-9.316
	c-5.146,0-9.316,4.171-9.316,9.316v13.66h-12.205V9.316c0-5.145-4.17-9.316-9.316-9.316s-9.316,4.171-9.316,9.316v48.727H234.48
	v-13.66c0-5.145-4.17-9.316-9.316-9.316s-9.316,4.171-9.316,9.316v13.66h-63.011c0.007-0.248,0.02-0.499,0.02-0.745
	c0-30.021-24.424-54.444-54.444-54.444S43.968,27.277,43.968,57.298c0,21.676,12.65,40.694,31.521,49.403
	c-24.914,36.48-38.015,78.934-38.015,123.578c0,50.901,17.811,100.523,50.15,139.724c30.236,36.652,71.756,62.64,117.581,73.784
	l-0.525,8.467h-36.172c-4.073,0-7.674,2.646-8.89,6.534l-12.867,41.114c-0.886,2.83-0.373,5.91,1.382,8.3
	c1.755,2.389,4.542,3.8,7.507,3.8h200.732c2.965,0,5.752-1.411,7.507-3.8c1.755-2.389,2.268-5.47,1.382-8.3l-12.867-41.114
	c-1.216-3.887-4.817-6.534-8.89-6.534h-36.184l-0.525-8.467c45.824-11.143,87.343-37.132,117.58-73.784
	c32.34-39.201,50.15-88.822,50.15-139.724C474.525,185.635,461.423,143.181,436.511,106.701z M234.48,319.237V106.905h12.204
	v212.332H234.48z M131.495,106.905h84.355v214.402c-1.969,1.589-3.284,3.962-3.452,6.669l-0.468,7.54
	c-72.271-21.928-103.609-75.855-95.686-164.58C118.584,144.642,123.512,123.884,131.495,106.905z M265.315,106.905h12.204v212.332
	h-12.204V106.905z M299.616,327.977c-0.168-2.713-1.489-5.091-3.464-6.68V106.905h84.352c7.987,16.987,12.913,37.742,15.254,64.031
	c7.921,88.719-23.413,142.645-95.675,164.575L299.616,327.977z M364.083,76.675c1.935,4.483,4.1,8.558,5.839,11.599H142.076
	c1.741-3.043,3.905-7.119,5.84-11.599H364.083z M101.996,358.147c-29.592-35.871-45.89-81.283-45.89-127.867
	c0-42.817,13.164-83.427,38.135-117.851c1.129-1.556,5.939-8.218,7.561-10.929c1.717-2.869,3.824-6.649,5.786-10.869
	c6.294-13.545,7.886-24.763,4.73-33.341c-1.891-5.137-6.409-11.851-17.201-14.667c-4.977-1.298-10.066,1.684-11.365,6.663
	c-1.299,4.978,1.683,10.066,6.661,11.365c3.634,0.948,4.164,2.38,4.417,3.067c1.341,3.636-0.615,14.349-8.394,27.324
	c-14.105-4.963-23.836-18.33-23.836-33.746c0-19.747,16.066-35.813,35.813-35.813s35.813,16.066,35.813,35.813
	c0,6.382-6.398,19.073-10.953,26.066c-14.181,21.845-22.313,49.147-25.59,85.916c-8.87,99.359,29.169,161.67,113.06,185.322
	l-4.364,70.266C165.729,414.257,128.965,390.837,101.996,358.147z M343.695,493.368H168.317l7.037-22.482h161.305L343.695,493.368z
	 M223.347,452.254l7.102-114.384h51.112l7.091,114.384L223.347,452.254L223.347,452.254z M410.003,358.147
	c-26.968,32.689-63.73,56.109-104.38,66.721l-4.356-70.269c83.886-23.654,121.921-85.964,113.051-185.317
	c-3.278-36.772-11.409-64.072-25.605-85.942c-3.569-5.46-10.938-19.011-10.938-26.041c0-19.747,16.066-35.813,35.813-35.813
	S449.4,37.552,449.4,57.299c0,15.417-9.73,28.784-23.836,33.746c-7.779-12.975-9.737-23.69-8.395-27.325
	c0.255-0.688,0.783-2.119,4.417-3.067c4.978-1.299,7.961-6.388,6.661-11.365c-1.298-4.978-6.384-7.963-11.365-6.663
	c-10.791,2.816-15.309,9.53-17.2,14.666c-3.156,8.578-1.566,19.796,4.73,33.341c2.112,4.545,4.398,8.586,6.183,11.527
	s5.812,8.415,6.911,9.924c25.135,34.497,38.386,75.236,38.386,118.196C455.893,276.864,439.595,322.276,410.003,358.147z"/>
<g>
</g>
<g>
</g>
<g>
</g>
<g>
</g>
<g>
</g>
<g>
</g>
<g>
</g>
<g>
</g>
<g>
</g>
<g>
</g>
<g>
</g>
<g>
</g>
<g>
</g>
<g>
</g>
<g>
</g>
</svg>
