<?xml version="1.0" encoding="iso-8859-1"?>
<!-- Generator: Adobe Illustrator 19.0.0, SVG Export Plug-In . SVG Version: 6.00 Build 0)  -->
<svg version="1.1" id="Layer_1" xmlns="http://www.w3.org/2000/svg" xmlns:xlink="http://www.w3.org/1999/xlink" x="0px" y="0px"
	 viewBox="0 0 512 512" style="enable-background:new 0 0 512 512;" xml:space="preserve">
<g>
	<polygon style="fill:#F7B239;" points="64.916,96.433 64.916,135.817 109.771,135.817 154.625,135.817 154.625,96.433 
		109.771,96.433 	"/>
	<polygon style="fill:#F7B239;" points="210.026,96.433 210.026,135.817 254.881,135.817 299.736,135.817 299.736,96.433 
		254.881,96.433 	"/>
	<polygon style="fill:#F7B239;" points="355.137,96.433 355.137,135.817 399.992,135.817 444.846,135.817 444.846,96.433 
		399.992,96.433 	"/>
</g>
<path style="fill:#F95428;" d="M444.846,135.817V96.433h-44.855h-44.855v39.385h44.855H444.846z M299.736,135.817V96.433h-44.855
	h-44.855v39.385h44.855H299.736z M154.625,135.817V96.433h-44.855H64.916v39.385h44.855H154.625z M41.096,10.939h429.832
	c16.644,0,30.137,13.493,30.137,30.151v429.817c0,16.658-13.493,30.151-30.137,30.151H41.096c-16.644,0-30.151-13.493-30.151-30.151
	V41.09C10.945,24.432,24.452,10.939,41.096,10.939z"/>
<g>
	<path style="fill:#FFFFFF;" d="M459.535,468.773c-6.043,0-10.94-4.898-10.94-10.94V179.967c0-6.042,4.897-10.94,10.94-10.94
		c6.043,0,10.94,4.898,10.94,10.94v277.866C470.475,463.875,465.579,468.773,459.535,468.773z"/>
	<circle style="fill:#FFFFFF;" cx="459.531" cy="50.878" r="10.94"/>
</g>
<g>
	<path style="fill:#333333;" d="M0,41.088v429.823C0,493.568,18.432,512,41.088,512h429.823C493.568,512,512,493.568,512,470.912
		V41.088C512,18.432,493.568,0,470.912,0H41.088C18.432,0,0,18.432,0,41.088z M21.88,41.088c0-10.592,8.616-19.208,19.208-19.208
		h429.823c10.592,0,19.208,8.616,19.208,19.208v429.823c0,10.592-8.617,19.208-19.208,19.208H41.088
		c-10.592,0-19.208-8.617-19.208-19.208V41.088z"/>
	<path style="fill:#333333;" d="M389.047,146.754v290.998c0,6.042,4.897,10.94,10.94,10.94c6.043,0,10.94-4.898,10.94-10.94V146.754
		h33.909c6.043,0,10.94-4.898,10.94-10.94V96.431c0-6.042-4.897-10.94-10.94-10.94h-33.909V61.425c0-6.042-4.897-10.94-10.94-10.94
		c-6.043,0-10.94,4.898-10.94,10.94v24.067h-33.916c-6.043,0-10.94,4.898-10.94,10.94v39.383c0,6.042,4.897,10.94,10.94,10.94
		h33.916V146.754z M433.896,124.874h-67.825v-17.503h67.825V124.874z"/>
	<path style="fill:#333333;" d="M342.003,163.71h26.256c6.043,0,10.94,4.898,10.94,10.94c0,6.042-4.897,10.94-10.94,10.94h-26.256
		c-6.043,0-10.94-4.898-10.94-10.94C331.063,168.608,335.96,163.71,342.003,163.71z"/>
	<path style="fill:#333333;" d="M342.003,202.819h26.256c6.043,0,10.94,4.898,10.94,10.94s-4.897,10.94-10.94,10.94h-26.256
		c-6.043,0-10.94-4.898-10.94-10.94S335.96,202.819,342.003,202.819z"/>
	<path style="fill:#333333;" d="M342.003,241.928h26.256c6.043,0,10.94,4.898,10.94,10.94c0,6.042-4.897,10.94-10.94,10.94h-26.256
		c-6.043,0-10.94-4.898-10.94-10.94C331.063,246.826,335.96,241.928,342.003,241.928z"/>
	<path style="fill:#333333;" d="M342.003,281.037h26.256c6.043,0,10.94,4.898,10.94,10.94c0,6.042-4.897,10.94-10.94,10.94h-26.256
		c-6.043,0-10.94-4.898-10.94-10.94C331.063,285.935,335.96,281.037,342.003,281.037z"/>
	<path style="fill:#333333;" d="M342.003,320.147h26.256c6.043,0,10.94,4.898,10.94,10.94s-4.897,10.94-10.94,10.94h-26.256
		c-6.043,0-10.94-4.898-10.94-10.94S335.96,320.147,342.003,320.147z"/>
	<path style="fill:#333333;" d="M342.003,359.256h26.256c6.043,0,10.94,4.898,10.94,10.94c0,6.042-4.897,10.94-10.94,10.94h-26.256
		c-6.043,0-10.94-4.898-10.94-10.94C331.063,364.155,335.96,359.256,342.003,359.256z"/>
	<path style="fill:#333333;" d="M342.003,398.365h26.256c6.043,0,10.94,4.898,10.94,10.94s-4.897,10.94-10.94,10.94h-26.256
		c-6.043,0-10.94-4.898-10.94-10.94S335.96,398.365,342.003,398.365z"/>
	<path style="fill:#333333;" d="M243.938,146.754v290.998c0,6.042,4.897,10.94,10.94,10.94c6.043,0,10.94-4.898,10.94-10.94V146.754
		h33.907c6.043,0,10.94-4.898,10.94-10.94V96.431c0-6.042-4.897-10.94-10.94-10.94h-33.907V61.425c0-6.042-4.897-10.94-10.94-10.94
		c-6.043,0-10.94,4.898-10.94,10.94v24.067h-33.917c-6.043,0-10.94,4.898-10.94,10.94v39.383c0,6.042,4.897,10.94,10.94,10.94
		h33.917V146.754z M288.787,124.874h-67.825v-17.503h67.825L288.787,124.874L288.787,124.874z"/>
	<path style="fill:#333333;" d="M196.894,163.71h26.255c6.043,0,10.94,4.898,10.94,10.94c0,6.042-4.897,10.94-10.94,10.94h-26.255
		c-6.043,0-10.94-4.898-10.94-10.94C185.954,168.608,190.852,163.71,196.894,163.71z"/>
	<path style="fill:#333333;" d="M196.894,202.819h26.255c6.043,0,10.94,4.898,10.94,10.94s-4.897,10.94-10.94,10.94h-26.255
		c-6.043,0-10.94-4.898-10.94-10.94S190.852,202.819,196.894,202.819z"/>
	<path style="fill:#333333;" d="M196.894,241.928h26.255c6.043,0,10.94,4.898,10.94,10.94c0,6.042-4.897,10.94-10.94,10.94h-26.255
		c-6.043,0-10.94-4.898-10.94-10.94C185.954,246.826,190.852,241.928,196.894,241.928z"/>
	<path style="fill:#333333;" d="M196.894,281.037h26.255c6.043,0,10.94,4.898,10.94,10.94c0,6.042-4.897,10.94-10.94,10.94h-26.255
		c-6.043,0-10.94-4.898-10.94-10.94C185.954,285.935,190.852,281.037,196.894,281.037z"/>
	<path style="fill:#333333;" d="M196.894,320.147h26.255c6.043,0,10.94,4.898,10.94,10.94s-4.897,10.94-10.94,10.94h-26.255
		c-6.043,0-10.94-4.898-10.94-10.94S190.852,320.147,196.894,320.147z"/>
	<path style="fill:#333333;" d="M196.894,359.256h26.255c6.043,0,10.94,4.898,10.94,10.94c0,6.042-4.897,10.94-10.94,10.94h-26.255
		c-6.043,0-10.94-4.898-10.94-10.94C185.954,364.155,190.852,359.256,196.894,359.256z"/>
	<path style="fill:#333333;" d="M196.894,398.365h26.255c6.043,0,10.94,4.898,10.94,10.94s-4.897,10.94-10.94,10.94h-26.255
		c-6.043,0-10.94-4.898-10.94-10.94S190.852,398.365,196.894,398.365z"/>
	<path style="fill:#333333;" d="M98.829,146.754v290.998c0,6.042,4.897,10.94,10.94,10.94c6.043,0,10.94-4.898,10.94-10.94V146.754
		h33.909c6.043,0,10.94-4.898,10.94-10.94V96.431c0-6.042-4.897-10.94-10.94-10.94h-33.909V61.425c0-6.042-4.897-10.94-10.94-10.94
		c-6.043,0-10.94,4.898-10.94,10.94v24.067H64.913c-6.043,0-10.94,4.898-10.94,10.94v39.383c0,6.042,4.897,10.94,10.94,10.94h33.916
		V146.754z M143.678,124.874H75.853v-17.503h67.825V124.874z"/>
	<path style="fill:#333333;" d="M51.785,163.71H78.04c6.043,0,10.94,4.898,10.94,10.94c0,6.042-4.897,10.94-10.94,10.94H51.785
		c-6.043,0-10.94-4.898-10.94-10.94C40.845,168.608,45.742,163.71,51.785,163.71z"/>
	<path style="fill:#333333;" d="M51.785,202.819H78.04c6.043,0,10.94,4.898,10.94,10.94s-4.897,10.94-10.94,10.94H51.785
		c-6.043,0-10.94-4.898-10.94-10.94S45.742,202.819,51.785,202.819z"/>
	<path style="fill:#333333;" d="M51.785,241.928H78.04c6.043,0,10.94,4.898,10.94,10.94c0,6.042-4.897,10.94-10.94,10.94H51.785
		c-6.043,0-10.94-4.898-10.94-10.94C40.845,246.826,45.742,241.928,51.785,241.928z"/>
	<path style="fill:#333333;" d="M51.785,281.037H78.04c6.043,0,10.94,4.898,10.94,10.94c0,6.042-4.897,10.94-10.94,10.94H51.785
		c-6.043,0-10.94-4.898-10.94-10.94C40.845,285.935,45.742,281.037,51.785,281.037z"/>
	<path style="fill:#333333;" d="M51.785,320.147H78.04c6.043,0,10.94,4.898,10.94,10.94s-4.897,10.94-10.94,10.94H51.785
		c-6.043,0-10.94-4.898-10.94-10.94S45.742,320.147,51.785,320.147z"/>
	<path style="fill:#333333;" d="M51.785,359.256H78.04c6.043,0,10.94,4.898,10.94,10.94c0,6.042-4.897,10.94-10.94,10.94H51.785
		c-6.043,0-10.94-4.898-10.94-10.94C40.845,364.155,45.742,359.256,51.785,359.256z"/>
	<path style="fill:#333333;" d="M51.785,398.365H78.04c6.043,0,10.94,4.898,10.94,10.94s-4.897,10.94-10.94,10.94H51.785
		c-6.043,0-10.94-4.898-10.94-10.94S45.742,398.365,51.785,398.365z"/>
</g>
<g>
</g>
<g>
</g>
<g>
</g>
<g>
</g>
<g>
</g>
<g>
</g>
<g>
</g>
<g>
</g>
<g>
</g>
<g>
</g>
<g>
</g>
<g>
</g>
<g>
</g>
<g>
</g>
<g>
</g>
</svg>
