<?xml version="1.0" encoding="iso-8859-1"?>
<!-- Generator: Adobe Illustrator 19.0.0, SVG Export Plug-In . SVG Version: 6.00 Build 0)  -->
<svg version="1.1" id="Layer_1" xmlns="http://www.w3.org/2000/svg" xmlns:xlink="http://www.w3.org/1999/xlink" x="0px" y="0px"
	 viewBox="0 0 512 512" style="enable-background:new 0 0 512 512;" xml:space="preserve">
<polygon style="fill:#F7B239;" points="108.637,444.936 29.978,444.936 50.969,136.492 87.646,136.492 87.646,136.517 
	89.519,164.102 89.531,164.102 "/>
<polygon style="fill:#E09B2D;" points="67.441,136.492 63.17,444.936 29.978,444.936 50.969,136.492 "/>
<path style="fill:#F95428;" d="M424.349,136.505l-1.873,27.598h-0.013c-46.079,40.385-104.434,62.413-166.46,62.413
	c-62.039,0-120.393-22.028-166.472-62.413h-0.012l-1.873-27.585l0.025-0.025h22.965v-3.771
	c39.798,36.414,90.922,56.332,145.368,56.332c54.434,0,105.558-19.918,145.356-56.319v3.759h22.965L424.349,136.505z"/>
<polygon style="fill:#F7B239;" points="461.026,136.492 482.017,444.936 403.358,444.936 422.464,164.102 422.476,164.102 
	424.349,136.505 424.349,136.492 "/>
<path style="fill:#F95428;" d="M442.694,22.43c22.752,0,41.209,18.457,41.209,41.209c0,22.765-18.457,41.209-41.209,41.209
	c-22.765,0-41.209-18.444-41.209-41.209C401.485,40.887,419.929,22.43,442.694,22.43z"/>
<polygon style="fill:#E09B2D;" points="440.821,136.492 436.55,444.936 403.358,444.936 424.349,136.492 "/>
<path style="fill:#F95428;" d="M69.314,22.43c22.752,0,41.209,18.457,41.209,41.209c0,22.765-18.457,41.209-41.209,41.209
	c-22.765,0-41.209-18.444-41.209-41.209C28.105,40.887,46.549,22.43,69.314,22.43z"/>
<g>
	<path style="fill:#E54728;" d="M53.085,63.639c0-18.399,12.063-33.984,28.718-39.276c-3.94-1.253-8.133-1.933-12.488-1.933
		c-22.765,0-41.209,18.457-41.209,41.209c0,22.765,18.444,41.209,41.209,41.209c4.353,0,8.548-0.681,12.488-1.932
		C65.148,97.627,53.085,82.049,53.085,63.639z"/>
	<path style="fill:#E54728;" d="M426.465,63.639c0-18.399,12.063-33.984,28.718-39.276c-3.94-1.253-8.133-1.933-12.488-1.933
		c-22.765,0-41.209,18.457-41.209,41.209c0,22.765,18.444,41.209,41.209,41.209c4.353,0,8.548-0.681,12.488-1.932
		C438.528,97.627,426.465,82.049,426.465,63.639z"/>
</g>
<g>
	<polygon style="fill:#2BA5F7;" points="110.635,132.721 110.635,136.492 87.671,136.492 87.646,136.492 50.969,136.492 
		27.98,136.492 27.98,106.522 110.635,106.522 	"/>
	<polygon style="fill:#2BA5F7;" points="484.015,106.522 484.015,136.492 461.026,136.492 424.349,136.492 424.324,136.492 
		401.36,136.492 401.36,132.733 401.36,106.522 	"/>
	<polygon style="fill:#2BA5F7;" points="502.634,444.936 502.634,489.567 382.741,489.567 382.741,444.936 403.358,444.936 
		482.017,444.936 	"/>
</g>
<polygon style="fill:#2197D8;" points="415.845,444.936 415.845,489.567 382.741,489.567 382.741,444.936 388.434,444.936 
	410.153,444.936 "/>
<polygon style="fill:#2BA5F7;" points="129.254,444.936 129.254,489.567 9.361,489.567 9.361,444.936 29.978,444.936 
	108.637,444.936 "/>
<polygon style="fill:#2197D8;" points="42.465,444.936 42.465,489.567 9.361,489.567 9.361,444.936 15.054,444.936 36.774,444.936 
	"/>
<g>
	<circle style="fill:#FFFFFF;" cx="81.182" cy="52.997" r="9.366"/>
	<circle style="fill:#FFFFFF;" cx="457.259" cy="52.997" r="9.366"/>
</g>
<path style="fill:#333333;" d="M502.634,435.564H490.77l-19.715-289.713h12.965c5.172,0,9.366-4.193,9.366-9.366v-29.97
	c0-5.172-4.193-9.366-9.366-9.366h-3.494c7.918-8.93,12.74-20.665,12.74-33.509c0-27.887-22.688-50.575-50.575-50.575
	s-50.575,22.688-50.575,50.575c0,12.845,4.821,24.579,12.74,33.509h-3.493c-5.172,0-9.366,4.193-9.366,9.366v22.017
	c-37.553,33.01-85.679,51.148-135.994,51.148c-50.324,0-98.451-18.138-135.998-51.151v-22.014c0-5.172-4.193-9.366-9.366-9.366
	h-3.494c7.918-8.93,12.74-20.665,12.74-33.509c0-27.887-22.688-50.575-50.575-50.575S18.735,35.753,18.735,63.641
	c0,12.845,4.821,24.579,12.74,33.509h-3.493c-5.172,0-9.366,4.193-9.366,9.366v29.97c0,5.172,4.193,9.366,9.366,9.366h12.965
	L21.231,435.564H9.366c-5.172,0-9.366,4.193-9.366,9.366v44.638c0,5.172,4.193,9.366,9.366,9.366h119.889
	c5.172,0,9.366-4.193,9.366-9.366V444.93c0-5.172-4.193-9.366-9.366-9.366H117.39l-17.067-250.785
	c44.807,33.077,99.304,51.096,155.679,51.096c56.372,0,110.868-18.021,155.676-51.103l-17.067,250.793h-11.866
	c-5.172,0-9.366,4.193-9.366,9.366v44.638c0,5.172,4.193,9.366,9.366,9.366h119.889c5.172,0,9.366-4.193,9.366-9.366V444.93
	C512,439.758,507.807,435.564,502.634,435.564z M442.69,31.797c17.559,0,31.843,14.285,31.843,31.843s-14.285,31.843-31.843,31.843
	s-31.843-14.285-31.843-31.843S425.131,31.797,442.69,31.797z M69.31,31.797c17.559,0,31.843,14.285,31.843,31.843
	S86.869,95.484,69.31,95.484S37.467,81.199,37.467,63.641S51.751,31.797,69.31,31.797z M474.653,127.12h-63.925v-11.239h63.925
	V127.12z M37.348,115.881h63.925v11.239H37.348V115.881z M119.889,480.203H18.731v-25.907H29.98h78.66h11.249
	C119.889,454.296,119.889,480.203,119.889,480.203z M40.005,435.564l19.715-289.713h19.178l19.715,289.713H40.005z M256.002,217.143
	c-57.873,0-113.607-20.436-157.396-57.604l-0.932-13.688h12.965c0.251,0,0.497-0.019,0.743-0.037
	c40.401,33.981,91.387,52.598,144.62,52.598c53.227,0,104.214-18.617,144.62-52.598c0.245,0.019,0.49,0.037,0.739,0.037h12.965
	l-0.93,13.679C369.604,196.705,313.871,217.143,256.002,217.143z M433.101,145.852h19.178l19.715,289.713h-58.609L433.101,145.852z
	 M493.269,480.203H392.111v-25.907h11.249h78.66h11.249L493.269,480.203L493.269,480.203z"/>
<g>
</g>
<g>
</g>
<g>
</g>
<g>
</g>
<g>
</g>
<g>
</g>
<g>
</g>
<g>
</g>
<g>
</g>
<g>
</g>
<g>
</g>
<g>
</g>
<g>
</g>
<g>
</g>
<g>
</g>
</svg>
