<?xml version="1.0" encoding="iso-8859-1"?>
<!-- Generator: Adobe Illustrator 19.0.0, SVG Export Plug-In . SVG Version: 6.00 Build 0)  -->
<svg version="1.1" id="Layer_1" xmlns="http://www.w3.org/2000/svg" xmlns:xlink="http://www.w3.org/1999/xlink" x="0px" y="0px"
	 viewBox="0 0 512.001 512.001" style="enable-background:new 0 0 512.001 512.001;" xml:space="preserve">
<rect x="199.615" y="371.482" style="fill:#E54728;" width="112.755" height="29.493"/>
<path style="fill:#F95428;" d="M312.376,345.46v26.023H199.621V345.46v-44.968v-86.327c0-10.837,8.79-19.627,19.627-19.627h73.501
	c10.837,0,19.627,8.79,19.627,19.627v86.327V345.46z"/>
<g>
	<rect x="426.05" y="345.459" style="fill:#B27214;" width="36.432" height="157.862"/>
	<rect x="49.52" y="345.459" style="fill:#B27214;" width="36.432" height="157.862"/>
	<polygon style="fill:#B27214;" points="199.621,300.493 199.621,345.46 85.952,345.46 49.52,345.46 33.085,345.46 33.085,300.493 
		49.52,300.493 147.332,300.493 	"/>
	<polygon style="fill:#B27214;" points="478.924,300.493 478.924,345.46 462.477,345.46 426.045,345.46 312.387,345.46 
		312.376,345.46 312.376,300.493 312.387,300.493 364.665,300.493 462.477,300.493 	"/>
</g>
<g>
	<rect x="49.52" y="345.459" style="fill:#995C0D;" width="36.432" height="27.758"/>
	<rect x="426.05" y="345.459" style="fill:#995C0D;" width="36.432" height="27.758"/>
</g>
<path style="fill:#B27214;" d="M462.477,300.481v0.012h-97.812v-0.012V109.067H147.332v191.414v0.012H49.52v-0.012V8.676h412.957
	L462.477,300.481L462.477,300.481z M434.916,60.444c0-12.41-10.062-22.484-22.484-22.484s-22.484,10.074-22.484,22.484
	c0,12.422,10.062,22.496,22.484,22.496S434.916,72.866,434.916,60.444z M434.916,150.947c0-12.422-10.062-22.495-22.484-22.495
	s-22.484,10.074-22.484,22.495c0,12.422,10.062,22.484,22.484,22.484S434.916,163.368,434.916,150.947z M434.916,241.438
	c0-12.422-10.062-22.484-22.484-22.484s-22.484,10.062-22.484,22.484c0,12.422,10.062,22.484,22.484,22.484
	S434.916,253.859,434.916,241.438z M330.627,60.444c0-12.41-10.062-22.484-22.484-22.484c-12.422,0-22.484,10.074-22.484,22.484
	c0,12.422,10.062,22.496,22.484,22.496S330.627,72.866,330.627,60.444z M226.338,60.444c0-12.41-10.062-22.484-22.484-22.484
	S181.37,48.034,181.37,60.444c0,12.422,10.062,22.496,22.484,22.496C216.275,82.94,226.338,72.866,226.338,60.444z M122.049,60.444
	c0-12.41-10.062-22.484-22.484-22.484S77.081,48.034,77.081,60.444c0,12.422,10.062,22.496,22.484,22.496
	S122.049,72.866,122.049,60.444z M122.049,150.947c0-12.422-10.062-22.495-22.484-22.495s-22.484,10.074-22.484,22.495
	c0,12.422,10.062,22.484,22.484,22.484S122.049,163.368,122.049,150.947z M122.049,241.438c0-12.422-10.062-22.484-22.484-22.484
	s-22.484,10.062-22.484,22.484c0,12.422,10.062,22.484,22.484,22.484S122.049,253.859,122.049,241.438z"/>
<path style="fill:#2BA5F7;" d="M364.665,300.481v0.012h-52.277h-0.012v-86.327c0-10.837-8.79-19.627-19.627-19.627h-73.501
	c-10.837,0-19.627,8.79-19.627,19.627v86.327h-52.289v-0.012V109.067h217.333L364.665,300.481L364.665,300.481z"/>
<g>
	<path style="fill:#F7B239;" d="M412.432,218.954c12.422,0,22.484,10.062,22.484,22.484c0,12.422-10.062,22.484-22.484,22.484
		s-22.484-10.062-22.484-22.484C389.948,229.016,400.01,218.954,412.432,218.954z"/>
	<path style="fill:#F7B239;" d="M412.432,128.451c12.422,0,22.484,10.074,22.484,22.496s-10.062,22.484-22.484,22.484
		s-22.484-10.062-22.484-22.484C389.948,138.525,400.01,128.451,412.432,128.451z"/>
	<path style="fill:#F7B239;" d="M412.432,37.96c12.422,0,22.484,10.074,22.484,22.484c0,12.422-10.062,22.496-22.484,22.496
		s-22.484-10.074-22.484-22.496C389.948,48.034,400.01,37.96,412.432,37.96z"/>
	<path style="fill:#F7B239;" d="M308.143,37.96c12.422,0,22.484,10.074,22.484,22.484c0,12.422-10.062,22.496-22.484,22.496
		c-12.422,0-22.484-10.074-22.484-22.496C285.659,48.034,295.721,37.96,308.143,37.96z"/>
	<path style="fill:#F7B239;" d="M99.565,218.954c12.422,0,22.484,10.062,22.484,22.484c0,12.422-10.062,22.484-22.484,22.484
		s-22.484-10.062-22.484-22.484C77.081,229.016,87.143,218.954,99.565,218.954z"/>
	<path style="fill:#F7B239;" d="M99.565,128.451c12.422,0,22.484,10.074,22.484,22.496s-10.062,22.484-22.484,22.484
		s-22.484-10.062-22.484-22.484C77.081,138.525,87.143,128.451,99.565,128.451z"/>
	<path style="fill:#F7B239;" d="M99.565,37.96c12.422,0,22.484,10.074,22.484,22.484c0,12.422-10.062,22.496-22.484,22.496
		S77.081,72.866,77.081,60.444C77.081,48.034,87.143,37.96,99.565,37.96z"/>
	<path style="fill:#F7B239;" d="M203.854,37.96c12.422,0,22.484,10.074,22.484,22.484c0,12.422-10.062,22.496-22.484,22.496
		S181.37,72.866,181.37,60.444C181.37,48.034,191.432,37.96,203.854,37.96z"/>
</g>
<g>
	<path style="fill:#FFFFFF;" d="M335.75,281.949c-4.792,0-8.674-3.884-8.674-8.674v-107.37c0-4.791,3.883-8.674,8.674-8.674
		s8.674,3.884,8.674,8.674v107.37C344.425,278.065,340.542,281.949,335.75,281.949z"/>
	<path style="fill:#FFFFFF;" d="M286.931,345.946c-4.792,0-8.674-3.884-8.674-8.674v-91.755c0-4.791,3.883-8.674,8.674-8.674
		s8.674,3.884,8.674,8.674v91.755C295.605,342.062,291.723,345.946,286.931,345.946z"/>
	<circle style="fill:#FFFFFF;" cx="335.756" cy="137.98" r="8.674"/>
	<circle style="fill:#FFFFFF;" cx="286.937" cy="223.452" r="8.674"/>
	<circle style="fill:#FFFFFF;" cx="105.643" cy="237.03" r="8.674"/>
	<circle style="fill:#FFFFFF;" cx="105.643" cy="145.278" r="8.674"/>
	<circle style="fill:#FFFFFF;" cx="105.643" cy="55.066" r="8.674"/>
	<circle style="fill:#FFFFFF;" cx="208.197" cy="55.066" r="8.674"/>
	<circle style="fill:#FFFFFF;" cx="313.064" cy="55.066" r="8.674"/>
	<circle style="fill:#FFFFFF;" cx="417.156" cy="55.066" r="8.674"/>
	<circle style="fill:#FFFFFF;" cx="417.156" cy="145.278" r="8.674"/>
	<circle style="fill:#FFFFFF;" cx="417.156" cy="234.717" r="8.674"/>
</g>
<g>
	<path style="fill:#333333;" d="M478.92,291.816h-7.773V8.674c0-4.791-3.883-8.674-8.674-8.674H49.524
		c-4.792,0-8.674,3.884-8.674,8.674v283.142h-7.769c-4.792,0-8.674,3.884-8.674,8.674v44.968c0,4.791,3.883,8.674,8.674,8.674h7.769
		v149.194c0,4.791,3.883,8.674,8.674,8.674h36.43c4.792,0,8.674-3.884,8.674-8.674V354.131h96.314v149.194
		c0,4.791,3.883,8.674,8.674,8.674c4.792,0,8.674-3.884,8.674-8.674v-93.678h95.412v93.678c0,4.791,3.883,8.674,8.674,8.674
		s8.674-3.884,8.674-8.674V354.131h96.314v149.194c0,4.791,3.883,8.674,8.674,8.674h36.431c4.792,0,8.674-3.884,8.674-8.674V354.131
		h7.773c4.792,0,8.674-3.884,8.674-8.674v-44.968C487.594,295.7,483.712,291.816,478.92,291.816z M77.28,494.651H58.199V354.135
		H77.28V494.651z M453.799,494.651h-19.082V354.135h19.082V494.651z M58.199,17.349h395.601v274.467h-80.466V109.069
		c0-4.791-3.883-8.674-8.674-8.674H147.337c-4.792,0-8.674,3.884-8.674,8.674v182.747H58.199V17.349z M208.292,214.169
		c0-6.044,4.917-10.961,10.961-10.961h73.491c6.044,0,10.961,4.917,10.961,10.961v148.639h-95.412V214.169H208.292z
		 M292.744,185.859h-73.491c-15.609,0-28.31,12.699-28.31,28.31v77.647h-34.931V117.743h199.973v174.072h-34.932v-77.647
		C321.053,198.558,308.353,185.859,292.744,185.859z M41.755,336.783v-27.619h149.187v27.619H41.755z M208.292,380.156h95.412
		v12.143h-95.412L208.292,380.156L208.292,380.156z M321.053,309.165h149.193v27.619H321.053V309.165z"/>
	<path style="fill:#333333;" d="M99.563,91.61c17.182,0,31.162-13.98,31.162-31.162s-13.978-31.162-31.162-31.162
		s-31.161,13.98-31.161,31.162S82.38,91.61,99.563,91.61z M99.563,46.636c7.617,0,13.813,6.196,13.813,13.813
		s-6.196,13.813-13.813,13.813c-7.616,0-13.812-6.197-13.812-13.813S91.946,46.636,99.563,46.636z"/>
	<path style="fill:#333333;" d="M203.853,91.61c17.182,0,31.162-13.98,31.162-31.162s-13.98-31.162-31.162-31.162
		s-31.161,13.978-31.161,31.162S186.67,91.61,203.853,91.61z M203.853,46.636c7.617,0,13.813,6.196,13.813,13.813
		s-6.196,13.813-13.813,13.813c-7.616,0-13.812-6.197-13.812-13.813S196.237,46.636,203.853,46.636z"/>
	<path style="fill:#333333;" d="M308.143,91.61c17.182,0,31.162-13.98,31.162-31.162s-13.98-31.162-31.162-31.162
		c-17.182,0-31.161,13.978-31.161,31.162S290.961,91.61,308.143,91.61z M308.143,46.636c7.617,0,13.813,6.196,13.813,13.813
		s-6.196,13.813-13.813,13.813c-7.616,0-13.812-6.197-13.812-13.813S300.527,46.636,308.143,46.636z"/>
	<path style="fill:#333333;" d="M99.563,119.781c-17.182,0-31.161,13.98-31.161,31.162s13.978,31.162,31.161,31.162
		s31.162-13.978,31.162-31.162S116.746,119.781,99.563,119.781z M99.563,164.756c-7.616,0-13.812-6.196-13.812-13.813
		c0-7.617,6.196-13.813,13.812-13.813c7.617,0,13.813,6.197,13.813,13.813C113.376,158.559,107.18,164.756,99.563,164.756z"/>
	<path style="fill:#333333;" d="M99.563,210.276c-17.182,0-31.161,13.978-31.161,31.162s13.978,31.162,31.161,31.162
		s31.162-13.98,31.162-31.162S116.746,210.276,99.563,210.276z M99.563,255.251c-7.616,0-13.812-6.197-13.812-13.813
		c0-7.616,6.196-13.813,13.812-13.813c7.617,0,13.813,6.196,13.813,13.813C113.376,249.055,107.18,255.251,99.563,255.251z"/>
	<path style="fill:#333333;" d="M412.433,91.61c17.182,0,31.162-13.98,31.162-31.162s-13.98-31.162-31.162-31.162
		s-31.161,13.978-31.161,31.162S395.251,91.61,412.433,91.61z M412.433,46.636c7.617,0,13.813,6.196,13.813,13.813
		s-6.196,13.813-13.813,13.813c-7.616,0-13.812-6.197-13.812-13.813S404.817,46.636,412.433,46.636z"/>
	<path style="fill:#333333;" d="M412.433,182.105c17.182,0,31.162-13.978,31.162-31.162s-13.98-31.162-31.162-31.162
		s-31.161,13.98-31.161,31.162S395.251,182.105,412.433,182.105z M412.433,137.13c7.617,0,13.813,6.197,13.813,13.813
		c0,7.616-6.196,13.813-13.813,13.813c-7.616,0-13.812-6.196-13.812-13.813C398.621,143.326,404.817,137.13,412.433,137.13z"/>
	<path style="fill:#333333;" d="M412.433,272.599c17.182,0,31.162-13.98,31.162-31.162s-13.98-31.162-31.162-31.162
		s-31.161,13.978-31.161,31.162S395.251,272.599,412.433,272.599z M412.433,227.624c7.617,0,13.813,6.196,13.813,13.813
		c0,7.617-6.196,13.813-13.813,13.813c-7.616,0-13.812-6.197-13.812-13.813C398.621,233.821,404.817,227.624,412.433,227.624z"/>
</g>
<g>
</g>
<g>
</g>
<g>
</g>
<g>
</g>
<g>
</g>
<g>
</g>
<g>
</g>
<g>
</g>
<g>
</g>
<g>
</g>
<g>
</g>
<g>
</g>
<g>
</g>
<g>
</g>
<g>
</g>
</svg>
