<?xml version="1.0" encoding="iso-8859-1"?>
<!-- Generator: Adobe Illustrator 19.0.0, SVG Export Plug-In . SVG Version: 6.00 Build 0)  -->
<svg version="1.1" id="Layer_1" xmlns="http://www.w3.org/2000/svg" xmlns:xlink="http://www.w3.org/1999/xlink" x="0px" y="0px"
	 viewBox="0 0 512 512" style="enable-background:new 0 0 512 512;" xml:space="preserve">
<path style="fill:#9AD14B;" d="M503.594,183.357c0,0-27.394,113.994-134.369,133.001c-31.083,5.517-55.876,1.267-75.421-7.524
	c-6.493,14.42-20.969,24.467-37.8,24.467c-16.842,0-31.319-10.047-37.811-24.467c-19.545,8.791-44.337,13.041-75.421,7.524
	C35.809,297.351,8.415,183.357,8.415,183.357c30.007,22.191,53.476,30.085,122.617,1.581
	c55.607-22.92,106.986,23.795,124.972,42.969c17.975-19.175,69.354-65.889,124.961-42.969
	C450.106,213.442,473.587,205.548,503.594,183.357z M412.676,245.31c-14.701-3.588-30.96-9.128-49.652-16.831
	c-4.306-1.772-8.567-2.635-13.041-2.635c-12.615,0-28.358,7.12-44.326,20.049c-3.476,2.815-7.154,5.315-10.989,7.49
	c13.03,12.335,28.65,18.345,47.589,18.345c5.898,0,12.2-0.583,18.737-1.749C380.404,266.537,397.695,258.273,412.676,245.31z
	 M217.33,253.384c-3.835-2.175-7.513-4.676-10.989-7.49c-15.968-12.929-31.7-20.049-44.326-20.049c-4.463,0-8.735,0.863-13.03,2.635
	c-18.704,7.704-34.963,13.243-49.664,16.831c14.981,12.951,32.272,21.227,51.682,24.669c6.549,1.166,12.85,1.749,18.749,1.749
	C188.68,271.729,204.3,265.718,217.33,253.384z"/>
<path style="fill:#FFFFFF;" d="M450.85,234.877c-11.883,0-37.52-3.386-50.883-10.737c-4.07-2.239-5.554-7.353-3.316-11.422
	c2.238-4.069,7.351-5.555,11.422-3.317c10.609,5.835,34.828,8.949,43.97,8.636c4.657-0.164,8.536,3.472,8.696,8.114
	c0.161,4.642-3.472,8.536-8.113,8.696C452.075,234.868,451.481,234.877,450.85,234.877z"/>
<g>
	<path style="fill:#333333;" d="M342.252,280.143c-21.232,0-38.687-6.756-53.364-20.653c-1.935-1.832-2.886-4.474-2.566-7.12
		c0.321-2.645,1.878-4.983,4.195-6.3c3.447-1.958,6.759-4.217,9.845-6.717c17.46-14.135,35.082-21.92,49.619-21.92
		c5.591,0,10.905,1.07,16.244,3.271c18.462,7.61,34.307,12.985,48.441,16.43c3.059,0.746,5.443,3.136,6.183,6.195
		c0.74,3.059-0.293,6.276-2.672,8.336c-16.121,13.946-34.867,22.894-55.715,26.598C355.443,279.511,348.643,280.143,342.252,280.143
		z M308.934,254.01c9.558,6.254,20.548,9.314,33.318,9.314c5.406,0,11.217-0.545,17.27-1.62
		c12.336-2.191,23.815-6.535,34.288-12.959c-10.426-3.275-21.673-7.41-33.994-12.489c-3.266-1.347-6.484-2.002-9.834-2.002
		c-10.542,0-24.769,6.624-39.036,18.173C310.285,252.963,309.614,253.491,308.934,254.01z M169.748,280.143
		c-6.39,0-13.19-0.632-20.211-1.879c-20.857-3.704-39.603-12.653-55.721-26.597c-2.381-2.059-3.412-5.276-2.672-8.335
		c0.739-3.06,3.125-5.451,6.183-6.195c14.138-3.446,29.985-8.82,48.448-16.431c5.34-2.201,10.653-3.271,16.245-3.271
		c14.537,0,32.157,7.784,49.618,21.92c3.087,2.499,6.401,4.76,9.846,6.717c2.317,1.316,3.874,3.653,4.195,6.3
		c0.322,2.646-0.631,5.287-2.567,7.12C208.435,273.387,190.981,280.143,169.748,280.143z M118.185,248.747
		c10.473,6.423,21.953,10.765,34.294,12.957c6.053,1.074,11.864,1.62,17.27,1.62c12.769,0,23.759-3.06,33.318-9.314
		c-0.68-0.519-1.351-1.046-2.014-1.583c-14.266-11.549-28.492-18.172-39.033-18.172c-3.349,0-6.566,0.655-9.834,2.002
		C139.864,241.335,128.612,245.471,118.185,248.747z"/>
	<path style="fill:#333333;" d="M256.001,341.709c-16.823,0-32.368-8.525-41.513-22.262c-21.926,8.178-46.504,9.925-73.186,5.186
		c-46.075-8.183-85.101-34.913-112.858-77.297C7.662,215.605,0.527,186.541,0.233,185.32c-0.826-3.437,0.585-7.025,3.533-8.976
		c2.946-1.952,6.801-1.854,9.643,0.25c28.175,20.833,48.647,27.682,114.416,0.57c26.337-10.854,54.466-8.844,83.611,5.978
		c18.95,9.638,34.582,22.994,44.563,32.752c9.981-9.758,25.612-23.114,44.564-32.752c29.144-14.822,57.275-16.832,83.611-5.978
		c65.772,27.114,86.241,20.261,114.415-0.57c2.843-2.102,6.697-2.202,9.645-0.25c2.947,1.952,4.36,5.539,3.532,8.976
		c-0.294,1.221-7.428,30.285-28.209,62.016c-27.756,42.384-66.782,69.113-112.857,77.297c-26.682,4.74-51.26,2.992-73.187-5.186
		C288.369,333.183,272.823,341.709,256.001,341.709z M218.193,300.424c3.208,0,6.273,1.846,7.674,4.962
		c5.331,11.848,17.159,19.503,30.133,19.503c12.975,0,24.803-7.655,30.133-19.503c1.905-4.235,6.883-6.124,11.12-4.22
		c20.546,9.243,44.269,11.567,70.505,6.906c41.988-7.458,76.216-30.994,101.729-69.951c8.336-12.728,14.309-25.049,18.404-34.938
		c-26.296,13.145-54.715,12.372-110.127-10.47c-16.743-6.903-61.524-16.725-115.631,40.942c-1.59,1.694-3.809,2.655-6.133,2.655
		c-2.323,0-4.544-0.961-6.133-2.655c-54.11-57.67-98.89-47.844-115.631-40.942c-55.395,22.835-83.819,23.613-110.106,10.481
		c4.152,10.028,10.221,22.539,18.684,35.385c25.488,38.686,59.613,62.067,101.429,69.494c26.238,4.66,49.957,2.337,70.505-6.906
		C215.867,300.662,217.04,300.424,218.193,300.424z"/>
</g>
<g>
	<path style="fill:#FFFFFF;" d="M223.409,237.232c-1.956,0-3.92-0.678-5.512-2.061c-8.31-7.219-16.338-11.855-23.421-15.944
		c-4.022-2.322-5.4-7.466-3.078-11.488c2.322-4.022,7.466-5.401,11.488-3.078c7.357,4.248,16.513,9.532,26.043,17.813
		c3.506,3.047,3.879,8.358,0.833,11.865C228.1,236.252,225.761,237.232,223.409,237.232z"/>
	<circle style="fill:#FFFFFF;" cx="175.264" cy="202.197" r="8.41"/>
	<circle style="fill:#FFFFFF;" cx="271.698" cy="298.632" r="8.41"/>
</g>
<g>
</g>
<g>
</g>
<g>
</g>
<g>
</g>
<g>
</g>
<g>
</g>
<g>
</g>
<g>
</g>
<g>
</g>
<g>
</g>
<g>
</g>
<g>
</g>
<g>
</g>
<g>
</g>
<g>
</g>
</svg>
