<?xml version="1.0" encoding="iso-8859-1"?>
<!-- Generator: Adobe Illustrator 19.0.0, SVG Export Plug-In . SVG Version: 6.00 Build 0)  -->
<svg version="1.1" id="Layer_1" xmlns="http://www.w3.org/2000/svg" xmlns:xlink="http://www.w3.org/1999/xlink" x="0px" y="0px"
	 viewBox="0 0 512 512" style="enable-background:new 0 0 512 512;" xml:space="preserve">
<path style="fill:#F95428;" d="M502.591,133.112v203.454c0,78.792-63.874,142.678-142.678,142.678
	c-64.602,0-119.166-42.934-136.719-101.827l-0.013-0.013c36.774-21.178,63.209-58.291,69.896-101.902h0.013
	c4.655,1.656,9.648,2.547,14.868,2.547c24.629,0,44.59-19.961,44.59-44.578h-57.814V119.173c21.668-2.409,43.423-3.613,65.179-3.613
	C407.828,115.559,455.743,121.406,502.591,133.112z M502.579,233.471h-89.155c0,24.629,19.949,44.59,44.578,44.59
	C482.617,278.061,502.579,258.1,502.579,233.471z M449.005,368.822c0-37.602-30.488-68.09-68.09-68.09
	c-37.614,0-68.09,30.488-68.09,68.09c22.22-6.499,45.155-9.761,68.09-9.761C403.838,359.061,426.773,362.323,449.005,368.822z"/>
<path style="fill:#F7B239;" d="M294.734,233.471v20.237c0,7.402-0.565,14.679-1.656,21.793
	c-6.687,43.612-33.123,80.724-69.896,101.902c-20.927,12.07-45.217,18.97-71.113,18.97c-78.792,0-142.653-63.874-142.653-142.666
	v-58.517H98.57c0-24.616-19.961-44.578-44.578-44.578c-24.629,0-44.578,19.961-44.578,44.578V50.255
	c46.823-11.706,94.751-17.553,142.653-17.553c47.928,0,95.83,5.847,142.666,17.553v68.918V233.471z M159.446,195.192h89.168
	c0-24.616-19.961-44.578-44.578-44.578C179.407,150.614,159.446,170.576,159.446,195.192z M199.168,239.117H62.988
	c0,37.602,30.488,68.09,68.09,68.09S199.168,276.719,199.168,239.117z"/>
<g>
	<path style="fill:#E54728;" d="M386.323,476.785c-8.557,1.606-17.389,2.459-26.41,2.459c-64.614,0-119.179-42.947-136.719-101.852
		c18.744-10.79,34.816-25.733,46.936-43.574v2.76C270.13,406.324,320.178,464.376,386.323,476.785z"/>
	<path style="fill:#E54728;" d="M386.348,116.174c-30.701,1.38-61.34,5.169-91.614,11.38v-8.356
		c21.668-2.409,43.423-3.626,65.179-3.626C368.733,115.572,377.541,115.773,386.348,116.174z"/>
</g>
<g>
	<path style="fill:#E09B2D;" d="M176.333,394.317c-7.892,1.342-15.997,2.058-24.265,2.058c-78.792,0-142.653-63.874-142.653-142.666
		v-58.517H57.92v58.517C57.92,324.232,109.084,382.799,176.333,394.317z"/>
	<path style="fill:#E09B2D;" d="M9.415,195.192V50.255c46.823-11.706,94.751-17.553,142.653-17.553
		c8.092,0,16.172,0.176,24.265,0.514c-39.81,1.644-79.482,7.302-118.414,17.038V150.79c-1.292-0.113-2.597-0.176-3.927-0.176
		C29.364,150.614,9.415,170.576,9.415,195.192z"/>
</g>
<g>
	<path style="fill:#FFFFFF;" d="M246.842,321.625c-1.686,0-3.394-0.453-4.935-1.404c-4.421-2.73-5.793-8.529-3.063-12.95
		c7.16-11.595,11.846-24.365,13.929-37.953c0.787-5.123,1.186-10.373,1.186-15.61v-26.26c0-5.197,4.212-9.41,9.41-9.41
		c5.198,0,9.41,4.213,9.41,9.41v26.26c0,6.189-0.472,12.402-1.403,18.463c-2.468,16.095-8.025,31.231-16.519,44.987
		C253.077,320.039,249.996,321.625,246.842,321.625z"/>
	<path style="fill:#FFFFFF;" d="M263.369,162.834c-5.198,0-9.41-4.213-9.41-9.41v-50.186c0-5.197,4.212-9.41,9.41-9.41
		s9.41,4.213,9.41,9.41v50.186C272.779,158.621,268.566,162.834,263.369,162.834z"/>
	<path style="fill:#FFFFFF;" d="M471.225,216.784c-5.198,0-9.41-4.213-9.41-9.41v-16.31c0-5.197,4.212-9.41,9.41-9.41
		c5.198,0,9.41,4.213,9.41,9.41v16.31C480.635,212.571,476.423,216.784,471.225,216.784z"/>
	<path style="fill:#FFFFFF;" d="M471.225,345.975c-5.198,0-9.41-4.213-9.41-9.41v-31.329c0-5.197,4.212-9.41,9.41-9.41
		c5.198,0,9.41,4.213,9.41,9.41v31.329C480.635,341.762,476.423,345.975,471.225,345.975z"/>
	<circle style="fill:#FFFFFF;" cx="263.363" cy="75.304" r="9.41"/>
	<circle style="fill:#FFFFFF;" cx="471.22" cy="158.161" r="9.41"/>
</g>
<g>
	<path style="fill:#333333;" d="M159.452,204.607h89.165c5.197,0,9.41-4.213,9.41-9.41c0-29.772-24.221-53.992-53.992-53.992
		s-53.992,24.221-53.992,53.992C150.042,200.394,154.255,204.607,159.452,204.607z M204.034,160.023
		c16.136,0,29.77,10.923,33.894,25.763h-67.79C174.264,170.946,187.897,160.023,204.034,160.023z"/>
	<path style="fill:#333333;" d="M199.171,229.707H62.991c-5.197,0-9.41,4.213-9.41,9.41c0,42.733,34.766,77.5,77.501,77.5
		c42.733,0,77.5-34.766,77.5-77.5C208.581,233.92,204.368,229.707,199.171,229.707z M131.082,297.798
		c-29.153,0-53.409-21.373-57.926-49.27h115.852C184.49,276.425,160.233,297.798,131.082,297.798z"/>
	<path style="fill:#333333;" d="M504.872,123.988c-47.35-11.838-96.121-17.84-144.958-17.84c-18.539,0-37.248,0.887-55.765,2.618
		V50.261c0-4.317-2.938-8.081-7.128-9.129c-94.825-23.707-195.069-23.707-289.894,0C2.938,42.179,0,45.943,0,50.261v203.447
		c0,83.854,68.22,152.074,152.074,152.074c23.54,0,45.847-5.377,65.76-14.967c10.126,26.405,27.728,49.939,50.4,67.096
		c26.57,20.107,58.272,30.735,91.68,30.735c83.861,0,152.086-68.225,152.086-152.086V133.117
		C512,128.8,509.062,125.036,504.872,123.988z M304.148,242.886h37.707c-4.127,14.835-17.76,25.753-33.898,25.753
		c-1.522,0-3.025-0.127-4.514-0.317c0.46-4.81,0.705-9.683,0.705-14.613V242.886L304.148,242.886z M18.82,253.709v-49.102h79.755
		c5.197,0,9.41-4.213,9.41-9.41c0-29.772-24.221-53.992-53.992-53.992c-13.427,0-25.716,4.938-35.173,13.08V57.656
		c87.347-20.65,179.162-20.649,266.508,0v196.052c0,73.477-59.778,133.255-133.254,133.255
		C78.597,386.963,18.82,327.186,18.82,253.709z M20.098,185.787c4.125-14.841,17.758-25.763,33.896-25.763
		s29.77,10.923,33.896,25.763H20.098z M359.914,469.828c-29.275,0-57.05-9.309-80.324-26.922
		c-20.624-15.608-36.447-37.229-45.137-61.425c32.97-21.33,57.194-55.064,66.028-94.544c2.464,0.341,4.958,0.523,7.475,0.523
		c29.773,0,53.996-24.217,53.996-53.982c0-5.197-4.212-9.41-9.41-9.41h-48.395v-96.403c18.506-1.787,37.225-2.694,55.765-2.694
		c44.851,0,89.648,5.228,133.266,15.544v83.551h-79.76c-5.198,0-9.41,4.213-9.41,9.41c0,29.771,24.221,53.992,53.991,53.992
		c13.431,0,25.722-4.941,35.179-13.085v62.182C493.18,410.045,433.396,469.828,359.914,469.828z M491.896,242.882
		c-4.125,14.841-17.758,25.763-33.896,25.763s-29.77-10.923-33.894-25.763H491.896z"/>
	<path style="fill:#333333;" d="M380.913,291.324c-42.734,0-77.501,34.766-77.501,77.5c0,2.963,1.395,5.754,3.768,7.53
		c2.371,1.778,5.441,2.331,8.286,1.501c42.816-12.528,88.077-12.529,130.894,0c0.868,0.253,1.758,0.379,2.642,0.379
		c2.011,0,3.996-0.645,5.642-1.879c2.372-1.777,3.768-4.567,3.768-7.53C458.413,326.09,423.646,291.324,380.913,291.324z
		 M323.586,356.265c5.766-26.343,29.281-46.121,57.327-46.121c28.046,0,51.561,19.778,57.326,46.121
		C400.486,347.427,361.338,347.428,323.586,356.265z"/>
</g>
<g>
</g>
<g>
</g>
<g>
</g>
<g>
</g>
<g>
</g>
<g>
</g>
<g>
</g>
<g>
</g>
<g>
</g>
<g>
</g>
<g>
</g>
<g>
</g>
<g>
</g>
<g>
</g>
<g>
</g>
</svg>
