<?xml version="1.0" encoding="iso-8859-1"?>
<!-- Generator: Adobe Illustrator 19.0.0, SVG Export Plug-In . SVG Version: 6.00 Build 0)  -->
<svg version="1.1" id="Layer_1" xmlns="http://www.w3.org/2000/svg" xmlns:xlink="http://www.w3.org/1999/xlink" x="0px" y="0px"
	 viewBox="0 0 512 512" style="enable-background:new 0 0 512 512;" xml:space="preserve">
<polygon style="fill:#F7B239;" points="502.772,228.441 451.888,279.325 434.147,261.596 250.406,77.855 250.406,77.843 
	232.665,60.115 283.562,9.231 "/>
<rect x="428.131" y="211.595" transform="matrix(-0.7071 0.7071 -0.7071 -0.7071 950.2045 75.3303)" style="fill:#E09B2D;" width="62.74" height="45.729"/>
<polygon style="fill:#999999;" points="434.147,261.596 410.255,277.073 372.4,301.605 237.771,388.819 127.317,460.372 
	51.631,384.673 234.929,101.747 250.406,77.855 "/>
<polygon style="fill:#808080;" points="110.557,443.609 390.423,217.873 434.147,261.596 127.317,460.372 "/>
<polygon style="fill:#F7B239;" points="127.317,460.372 141.01,474.065 112.308,502.767 9.223,399.695 37.938,370.98 
	51.631,384.673 "/>
<polygon style="fill:#808080;" points="434.147,261.596 410.255,277.073 234.929,101.747 250.406,77.855 "/>
<path style="fill:#FFFFFF;" d="M398.866,177.26c-2.362,0-4.723-0.901-6.525-2.703l-96.998-97.001c-3.603-3.603-3.603-9.446,0-13.048
	c3.606-3.603,9.447-3.602,13.049,0l97,97c3.603,3.603,3.603,9.446,0,13.048C403.589,176.358,401.227,177.26,398.866,177.26z
	 M283.571,61.952c-5.096,0-9.233-4.131-9.233-9.227s4.125-9.227,9.221-9.227h0.012c5.097,0,9.227,4.131,9.227,9.227
	S288.668,61.952,283.571,61.952z"/>
<path style="fill:#333333;" d="M509.298,221.915L290.085,2.703C288.354,0.972,286.007,0,283.56,0c-2.447,0-4.793,0.972-6.525,2.703
	l-50.888,50.889c-3.603,3.603-3.603,9.446,0,13.048l12.455,12.455L50.093,370.094l-5.635-5.633c-1.731-1.73-4.077-2.703-6.525-2.703
	c-2.448,0-4.793,0.972-6.525,2.703L2.703,393.167c-3.603,3.603-3.603,9.445,0,13.048l103.082,103.082
	c1.731,1.73,4.077,2.703,6.525,2.703c2.448,0,4.793-0.972,6.525-2.703l28.706-28.706c3.603-3.603,3.603-9.445,0-13.048l-5.635-5.635
	l94.614-61.291l23.637,23.637c6.484,6.484,15.079,9.82,23.738,9.819c6.568,0,13.174-1.922,18.918-5.845l90.91-62.097
	c8.276-5.656,13.555-14.622,14.484-24.599c0.93-9.976-2.601-19.762-9.686-26.846l-11.539-11.539l45.922-29.749l12.453,12.454
	c1.802,1.802,4.163,2.703,6.525,2.703c2.361,0,4.723-0.901,6.525-2.703l50.889-50.889c1.73-1.731,2.702-4.077,2.702-6.524
	C512,225.992,511.028,223.646,509.298,221.915z M112.309,489.723l-90.033-90.033l15.658-15.658l90.034,90.033L112.309,489.723z
	 M385.472,327.735c3.189,3.19,4.778,7.594,4.36,12.085c-0.418,4.492-2.795,8.528-6.52,11.074l-90.909,62.097
	c-5.995,4.096-14.068,3.344-19.197-1.785l-20.848-20.848l118.785-76.95L385.472,327.735z M128.562,448.563L72.2,392.201
	l-8.763-8.763L251.945,92.439L419.56,260.054L128.562,448.563z M451.884,266.28l-11.199-11.199
	c-0.003-0.002-0.005-0.006-0.007-0.009L256.929,71.324c-0.001-0.001-0.002-0.001-0.002-0.002l-11.205-11.205l37.839-37.839
	l206.164,206.163L451.884,266.28z"/>
<g>
</g>
<g>
</g>
<g>
</g>
<g>
</g>
<g>
</g>
<g>
</g>
<g>
</g>
<g>
</g>
<g>
</g>
<g>
</g>
<g>
</g>
<g>
</g>
<g>
</g>
<g>
</g>
<g>
</g>
</svg>
