<?xml version="1.0" encoding="iso-8859-1"?>
<!-- Generator: Adobe Illustrator 19.0.0, SVG Export Plug-In . SVG Version: 6.00 Build 0)  -->
<svg version="1.1" id="Layer_1" xmlns="http://www.w3.org/2000/svg" xmlns:xlink="http://www.w3.org/1999/xlink" x="0px" y="0px"
	 viewBox="0 0 512 512" style="enable-background:new 0 0 512 512;" xml:space="preserve">
<rect x="412.52" y="405.987" style="fill:#F2F2F2;" width="44.707" height="90.434"/>
<polygon style="fill:#666666;" points="501.941,375.714 501.941,496.422 457.22,496.422 457.22,405.988 412.513,405.988 
	367.792,405.988 323.072,405.988 278.364,405.988 233.644,405.988 188.923,405.988 144.202,405.988 99.495,405.988 54.774,405.988 
	54.774,496.422 10.053,496.422 10.053,375.714 189.607,375.714 322.388,375.714 "/>
<path style="fill:#4D4D4D;" d="M501.941,346.445v29.268H322.388v-44.318H189.607v44.318H10.053V187.616
	c0-47.497,19.262-90.515,50.395-121.647s74.15-50.395,121.661-50.395c67.349,0,125.671,38.711,153.92,95.089
	c0.537,1.086,1.073,2.307,1.596,3.662c23.071,59.744,63.647,110.621,116.443,145.081c0.134,0.08,0.282,0.174,0.416,0.268
	C484.007,278.694,501.941,311.329,501.941,346.445z"/>
<g>
	<rect x="367.786" y="405.987" style="fill:#F2F2F2;" width="44.721" height="90.434"/>
	<rect x="323.065" y="405.987" style="fill:#F2F2F2;" width="44.721" height="90.434"/>
	<rect x="278.371" y="405.987" style="fill:#F2F2F2;" width="44.707" height="90.434"/>
</g>
<rect x="189.6" y="331.394" style="fill:#808080;" width="132.781" height="44.318"/>
<g>
	<rect x="233.65" y="405.987" style="fill:#F2F2F2;" width="44.721" height="90.434"/>
	<rect x="188.916" y="405.987" style="fill:#F2F2F2;" width="44.721" height="90.434"/>
	<rect x="144.195" y="405.987" style="fill:#F2F2F2;" width="44.721" height="90.434"/>
	<rect x="99.488" y="405.987" style="fill:#F2F2F2;" width="44.707" height="90.434"/>
	<rect x="54.774" y="405.987" style="fill:#F2F2F2;" width="44.721" height="90.434"/>
</g>
<g>
	<path style="fill:#FFFFFF;" d="M468.407,356.506c-5.557,0-10.06-4.504-10.06-10.06c0-20.305-10.269-39.043-27.471-50.124
		l-0.649-0.421c-60.557-39.538-106.628-96.889-133.269-165.878c-0.024-0.058-0.04-0.103-0.055-0.138
		c-9.014-17.872-21.574-32.976-37.338-44.895c-4.432-3.351-5.308-9.66-1.957-14.092c3.349-4.432,9.658-5.309,14.092-1.957
		c18.039,13.639,33.003,31.652,43.271,52.089c0.042,0.082,0.082,0.164,0.121,0.245c0.114,0.244,0.346,0.744,0.643,1.513
		c25.107,65.014,68.494,119.046,125.461,156.242l0.597,0.388c22.96,14.79,36.678,39.85,36.678,67.026
		C478.467,352.001,473.965,356.506,468.407,356.506z"/>
	<circle style="fill:#FFFFFF;" cx="238.224" cy="60.857" r="10.06"/>
</g>
<path style="fill:#333333;" d="M459.875,251.176l-0.268-0.174c-0.012-0.008-0.024-0.015-0.035-0.023
	c-51.068-33.326-89.991-81.833-112.562-140.28c-0.643-1.661-1.31-3.188-1.988-4.542c-14.913-29.77-37.709-54.907-65.922-72.692
	c-29.005-18.285-62.545-27.95-96.991-27.95C81.692,5.514,0,87.206,0,187.621v308.804c0,5.556,4.503,10.06,10.06,10.06h491.88
	c5.557,0,10.06-4.504,10.06-10.06V346.447C512,307.817,492.537,272.216,459.875,251.176z M182.109,25.634
	c61.725,0,117.256,34.308,144.923,89.534c0.392,0.781,0.798,1.716,1.209,2.779c24.1,62.406,65.71,114.235,120.336,149.88
	l0.349,0.227c0.009,0.005,0.107,0.07,0.117,0.076c26.824,17.279,42.84,46.557,42.84,78.318v19.201H332.454v-34.258
	c0-5.556-4.503-10.06-10.06-10.06H189.607c-5.557,0-10.06,4.504-10.06,10.06v34.258H20.12V187.621
	C20.12,98.302,92.788,25.634,182.109,25.634z M312.334,365.648H199.667V341.45h112.667V365.648z M447.164,486.365h-24.596V416.05
	h24.596V486.365z M402.448,486.365h-24.596V416.05h24.596V486.365z M357.731,486.365h-24.596V416.05h24.596V486.365z
	 M313.014,486.365h-24.596V416.05h24.596V486.365z M268.299,486.365h-24.596V416.05h24.596V486.365z M223.582,486.365h-24.596
	V416.05h24.596V486.365z M178.865,486.365H154.27V416.05h24.595V486.365z M134.15,486.365h-24.596V416.05h24.596V486.365z
	 M89.433,486.365H64.837V416.05h24.596V486.365z M467.285,486.365v-80.375c0-5.556-4.503-10.06-10.06-10.06H54.777
	c-5.557,0-10.06,4.504-10.06,10.06v80.375H20.12V385.769H491.88v100.596H467.285z"/>
<g>
</g>
<g>
</g>
<g>
</g>
<g>
</g>
<g>
</g>
<g>
</g>
<g>
</g>
<g>
</g>
<g>
</g>
<g>
</g>
<g>
</g>
<g>
</g>
<g>
</g>
<g>
</g>
<g>
</g>
</svg>
