<?xml version="1.0" encoding="iso-8859-1"?>
<!-- Generator: Adobe Illustrator 19.0.0, SVG Export Plug-In . SVG Version: 6.00 Build 0)  -->
<svg version="1.1" id="Layer_1" xmlns="http://www.w3.org/2000/svg" xmlns:xlink="http://www.w3.org/1999/xlink" x="0px" y="0px"
	 viewBox="0 0 512 512" style="enable-background:new 0 0 512 512;" xml:space="preserve">
<polygon style="fill:#F7B239;" points="303.752,164.583 236.221,203.575 236.221,125.59 "/>
<path style="fill:#2BA5F7;" d="M411.201,164.62c0,27.688-7.391,55.538-22.535,80.499L256.005,463.644L123.332,245.119
	c-37.104-61.14-27.638-139.714,22.923-190.287c30.314-30.301,70.032-45.458,109.75-45.458s79.436,15.157,109.738,45.458
	C395.669,84.759,411.201,124.502,411.201,164.62z M354.937,164.583c0-54.637-44.295-98.945-98.933-98.945
	c-54.65,0-98.945,44.308-98.945,98.945s44.295,98.945,98.945,98.945C310.642,263.528,354.937,219.22,354.937,164.583z"/>
<path style="fill:#2197D8;" d="M178.632,54.833c26.187-26.187,59.402-41.056,93.568-44.608c-5.39-0.575-10.792-0.85-16.195-0.85
	c-39.718,0-79.436,15.157-109.75,45.458c-50.561,50.573-60.027,129.146-22.923,190.287l132.673,218.525
	c0,0-112.426-241.735-116.138-253.947C123.512,155.874,137.422,96.053,178.632,54.833z"/>
<path style="fill:#F95428;" d="M256.005,65.637c54.637,0,98.933,44.308,98.933,98.945s-44.295,98.945-98.933,98.945
	c-54.65,0-98.945-44.308-98.945-98.945S201.355,65.637,256.005,65.637z M236.221,203.575l67.531-38.993l-67.531-38.993V203.575z"/>
<path style="fill:#E54728;" d="M256.005,65.636c-5.322,0-10.541,0.433-15.636,1.242c47.208,7.498,83.301,48.387,83.301,97.703
	c0,49.318-36.093,90.205-83.301,97.703c5.094,0.809,10.313,1.242,15.636,1.242c54.637,0,98.933-44.308,98.933-98.945
	S310.642,65.636,256.005,65.636z"/>
<g>
	<path style="fill:#FFFFFF;" d="M348.843,267.063c-1.658,0-3.337-0.44-4.858-1.363c-4.428-2.688-5.838-8.456-3.15-12.885
		l16.29-26.835c11.241-18.527,17.183-39.746,17.183-61.361c0-31.629-12.307-61.356-34.652-83.702
		c-4.817-4.817-10.051-9.233-15.556-13.126c-4.229-2.99-5.234-8.844-2.242-13.073c2.99-4.229,8.844-5.234,13.073-2.242
		c6.37,4.505,12.423,9.611,17.989,15.178c25.889,25.889,40.147,60.325,40.147,96.966c0,25.045-6.883,49.63-19.905,71.092
		l-16.291,26.837C355.105,265.456,352.012,267.063,348.843,267.063z"/>
	<circle style="fill:#FFFFFF;" cx="304.214" cy="46.266" r="9.379"/>
</g>
<g>
	<path style="fill:#333333;" d="M256,473.028c-3.278,0-6.317-1.711-8.017-4.512L115.317,249.984
		c-39.472-65.02-29.476-147.995,24.309-201.78C170.711,17.119,212.04,0,256,0c43.961,0,85.29,17.119,116.374,48.205
		c53.785,53.785,63.782,136.76,24.309,201.78L264.017,468.518C262.318,471.319,259.277,473.028,256,473.028z M256,18.759
		c-38.95,0-75.568,15.168-103.11,42.71c-47.654,47.654-56.511,121.173-21.539,178.78L256,445.575l124.648-205.326
		c34.973-57.609,26.116-131.126-21.539-178.78C331.569,33.927,294.95,18.759,256,18.759z"/>
	<path style="fill:#333333;" d="M256,272.901c-59.727,0-108.319-48.591-108.319-108.319S196.271,56.262,256,56.262
		s108.319,48.592,108.319,108.319S315.728,272.901,256,272.901z M256,75.021c-49.384,0-89.561,40.177-89.561,89.561
		s40.176,89.561,89.561,89.561s89.561-40.176,89.561-89.561S305.385,75.021,256,75.021z"/>
	<path style="fill:#333333;" d="M236.218,212.948c-1.619,0-3.239-0.419-4.69-1.257c-2.901-1.676-4.69-4.771-4.69-8.122v-77.974
		c0-3.352,1.788-6.447,4.69-8.122c2.901-1.676,6.478-1.676,9.379,0l67.528,38.988c2.901,1.676,4.69,4.771,4.69,8.122
		c0,3.352-1.788,6.447-4.69,8.122l-67.528,38.987C239.457,212.53,237.838,212.948,236.218,212.948z M245.597,141.84v45.485
		l39.39-22.742L245.597,141.84z"/>
	<path style="fill:#333333;" d="M309.459,512H202.54c-5.18,0-9.379-4.199-9.379-9.379c0-5.18,4.199-9.379,9.379-9.379h106.919
		c5.18,0,9.379,4.199,9.379,9.379C318.838,507.801,314.639,512,309.459,512z"/>
</g>
<g>
</g>
<g>
</g>
<g>
</g>
<g>
</g>
<g>
</g>
<g>
</g>
<g>
</g>
<g>
</g>
<g>
</g>
<g>
</g>
<g>
</g>
<g>
</g>
<g>
</g>
<g>
</g>
<g>
</g>
</svg>
