<?xml version="1.0" encoding="iso-8859-1"?>
<!-- Generator: Adobe Illustrator 19.0.0, SVG Export Plug-In . SVG Version: 6.00 Build 0)  -->
<svg version="1.1" id="Layer_1" xmlns="http://www.w3.org/2000/svg" xmlns:xlink="http://www.w3.org/1999/xlink" x="0px" y="0px"
	 viewBox="0 0 512.001 512.001" style="enable-background:new 0 0 512.001 512.001;" xml:space="preserve">
<path style="fill:#CCCCCC;" d="M310.657,271.96c-21.977,38.336-76.048,39.752-76.048,39.752l-0.011-0.023
	c-0.555-1.02-25.84-47.772-4.101-85.689C252.485,187.665,362.372,12.164,408.467,8.494
	C428.587,50.137,332.646,233.625,310.657,271.96z"/>
<path style="fill:#B3B3B3;" d="M408.467,8.494L234.609,311.712l-0.011-0.023c-0.555-1.02-25.84-47.772-4.101-85.689
	C252.485,187.665,362.372,12.164,408.467,8.494z"/>
<g>
	<path style="fill:#2BA5F7;" d="M279.424,421.598v12.88H100.808v-12.88c0-12.303,9.969-22.26,22.26-22.26h14.659h104.777h14.659
		C269.467,399.338,279.424,409.295,279.424,421.598z"/>
	<path style="fill:#2BA5F7;" d="M258.251,361.342c4.022,4.022,6.514,9.584,6.514,15.735c0,12.291-9.958,22.26-22.26,22.26H137.728
		c-6.14,0-11.714-2.492-15.735-6.525c-4.033-4.022-6.525-9.584-6.525-15.735c0-12.291,9.969-22.26,22.26-22.26h72.162h32.615
		C248.656,354.817,254.218,357.309,258.251,361.342z"/>
</g>
<path style="fill:#2197D8;" d="M150.585,377.077c0-12.291,9.969-22.26,22.26-22.26h-35.118c-12.291,0-22.26,9.969-22.26,22.26
	c0,6.151,2.492,11.714,6.525,15.735c4.022,4.033,9.595,6.525,15.735,6.525h35.118c-6.14,0-11.714-2.492-15.735-6.525
	C153.078,388.791,150.585,383.229,150.585,377.077z"/>
<path style="fill:#666666;" d="M279.424,434.479v46.764c0,12.291-9.958,22.26-22.26,22.26H123.069
	c-12.291,0-22.26-9.969-22.26-22.26v-46.764H279.424z"/>
<path style="fill:#2197D8;" d="M163.851,399.338c-12.291,0-22.26,9.958-22.26,22.26v12.88h-40.783v-12.88
	c0-12.303,9.969-22.26,22.26-22.26H163.851z"/>
<path style="fill:#4D4D4D;" d="M163.851,503.503h-40.783c-12.291,0-22.26-9.969-22.26-22.26v-46.764h40.783v46.764
	C141.591,493.534,151.56,503.503,163.851,503.503z"/>
<circle style="fill:#FFFFFF;" cx="237.899" cy="377.079" r="8.496"/>
<path style="fill:#333333;" d="M416.117,4.799c-1.525-3.155-4.827-5.049-8.324-4.773c-12.921,1.029-29.137,11.718-49.575,32.68
	c-15.769,16.175-34.151,38.555-54.635,66.52c-34.184,46.669-67.491,99.934-80.456,122.546c-20.263,35.344-4.382,76.308,1.851,89.657
	l-20.007,34.893h-67.244c-16.959,0-30.755,13.797-30.755,30.755c0,5.87,1.655,11.359,4.52,16.031
	c-11.237,4.582-19.18,15.622-19.18,28.487v59.651c0,16.959,13.797,30.755,30.755,30.755h134.101
	c16.959,0,30.755-13.797,30.755-30.755v-59.651c0-12.865-7.942-23.903-19.179-28.487c2.865-4.672,4.52-10.162,4.52-16.031
	c0-16.959-13.797-30.755-30.755-30.755h-17.95l15.16-26.438c14.666-1.364,58.045-8.35,78.312-43.696
	c12.964-22.609,42.107-78.261,65.116-131.34c13.787-31.804,23.816-58.974,29.809-80.754C420.723,35.864,421.758,16.47,416.117,4.799
	z M257.17,495.007H123.069c-7.588,0-13.762-6.174-13.762-13.762v-38.27h161.626v38.27
	C270.931,488.833,264.757,495.007,257.17,495.007z M270.931,425.981H109.306v-4.389c0-7.589,6.174-13.762,13.762-13.762h14.66
	h104.781h14.659c7.588,0,13.762,6.174,13.762,13.762v4.389H270.931z M256.272,377.076c0,7.589-6.174,13.762-13.762,13.762H137.73
	c-7.588,0-13.762-6.174-13.762-13.762c0-7.588,6.174-13.762,13.762-13.762H242.51C250.098,363.313,256.272,369.487,256.272,377.076z
	 M367.557,138.086c-22.734,52.445-51.485,107.356-64.267,129.648c-12.252,21.369-36.537,29.898-52.754,33.284L386.01,64.744
	c2.334-4.07,0.926-9.262-3.145-11.597c-4.068-2.334-9.263-0.927-11.596,3.145L235.796,292.563
	c-5.27-15.71-10.175-40.974,2.074-62.34c12.783-22.293,45.649-74.845,79.424-120.957c47.927-65.434,73.129-84.905,85.199-90.353
	C403.89,32.084,399.817,63.669,367.557,138.086z"/>
<path style="fill:#FFFFFF;" d="M252.621,483.44c-4.693,0-8.496-3.804-8.496-8.496v-47.58c0-4.692,3.803-8.496,8.496-8.496
	s8.496,3.804,8.496,8.496v47.58C261.118,479.636,257.315,483.44,252.621,483.44z"/>
<g>
</g>
<g>
</g>
<g>
</g>
<g>
</g>
<g>
</g>
<g>
</g>
<g>
</g>
<g>
</g>
<g>
</g>
<g>
</g>
<g>
</g>
<g>
</g>
<g>
</g>
<g>
</g>
<g>
</g>
</svg>
