<?xml version="1.0" encoding="iso-8859-1"?>
<!-- Generator: Adobe Illustrator 19.0.0, SVG Export Plug-In . SVG Version: 6.00 Build 0)  -->
<svg version="1.1" id="Layer_1" xmlns="http://www.w3.org/2000/svg" xmlns:xlink="http://www.w3.org/1999/xlink" x="0px" y="0px"
	 viewBox="0 0 512.002 512.002" style="enable-background:new 0 0 512.002 512.002;" xml:space="preserve">
<g>
	<path style="fill:#E09B2D;" d="M111.608,215.406c2.702,2.713,4.384,6.468,4.384,10.6c0,8.288-6.708,14.996-14.996,14.996h-4.934
		H83.562c-4.144,0-7.887-1.683-10.6-4.384c-2.713-2.724-4.396-6.468-4.396-10.612c0-8.276,6.72-14.996,14.996-14.996h17.434
		C105.141,211.011,108.884,212.693,111.608,215.406z"/>
	<path style="fill:#E09B2D;" d="M428.438,211.011c8.288,0,14.996,6.72,14.996,14.996c0,4.144-1.683,7.887-4.384,10.612
		c-2.724,2.702-6.468,4.384-10.612,4.384h-12.489h-4.945c-8.276,0-14.996-6.708-14.996-14.996c0-4.133,1.683-7.887,4.396-10.6
		c2.713-2.713,6.456-4.396,10.6-4.396L428.438,211.011L428.438,211.011z"/>
	<path style="fill:#E09B2D;" d="M365.053,294.405c13.554,0,24.532,10.99,24.532,24.532c0,6.777-2.747,12.913-7.177,17.343
		c-4.442,4.442-10.577,7.189-17.354,7.189H146.947c-13.542,0-24.532-10.978-24.532-24.532c0-6.765,2.747-12.901,7.189-17.343
		c4.442-4.442,10.577-7.189,17.343-7.189H365.053z"/>
</g>
<g>
	<path style="fill:#B27214;" d="M180.794,318.937c0-6.765,2.747-12.901,7.189-17.343s10.577-7.189,17.343-7.189h-58.378
		c-6.765,0-12.901,2.747-17.343,7.189c-4.442,4.442-7.189,10.577-7.189,17.343c0,13.554,10.989,24.532,24.532,24.532h58.378
		C191.784,343.468,180.794,332.49,180.794,318.937z"/>
	<path style="fill:#B27214;" d="M368.522,121.103v173.302h-3.469H146.947h-3.457V121.103c0-62.136,50.368-112.516,112.516-112.516
		C318.142,8.587,368.522,58.967,368.522,121.103z"/>
</g>
<path style="fill:#995C0D;" d="M280.043,11.169c-7.745-1.686-15.786-2.583-24.037-2.583c-62.148,0-112.516,50.38-112.516,112.516
	v173.302h3.457h44.62V121.103C191.566,67.218,229.45,22.182,280.043,11.169z"/>
<g>
	<path style="fill:#FFFFFF;" d="M339.904,223.445c-4.743,0-8.586-3.844-8.586-8.586v-93.756c0-22.336-9.868-43.399-27.073-57.789
		c-3.638-3.042-4.12-8.456-1.077-12.094c3.04-3.638,8.455-4.121,12.093-1.078c21.117,17.66,33.228,43.524,33.228,70.96v93.756
		C348.489,219.601,344.646,223.445,339.904,223.445z"/>
	<circle style="fill:#FFFFFF;" cx="288.625" cy="43.809" r="8.586"/>
	<circle style="fill:#FFFFFF;" cx="363.102" cy="318.455" r="8.586"/>
</g>
<path style="fill:#333333;" d="M428.439,202.43h-17.434c-13.002,0-23.58,10.579-23.58,23.58c0,11.759,8.661,21.506,19.933,23.268
	v43.302c0,7.305-4.432,13.59-10.747,16.319c-3.035-9.517-10.265-17.172-19.505-20.796v-167C377.104,54.327,322.778,0,256.002,0
	S134.899,54.327,134.899,121.103v167.002c-9.24,3.624-16.47,11.279-19.505,20.796c-6.316-2.729-10.748-9.014-10.748-16.319V249.28
	c11.272-1.762,19.933-11.509,19.933-23.268c0-13.002-10.577-23.58-23.58-23.58H83.565c-13.002,0-23.58,10.579-23.58,23.58
	c0,13.002,10.577,23.58,23.58,23.58h3.91v42.991c0,16.634,11.687,30.582,27.279,34.087c2.826,11.775,11.956,21.12,23.609,24.252
	v152.494c0,4.742,3.843,8.586,8.586,8.586c4.743,0,8.586-3.844,8.586-8.586V392.044h200.934v111.373
	c0,4.742,3.843,8.586,8.586,8.586c4.743,0,8.586-3.844,8.586-8.586V350.921c11.655-3.132,20.784-12.477,23.61-24.252
	c15.591-3.505,27.278-17.453,27.278-34.087v-42.991h3.91c13.002,0,23.58-10.579,23.58-23.58
	C452.019,213.008,441.442,202.43,428.439,202.43z M77.156,226.01c0-3.534,2.876-6.409,6.409-6.409H101
	c3.534,0,6.409,2.876,6.409,6.409c0,3.534-2.876,6.409-6.409,6.409H83.566C80.032,232.42,77.156,229.544,77.156,226.01z
	 M152.07,121.103c0-57.308,46.624-103.932,103.932-103.932s103.931,46.624,103.931,103.932v164.722H152.07V121.103z
	 M155.535,374.871v-22.816h200.934v22.816H155.535z M365.055,334.884H146.95c-8.792,0-15.944-7.152-15.944-15.944
	c0-8.792,7.152-15.944,15.944-15.944h218.105c8.793,0,15.945,7.152,15.945,15.944C381,327.732,373.847,334.884,365.055,334.884z
	 M428.439,232.42h-17.434c-3.534,0-6.409-2.876-6.409-6.409c0-3.534,2.876-6.409,6.409-6.409h17.434
	c3.534,0,6.409,2.876,6.409,6.409S431.972,232.42,428.439,232.42z"/>
<g>
</g>
<g>
</g>
<g>
</g>
<g>
</g>
<g>
</g>
<g>
</g>
<g>
</g>
<g>
</g>
<g>
</g>
<g>
</g>
<g>
</g>
<g>
</g>
<g>
</g>
<g>
</g>
<g>
</g>
</svg>
