<?xml version="1.0" encoding="iso-8859-1"?>
<!-- Generator: Adobe Illustrator 19.0.0, SVG Export Plug-In . SVG Version: 6.00 Build 0)  -->
<svg version="1.1" id="Layer_1" xmlns="http://www.w3.org/2000/svg" xmlns:xlink="http://www.w3.org/1999/xlink" x="0px" y="0px"
	 viewBox="0 0 512 512" style="enable-background:new 0 0 512 512;" xml:space="preserve">
<path style="fill:#CCCCCC;" d="M459.101,346.834c-13.619-17.632-17.714-40.951-10.149-61.917
	c8.081-22.38,12.381-46.584,12.122-71.808c-1.156-111.385-92.256-202.145-203.641-202.893c-4.449-0.027-8.857,0.082-13.238,0.34
	C136.428,16.651,50.92,105.983,50.92,215.286c0,24.448,4.272,47.904,12.136,69.645c7.564,20.952,3.456,44.271-10.149,61.917
	c-9.333,12.081-14.557,27.482-13.592,44.135c1.918,33.237,28.924,60.121,62.175,61.903c12.272,0.667,23.863-2.041,33.918-7.279
	c3.809-1.973,7.401-4.313,10.734-6.966v46.57c71.577,22.027,148.133,22.027,219.723,0v-46.57
	c12.122,9.673,27.727,15.156,44.638,14.245c33.251-1.782,60.257-28.666,62.175-61.903
	C473.645,374.33,468.42,358.915,459.101,346.834z M292.656,400.275c-8.857,8.857-23.21,8.857-32.054,0
	c-1.279-1.265-2.939-1.905-4.599-1.905c-1.673,0-3.333,0.639-4.599,1.905c-4.435,4.435-10.231,6.639-16.027,6.639
	s-11.592-2.204-16.027-6.639c-8.843-8.843-8.843-23.197,0-32.04l36.652-36.652l36.652,36.652c4.422,4.422,6.639,10.217,6.639,16.013
	C299.295,390.057,297.077,395.853,292.656,400.275z"/>
<path style="fill:#999999;" d="M109.068,208.715c2.721,31.292,18.149,74.298,18.149,74.298s-56.244,61.754-31.754,97.127
	s50.679,43.536,50.679,43.536l-10.734,21.931c-10.054,5.238-21.646,7.945-33.918,7.279c-33.251-1.782-60.257-28.666-62.175-61.903
	c-0.966-16.653,4.258-32.054,13.592-44.135c13.605-17.646,17.714-40.965,10.149-61.917c-7.864-21.741-12.136-45.196-12.136-69.645
	c0-109.304,85.508-198.635,193.274-204.73C244.194,10.556,96.824,65.861,109.068,208.715z"/>
<path style="fill:#4D4D4D;" d="M292.656,368.235c4.422,4.422,6.639,10.217,6.639,16.013c0,5.809-2.218,11.605-6.639,16.027
	c-8.857,8.857-23.21,8.857-32.054,0c-1.279-1.265-2.939-1.905-4.599-1.905c-1.673,0-3.333,0.639-4.599,1.905
	c-4.435,4.435-10.231,6.639-16.027,6.639s-11.592-2.204-16.027-6.639c-8.843-8.843-8.843-23.197,0-32.04l4.599-4.599l32.054-32.054
	l32.054,32.054L292.656,368.235z"/>
<g>
	<path style="fill:#FFFFFF;" d="M408.536,426.523c-5.385,0-9.89-4.216-10.179-9.658c-0.302-5.627,4.016-10.434,9.643-10.736
		c9.509-0.51,17.387-8.351,17.937-17.853c0.276-4.794-1.039-9.111-3.909-12.832c-3.442-4.461-2.615-10.869,1.846-14.311
		c4.46-3.443,10.868-2.618,14.313,1.846c4.096,5.31,8.831,14.213,8.124,26.473c-1.139,19.722-17.487,35.998-37.217,37.055
		C408.906,426.518,408.721,426.523,408.536,426.523z"/>
	<path style="fill:#FFFFFF;" d="M423.393,244.726c-0.384,0-0.771-0.022-1.162-0.065c-5.598-0.634-9.624-5.688-8.989-11.287
		c0.737-6.51,1.076-13.164,1.005-19.778c-0.351-33.854-11.432-66.134-32.047-93.353c-19.952-26.345-48.123-46.248-79.326-56.045
		c-5.375-1.688-8.366-7.416-6.677-12.792s7.415-8.364,12.792-6.679c35.213,11.056,66.99,33.5,89.481,63.194
		c23.274,30.733,35.788,67.201,36.186,105.461c0.079,7.449-0.305,14.948-1.136,22.288
		C432.929,240.879,428.514,244.726,423.393,244.726z"/>
	<circle style="fill:#FFFFFF;" cx="275.87" cy="47.999" r="10.204"/>
</g>
<g>
	<path style="fill:#333333;" d="M467.175,340.604L467.175,340.604c-11.724-15.19-14.948-34.711-8.627-52.219
		c8.714-24.13,12.996-49.493,12.726-75.386c-0.589-56.563-23.134-109.855-63.483-150.055c-40.35-40.2-93.723-62.552-150.292-62.939
		c-57.795-0.408-112.212,21.812-153.207,62.528c-41,40.721-63.579,94.969-63.579,152.753c0,25.101,4.286,49.699,12.74,73.11
		c6.321,17.499,3.094,37.017-8.631,52.21c-11.181,14.488-16.753,32.587-15.692,50.961c2.234,38.693,33.108,69.435,71.816,71.511
		c12.121,0.648,24.093-1.585,34.987-6.411v28.545c0,4.479,2.921,8.435,7.203,9.752C180.054,506.321,218.026,512,255.999,512
		s75.946-5.679,112.864-17.036c4.282-1.317,7.204-5.273,7.204-9.752v-28.545c10.894,4.824,22.863,7.06,34.987,6.411
		c38.707-2.075,69.582-32.818,71.816-71.51C483.93,373.194,478.356,355.095,467.175,340.604z M462.495,390.391
		c-1.608,27.839-24.685,50.816-52.535,52.309c-12.064,0.649-23.941-2.615-33.894-9.238v-22.957c0-5.635-4.567-10.204-10.204-10.204
		c-5.637,0-10.204,4.569-10.204,10.204v67.09c-11.42,3.26-22.94,5.937-34.522,8.057v-31.202c0-5.635-4.567-10.204-10.204-10.204
		c-5.637,0-10.204,4.569-10.204,10.204v34.349c-11.476,1.433-22.995,2.306-34.524,2.633v-36.981c0-5.635-4.567-10.204-10.204-10.204
		c-5.637,0-10.204,4.569-10.204,10.204v36.981c-11.529-0.327-23.047-1.199-34.523-2.631v-34.35c0-5.635-4.569-10.204-10.204-10.204
		s-10.204,4.569-10.204,10.204v31.203c-11.583-2.121-23.106-4.799-34.526-8.058v-67.09c0-5.635-4.569-10.204-10.204-10.204
		c-5.635,0-10.204,4.569-10.204,10.204v22.957c-9.948,6.62-21.806,9.885-33.894,9.237c-27.851-1.494-50.928-24.469-52.535-52.309
		c-0.778-13.466,3.298-26.719,11.476-37.316c16.009-20.745,20.371-47.516,11.669-71.611c-7.649-21.18-11.526-43.445-11.526-66.178
		c0-52.306,20.439-101.413,57.554-138.273c37.109-36.856,86.305-56.997,138.688-56.6c105.6,0.721,192.406,87.21,193.504,192.798
		c0.245,23.45-3.628,46.41-11.513,68.243c-8.702,24.104-4.341,50.878,11.665,71.619l0,0
		C459.197,363.672,463.272,376.924,462.495,390.391z"/>
	<path style="fill:#333333;" d="M229.702,283.012c0-5.635-4.569-10.204-10.204-10.204c-5.635,0-10.204,4.569-10.204,10.204
		c0,19.816-16.122,35.939-35.939,35.939s-35.939-16.122-35.939-35.939c0-5.635-4.569-10.204-10.204-10.204
		c-5.635,0-10.204,4.569-10.204,10.204c0,31.069,25.277,56.347,56.347,56.347S229.702,314.081,229.702,283.012z"/>
	<path style="fill:#333333;" d="M384.786,272.809c-5.637,0-10.204,4.569-10.204,10.204c0,19.816-16.123,35.939-35.939,35.939
		c-19.816,0-35.938-16.122-35.938-35.939c0-5.635-4.567-10.204-10.204-10.204s-10.204,4.569-10.204,10.204
		c0,31.069,25.277,56.347,56.346,56.347c31.07,0,56.347-25.277,56.347-56.347C394.989,277.377,390.422,272.809,384.786,272.809z"/>
	<path style="fill:#333333;" d="M263.217,324.365c-3.986-3.985-10.446-3.985-14.43,0l-36.649,36.649
		c-6.208,6.208-9.627,14.461-9.627,23.24s3.419,17.032,9.627,23.24s14.461,9.626,23.24,9.626c7.596,0,14.8-2.559,20.624-7.271
		c5.824,4.711,13.028,7.271,20.624,7.271c8.779,0,17.032-3.419,23.239-9.626c6.208-6.208,9.628-14.461,9.628-23.24
		s-3.42-17.034-9.627-23.239L263.217,324.365z M285.434,393.063c-2.352,2.352-5.48,3.649-8.809,3.649
		c-3.329,0-6.456-1.295-8.809-3.649c-3.156-3.156-7.352-4.894-11.816-4.894c-4.464,0-8.658,1.737-11.815,4.894
		c-4.857,4.857-12.762,4.857-17.619,0c-2.352-2.352-3.649-5.482-3.649-8.809s1.297-6.457,3.649-8.809l29.433-29.433l29.433,29.435
		c2.352,2.352,3.65,5.482,3.65,8.809S287.788,390.709,285.434,393.063z"/>
</g>
<g>
</g>
<g>
</g>
<g>
</g>
<g>
</g>
<g>
</g>
<g>
</g>
<g>
</g>
<g>
</g>
<g>
</g>
<g>
</g>
<g>
</g>
<g>
</g>
<g>
</g>
<g>
</g>
<g>
</g>
</svg>
