<?xml version="1.0" encoding="iso-8859-1"?>
<!-- Generator: Adobe Illustrator 19.0.0, SVG Export Plug-In . SVG Version: 6.00 Build 0)  -->
<svg version="1.1" id="Layer_1" xmlns="http://www.w3.org/2000/svg" xmlns:xlink="http://www.w3.org/1999/xlink" x="0px" y="0px"
	 viewBox="0 0 512.001 512.001" style="enable-background:new 0 0 512.001 512.001;" xml:space="preserve">
<rect x="236.29" y="424.176" style="fill:#CCCCCC;" width="39.434" height="78.661"/>
<rect x="236.29" y="424.176" style="fill:#666666;" width="39.434" height="34.939"/>
<path style="fill:#CCCCCC;" d="M350.939,121.741v189.866H161.072V121.741H350.939z M321.729,216.674
	c0-36.295-29.429-65.724-65.724-65.724c-36.307,0-65.724,29.429-65.724,65.724s29.417,65.724,65.724,65.724
	C292.3,282.398,321.729,252.969,321.729,216.674z"/>
<path style="fill:#F7B239;" d="M256.005,150.95c36.295,0,65.724,29.429,65.724,65.724s-29.429,65.724-65.724,65.724
	c-36.307,0-65.724-29.429-65.724-65.724S219.699,150.95,256.005,150.95z"/>
<path style="fill:#E09B2D;" d="M217.689,216.674c0-31.595,22.295-57.978,52.018-64.282c-4.421-0.938-9.002-1.442-13.702-1.442
	c-36.307,0-65.724,29.429-65.724,65.724s29.417,65.724,65.724,65.724c4.7,0,9.282-0.503,13.702-1.442
	C239.985,274.651,217.689,248.269,217.689,216.674z"/>
<polygon style="fill:#808080;" points="350.939,311.607 381.443,424.18 275.723,424.18 236.288,424.18 130.556,424.18 
	161.072,311.607 "/>
<polygon style="fill:#666666;" points="463.512,91.236 463.512,342.111 350.939,311.607 350.939,121.741 "/>
<polygon style="fill:#808080;" points="381.443,9.167 350.939,121.741 161.072,121.741 130.556,9.167 "/>
<polygon style="fill:#999999;" points="161.072,121.741 161.072,311.607 48.487,342.111 48.487,91.236 "/>
<g>
	<path style="fill:#FFFFFF;" d="M276.184,254.649c-2.884,0-5.722-1.358-7.506-3.897c-2.907-4.141-1.909-9.856,2.233-12.764
		c6.96-4.888,11.114-12.855,11.114-21.314c0-6.935-2.711-13.466-7.633-18.388c-3.578-3.578-3.578-9.38,0-12.958
		c3.578-3.577,9.38-3.578,12.957,0c8.383,8.384,13.001,19.516,13.001,31.345c0,14.421-7.068,27.996-18.908,36.311
		C279.841,254.11,278.003,254.649,276.184,254.649z"/>
	<circle style="fill:#FFFFFF;" cx="256.007" cy="181.486" r="9.162"/>
</g>
<g>
	<path style="fill:#333333;" d="M469.08,83.958c-2.265-1.733-5.209-2.311-7.964-1.566l-97.163,26.331l26.331-97.164
		c0.746-2.754,0.167-5.698-1.566-7.964C386.985,1.329,384.294,0,381.442,0H130.561c-2.853,0-5.544,1.329-7.277,3.595
		s-2.313,5.21-1.566,7.964l26.331,97.164L50.886,82.392c-2.754-0.745-5.698-0.166-7.964,1.566c-2.266,1.732-3.595,4.424-3.595,7.277
		v250.88c0,2.853,1.329,5.544,3.595,7.277c1.616,1.236,3.577,1.885,5.568,1.885c0.8,0,1.606-0.105,2.396-0.319l97.163-26.331
		l-26.331,97.164c-0.746,2.754-0.167,5.698,1.566,7.964s4.424,3.595,7.277,3.595h96.562v69.489c0,5.06,4.102,9.162,9.162,9.162
		h39.432c5.06,0,9.162-4.102,9.162-9.162V433.35h96.562c2.853,0,5.544-1.329,7.277-3.595c1.733-2.266,2.313-5.21,1.566-7.964
		l-26.331-97.164l97.163,26.331c0.79,0.214,1.595,0.319,2.396,0.319c1.99,0,3.952-0.649,5.568-1.885
		c2.266-1.734,3.595-4.424,3.595-7.277V91.235C472.676,88.382,471.346,85.691,469.08,83.958z M170.232,302.443V130.905H341.77
		v171.538H170.232z M369.466,18.325l-25.543,94.256H168.081l-25.544-94.256H369.466z M57.651,103.211l94.256,25.543v175.842
		l-94.256,25.543V103.211z M266.554,493.676h-21.107v-60.327h21.107V493.676z M142.537,415.024l25.543-94.256h175.842l25.543,94.256
		H142.537z M454.351,330.139l-94.256-25.543V128.754l94.256-25.543V330.139z"/>
	<path style="fill:#333333;" d="M256.001,141.79c-41.291,0-74.885,33.594-74.885,74.885s33.594,74.885,74.885,74.885
		c41.292,0,74.885-33.594,74.885-74.885C330.887,175.383,297.293,141.79,256.001,141.79z M256.001,273.235
		c-31.187,0-56.56-25.373-56.56-56.56s25.373-56.56,56.56-56.56s56.56,25.373,56.56,56.56S287.189,273.235,256.001,273.235z"/>
</g>
<g>
</g>
<g>
</g>
<g>
</g>
<g>
</g>
<g>
</g>
<g>
</g>
<g>
</g>
<g>
</g>
<g>
</g>
<g>
</g>
<g>
</g>
<g>
</g>
<g>
</g>
<g>
</g>
<g>
</g>
</svg>
