<?xml version="1.0" encoding="iso-8859-1"?>
<!-- Generator: Adobe Illustrator 19.0.0, SVG Export Plug-In . SVG Version: 6.00 Build 0)  -->
<svg version="1.1" id="Layer_1" xmlns="http://www.w3.org/2000/svg" xmlns:xlink="http://www.w3.org/1999/xlink" x="0px" y="0px"
	 viewBox="0 0 512.001 512.001" style="enable-background:new 0 0 512.001 512.001;" xml:space="preserve">
<g>
	<rect x="284.535" y="189.027" style="fill:#B27214;" width="94.355" height="211.749"/>
	<rect x="133.129" y="189.027" style="fill:#B27214;" width="94.355" height="211.749"/>
</g>
<g>
	<rect x="133.129" y="189.027" style="fill:#995C0D;" width="94.355" height="35.109"/>
	<rect x="284.535" y="189.027" style="fill:#995C0D;" width="94.355" height="35.109"/>
</g>
<g>
	<rect x="378.889" y="189.027" style="fill:#E09B2D;" width="28.526" height="211.749"/>
	<rect x="227.483" y="189.027" style="fill:#E09B2D;" width="28.526" height="211.749"/>
</g>
<g>
	<polygon style="fill:#F7B239;" points="503.773,138.56 458.428,138.56 53.581,138.56 8.236,138.56 256.005,40.914 	"/>
	<polygon style="fill:#F7B239;" points="484.255,435.93 484.255,471.083 27.743,471.083 27.743,435.93 53.581,435.93 
		458.428,435.93 	"/>
	<polygon style="fill:#F7B239;" points="458.428,400.778 458.428,435.93 53.581,435.93 53.581,400.778 76.073,400.778 
		104.598,400.778 133.124,400.778 227.479,400.778 256.005,400.778 284.53,400.778 378.885,400.778 407.411,400.778 
		435.937,400.778 	"/>
	<rect x="53.581" y="138.559" style="fill:#F7B239;" width="404.847" height="50.469"/>
	<rect x="407.415" y="189.027" style="fill:#F7B239;" width="28.526" height="211.749"/>
</g>
<polygon style="fill:#E09B2D;" points="458.428,143.727 458.428,161.6 53.581,161.6 53.581,143.727 66.703,138.56 445.306,138.56 
	"/>
<g>
	<rect x="256.009" y="189.027" style="fill:#F7B239;" width="28.526" height="211.749"/>
	<rect x="104.603" y="189.027" style="fill:#F7B239;" width="28.526" height="211.749"/>
</g>
<rect x="76.077" y="189.027" style="fill:#E09B2D;" width="28.526" height="211.749"/>
<g>
	<path style="fill:#FFFFFF;" d="M359.515,119.421c-1.004,0-2.024-0.184-3.015-0.575l-81.024-31.931
		c-4.228-1.667-6.305-6.445-4.639-10.673c1.665-4.228,6.445-6.306,10.673-4.639l81.024,31.931c4.228,1.667,6.305,6.445,4.639,10.673
		C365.897,117.445,362.797,119.421,359.515,119.421z"/>
	<circle style="fill:#FFFFFF;" cx="256.009" cy="70.393" r="8.229"/>
	<circle style="fill:#FFFFFF;" cx="436.643" cy="418.353" r="8.229"/>
	<circle style="fill:#FFFFFF;" cx="461.318" cy="453.506" r="8.229"/>
</g>
<path style="fill:#333333;" d="M506.788,130.907L259.017,33.261c-1.94-0.764-4.095-0.764-6.034,0L5.212,130.907
	c-3.678,1.449-5.805,5.308-5.067,9.191c0.737,3.883,4.132,6.694,8.084,6.694h37.119v42.24c0,4.544,3.684,8.229,8.229,8.229H67.84
	v195.292H53.577c-4.544,0-8.229,3.684-8.229,8.229v26.923H27.743c-4.544,0-8.229,3.684-8.229,8.229v35.151
	c0,4.544,3.684,8.229,8.229,8.229h456.516c4.544,0,8.229-3.684,8.229-8.229v-35.151c0-4.544-3.684-8.229-8.229-8.229h-17.606
	v-26.923c0-4.544-3.684-8.229-8.229-8.229h-14.263V197.26h14.263c4.544,0,8.229-3.684,8.229-8.229v-42.24h37.119
	c3.953,0,7.346-2.811,8.084-6.694C512.593,136.215,510.466,132.357,506.788,130.907z M256.001,49.761l204.448,80.572h-2.024H53.578
	h-2.025L256.001,49.761z M84.298,197.259h12.069v195.292H84.298V197.259z M387.11,392.551V197.259h12.069v195.292H387.11z
	 M370.653,392.551h-77.897V197.259h77.897V392.551z M276.299,392.551H264.23V197.259h12.069V392.551z M247.773,392.551h-12.069
	V197.259h12.069V392.551z M219.247,392.551H141.35V197.259h77.897V392.551z M124.892,392.551h-12.069V197.259h12.069V392.551z
	 M476.031,462.854H35.972V444.16h440.059V462.854z M450.196,427.703H61.806v-18.694h388.39V427.703z M427.705,392.551h-12.069
	V197.259h12.069V392.551z M450.196,180.802H61.806v-34.012h388.39V180.802z"/>
<g>
</g>
<g>
</g>
<g>
</g>
<g>
</g>
<g>
</g>
<g>
</g>
<g>
</g>
<g>
</g>
<g>
</g>
<g>
</g>
<g>
</g>
<g>
</g>
<g>
</g>
<g>
</g>
<g>
</g>
</svg>
