<?xml version="1.0" encoding="iso-8859-1"?>
<!-- Generator: Adobe Illustrator 19.0.0, SVG Export Plug-In . SVG Version: 6.00 Build 0)  -->
<svg version="1.1" id="Layer_1" xmlns="http://www.w3.org/2000/svg" xmlns:xlink="http://www.w3.org/1999/xlink" x="0px" y="0px"
	 viewBox="0 0 512 512" style="enable-background:new 0 0 512 512;" xml:space="preserve">
<path style="fill:#2197D8;" d="M454.273,101.182v27.685c-11.389,0-20.605,9.217-20.605,20.594c0,11.377,9.217,20.605,20.605,20.605
	h-69.53v-27.685H78.327v27.685H57.733v27.674c11.377,0,20.594,9.228,20.594,20.605c0,11.377-9.217,20.594-20.594,20.594v30.902
	c11.377,0,20.594,9.217,20.594,20.594c0,11.377-9.217,20.605-20.594,20.605v30.902H8.808v-27.685
	c11.377,0,20.594-9.217,20.594-20.594c0-11.389-9.217-20.605-20.594-20.605v-30.902c11.377,0,20.594-9.217,20.594-20.594
	c0-11.389-9.217-20.605-20.594-20.605v-30.891c11.377,0,20.594-9.228,20.594-20.605c0-11.377-9.217-20.594-20.594-20.594v-27.685
	H454.273z"/>
<rect x="78.324" y="142.383" style="fill:#E09B2D;" width="306.416" height="27.685"/>
<rect x="127.249" y="211.901" style="fill:#F7B239;" width="306.416" height="158.362"/>
<path style="fill:#2BA5F7;" d="M503.198,383.141v27.674H57.733v-27.674c11.377,0,20.594-9.228,20.594-20.605
	c0-11.377-9.217-20.594-20.594-20.594V311.04c11.377,0,20.594-9.228,20.594-20.605s-9.217-20.594-20.594-20.594v-30.902
	c11.377,0,20.594-9.217,20.594-20.594c0-11.377-9.217-20.605-20.594-20.605v-27.674h20.594h306.416h69.53h48.925v27.674
	c-11.377,0-20.605,9.228-20.605,20.605c0,11.377,9.228,20.594,20.605,20.594v30.902c-11.377,0-20.605,9.217-20.605,20.594
	c0,11.377,9.228,20.605,20.605,20.605v30.902c-11.377,0-20.605,9.217-20.605,20.594
	C482.592,373.913,491.821,383.141,503.198,383.141z M433.668,370.262V211.899H127.251v158.363H433.668z"/>
<g>
	<path style="fill:#333333;" d="M371.757,323.709H189.173c-4.863,0-8.806-3.943-8.806-8.806c0-4.863,3.943-8.806,8.806-8.806
		h182.584c4.864,0,8.806,3.943,8.806,8.806C380.563,319.766,376.622,323.709,371.757,323.709z"/>
	<path style="fill:#333333;" d="M371.757,276.075H189.173c-4.863,0-8.806-3.943-8.806-8.806c0-4.863,3.943-8.806,8.806-8.806
		h182.584c4.864,0,8.806,3.943,8.806,8.806C380.563,272.133,376.622,276.075,371.757,276.075z"/>
</g>
<g>
	<path style="fill:#FFFFFF;" d="M404.316,349.715c-4.864,0-8.806-3.943-8.806-8.806v-72.853c0-4.863,3.941-8.806,8.806-8.806
		c4.864,0,8.806,3.943,8.806,8.806v72.853C413.122,345.772,409.179,349.715,404.316,349.715z"/>
	<circle style="fill:#FFFFFF;" cx="404.313" cy="241.254" r="8.806"/>
</g>
<g>
	<path style="fill:#333333;" d="M503.194,206.548c4.864,0,8.806-3.943,8.806-8.806v-27.681c0-4.863-3.941-8.806-8.806-8.806h-48.924
		c-6.503,0-11.794-5.29-11.794-11.794s5.29-11.794,11.794-11.794c4.864,0,8.806-3.943,8.806-8.806v-27.681
		c0-4.863-3.941-8.806-8.806-8.806H8.806C3.943,92.376,0,96.318,0,101.182v27.681c0,4.863,3.943,8.806,8.806,8.806
		c6.503,0,11.794,5.29,11.794,11.794s-5.29,11.794-11.794,11.794c-4.863,0-8.806,3.943-8.806,8.806v30.899
		c0,4.863,3.943,8.806,8.806,8.806c6.503,0,11.794,5.29,11.794,11.794c0,6.503-5.29,11.794-11.794,11.794
		c-4.863,0-8.806,3.943-8.806,8.806v30.899c0,4.863,3.943,8.806,8.806,8.806c6.503,0,11.794,5.29,11.794,11.794
		c0,6.503-5.29,11.795-11.794,11.795c-4.863,0-8.806,3.943-8.806,8.806v27.681c0,4.863,3.943,8.806,8.806,8.806h48.924
		c6.503,0,11.794,5.291,11.794,11.794s-5.29,11.794-11.794,11.794c-4.863,0-8.806,3.943-8.806,8.806v27.681
		c0,4.863,3.943,8.806,8.806,8.806h445.465c4.864,0,8.806-3.943,8.806-8.806v-27.681c0-4.863-3.941-8.806-8.806-8.806
		c-6.503,0-11.794-5.29-11.794-11.794s5.291-11.794,11.794-11.794c4.864,0,8.806-3.943,8.806-8.806v-30.9
		c0-4.863-3.941-8.806-8.806-8.806c-6.503,0-11.794-5.29-11.794-11.794s5.291-11.794,11.794-11.794c4.864,0,8.806-3.943,8.806-8.806
		v-30.899c0-4.863-3.941-8.806-8.806-8.806c-6.503,0-11.794-5.29-11.794-11.794C491.4,211.838,496.691,206.548,503.194,206.548z
		 M17.611,321.717c11.927-3.751,20.6-14.911,20.6-28.059c0-13.148-8.673-24.309-20.6-28.059v-15.981
		c11.927-3.75,20.6-14.91,20.6-28.059c0-13.148-8.673-24.309-20.6-28.059v-15.981c11.926-3.75,20.6-14.91,20.6-28.059
		c0-13.149-8.673-24.31-20.6-28.06v-11.416h427.854v11.416c-11.927,3.75-20.6,14.91-20.6,28.059c0,4.193,0.889,8.181,2.477,11.794
		h-33.791v-18.875c0-4.863-3.941-8.806-8.806-8.806H78.329c-4.863,0-8.806,3.943-8.806,8.806v18.875H57.729
		c-4.863,0-8.806,3.943-8.806,8.806v27.681c0,4.863,3.943,8.806,8.806,8.806c6.503,0,11.794,5.29,11.794,11.794
		c0,6.503-5.29,11.794-11.794,11.794c-4.863,0-8.806,3.943-8.806,8.806v30.899c0,4.863,3.943,8.806,8.806,8.806
		c6.503,0,11.794,5.29,11.794,11.794c0,6.503-5.29,11.794-11.794,11.794c-4.863,0-8.806,3.943-8.806,8.806v22.094H17.611V321.717z
		 M375.941,161.255H87.135v-10.069h288.806V161.255z M494.389,190.283c-11.926,3.75-20.6,14.91-20.6,28.059
		c0,13.148,8.673,24.309,20.6,28.059v15.981c-11.926,3.75-20.6,14.911-20.6,28.059c0,13.148,8.673,24.309,20.6,28.059v15.981
		c-11.926,3.75-20.6,14.911-20.6,28.059s8.673,24.309,20.6,28.059v11.416H66.535v-11.416c11.926-3.751,20.6-14.911,20.6-28.059
		s-8.673-24.309-20.6-28.059v-15.981c11.926-3.75,20.6-14.911,20.6-28.059s-8.673-24.309-20.6-28.059V246.4
		c11.926-3.75,20.6-14.91,20.6-28.059c0-13.149-8.673-24.309-20.6-28.059v-11.416h427.853V190.283z"/>
	<path style="fill:#333333;" d="M433.671,203.098H127.252c-4.863,0-8.806,3.943-8.806,8.806v158.359
		c0,4.863,3.943,8.806,8.806,8.806H433.67c4.864,0,8.806-3.943,8.806-8.806V211.904
		C442.477,207.041,438.534,203.098,433.671,203.098z M424.865,361.457H136.058V220.71h288.806v140.748H424.865z"/>
</g>
<g>
</g>
<g>
</g>
<g>
</g>
<g>
</g>
<g>
</g>
<g>
</g>
<g>
</g>
<g>
</g>
<g>
</g>
<g>
</g>
<g>
</g>
<g>
</g>
<g>
</g>
<g>
</g>
<g>
</g>
</svg>
