<?xml version="1.0" encoding="iso-8859-1"?>
<!-- Generator: Adobe Illustrator 19.0.0, SVG Export Plug-In . SVG Version: 6.00 Build 0)  -->
<svg version="1.1" id="Layer_1" xmlns="http://www.w3.org/2000/svg" xmlns:xlink="http://www.w3.org/1999/xlink" x="0px" y="0px"
	 viewBox="0 0 512 512" style="enable-background:new 0 0 512 512;" xml:space="preserve">
<polygon style="fill:#F7B239;" points="498.292,430.754 498.292,501.867 13.702,501.867 13.702,430.754 62.336,430.754 
	109.24,430.754 207.587,430.754 304.421,430.754 402.768,430.754 449.672,430.754 "/>
<polygon style="fill:#E09B2D;" points="62.279,430.754 62.279,501.867 13.702,501.867 13.702,430.754 18.578,430.754 
	23.279,430.754 33.138,430.754 42.845,430.754 52.704,430.754 57.405,430.754 "/>
<path style="fill:#F7B239;" d="M449.672,203.799v226.955h-46.904V203.799c0-81.055-65.709-146.764-146.764-146.764
	S109.24,122.744,109.24,203.799v226.955H62.336V203.799c0-106.791,86.878-193.668,193.668-193.668S449.672,97.008,449.672,203.799z"
	/>
<path style="fill:#2BA5F7;" d="M402.768,203.799v226.955h-98.347v-75.652c0-26.735-21.682-48.417-48.417-48.417
	c-26.748,0-48.417,21.682-48.417,48.417v75.652H109.24V203.799c0-81.055,65.709-146.764,146.764-146.764
	S402.768,122.744,402.768,203.799z"/>
<path style="fill:#2197D8;" d="M267.608,57.49c-3.828-0.3-7.698-0.455-11.604-0.455c-81.055,0-146.764,65.709-146.764,146.764
	v226.955h23.209V203.799C132.449,126.649,191.978,63.407,267.608,57.49z"/>
<g>
	<path style="fill:#FFFFFF;" d="M368.995,408.052c-5.597,0-10.132-4.536-10.132-10.132V203.799
		c0-27.817-10.975-53.895-30.905-73.428c-3.996-3.916-4.061-10.331-0.143-14.328c3.915-3.995,10.329-4.062,14.328-0.143
		c23.849,23.376,36.984,54.594,36.984,87.899V397.92C379.127,403.515,374.592,408.052,368.995,408.052z"/>
	<path style="fill:#FFFFFF;" d="M467.534,482.521c-5.597,0-10.132-4.536-10.132-10.132v-12.158c0-5.596,4.535-10.132,10.132-10.132
		s10.132,4.536,10.132,10.132v12.158C477.666,477.985,473.131,482.521,467.534,482.521z"/>
	<circle style="fill:#FFFFFF;" cx="307.011" cy="102.994" r="10.132"/>
</g>
<g>
	<path style="fill:#333333;" d="M498.292,420.624H459.8V203.8C459.8,91.425,368.375,0,256,0C143.623,0,52.2,91.425,52.2,203.8
		v216.823H13.708c-5.596,0-10.132,4.536-10.132,10.132v71.113c0,5.596,4.536,10.132,10.132,10.132h484.584
		c5.597,0,10.132-4.536,10.132-10.132v-71.113C508.424,425.16,503.889,420.624,498.292,420.624z M72.464,203.8
		c0-101.202,82.333-183.536,183.536-183.536S439.536,102.599,439.536,203.8v216.823h-26.64V203.8
		c0-86.513-70.383-156.896-156.896-156.896l0,0c-86.513,0-156.896,70.383-156.896,156.896v216.823h-26.64V203.8z M294.285,420.624
		h-76.57v-65.52c0-21.11,17.174-38.285,38.285-38.285c21.111,0,38.285,17.174,38.285,38.285V420.624z M256,296.555L256,296.555
		c-32.284,0-58.549,26.265-58.549,58.549v65.52h-78.083V203.8c0-75.34,61.293-136.632,136.632-136.632
		S392.632,128.461,392.632,203.8v216.823h-78.083v-65.52C314.549,322.819,288.284,296.555,256,296.555z M488.16,491.736H23.84
		v-50.849H488.16V491.736z"/>
	<path style="fill:#333333;" d="M272.643,248.138h-33.287c-5.596,0-10.132,4.536-10.132,10.132c0,5.596,4.536,10.132,10.132,10.132
		h33.287c5.597,0,10.132-4.536,10.132-10.132C282.775,252.674,278.239,248.138,272.643,248.138z"/>
	<path style="fill:#333333;" d="M239.357,192.75h33.287c5.597,0,10.132-4.536,10.132-10.132c0-5.596-4.535-10.132-10.132-10.132
		h-33.287c-5.596,0-10.132,4.536-10.132,10.132C229.225,188.213,233.761,192.75,239.357,192.75z"/>
	<path style="fill:#333333;" d="M293.826,210.312h-75.652c-5.596,0-10.132,4.536-10.132,10.132s4.536,10.132,10.132,10.132h75.652
		c5.597,0,10.132-4.536,10.132-10.132S299.423,210.312,293.826,210.312z"/>
</g>
<g>
</g>
<g>
</g>
<g>
</g>
<g>
</g>
<g>
</g>
<g>
</g>
<g>
</g>
<g>
</g>
<g>
</g>
<g>
</g>
<g>
</g>
<g>
</g>
<g>
</g>
<g>
</g>
<g>
</g>
</svg>
