<?xml version="1.0" encoding="iso-8859-1"?>
<!-- Generator: Adobe Illustrator 19.0.0, SVG Export Plug-In . SVG Version: 6.00 Build 0)  -->
<svg version="1.1" id="Layer_1" xmlns="http://www.w3.org/2000/svg" xmlns:xlink="http://www.w3.org/1999/xlink" x="0px" y="0px"
	 viewBox="0 0 512 512" style="enable-background:new 0 0 512 512;" xml:space="preserve">
<path style="fill:#F95428;" d="M421.369,189.118v112.256c0,91.323-74.041,165.353-165.364,165.353
	c-91.335,0-165.364-74.03-165.364-165.353V189.118V65.55c54.279-13.573,109.822-20.365,165.364-20.365
	c55.531,0,111.074,6.792,165.364,20.365V189.118z M328.215,239.584c26.635,10.269,56.539-2.99,66.809-29.614
	c-17.571-1.24-34.749-5.111-50.999-11.37c-16.25-6.271-31.573-14.952-45.424-25.824
	C288.331,199.399,301.591,229.314,328.215,239.584z M349.113,368.75c0-51.428-41.692-93.108-93.108-93.108
	c-51.428,0-93.12,41.68-93.12,93.108c30.344-9.307,61.732-13.955,93.12-13.955C287.392,354.795,318.78,359.443,349.113,368.75z
	 M183.783,239.584c26.624-10.269,39.884-40.185,29.614-66.809c-13.851,10.872-29.174,19.553-45.424,25.824
	c-16.25,6.259-33.439,10.13-50.999,11.37C127.244,236.593,157.159,249.853,183.783,239.584z"/>
<path style="fill:#E54728;" d="M288.261,463.574c-10.432,2.063-21.223,3.153-32.257,3.153c-91.335,0-165.364-74.03-165.364-165.353
	V65.55c54.279-13.573,108.28-23.958,64.514-13.016v150.768c-22.498,5.598-38.18,6.668-38.18,6.668
	c7.921,13.769,24.955,33.011,38.18,32.084v59.32C155.154,381.662,212.377,448.564,288.261,463.574z"/>
<g>
	<path style="fill:#FFFFFF;" d="M378.483,372.564c-1.347,0-2.712-0.314-3.99-0.975c-4.264-2.208-5.93-7.453-3.723-11.717
		c9.428-18.208,14.208-37.889,14.208-58.498v-34.668c0-4.801,3.891-8.693,8.693-8.693s8.693,3.892,8.693,8.693v34.668
		c0,23.089-5.586,46.081-16.155,66.492C384.664,370.852,381.628,372.564,378.483,372.564z"/>
	<path style="fill:#FFFFFF;" d="M393.672,184.992c-4.802,0-8.693-3.892-8.693-8.693v-61.431c0-4.801,3.891-8.693,8.693-8.693
		s8.693,3.892,8.693,8.693v61.431C402.365,181.099,398.473,184.992,393.672,184.992z"/>
	<circle style="fill:#FFFFFF;" cx="393.667" cy="88.576" r="8.693"/>
</g>
<g>
	<path style="fill:#333333;" d="M186.914,247.693c15.045-5.803,26.929-17.118,33.463-31.86c6.534-14.742,6.936-31.146,1.132-46.191
		c-0.991-2.572-3.146-4.522-5.805-5.253c-2.657-0.731-5.506-0.158-7.675,1.545c-26.437,20.762-58.135,32.991-91.67,35.363
		c-2.75,0.195-5.245,1.682-6.724,4.009s-1.765,5.218-0.773,7.79c5.803,15.045,17.118,26.929,31.86,33.462
		c7.83,3.47,16.127,5.211,24.442,5.211C172.505,251.77,179.86,250.414,186.914,247.693z M147.768,230.665
		c-6.81-3.018-12.591-7.639-16.941-13.437c27.71-3.958,53.993-14.098,77.182-29.774c0.671,7.218-0.51,14.524-3.528,21.334
		c-4.653,10.497-13.113,18.552-23.826,22.685C169.943,235.603,158.262,235.316,147.768,230.665z"/>
	<path style="fill:#333333;" d="M395.642,201.296c-33.533-2.371-65.231-14.6-91.671-35.363c-2.169-1.704-5.018-2.276-7.674-1.545
		c-2.659,0.731-4.812,2.681-5.805,5.253c-5.805,15.045-5.401,31.449,1.134,46.191c6.535,14.742,18.419,26.057,33.462,31.86
		c7.055,2.722,14.407,4.079,21.749,4.079c8.314,0,16.614-1.741,24.442-5.211c14.742-6.534,26.057-18.419,31.859-33.463
		c0.992-2.572,0.706-5.464-0.773-7.79C400.887,202.978,398.393,201.491,395.642,201.296z M364.234,230.665
		c-10.499,4.653-22.179,4.939-32.889,0.807c-10.711-4.132-19.173-12.189-23.826-22.685c-3.018-6.808-4.198-14.116-3.528-21.334
		c23.191,15.676,49.474,25.816,77.184,29.774C376.825,223.025,371.042,227.646,364.234,230.665z"/>
	<path style="fill:#333333;" d="M256.001,266.945c-56.136,0-101.806,45.67-101.806,101.806c0,2.757,1.309,5.351,3.525,6.99
		c2.218,1.64,5.081,2.128,7.717,1.321c59.243-18.168,121.877-18.17,181.126,0c0.837,0.256,1.695,0.382,2.549,0.382
		c1.838,0,3.653-0.583,5.168-1.703c2.216-1.639,3.525-4.233,3.525-6.99C357.806,312.614,312.137,266.945,256.001,266.945z
		 M256,346.045c-28.063,0-56.131,3.649-83.602,10.945c5.739-41.004,41.043-72.66,83.604-72.66c42.56,0,77.864,31.655,83.602,72.66
		C312.133,349.694,284.064,346.045,256,346.045z"/>
	<path style="fill:#333333;" d="M503.308,346.8c-15.468,0-28.052-12.584-28.052-28.052v-92.883
		c0-24.974-20.255-45.302-45.199-45.432V65.551c0-3.988-2.715-7.466-6.585-8.433c-109.56-27.39-225.381-27.39-334.944,0
		c-3.87,0.968-6.585,4.445-6.585,8.433v114.882c-24.944,0.13-45.199,20.458-45.199,45.432v92.883
		c0,15.468-12.584,28.052-28.052,28.052C3.891,346.8,0,350.692,0,355.493c0,4.801,3.891,8.693,8.693,8.693
		c25.054,0,45.438-20.383,45.438-45.438v-92.883c0-15.388,12.455-27.916,27.813-28.046v103.55
		c0,95.974,78.081,174.056,174.056,174.056s174.056-78.081,174.056-174.056v-103.55c15.358,0.13,27.813,12.658,27.813,28.046v92.883
		c0,25.054,20.383,45.438,45.438,45.438c4.802,0,8.693-3.892,8.693-8.693C512,350.692,508.11,346.8,503.308,346.8z M412.671,301.369
		c0,86.388-70.282,156.67-156.67,156.67s-156.67-70.282-156.67-156.67V72.374c102.656-24.555,210.684-24.555,313.34,0V301.369z"/>
</g>
<g>
</g>
<g>
</g>
<g>
</g>
<g>
</g>
<g>
</g>
<g>
</g>
<g>
</g>
<g>
</g>
<g>
</g>
<g>
</g>
<g>
</g>
<g>
</g>
<g>
</g>
<g>
</g>
<g>
</g>
</svg>
