<?xml version="1.0" encoding="iso-8859-1"?>
<!-- Generator: Adobe Illustrator 19.0.0, SVG Export Plug-In . SVG Version: 6.00 Build 0)  -->
<svg version="1.1" id="Layer_1" xmlns="http://www.w3.org/2000/svg" xmlns:xlink="http://www.w3.org/1999/xlink" x="0px" y="0px"
	 viewBox="0 0 511.999 511.999" style="enable-background:new 0 0 511.999 511.999;" xml:space="preserve">
<path style="fill:#2BA5F7;" d="M400.496,236.724c-12.968,9.752-29.084,15.532-46.562,15.532c-30.286,0-56.508-17.34-69.282-42.636
	h-51.609c-14.788,46.39-58.236,79.983-109.525,79.983c-21.118,0-40.896-5.689-57.904-15.635V452.26h335.694V236.106
	C401.034,236.312,400.771,236.518,400.496,236.724z M319.769,286.616c0,9.477-7.68,17.169-17.157,17.169
	c-9.489,0-17.169-7.692-17.169-17.169c0-9.489,7.68-17.169,17.169-17.169C312.089,269.448,319.769,277.128,319.769,286.616z
	 M240.804,269.448c9.477,0,17.169,7.68,17.169,17.169c0,9.477-7.692,17.169-17.169,17.169c-9.489,0-17.169-7.692-17.169-17.169
	C223.635,277.128,231.315,269.448,240.804,269.448z M337.452,395.706H129.47v-54.734h207.982V395.706z"/>
<rect x="65.619" y="263.173" style="fill:#2197D8;" width="29.004" height="189.085"/>
<rect x="401.313" y="273.486" style="fill:#F7B239;" width="51.048" height="114.905"/>
<rect x="401.313" y="358.173" style="fill:#E09B2D;" width="51.048" height="30.217"/>
<path style="fill:#2BA5F7;" d="M503.417,244.038v173.805h-32.701c-10.13,0-18.359-8.23-18.359-18.359v-11.091V273.488v-11.091
	c0-10.141,8.23-18.359,18.359-18.359H503.417z"/>
<rect x="432.274" y="273.486" style="fill:#E09B2D;" width="20.087" height="114.905"/>
<path style="fill:#666666;" d="M284.653,209.62c-5.311-10.507-8.298-22.377-8.298-34.944c0-42.853,34.727-77.591,77.58-77.591
	c42.842,0,77.58,34.738,77.58,77.591c0,25.009-11.835,47.248-30.205,61.43c-13.105,10.13-29.53,16.15-47.374,16.15
	C323.649,252.256,297.426,234.916,284.653,209.62z"/>
<path style="fill:#2197D8;" d="M400.496,236.724c-4.178,5.574-9.111,10.576-14.639,14.834c-13.105,10.13-29.53,16.15-47.374,16.15
	c-30.286,0-56.508-17.34-69.282-42.636c-2.461-4.876-4.43-10.049-5.826-15.452h21.278c12.774,25.295,38.996,42.636,69.282,42.636
	C371.412,252.256,387.528,246.476,400.496,236.724z"/>
<rect x="129.475" y="340.97" style="fill:#666666;" width="207.982" height="54.734"/>
<rect x="129.475" y="340.97" style="fill:#4D4D4D;" width="25.993" height="54.734"/>
<g>
	<path style="fill:#F95428;" d="M302.611,269.448c9.477,0,17.157,7.68,17.157,17.169c0,9.477-7.68,17.169-17.157,17.169
		c-9.489,0-17.169-7.692-17.169-17.169C285.443,277.128,293.123,269.448,302.611,269.448z"/>
	<path style="fill:#F95428;" d="M240.804,269.448c9.477,0,17.169,7.68,17.169,17.169c0,9.477-7.692,17.169-17.169,17.169
		c-9.489,0-17.169-7.692-17.169-17.169C223.635,277.128,231.315,269.448,240.804,269.448z"/>
</g>
<path style="fill:#666666;" d="M238.458,174.676c0,12.19-1.9,23.922-5.414,34.944c-14.788,46.39-58.236,79.983-109.525,79.983
	c-21.118,0-40.896-5.689-57.904-15.635C31.494,254.042,8.58,217.037,8.58,174.676c0-63.478,51.46-114.939,114.939-114.939
	S238.458,111.198,238.458,174.676z M157.673,174.676c0-18.863-15.292-34.154-34.154-34.154c-18.851,0-34.143,15.292-34.143,34.154
	c0,18.851,15.292,34.143,34.143,34.143C142.381,208.819,157.673,193.528,157.673,174.676z"/>
<path style="fill:#F95428;" d="M123.519,140.522c18.863,0,34.154,15.292,34.154,34.154c0,18.851-15.292,34.143-34.154,34.143
	c-18.851,0-34.143-15.292-34.143-34.143C89.376,155.814,104.667,140.522,123.519,140.522z"/>
<path style="fill:#E54728;" d="M123.519,140.522c-4.447,0-8.691,0.86-12.587,2.408c12.628,5.014,21.56,17.334,21.56,31.746
	c0,14.405-8.933,26.721-21.56,31.736c3.897,1.547,8.14,2.408,12.587,2.408c18.863,0,34.154-15.292,34.154-34.143
	C157.673,155.814,142.381,140.522,123.519,140.522z"/>
<g>
	<path style="fill:#FFFFFF;" d="M200.501,222.41c-1.304,0-2.627-0.298-3.869-0.927c-4.23-2.14-5.925-7.305-3.785-11.535
		c1.879-3.713,3.478-7.625,4.755-11.627c2.425-7.611,3.656-15.569,3.656-23.646c0-11.648-2.523-22.852-7.5-33.3
		c-2.039-4.281-0.221-9.403,4.06-11.441c4.276-2.041,9.402-0.222,11.441,4.059c6.082,12.774,9.168,26.46,9.168,40.683
		c0,9.849-1.503,19.56-4.467,28.861c-1.552,4.871-3.502,9.636-5.793,14.163C206.655,220.689,203.635,222.41,200.501,222.41z"/>
	<path style="fill:#FFFFFF;" d="M164.292,107.192c-1.374,0-2.766-0.331-4.061-1.027c-11.217-6.038-23.911-9.229-36.712-9.229
		c-6.748,0-13.445,0.869-19.907,2.581c-4.583,1.218-9.281-1.515-10.498-6.098c-1.216-4.582,1.515-9.283,6.098-10.497
		c7.895-2.093,16.073-3.154,24.305-3.154c15.632,0,31.142,3.901,44.85,11.28c4.174,2.247,5.738,7.454,3.49,11.628
		C170.308,105.555,167.349,107.192,164.292,107.192z"/>
	<path style="fill:#FFFFFF;" d="M400.791,197.577c-0.826,0-1.665-0.12-2.496-0.372c-4.537-1.377-7.099-6.17-5.722-10.708
		c1.156-3.807,1.741-7.784,1.741-11.821c0-2.667-0.262-5.33-0.778-7.917c-0.927-4.649,2.09-9.17,6.739-10.098
		c4.649-0.927,9.17,2.09,10.099,6.739c0.736,3.69,1.109,7.483,1.109,11.275c0,5.727-0.834,11.382-2.481,16.808
		C407.877,195.19,404.473,197.577,400.791,197.577z"/>
	<path style="fill:#FFFFFF;" d="M480.914,366.76c-4.742,0-8.584-3.844-8.584-8.584v-61.235c0-4.741,3.842-8.584,8.584-8.584
		s8.584,3.844,8.584,8.584v61.235C489.499,362.917,485.656,366.76,480.914,366.76z"/>
	<path style="fill:#FFFFFF;" d="M373.896,433.146c-4.742,0-8.584-3.844-8.584-8.584V305.525c0-4.741,3.842-8.584,8.584-8.584
		s8.584,3.844,8.584,8.584v119.036C382.48,429.302,378.638,433.146,373.896,433.146z"/>
</g>
<g>
	<path style="fill:#333333;" d="M503.416,235.451h-32.694c-14.857,0-26.945,12.088-26.945,26.945v2.502h-33.884v-24.785
		c18.469-15.816,30.208-39.277,30.208-65.443c0-47.513-38.654-86.166-86.166-86.166s-86.166,38.654-86.166,86.166
		c0,9.194,1.463,18.05,4.142,26.365h-27.708c1.855-8.499,2.842-17.319,2.842-26.365c0-68.109-55.411-123.521-123.521-123.521
		S0,106.561,0,174.671c0,43.649,22.758,82.083,57.031,104.059v173.536c0,4.741,3.842,8.584,8.584,8.584h335.692
		c4.742,0,8.584-3.844,8.584-8.584v-55.289h33.884v2.503c0,14.857,12.088,26.945,26.945,26.945h32.694
		c4.742,0,8.584-3.844,8.584-8.584V244.036C512,239.295,508.158,235.451,503.416,235.451z M353.933,105.673
		c38.046,0,68.998,30.952,68.998,68.998s-30.952,68.998-68.998,68.998s-68.998-30.952-68.998-68.998
		S315.886,105.673,353.933,105.673z M17.169,174.671c0-58.643,47.71-106.352,106.352-106.352s106.352,47.71,106.352,106.352
		s-47.71,106.352-106.352,106.352S17.169,233.314,17.169,174.671z M392.723,443.68H74.2V287.906
		c15.116,6.61,31.796,10.286,49.321,10.286c52.793,0,97.949-33.295,115.591-79.987h40.506
		c14.985,25.481,42.677,42.632,74.314,42.632c13.949,0,27.122-3.352,38.791-9.262V443.68z M409.892,379.807v-97.739h33.884v97.739
		H409.892z M494.831,409.254h-24.109c-5.391,0-9.776-4.385-9.776-9.776V388.39V273.483v-11.086c0-5.39,4.385-9.776,9.776-9.776
		h24.109L494.831,409.254L494.831,409.254z"/>
	<path style="fill:#333333;" d="M166.253,174.671c0-23.562-19.169-42.731-42.732-42.731S80.79,151.109,80.79,174.671
		s19.168,42.731,42.731,42.731S166.253,198.233,166.253,174.671z M97.959,174.671c0-14.096,11.468-25.562,25.562-25.562
		c14.096,0,25.563,11.468,25.563,25.562s-11.468,25.562-25.563,25.562C109.427,200.234,97.959,188.766,97.959,174.671z"/>
	<path style="fill:#333333;" d="M166.738,140.039c2.196,0,4.394-0.838,6.071-2.515l19.35-19.35c3.352-3.352,3.352-8.788,0-12.139
		c-3.354-3.352-8.788-3.352-12.141,0l-19.35,19.35c-3.352,3.352-3.352,8.788,0,12.139
		C162.344,139.201,164.542,140.039,166.738,140.039z"/>
	<path style="fill:#333333;" d="M74.234,211.818l-19.35,19.35c-3.352,3.352-3.352,8.788,0,12.139
		c1.677,1.676,3.874,2.515,6.071,2.515c2.196,0,4.394-0.838,6.071-2.515l19.35-19.35c3.352-3.352,3.352-8.788,0-12.139
		C83.022,208.466,77.588,208.466,74.234,211.818z"/>
	<path style="fill:#333333;" d="M172.808,211.818c-3.354-3.352-8.788-3.352-12.141,0c-3.352,3.352-3.352,8.788,0,12.139l19.35,19.35
		c1.677,1.676,3.874,2.515,6.071,2.515s4.394-0.838,6.071-2.515c3.352-3.352,3.352-8.788,0-12.139L172.808,211.818z"/>
	<path style="fill:#333333;" d="M74.234,137.524c1.677,1.676,3.874,2.515,6.071,2.515s4.394-0.838,6.071-2.515
		c3.352-3.352,3.352-8.788,0-12.139l-19.35-19.35c-3.354-3.352-8.788-3.352-12.141,0s-3.352,8.788,0,12.139L74.234,137.524z"/>
	<path style="fill:#333333;" d="M378.987,211.866c1.677,1.676,3.874,2.515,6.071,2.515c2.196,0,4.394-0.838,6.071-2.515
		c3.352-3.352,3.352-8.788,0-12.139l-9.626-9.626c-3.354-3.352-8.788-3.352-12.141,0c-3.352,3.352-3.352,8.788,0,12.139
		L378.987,211.866z"/>
	<path style="fill:#333333;" d="M326.364,159.242c1.677,1.676,3.874,2.515,6.071,2.515c2.196,0,4.394-0.838,6.071-2.515
		c3.352-3.352,3.352-8.788,0-12.139l-9.626-9.626c-3.354-3.352-8.788-3.352-12.141,0c-3.352,3.352-3.352,8.788,0,12.139
		L326.364,159.242z"/>
	<path style="fill:#333333;" d="M322.808,214.381c2.196,0,4.394-0.838,6.071-2.515l9.626-9.626c3.352-3.352,3.352-8.788,0-12.139
		c-3.354-3.352-8.788-3.352-12.141,0l-9.626,9.626c-3.352,3.352-3.352,8.788,0,12.139
		C318.413,213.542,320.611,214.381,322.808,214.381z"/>
	<path style="fill:#333333;" d="M375.432,161.756c2.196,0,4.394-0.838,6.071-2.515l9.626-9.626c3.352-3.352,3.352-8.788,0-12.139
		c-3.354-3.352-8.788-3.352-12.141,0l-9.626,9.626c-3.352,3.352-3.352,8.788,0,12.139
		C371.038,160.918,373.235,161.756,375.432,161.756z"/>
	<path style="fill:#333333;" d="M337.451,332.387h-207.98c-4.742,0-8.584,3.844-8.584,8.584v54.732c0,4.741,3.842,8.584,8.584,8.584
		h207.98c4.742,0,8.584-3.844,8.584-8.584v-54.732C346.036,336.231,342.193,332.387,337.451,332.387z M328.867,387.119H138.056
		v-37.563h190.811L328.867,387.119L328.867,387.119z"/>
	<path style="fill:#333333;" d="M240.802,312.367c14.2,0,25.752-11.552,25.752-25.753c0-14.2-11.552-25.752-25.752-25.752
		c-14.2,0-25.752,11.552-25.752,25.752C215.05,300.814,226.602,312.367,240.802,312.367z M240.802,278.031
		c4.733,0,8.583,3.85,8.583,8.583s-3.85,8.584-8.583,8.584c-4.733,0-8.583-3.85-8.583-8.584
		C232.218,281.881,236.069,278.031,240.802,278.031z"/>
	<path style="fill:#333333;" d="M302.606,312.367c14.2,0,25.752-11.552,25.752-25.753c0-14.2-11.552-25.752-25.752-25.752
		c-14.2,0-25.752,11.552-25.752,25.752C276.854,300.814,288.406,312.367,302.606,312.367z M302.606,278.031
		c4.733,0,8.583,3.85,8.583,8.583s-3.85,8.584-8.583,8.584s-8.583-3.85-8.583-8.584
		C294.022,281.881,297.873,278.031,302.606,278.031z"/>
	<circle style="fill:#333333;" cx="353.939" cy="174.674" r="8.584"/>
</g>
<g>
	<circle style="fill:#FFFFFF;" cx="365.316" cy="124.679" r="8.584"/>
	<circle style="fill:#FFFFFF;" cx="480.919" cy="270.041" r="8.584"/>
	<circle style="fill:#FFFFFF;" cx="373.901" cy="278.053" r="8.584"/>
	<circle style="fill:#FFFFFF;" cx="314.382" cy="367.33" r="8.584"/>
</g>
<g>
</g>
<g>
</g>
<g>
</g>
<g>
</g>
<g>
</g>
<g>
</g>
<g>
</g>
<g>
</g>
<g>
</g>
<g>
</g>
<g>
</g>
<g>
</g>
<g>
</g>
<g>
</g>
<g>
</g>
</svg>
